<svg width="123" height="38" viewBox="0 0 123 38" fill="none" xmlns="http://www.w3.org/2000/svg">
<path d="M39.4229 28.9912L46.6163 8.35441H51.8344L58.9983 28.9912H54.7825L49.2401 12.128H49.1811L43.5797 28.9912H39.4229ZM42.7542 23.891L43.7861 20.766H54.3108L55.3427 23.891H42.7542ZM61.1885 35.2707V14.3686H64.6672L65.021 16.5796H65.08C65.4141 16.0883 65.8072 15.6559 66.2592 15.2825C66.7309 14.8894 67.2812 14.5848 67.9102 14.3686C68.5391 14.1327 69.2565 14.0148 70.0623 14.0148C71.4577 14.0148 72.6763 14.3489 73.718 15.0171C74.7793 15.6854 75.6146 16.5993 76.2239 17.7589C76.8331 18.8988 77.1378 20.2157 77.1378 21.7094C77.1378 23.1638 76.8331 24.4708 76.2239 25.6304C75.6146 26.79 74.7793 27.7039 73.718 28.3721C72.6566 29.0207 71.4283 29.345 70.0328 29.345C68.9322 29.345 67.9691 29.1386 67.1437 28.7259C66.3378 28.3131 65.6794 27.7628 65.1684 27.0749V35.2707H61.1885ZM69.0894 25.9547C69.8756 25.9547 70.5733 25.7778 71.1826 25.424C71.7919 25.0506 72.2636 24.5494 72.5977 23.9205C72.9318 23.2719 73.0989 22.5348 73.0989 21.7094C73.0989 20.8642 72.9318 20.1272 72.5977 19.4983C72.2636 18.8497 71.7919 18.3387 71.1826 17.9653C70.5733 17.5918 69.8756 17.4051 69.0894 17.4051C68.3033 17.4051 67.6055 17.5918 66.9963 17.9653C66.387 18.3387 65.9153 18.8497 65.5812 19.4983C65.247 20.1272 65.08 20.8544 65.08 21.6799C65.08 22.525 65.247 23.2719 65.5812 23.9205C65.9153 24.5494 66.387 25.0506 66.9963 25.424C67.6055 25.7778 68.3033 25.9547 69.0894 25.9547ZM80.046 35.2707V14.3686H83.5248L83.8786 16.5796H83.9375C84.2717 16.0883 84.6648 15.6559 85.1168 15.2825C85.5885 14.8894 86.1388 14.5848 86.7677 14.3686C87.3967 14.1327 88.114 14.0148 88.9199 14.0148C90.3153 14.0148 91.5339 14.3489 92.5755 15.0171C93.6368 15.6854 94.4721 16.5993 95.0814 17.7589C95.6907 18.8988 95.9953 20.2157 95.9953 21.7094C95.9953 23.1638 95.6907 24.4708 95.0814 25.6304C94.4721 26.79 93.6368 27.7039 92.5755 28.3721C91.5142 29.0207 90.2858 29.345 88.8904 29.345C87.7898 29.345 86.8267 29.1386 86.0012 28.7259C85.1954 28.3131 84.537 27.7628 84.026 27.0749V35.2707H80.046ZM87.947 25.9547C88.7331 25.9547 89.4309 25.7778 90.0401 25.424C90.6494 25.0506 91.1211 24.5494 91.4552 23.9205C91.7894 23.2719 91.9564 22.5348 91.9564 21.7094C91.9564 20.8642 91.7894 20.1272 91.4552 19.4983C91.1211 18.8497 90.6494 18.3387 90.0401 17.9653C89.4309 17.5918 88.7331 17.4051 87.947 17.4051C87.1608 17.4051 86.4631 17.5918 85.8538 17.9653C85.2445 18.3387 84.7728 18.8497 84.4387 19.4983C84.1046 20.1272 83.9375 20.8544 83.9375 21.6799C83.9375 22.525 84.1046 23.2719 84.4387 23.9205C84.7728 24.5494 85.2445 25.0506 85.8538 25.424C86.4631 25.7778 87.1608 25.9547 87.947 25.9547ZM98.9036 28.9912V7.97116H102.884V28.9912H98.9036ZM108.307 35.2707L111.845 27.3403H110.99L105.006 14.3686H109.339L113.614 23.773H113.643L117.447 14.3686H121.692L112.523 35.2707H108.307Z" fill="#170F49"/>
<rect x="0.175415" y="0.410706" width="26.8336" height="37.2354" rx="6.20656" fill="#4A3AFF"/>
<circle cx="13.5926" cy="30.3897" r="2.93826" fill="white"/>
</svg>
