<svg width="384" height="224" viewBox="0 0 384 224" fill="none" xmlns="http://www.w3.org/2000/svg">
<rect x="384" width="224" height="384" rx="12" transform="rotate(90 384 0)" fill="url(#paint0_linear_717_717)"/>
<mask id="mask0_717_717" style="mask-type:alpha" maskUnits="userSpaceOnUse" x="21" y="111" width="52" height="33">
<rect x="21.668" y="111.944" width="50.558" height="31.2304" rx="3.15392" fill="url(#paint1_linear_717_717)"/>
</mask>
<g mask="url(#mask0_717_717)">
<rect x="21.668" y="111.944" width="50.558" height="31.2304" rx="3.15392" fill="url(#paint2_linear_717_717)"/>
<path fill-rule="evenodd" clip-rule="evenodd" d="M33.3413 121.597L21.668 121.597L21.668 121.285L33.468 121.285L38.0993 124.489L38.0993 133.217L34.3823 136.432L21.668 136.432L21.668 136.12L34.2327 136.12L37.7382 133.088L37.7382 124.639L33.3413 121.597Z" fill="#868686"/>
<path fill-rule="evenodd" clip-rule="evenodd" d="M59.6696 117.694L73.1289 117.694L73.1289 117.382L59.5035 117.382L53.9891 122.945L53.9891 133.211L59.5035 138.774L73.1289 138.774L73.1289 138.462L59.6696 138.462L54.3502 133.095L54.3502 123.061L59.6696 117.694Z" fill="#868686"/>
<path fill-rule="evenodd" clip-rule="evenodd" d="M45.4791 116.703L36.1133 110.667L36.33 110.382L45.8569 116.522L45.8569 122.526L54.1697 122.526L54.1697 122.874L45.4791 122.874L45.4791 116.703Z" fill="#868686"/>
<path fill-rule="evenodd" clip-rule="evenodd" d="M37.918 132.996L46.2239 132.996L46.2239 138.696L38.9291 143.427L38.7125 143.177L45.8628 138.54L45.8628 133.309L37.918 133.309L37.918 132.996Z" fill="#868686"/>
<path fill-rule="evenodd" clip-rule="evenodd" d="M54.1699 132.996L45.864 132.996L45.864 138.696L53.1588 143.427L53.3754 143.177L46.2251 138.54L46.2251 133.309L54.1699 133.309L54.1699 132.996Z" fill="#868686"/>
</g>
<rect x="21.9308" y="112.206" width="50.0323" height="30.7048" rx="2.89109" stroke="white" stroke-width="0.525653"/>
<path d="M23.1567 198.175C23.1567 197.328 23.2819 196.591 23.5323 195.963C23.7867 195.331 24.1325 194.806 24.5697 194.388C25.011 193.971 25.5297 193.659 26.1259 193.452C26.7221 193.246 27.3661 193.142 28.0577 193.142C28.3479 193.142 28.642 193.158 28.9401 193.19C29.2422 193.218 29.5383 193.264 29.8285 193.327C30.1187 193.391 30.3989 193.474 30.6692 193.578C30.9434 193.677 31.1978 193.796 31.4323 193.935L30.5917 195.366C30.4168 195.267 30.2299 195.183 30.0312 195.116C29.8364 195.044 29.6337 194.989 29.4231 194.949C29.2124 194.905 28.9997 194.873 28.7851 194.854C28.5704 194.834 28.3598 194.824 28.1531 194.824C27.692 194.824 27.2746 194.883 26.901 195.003C26.5313 195.122 26.2114 195.291 25.9411 195.509C25.6708 195.728 25.4542 195.99 25.2912 196.296C25.1322 196.599 25.0328 196.934 24.9931 197.304C25.1998 197.141 25.4283 197 25.6787 196.881C25.9291 196.761 26.1935 196.664 26.4717 196.589C26.7539 196.509 27.0421 196.451 27.3363 196.416C27.6344 196.376 27.9325 196.356 28.2306 196.356C28.8109 196.356 29.3376 196.426 29.8106 196.565C30.2876 196.704 30.695 196.905 31.0329 197.167C31.3707 197.429 31.6311 197.749 31.8139 198.127C32.0007 198.5 32.0942 198.926 32.0942 199.403C32.0942 199.872 32.0007 200.307 31.8139 200.709C31.6311 201.11 31.3588 201.46 30.9971 201.758C30.6354 202.052 30.1862 202.285 29.6496 202.455C29.113 202.622 28.4909 202.706 27.7834 202.706C27.0958 202.706 26.4677 202.618 25.8993 202.444C25.3309 202.269 24.844 201.996 24.4386 201.627C24.0331 201.257 23.7171 200.788 23.4906 200.22C23.268 199.647 23.1567 198.966 23.1567 198.175ZM25.0348 199.051C25.1302 199.703 25.4164 200.196 25.8934 200.53C26.3704 200.86 26.9964 201.025 27.7715 201.025C28.161 201.025 28.5068 200.985 28.8089 200.905C29.111 200.826 29.3654 200.716 29.5721 200.577C29.7788 200.434 29.9358 200.265 30.0431 200.071C30.1505 199.876 30.2041 199.663 30.2041 199.433C30.2041 199.238 30.1624 199.055 30.0789 198.884C29.9954 198.713 29.8643 198.566 29.6854 198.443C29.5105 198.316 29.2839 198.216 29.0057 198.145C28.7275 198.069 28.3916 198.031 27.9981 198.031C27.6682 198.031 27.3561 198.057 27.062 198.109C26.7678 198.161 26.4956 198.232 26.2452 198.324C25.9947 198.415 25.7662 198.522 25.5595 198.646C25.3568 198.769 25.1819 198.904 25.0348 199.051ZM34.3121 198.926L39.7617 193.256L41.6517 193.256L41.6517 198.926L43.661 198.926L43.661 200.583L41.6517 200.583L41.6517 202.575L39.7617 202.575L39.7617 200.583L34.3002 200.583L34.3121 198.926ZM39.7617 198.926L39.7617 195.647L36.5778 198.926L39.7617 198.926ZM45.5034 198.175C45.5034 197.328 45.6286 196.591 45.879 195.963C46.1334 195.331 46.4792 194.806 46.9164 194.388C47.3576 193.971 47.8763 193.659 48.4726 193.452C49.0688 193.246 49.7127 193.142 50.4044 193.142C50.6945 193.142 50.9887 193.158 51.2868 193.19C51.5889 193.218 51.885 193.264 52.1752 193.327C52.4653 193.391 52.7455 193.474 53.0158 193.578C53.2901 193.677 53.5445 193.796 53.779 193.935L52.9383 195.366C52.7634 195.267 52.5766 195.183 52.3779 195.116C52.1831 195.044 51.9804 194.989 51.7697 194.949C51.5591 194.905 51.3464 194.873 51.1318 194.854C50.9171 194.834 50.7064 194.824 50.4998 194.824C50.0387 194.824 49.6213 194.883 49.2477 195.003C48.878 195.122 48.558 195.291 48.2877 195.509C48.0175 195.728 47.8008 195.99 47.6379 196.296C47.4789 196.599 47.3795 196.934 47.3397 197.304C47.5464 197.141 47.775 197 48.0254 196.881C48.2758 196.761 48.5401 196.664 48.8184 196.589C49.1006 196.509 49.3888 196.451 49.6829 196.416C49.981 196.376 50.2791 196.356 50.5773 196.356C51.1576 196.356 51.6843 196.426 52.1573 196.565C52.6343 196.704 53.0417 196.905 53.3795 197.167C53.7174 197.429 53.9778 197.749 54.1606 198.127C54.3474 198.5 54.4408 198.926 54.4408 199.403C54.4408 199.872 54.3474 200.307 54.1606 200.709C53.9778 201.11 53.7055 201.46 53.3438 201.758C52.9821 202.052 52.5329 202.285 51.9963 202.455C51.4597 202.622 50.8376 202.706 50.1301 202.706C49.4424 202.706 48.8144 202.618 48.246 202.444C47.6776 202.269 47.1907 201.996 46.7852 201.627C46.3798 201.257 46.0638 200.788 45.8372 200.22C45.6146 199.647 45.5034 198.966 45.5034 198.175ZM47.3815 199.051C47.4769 199.703 47.7631 200.196 48.24 200.53C48.717 200.86 49.3431 201.025 50.1182 201.025C50.5077 201.025 50.8535 200.985 51.1556 200.905C51.4577 200.826 51.7121 200.716 51.9188 200.577C52.1255 200.434 52.2825 200.265 52.3898 200.071C52.4971 199.876 52.5508 199.663 52.5508 199.433C52.5508 199.238 52.509 199.055 52.4256 198.884C52.3421 198.713 52.2109 198.566 52.0321 198.443C51.8572 198.316 51.6306 198.216 51.3524 198.145C51.0741 198.069 50.7382 198.031 50.3447 198.031C50.0148 198.031 49.7028 198.057 49.4087 198.109C49.1145 198.161 48.8422 198.232 48.5918 198.324C48.3414 198.415 48.1128 198.522 47.9062 198.646C47.7034 198.769 47.5285 198.904 47.3815 199.051ZM56.6767 198.175C56.6767 197.328 56.8019 196.591 57.0523 195.963C57.3067 195.331 57.6525 194.806 58.0898 194.388C58.531 193.971 59.0497 193.659 59.6459 193.452C60.2421 193.246 60.8861 193.142 61.5777 193.142C61.8679 193.142 62.162 193.158 62.4601 193.19C62.7622 193.218 63.0583 193.264 63.3485 193.327C63.6387 193.391 63.9189 193.474 64.1892 193.578C64.4634 193.677 64.7178 193.796 64.9523 193.935L64.1117 195.366C63.9368 195.267 63.75 195.183 63.5512 195.116C63.3564 195.044 63.1537 194.989 62.9431 194.949C62.7324 194.905 62.5197 194.873 62.3051 194.854C62.0904 194.834 61.8798 194.824 61.6731 194.824C61.212 194.824 60.7946 194.883 60.421 195.003C60.0513 195.122 59.7314 195.291 59.4611 195.509C59.1908 195.728 58.9742 195.99 58.8112 196.296C58.6522 196.599 58.5528 196.934 58.5131 197.304C58.7198 197.141 58.9483 197 59.1987 196.881C59.4492 196.761 59.7135 196.664 59.9917 196.589C60.2739 196.509 60.5621 196.451 60.8563 196.416C61.1544 196.376 61.4525 196.356 61.7506 196.356C62.3309 196.356 62.8576 196.426 63.3306 196.565C63.8076 196.704 64.215 196.905 64.5529 197.167C64.8907 197.429 65.1511 197.749 65.3339 198.127C65.5208 198.5 65.6142 198.926 65.6142 199.403C65.6142 199.872 65.5208 200.307 65.3339 200.709C65.1511 201.11 64.8788 201.46 64.5171 201.758C64.1554 202.052 63.7062 202.285 63.1696 202.455C62.633 202.622 62.011 202.706 61.3034 202.706C60.6158 202.706 59.9877 202.618 59.4193 202.444C58.8509 202.269 58.364 201.996 57.9586 201.627C57.5531 201.257 57.2371 200.788 57.0106 200.22C56.788 199.647 56.6767 198.966 56.6767 198.175ZM58.5548 199.051C58.6502 199.703 58.9364 200.196 59.4134 200.53C59.8904 200.86 60.5164 201.025 61.2915 201.025C61.681 201.025 62.0269 200.985 62.3289 200.905C62.631 200.826 62.8854 200.716 63.0921 200.577C63.2988 200.434 63.4558 200.265 63.5631 200.071C63.6705 199.876 63.7241 199.663 63.7241 199.433C63.7241 199.238 63.6824 199.055 63.5989 198.884C63.5154 198.713 63.3843 198.566 63.2054 198.443C63.0305 198.316 62.8039 198.216 62.5257 198.145C62.2475 198.069 61.9116 198.031 61.5181 198.031C61.1882 198.031 60.8761 198.057 60.582 198.109C60.2878 198.161 60.0156 198.232 59.7652 198.324C59.5147 198.415 59.2862 198.522 59.0795 198.646C58.8768 198.769 58.7019 198.904 58.5548 199.051ZM67.6294 199.737C67.6294 199.458 67.6672 199.2 67.7427 198.962C67.8182 198.723 67.9216 198.506 68.0527 198.312C68.1839 198.113 68.335 197.938 68.5059 197.787C68.6808 197.632 68.8676 197.497 69.0663 197.382C68.7921 197.111 68.5933 196.843 68.4701 196.577C68.3469 196.306 68.2853 196.048 68.2853 195.802C68.2853 195.408 68.3767 195.048 68.5595 194.722C68.7464 194.396 69.0127 194.116 69.3585 193.882C69.7043 193.643 70.1236 193.46 70.6165 193.333C71.1094 193.202 71.6639 193.136 72.28 193.136C72.8961 193.136 73.4506 193.202 73.9435 193.333C74.4364 193.46 74.8557 193.643 75.2015 193.882C75.5473 194.116 75.8117 194.396 75.9945 194.722C76.1813 195.048 76.2747 195.408 76.2747 195.802C76.2747 196.048 76.2131 196.306 76.0899 196.577C75.9667 196.843 75.7679 197.111 75.4937 197.382C75.6884 197.497 75.8733 197.632 76.0482 197.787C76.2231 197.938 76.3761 198.113 76.5073 198.312C76.6384 198.506 76.7418 198.723 76.8173 198.962C76.8928 199.2 76.9306 199.458 76.9306 199.737C76.9306 200.202 76.8213 200.619 76.6027 200.989C76.388 201.354 76.078 201.664 75.6725 201.919C75.2711 202.169 74.7822 202.362 74.2058 202.497C73.6334 202.632 72.9915 202.7 72.28 202.7C71.5685 202.7 70.9246 202.632 70.3482 202.497C69.7758 202.362 69.2869 202.169 68.8815 201.919C68.48 201.664 68.17 201.354 67.9514 200.989C67.7367 200.619 67.6294 200.202 67.6294 199.737ZM70.1753 195.885C70.1753 196.032 70.2111 196.171 70.2826 196.302C70.3582 196.43 70.4774 196.543 70.6404 196.642C70.8073 196.738 71.0239 196.813 71.2903 196.869C71.5606 196.924 71.8905 196.952 72.28 196.952C72.6695 196.952 72.9975 196.924 73.2638 196.869C73.5341 196.813 73.7507 196.738 73.9137 196.642C74.0806 196.543 74.1999 196.43 74.2714 196.302C74.3469 196.171 74.3847 196.032 74.3847 195.885C74.3847 195.738 74.3469 195.601 74.2714 195.474C74.1999 195.342 74.0806 195.229 73.9137 195.134C73.7507 195.034 73.5341 194.957 73.2638 194.901C72.9975 194.846 72.6695 194.818 72.28 194.818C71.8905 194.818 71.5606 194.846 71.2903 194.901C71.0239 194.957 70.8073 195.034 70.6404 195.134C70.4774 195.229 70.3582 195.342 70.2826 195.474C70.2111 195.601 70.1753 195.738 70.1753 195.885ZM69.5195 199.647C69.5195 199.85 69.5771 200.037 69.6924 200.208C69.8116 200.375 69.9865 200.518 70.2171 200.637C70.4476 200.756 70.7358 200.85 71.0816 200.917C71.4274 200.985 71.8269 201.019 72.28 201.019C72.7331 201.019 73.1326 200.985 73.4784 200.917C73.8242 200.85 74.1124 200.756 74.343 200.637C74.5735 200.518 74.7464 200.375 74.8617 200.208C74.9809 200.037 75.0405 199.85 75.0405 199.647C75.0405 199.445 74.9829 199.26 74.8676 199.093C74.7563 198.922 74.5854 198.777 74.3549 198.657C74.1283 198.538 73.8421 198.445 73.4963 198.377C73.1505 198.31 72.7451 198.276 72.28 198.276C71.8149 198.276 71.4095 198.31 71.0637 198.377C70.7179 198.445 70.4297 198.538 70.1992 198.657C69.9726 198.777 69.8017 198.922 69.6864 199.093C69.5751 199.26 69.5195 199.445 69.5195 199.647ZM80.341 200.422C80.5119 200.522 80.7027 200.609 80.9134 200.685C81.1241 200.76 81.3407 200.824 81.5633 200.875C81.7899 200.923 82.0164 200.961 82.243 200.989C82.4735 201.013 82.6921 201.025 82.8988 201.025C83.3599 201.025 83.7753 200.965 84.145 200.846C84.5186 200.726 84.8406 200.557 85.1109 200.339C85.3811 200.12 85.5958 199.86 85.7548 199.558C85.9177 199.252 86.0191 198.914 86.0589 198.544C85.8522 198.707 85.6236 198.848 85.3732 198.968C85.1228 199.087 84.8565 199.186 84.5742 199.266C84.296 199.341 84.0078 199.399 83.7097 199.439C83.4156 199.474 83.1194 199.492 82.8213 199.492C82.241 199.492 81.7123 199.423 81.2354 199.284C80.7624 199.144 80.3569 198.944 80.0191 198.681C79.6812 198.419 79.4189 198.101 79.232 197.727C79.0492 197.35 78.9578 196.922 78.9578 196.445C78.9578 195.976 79.0492 195.541 79.232 195.14C79.4189 194.738 79.6931 194.39 80.0548 194.096C80.4165 193.798 80.8657 193.566 81.4023 193.399C81.9389 193.228 82.561 193.142 83.2685 193.142C83.9562 193.142 84.5842 193.23 85.1526 193.405C85.721 193.58 86.2079 193.852 86.6133 194.222C87.0188 194.591 87.3328 195.062 87.5554 195.635C87.782 196.203 87.8952 196.883 87.8952 197.674C87.8952 198.52 87.768 199.26 87.5137 199.892C87.2632 200.52 86.9174 201.042 86.4762 201.46C86.039 201.877 85.5223 202.189 84.926 202.396C84.3298 202.603 83.6859 202.706 82.9942 202.706C82.7041 202.706 82.402 202.688 82.088 202.652C81.7779 202.616 81.4699 202.563 81.1638 202.491C80.8578 202.42 80.5616 202.33 80.2754 202.223C79.9932 202.116 79.7349 201.992 79.5003 201.853L80.341 200.422ZM80.8478 196.416C80.8478 196.61 80.8896 196.793 80.973 196.964C81.0565 197.135 81.1857 197.284 81.3606 197.411C81.5394 197.535 81.768 197.634 82.0462 197.709C82.3245 197.781 82.6604 197.817 83.0539 197.817C83.3838 197.817 83.6958 197.791 83.9899 197.739C84.2841 197.688 84.5564 197.616 84.8068 197.525C85.0572 197.433 85.2838 197.326 85.4865 197.203C85.6932 197.079 85.8701 196.944 86.0171 196.797C85.9217 196.145 85.6355 195.654 85.1586 195.325C84.6816 194.991 84.0555 194.824 83.2804 194.824C82.8909 194.824 82.5451 194.863 82.243 194.943C81.9409 195.022 81.6865 195.134 81.4798 195.277C81.2731 195.416 81.1161 195.583 81.0088 195.778C80.9015 195.972 80.8478 196.185 80.8478 196.416ZM89.8091 197.894C89.8091 197.143 89.9224 196.469 90.149 195.873C90.3756 195.277 90.6975 194.772 91.1149 194.359C91.5322 193.941 92.039 193.623 92.6353 193.405C93.2315 193.186 93.8993 193.077 94.6386 193.077C95.3779 193.077 96.0457 193.186 96.6419 193.405C97.2382 193.623 97.745 193.941 98.1623 194.359C98.5797 194.772 98.9016 195.277 99.1282 195.873C99.3548 196.469 99.4681 197.143 99.4681 197.894C99.4681 198.646 99.3548 199.319 99.1282 199.916C98.9016 200.512 98.5797 201.017 98.1623 201.43C97.745 201.843 97.2382 202.159 96.6419 202.378C96.0457 202.597 95.3779 202.706 94.6386 202.706C93.8993 202.706 93.2315 202.597 92.6353 202.378C92.039 202.159 91.5322 201.843 91.1149 201.43C90.6975 201.017 90.3756 200.512 90.149 199.916C89.9224 199.319 89.8091 198.646 89.8091 197.894ZM91.6992 197.888C91.6992 198.397 91.7668 198.846 91.9019 199.236C92.041 199.625 92.2378 199.953 92.4922 200.22C92.7466 200.482 93.0546 200.683 93.4163 200.822C93.778 200.957 94.1855 201.025 94.6386 201.025C95.0917 201.025 95.4992 200.957 95.8609 200.822C96.2226 200.683 96.5306 200.482 96.785 200.22C97.0394 199.953 97.2342 199.625 97.3693 199.236C97.5084 198.846 97.578 198.397 97.578 197.888C97.578 197.384 97.5084 196.938 97.3693 196.553C97.2342 196.163 97.0394 195.835 96.785 195.569C96.5306 195.303 96.2226 195.102 95.8609 194.967C95.4992 194.828 95.0917 194.758 94.6386 194.758C94.1855 194.758 93.778 194.828 93.4163 194.967C93.0546 195.102 92.7466 195.303 92.4922 195.569C92.2378 195.835 92.041 196.163 91.9019 196.553C91.7668 196.938 91.6992 197.384 91.6992 197.888ZM101.561 200.953L104.846 198.699C105.339 198.361 105.742 198.067 106.056 197.817C106.37 197.566 106.617 197.344 106.796 197.149C106.975 196.95 107.098 196.771 107.165 196.612C107.233 196.453 107.267 196.294 107.267 196.135C107.267 195.953 107.229 195.782 107.153 195.623C107.078 195.464 106.959 195.325 106.796 195.205C106.637 195.086 106.43 194.993 106.176 194.925C105.925 194.858 105.625 194.824 105.275 194.824C104.767 194.824 104.26 194.895 103.755 195.038C103.25 195.181 102.735 195.41 102.211 195.724L101.34 194.293C101.925 193.931 102.557 193.649 103.236 193.446C103.92 193.244 104.637 193.142 105.389 193.142C106.044 193.142 106.613 193.222 107.094 193.381C107.579 193.536 107.978 193.749 108.292 194.019C108.61 194.289 108.847 194.603 109.002 194.961C109.157 195.319 109.234 195.698 109.234 196.1C109.234 196.41 109.183 196.706 109.079 196.988C108.976 197.27 108.795 197.562 108.537 197.865C108.278 198.167 107.929 198.493 107.487 198.842C107.05 199.188 106.498 199.582 105.83 200.023L104.47 200.917L109.574 200.917L109.574 202.575L101.561 202.575L101.561 200.953Z" fill="#D9D9D9"/>
<path opacity="0.5" d="M313.308 28.3752L312.352 28.3752C312.296 28.1003 312.197 27.8587 312.055 27.6506C311.917 27.4425 311.747 27.2677 311.546 27.1264C311.349 26.9825 311.129 26.8746 310.887 26.8026C310.646 26.7307 310.394 26.6947 310.132 26.6947C309.654 26.6947 309.221 26.8155 308.833 27.057C308.448 27.2986 308.14 27.6545 307.912 28.1247C307.686 28.5949 307.573 29.1718 307.573 29.8553C307.573 30.5388 307.686 31.1157 307.912 31.586C308.14 32.0562 308.448 32.4121 308.833 32.6536C309.221 32.8952 309.654 33.0159 310.132 33.0159C310.394 33.0159 310.646 32.98 310.887 32.908C311.129 32.8361 311.349 32.7294 311.546 32.5881C311.747 32.4442 311.917 32.2682 312.055 32.0601C312.197 31.8493 312.296 31.6078 312.352 31.3354L313.308 31.3354C313.236 31.7389 313.105 32.0999 312.915 32.4185C312.725 32.7371 312.488 33.0082 312.206 33.2318C311.923 33.4528 311.606 33.6211 311.254 33.7367C310.904 33.8524 310.53 33.9102 310.132 33.9102C309.459 33.9102 308.86 33.7457 308.336 33.4168C307.812 33.0879 307.399 32.6202 307.099 32.0138C306.798 31.4074 306.648 30.6879 306.648 29.8553C306.648 29.0228 306.798 28.3033 307.099 27.6969C307.399 27.0904 307.812 26.6228 308.336 26.2939C308.86 25.9649 309.459 25.8005 310.132 25.8005C310.53 25.8005 310.904 25.8583 311.254 25.9739C311.606 26.0896 311.923 26.2592 312.206 26.4827C312.488 26.7037 312.725 26.9735 312.915 27.2921C313.105 27.6082 313.236 27.9692 313.308 28.3752ZM314.729 33.8022L314.729 27.8819L315.608 27.8819L315.608 28.7761L315.67 28.7761C315.778 28.4832 315.973 28.2455 316.256 28.063C316.538 27.8806 316.857 27.7894 317.212 27.7894C317.278 27.7894 317.362 27.7907 317.462 27.7932C317.562 27.7958 317.638 27.7996 317.689 27.8048L317.689 28.7298C317.659 28.7221 317.588 28.7106 317.477 28.6952C317.37 28.6772 317.255 28.6682 317.134 28.6682C316.847 28.6682 316.59 28.7286 316.364 28.8493C316.14 28.9675 315.963 29.132 315.832 29.3427C315.703 29.5508 315.639 29.7885 315.639 30.0558L315.639 33.8022L314.729 33.8022ZM321.07 33.9256C320.499 33.9256 320.007 33.7997 319.594 33.5479C319.182 33.2935 318.865 32.9389 318.642 32.484C318.421 32.0266 318.31 31.4947 318.31 30.8883C318.31 30.2819 318.421 29.7474 318.642 29.2849C318.865 28.8198 319.176 28.4575 319.574 28.1979C319.975 27.9358 320.443 27.8048 320.977 27.8048C321.286 27.8048 321.59 27.8562 321.891 27.959C322.191 28.0617 322.465 28.2288 322.712 28.46C322.958 28.6887 323.155 28.9919 323.301 29.3697C323.448 29.7474 323.521 30.2125 323.521 30.765L323.521 31.1504L318.958 31.1504L318.958 30.3641L322.596 30.3641C322.596 30.0301 322.529 29.732 322.396 29.4699C322.265 29.2078 322.077 29.0009 321.833 28.8493C321.591 28.6977 321.306 28.6219 320.977 28.6219C320.615 28.6219 320.301 28.7119 320.037 28.8917C319.775 29.069 319.573 29.3003 319.432 29.5855C319.29 29.8707 319.22 30.1765 319.22 30.5029L319.22 31.0271C319.22 31.4742 319.297 31.8532 319.451 32.1641C319.608 32.4725 319.825 32.7076 320.102 32.8695C320.38 33.0288 320.702 33.1085 321.07 33.1085C321.309 33.1085 321.525 33.075 321.717 33.0082C321.913 32.9389 322.081 32.8361 322.222 32.6999C322.364 32.5611 322.473 32.389 322.55 32.1834L323.429 32.4301C323.336 32.7282 323.181 32.9903 322.962 33.2164C322.744 33.4399 322.474 33.6147 322.153 33.7406C321.832 33.8639 321.471 33.9256 321.07 33.9256ZM327.14 33.9256C326.647 33.9256 326.212 33.801 325.834 33.5517C325.456 33.2999 325.161 32.9453 324.947 32.4879C324.734 32.0279 324.627 31.4845 324.627 30.8575C324.627 30.2356 324.734 29.696 324.947 29.2386C325.161 28.7812 325.457 28.4279 325.838 28.1787C326.218 27.9294 326.657 27.8048 327.156 27.8048C327.541 27.8048 327.846 27.869 328.069 27.9975C328.296 28.1234 328.468 28.2673 328.586 28.4292C328.707 28.5885 328.8 28.7196 328.867 28.8223L328.944 28.8223L328.944 25.9084L329.854 25.9084L329.854 33.8022L328.975 33.8022L328.975 32.8926L328.867 32.8926C328.8 33.0005 328.705 33.1367 328.582 33.3012C328.459 33.4631 328.283 33.6082 328.054 33.7367C327.825 33.8626 327.521 33.9256 327.14 33.9256ZM327.264 33.1085C327.629 33.1085 327.937 33.0134 328.189 32.8232C328.441 32.6305 328.632 32.3646 328.763 32.0254C328.894 31.6836 328.96 31.2892 328.96 30.8421C328.96 30.4001 328.896 30.0134 328.767 29.6819C328.639 29.3478 328.448 29.0883 328.197 28.9033C327.945 28.7157 327.634 28.6219 327.264 28.6219C326.878 28.6219 326.557 28.7208 326.3 28.9187C326.046 29.114 325.854 29.38 325.726 29.7166C325.6 30.0506 325.537 30.4258 325.537 30.8421C325.537 31.2635 325.601 31.6463 325.73 31.9907C325.861 32.3324 326.054 32.6048 326.308 32.8078C326.565 33.0082 326.884 33.1085 327.264 33.1085ZM331.646 33.8022L331.646 27.8819L332.556 27.8819L332.556 33.8022L331.646 33.8022ZM332.109 26.8951C331.932 26.8951 331.779 26.8348 331.65 26.714C331.524 26.5932 331.461 26.448 331.461 26.2784C331.461 26.1088 331.524 25.9637 331.65 25.8429C331.779 25.7221 331.932 25.6617 332.109 25.6617C332.286 25.6617 332.438 25.7221 332.564 25.8429C332.692 25.9637 332.756 26.1088 332.756 26.2784C332.756 26.448 332.692 26.5932 332.564 26.714C332.438 26.8348 332.286 26.8951 332.109 26.8951ZM336.797 27.8819L336.797 28.6528L333.729 28.6528L333.729 27.8819L336.797 27.8819ZM334.623 26.4634L335.532 26.4634L335.532 32.1063C335.532 32.3633 335.57 32.556 335.644 32.6845C335.721 32.8104 335.819 32.8952 335.937 32.9389C336.058 32.98 336.185 33.0005 336.319 33.0005C336.419 33.0005 336.501 32.9954 336.565 32.9851C336.63 32.9723 336.681 32.962 336.72 32.9543L336.905 33.7714C336.843 33.7945 336.757 33.8177 336.646 33.8408C336.536 33.8665 336.396 33.8793 336.226 33.8793C335.969 33.8793 335.718 33.8241 335.471 33.7136C335.227 33.6031 335.024 33.4348 334.862 33.2087C334.703 32.9825 334.623 32.6973 334.623 32.353L334.623 26.4634ZM347.693 28.3752L346.737 28.3752C346.681 28.1003 346.582 27.8587 346.44 27.6506C346.302 27.4425 346.132 27.2677 345.932 27.1264C345.734 26.9825 345.514 26.8746 345.273 26.8026C345.031 26.7307 344.779 26.6947 344.517 26.6947C344.039 26.6947 343.606 26.8155 343.218 27.057C342.833 27.2986 342.526 27.6545 342.297 28.1247C342.071 28.5949 341.958 29.1718 341.958 29.8553C341.958 30.5388 342.071 31.1157 342.297 31.586C342.526 32.0562 342.833 32.4121 343.218 32.6536C343.606 32.8952 344.039 33.0159 344.517 33.0159C344.779 33.0159 345.031 32.98 345.273 32.908C345.514 32.8361 345.734 32.7294 345.932 32.5881C346.132 32.4442 346.302 32.2682 346.44 32.0601C346.582 31.8493 346.681 31.6078 346.737 31.3354L347.693 31.3354C347.621 31.7389 347.49 32.0999 347.3 32.4185C347.11 32.7371 346.873 33.0082 346.591 33.2318C346.308 33.4528 345.991 33.6211 345.639 33.7367C345.289 33.8524 344.915 33.9102 344.517 33.9102C343.844 33.9102 343.245 33.7457 342.721 33.4168C342.197 33.0879 341.784 32.6202 341.484 32.0138C341.183 31.4074 341.033 30.6879 341.033 29.8553C341.033 29.0228 341.183 28.3033 341.484 27.6969C341.784 27.0904 342.197 26.6228 342.721 26.2939C343.245 25.9649 343.844 25.8005 344.517 25.8005C344.915 25.8005 345.289 25.8583 345.639 25.9739C345.991 26.0896 346.308 26.2592 346.591 26.4827C346.873 26.7037 347.11 26.9735 347.3 27.2921C347.49 27.6082 347.621 27.9692 347.693 28.3752ZM350.857 33.941C350.482 33.941 350.141 33.8703 349.835 33.729C349.529 33.5851 349.287 33.3783 349.107 33.1085C348.927 32.8361 348.837 32.5072 348.837 32.1217C348.837 31.7825 348.904 31.5076 349.037 31.2969C349.171 31.0836 349.35 30.9166 349.573 30.7958C349.797 30.675 350.043 30.5851 350.313 30.526C350.586 30.4643 350.859 30.4155 351.134 30.3795C351.494 30.3333 351.786 30.2986 352.009 30.2755C352.235 30.2498 352.4 30.2074 352.503 30.1483C352.608 30.0892 352.661 29.9864 352.661 29.8399L352.661 29.8091C352.661 29.4288 352.556 29.1333 352.348 28.9226C352.143 28.7119 351.831 28.6065 351.412 28.6065C350.977 28.6065 350.637 28.7016 350.39 28.8917C350.144 29.0819 349.97 29.2849 349.87 29.5007L349.007 29.1924C349.161 28.8326 349.366 28.5525 349.623 28.3521C349.883 28.1491 350.165 28.0078 350.471 27.9281C350.78 27.8459 351.083 27.8048 351.381 27.8048C351.571 27.8048 351.789 27.8279 352.036 27.8742C352.285 27.9178 352.526 28.0091 352.757 28.1478C352.991 28.2866 353.185 28.496 353.339 28.7761C353.493 29.0562 353.57 29.4313 353.57 29.9016L353.57 33.8022L352.661 33.8022L352.661 33.0005L352.614 33.0005C352.553 33.129 352.45 33.2665 352.306 33.413C352.162 33.5594 351.971 33.684 351.732 33.7868C351.493 33.8896 351.201 33.941 350.857 33.941ZM350.995 33.1239C351.355 33.1239 351.658 33.0532 351.905 32.9119C352.154 32.7706 352.342 32.5881 352.468 32.3646C352.596 32.141 352.661 31.9059 352.661 31.6592L352.661 30.8266C352.622 30.8729 352.537 30.9153 352.406 30.9538C352.278 30.9898 352.129 31.0219 351.959 31.0502C351.792 31.0759 351.629 31.099 351.47 31.1196C351.313 31.1376 351.186 31.153 351.088 31.1658C350.852 31.1967 350.631 31.2468 350.425 31.3162C350.222 31.383 350.058 31.4845 349.932 31.6207C349.808 31.7543 349.747 31.9367 349.747 32.168C349.747 32.484 349.864 32.723 350.097 32.8849C350.334 33.0442 350.633 33.1239 350.995 33.1239ZM355.23 33.8022L355.23 27.8819L356.109 27.8819L356.109 28.7761L356.171 28.7761C356.279 28.4832 356.474 28.2455 356.757 28.063C357.039 27.8806 357.358 27.7894 357.713 27.7894C357.78 27.7894 357.863 27.7907 357.963 27.7932C358.063 27.7958 358.139 27.7996 358.191 27.8048L358.191 28.7298C358.16 28.7221 358.089 28.7106 357.979 28.6952C357.871 28.6772 357.756 28.6682 357.636 28.6682C357.348 28.6682 357.091 28.7286 356.865 28.8493C356.641 28.9675 356.464 29.132 356.333 29.3427C356.204 29.5508 356.14 29.7885 356.14 30.0558L356.14 33.8022L355.23 33.8022ZM361.324 33.9256C360.831 33.9256 360.395 33.801 360.018 33.5517C359.64 33.2999 359.344 32.9453 359.131 32.4879C358.918 32.0279 358.811 31.4845 358.811 30.8575C358.811 30.2356 358.918 29.696 359.131 29.2386C359.344 28.7812 359.641 28.4279 360.021 28.1787C360.402 27.9294 360.841 27.8048 361.34 27.8048C361.725 27.8048 362.03 27.869 362.253 27.9975C362.479 28.1234 362.651 28.2673 362.77 28.4292C362.89 28.5885 362.984 28.7196 363.051 28.8223L363.128 28.8223L363.128 25.9084L364.038 25.9084L364.038 33.8022L363.159 33.8022L363.159 32.8926L363.051 32.8926C362.984 33.0005 362.889 33.1367 362.766 33.3012C362.642 33.4631 362.466 33.6082 362.238 33.7367C362.009 33.8626 361.705 33.9256 361.324 33.9256ZM361.448 33.1085C361.813 33.1085 362.121 33.0134 362.373 32.8232C362.625 32.6305 362.816 32.3646 362.947 32.0254C363.078 31.6836 363.144 31.2892 363.144 30.8421C363.144 30.4001 363.079 30.0134 362.951 29.6819C362.822 29.3478 362.632 29.0883 362.38 28.9033C362.129 28.7157 361.818 28.6219 361.448 28.6219C361.062 28.6219 360.741 28.7209 360.484 28.9187C360.23 29.114 360.038 29.38 359.91 29.7166C359.784 30.0506 359.721 30.4258 359.721 30.8421C359.721 31.2635 359.785 31.6463 359.914 31.9907C360.045 32.3324 360.237 32.6048 360.492 32.8078C360.749 33.0082 361.067 33.1085 361.448 33.1085Z" fill="white"/>
<rect x="22.5" y="17.5562" width="94" height="24" rx="12" stroke="#DBDBDB" stroke-opacity="0.4"/>
<path d="M34.2775 25.1623L35.3722 25.1623L37.5615 28.8471L37.654 28.8471L39.8433 25.1623L40.9379 25.1623L38.0857 29.803L38.0857 33.0562L37.1298 33.0562L37.1298 29.803L34.2775 25.1623ZM48.4637 29.1092C48.4637 29.9418 48.3134 30.6613 48.0127 31.2677C47.7121 31.8741 47.2996 32.3418 46.7754 32.6707C46.2512 32.9996 45.6525 33.1641 44.9793 33.1641C44.3061 33.1641 43.7073 32.9996 43.1831 32.6707C42.6589 32.3418 42.2465 31.8741 41.9459 31.2677C41.6452 30.6613 41.4949 29.9418 41.4949 29.1092C41.4949 28.2767 41.6452 27.5572 41.9459 26.9508C42.2465 26.3443 42.6589 25.8767 43.1831 25.5478C43.7073 25.2189 44.3061 25.0544 44.9793 25.0544C45.6525 25.0544 46.2512 25.2189 46.7754 25.5478C47.2996 25.8767 47.7121 26.3443 48.0127 26.9508C48.3134 27.5572 48.4637 28.2767 48.4637 29.1092ZM47.5386 29.1092C47.5386 28.4257 47.4243 27.8488 47.1956 27.3786C46.9694 26.9084 46.6624 26.5525 46.2744 26.3109C45.8889 26.0694 45.4572 25.9486 44.9793 25.9486C44.5013 25.9486 44.0684 26.0694 43.6804 26.3109C43.2949 26.5525 42.9878 26.9084 42.7591 27.3786C42.533 27.8488 42.42 28.4257 42.42 29.1092C42.42 29.7928 42.533 30.3696 42.7591 30.8399C42.9878 31.3101 43.2949 31.666 43.6804 31.9075C44.0684 32.1491 44.5013 32.2699 44.9793 32.2699C45.4572 32.2699 45.8889 32.1491 46.2744 31.9075C46.6624 31.666 46.9694 31.3101 47.1956 30.8399C47.4243 30.3696 47.5386 29.7928 47.5386 29.1092ZM55.2513 25.1623L56.2072 25.1623L56.2072 30.3889C56.2072 30.9285 56.08 31.4103 55.8256 31.8343C55.5738 32.2557 55.2179 32.5885 54.7579 32.8326C54.298 33.0741 53.7583 33.1949 53.1391 33.1949C52.5198 33.1949 51.9802 33.0741 51.5202 32.8326C51.0603 32.5885 50.7031 32.2557 50.4487 31.8343C50.1969 31.4103 50.071 30.9285 50.071 30.3889L50.071 25.1623L51.0269 25.1623L51.0269 30.3118C51.0269 30.6973 51.1117 31.0403 51.2812 31.3409C51.4508 31.639 51.6924 31.8741 52.0059 32.0463C52.3219 32.2159 52.6997 32.3007 53.1391 32.3007C53.5785 32.3007 53.9562 32.2159 54.2723 32.0463C54.5883 31.8741 54.8299 31.639 54.9969 31.3409C55.1665 31.0403 55.2513 30.6973 55.2513 30.3118L55.2513 25.1623ZM58.1161 33.0562L58.1161 25.1623L60.7833 25.1623C61.4 25.1623 61.9063 25.2677 62.302 25.4784C62.6977 25.6865 62.9906 25.973 63.1808 26.3379C63.3709 26.7028 63.466 27.1178 63.466 27.5829C63.466 28.048 63.3709 28.4604 63.1808 28.8202C62.9906 29.1799 62.699 29.4626 62.3058 29.6681C61.9127 29.8711 61.4103 29.9726 60.7988 29.9726L58.6403 29.9726L58.6403 29.1092L60.7679 29.1092C61.1893 29.1092 61.5285 29.0476 61.7855 28.9242C62.045 28.8009 62.2326 28.6262 62.3482 28.4C62.4664 28.1713 62.5255 27.899 62.5255 27.5829C62.5255 27.2668 62.4664 26.9906 62.3482 26.7542C62.23 26.5178 62.0412 26.3353 61.7816 26.2069C61.5221 26.0758 61.1791 26.0103 60.7525 26.0103L59.072 26.0103L59.072 33.0562L58.1161 33.0562ZM61.8317 29.5101L63.7744 33.0562L62.6643 33.0562L60.7525 29.5101L61.8317 29.5101ZM68.1115 33.0562L68.1115 25.1623L70.8713 25.1623C71.4212 25.1623 71.8747 25.2574 72.2319 25.4475C72.5891 25.6351 72.855 25.8882 73.0298 26.2069C73.2045 26.5229 73.2919 26.8737 73.2919 27.2591C73.2919 27.5983 73.2315 27.8784 73.1107 28.0994C72.9925 28.3204 72.8358 28.4951 72.6405 28.6236C72.4477 28.7521 72.2383 28.8471 72.0122 28.9088L72.0122 28.9859C72.2537 29.0013 72.4966 29.0861 72.7407 29.2403C72.9848 29.3945 73.1891 29.6155 73.3535 29.9032C73.518 30.191 73.6002 30.5431 73.6002 30.9594C73.6002 31.3551 73.5103 31.711 73.3304 32.027C73.1505 32.3431 72.8666 32.5936 72.4786 32.7786C72.0906 32.9636 71.5856 33.0562 70.9638 33.0562L68.1115 33.0562ZM69.0674 32.2082L70.9638 32.2082C71.5882 32.2082 72.0315 32.0874 72.2936 31.8459C72.5582 31.6018 72.6906 31.3063 72.6906 30.9594C72.6906 30.6921 72.6225 30.4454 72.4863 30.2193C72.3501 29.9906 72.1561 29.8082 71.9043 29.672C71.6525 29.5332 71.3544 29.4638 71.0101 29.4638L69.0674 29.4638L69.0674 32.2082ZM69.0674 28.6313L70.8405 28.6313C71.1283 28.6313 71.3878 28.5748 71.619 28.4617C71.8529 28.3486 72.0379 28.1893 72.1741 27.9837C72.3128 27.7782 72.3822 27.5366 72.3822 27.2591C72.3822 26.9122 72.2614 26.618 72.0199 26.3765C71.7784 26.1323 71.3955 26.0103 70.8713 26.0103L69.0674 26.0103L69.0674 28.6313ZM75.1709 33.0562L75.1709 25.1623L77.8381 25.1623C78.4548 25.1623 78.9611 25.2677 79.3568 25.4784C79.7525 25.6865 80.0454 25.973 80.2356 26.3379C80.4257 26.7028 80.5208 27.1178 80.5208 27.5829C80.5208 28.048 80.4257 28.4604 80.2356 28.8202C80.0454 29.1799 79.7538 29.4626 79.3606 29.6681C78.9675 29.8711 78.4651 29.9726 77.8536 29.9726L75.6951 29.9726L75.6951 29.1092L77.8227 29.1092C78.2441 29.1092 78.5833 29.0476 78.8403 28.9242C79.0998 28.8009 79.2874 28.6262 79.403 28.4C79.5212 28.1713 79.5803 27.899 79.5803 27.5829C79.5803 27.2668 79.5212 26.9906 79.403 26.7542C79.2848 26.5178 79.096 26.3353 78.8364 26.2069C78.5769 26.0758 78.2339 26.0103 77.8073 26.0103L76.1268 26.0103L76.1268 33.0562L75.1709 33.0562ZM78.8865 29.5101L80.8292 33.0562L79.7191 33.0562L77.8073 29.5101L78.8865 29.5101ZM82.4374 33.0562L81.4353 33.0562L84.3338 25.1623L85.3205 25.1623L88.219 33.0562L87.2169 33.0562L84.858 26.4112L84.7963 26.4112L82.4374 33.0562ZM82.8074 29.9726L86.8469 29.9726L86.8469 30.8206L82.8074 30.8206L82.8074 29.9726ZM95.7081 25.1623L95.7081 33.0562L94.7831 33.0562L90.4816 26.8583L90.4045 26.8583L90.4045 33.0562L89.4486 33.0562L89.4486 25.1623L90.3736 25.1623L94.6906 31.3756L94.7677 31.3756L94.7677 25.1623L95.7081 25.1623ZM100.057 33.0562L97.6209 33.0562L97.6209 25.1623L100.165 25.1623C100.931 25.1623 101.586 25.3204 102.131 25.6364C102.675 25.9499 103.093 26.4009 103.383 26.9893C103.674 27.5752 103.819 28.2767 103.819 29.0938C103.819 29.9161 103.672 30.624 103.379 31.2176C103.086 31.8086 102.66 32.2634 102.1 32.5821C101.54 32.8981 100.859 33.0562 100.057 33.0562ZM98.5768 32.2082L99.9952 32.2082C100.648 32.2082 101.189 32.0823 101.618 31.8305C102.047 31.5786 102.367 31.2202 102.578 30.7551C102.788 30.29 102.894 29.7362 102.894 29.0938C102.894 28.4566 102.79 27.9079 102.582 27.448C102.373 26.9855 102.062 26.6309 101.649 26.3842C101.235 26.1349 100.72 26.0103 100.103 26.0103L98.5768 26.0103L98.5768 32.2082Z" fill="white"/>
<path d="M358.436 197.903C357.234 198.27 355.564 198.088 354.498 196.491L353.802 195.446L353.2 194.543L354.498 192.597C355.562 191 357.225 190.815 358.436 191.184C359.642 191.548 360.93 192.623 360.93 194.544C360.93 196.464 359.642 197.538 358.436 197.903ZM347.011 196.491C345.946 198.087 344.28 198.271 343.07 197.903C341.866 197.538 340.578 196.464 340.578 194.544C340.578 192.623 341.866 191.548 343.072 191.184C343.403 191.083 343.769 191.023 344.148 191.023C345.148 191.023 346.237 191.437 347.011 192.597L348.309 194.543L347.011 196.491ZM359.615 187.288C356.345 186.3 353.007 187.496 351.112 190.339L350.754 190.874L350.398 190.339C348.5 187.496 345.168 186.292 341.891 187.289C338.622 188.278 336.508 191.127 336.508 194.544C336.508 197.961 338.622 200.808 341.891 201.798C345.161 202.792 348.499 201.593 350.398 198.748L350.754 198.213L351.112 198.748C351.191 198.868 351.273 198.984 351.358 199.097C352.818 201.058 355.003 202.141 357.338 202.141C358.088 202.141 358.853 202.03 359.617 201.8C362.886 200.808 365 197.961 365 194.544C365 191.126 362.886 188.278 359.615 187.288Z" fill="white"/>
<path d="M353.802 195.446L351.357 199.097C351.273 198.984 351.191 198.867 351.112 198.748L350.754 198.212L353.2 194.543L353.802 195.446Z" fill="#BBBCBD"/>
<path d="M350.753 190.874L348.309 194.524C348.224 194.411 348.142 194.295 348.063 194.175L347.705 193.64L350.151 189.97L350.753 190.874Z" fill="#BBBCBD"/>
<defs>
<linearGradient id="paint0_linear_717_717" x1="293.5" y1="193.643" x2="608" y2="193.653" gradientUnits="userSpaceOnUse">
<stop stop-color="#666969"/>
<stop offset="1" stop-color="#030303"/>
</linearGradient>
<linearGradient id="paint1_linear_717_717" x1="68.6147" y1="114.286" x2="28.1328" y2="147.99" gradientUnits="userSpaceOnUse">
<stop stop-color="#CDCDCD"/>
<stop offset="0.447917" stop-color="#E8E8E8"/>
<stop offset="1" stop-color="#B4B4B4"/>
</linearGradient>
<linearGradient id="paint2_linear_717_717" x1="68.6147" y1="114.286" x2="28.1328" y2="147.99" gradientUnits="userSpaceOnUse">
<stop stop-color="#CDCDCD"/>
<stop offset="0.447917" stop-color="#E8E8E8"/>
<stop offset="1" stop-color="#B4B4B4"/>
</linearGradient>
</defs>
</svg>
