<svg width="434" height="314" viewBox="0 0 434 314" fill="none" xmlns="http://www.w3.org/2000/svg">
<g filter="url(#filter0_dddd_516_3057)">
<rect x="25" y="309" width="224" height="384" rx="11.5644" transform="rotate(-90 25 309)" fill="url(#paint0_linear_516_3057)"/>
</g>
<mask id="mask0_516_3057" style="mask-type:alpha" maskUnits="userSpaceOnUse" x="46" y="197" width="52" height="32">
<rect x="46.668" y="197.001" width="50.558" height="31.2304" rx="3.15392" fill="url(#paint1_linear_516_3057)"/>
</mask>
<g mask="url(#mask0_516_3057)">
<rect x="46.668" y="197" width="50.558" height="31.2304" rx="3.15392" fill="url(#paint2_linear_516_3057)"/>
<path fill-rule="evenodd" clip-rule="evenodd" d="M58.3413 206.655L46.668 206.655L46.668 206.342L58.468 206.342L63.0993 209.546L63.0993 218.275L59.3823 221.489L46.668 221.489L46.668 221.177L59.2327 221.177L62.7382 218.145L62.7382 209.697L58.3413 206.655Z" fill="#868686"/>
<path fill-rule="evenodd" clip-rule="evenodd" d="M84.6696 202.751L98.1289 202.751L98.1289 202.438L84.5035 202.438L78.9891 208.002L78.9891 218.268L84.5035 223.831L98.1289 223.831L98.1289 223.519L84.6696 223.519L79.3502 218.152L79.3502 208.118L84.6696 202.751Z" fill="#868686"/>
<path fill-rule="evenodd" clip-rule="evenodd" d="M70.4791 201.76L61.1133 195.724L61.33 195.439L70.8569 201.579L70.8569 207.583L79.1697 207.583L79.1697 207.931L70.4791 207.931L70.4791 201.76Z" fill="#868686"/>
<path fill-rule="evenodd" clip-rule="evenodd" d="M62.918 218.053L71.2239 218.053L71.2239 223.753L63.9291 228.484L63.7125 228.234L70.8628 223.597L70.8628 218.366L62.918 218.366L62.918 218.053Z" fill="#868686"/>
<path fill-rule="evenodd" clip-rule="evenodd" d="M79.1699 218.053L70.864 218.053L70.864 223.753L78.1588 228.484L78.3754 228.234L71.2251 223.597L71.2251 218.366L79.1699 218.366L79.1699 218.053Z" fill="#868686"/>
</g>
<rect x="46.9308" y="197.263" width="50.0323" height="30.7048" rx="2.89109" stroke="white" stroke-width="0.525653"/>
<path d="M48.1567 283.231C48.1567 282.385 48.2819 281.647 48.5323 281.019C48.7867 280.387 49.1325 279.862 49.5697 279.445C50.011 279.028 50.5297 278.716 51.1259 278.509C51.7221 278.302 52.3661 278.199 53.0577 278.199C53.3479 278.199 53.642 278.215 53.9401 278.247C54.2422 278.275 54.5383 278.32 54.8285 278.384C55.1187 278.447 55.3989 278.531 55.6692 278.634C55.9434 278.734 56.1978 278.853 56.4323 278.992L55.5917 280.423C55.4168 280.324 55.2299 280.24 55.0312 280.173C54.8364 280.101 54.6337 280.045 54.4231 280.006C54.2124 279.962 53.9997 279.93 53.7851 279.91C53.5704 279.89 53.3598 279.88 53.1531 279.88C52.692 279.88 52.2746 279.94 51.901 280.059C51.5313 280.178 51.2114 280.347 50.9411 280.566C50.6708 280.785 50.4542 281.047 50.2912 281.353C50.1322 281.655 50.0328 281.991 49.9931 282.361C50.1998 282.198 50.4283 282.057 50.6787 281.937C50.9291 281.818 51.1935 281.721 51.4717 281.645C51.7539 281.566 52.0421 281.508 52.3363 281.472C52.6344 281.433 52.9325 281.413 53.2306 281.413C53.8109 281.413 54.3376 281.482 54.8106 281.621C55.2876 281.76 55.695 281.961 56.0329 282.224C56.3707 282.486 56.6311 282.806 56.8139 283.183C57.0007 283.557 57.0942 283.982 57.0942 284.459C57.0942 284.928 57.0007 285.364 56.8139 285.765C56.6311 286.167 56.3588 286.516 55.9971 286.815C55.6354 287.109 55.1862 287.341 54.6496 287.512C54.113 287.679 53.4909 287.763 52.7834 287.763C52.0958 287.763 51.4677 287.675 50.8993 287.5C50.3309 287.325 49.844 287.053 49.4386 286.683C49.0331 286.314 48.7171 285.845 48.4906 285.276C48.268 284.704 48.1567 284.022 48.1567 283.231ZM50.0348 284.108C50.1302 284.76 50.4164 285.252 50.8934 285.586C51.3704 285.916 51.9964 286.081 52.7715 286.081C53.161 286.081 53.5068 286.041 53.8089 285.962C54.111 285.882 54.3654 285.773 54.5721 285.634C54.7788 285.491 54.9358 285.322 55.0431 285.127C55.1505 284.932 55.2041 284.72 55.2041 284.489C55.2041 284.294 55.1624 284.112 55.0789 283.941C54.9954 283.77 54.8643 283.623 54.6854 283.499C54.5105 283.372 54.2839 283.273 54.0057 283.201C53.7275 283.126 53.3916 283.088 52.9981 283.088C52.6682 283.088 52.3561 283.114 52.062 283.166C51.7678 283.217 51.4956 283.289 51.2452 283.38C50.9947 283.472 50.7662 283.579 50.5595 283.702C50.3568 283.825 50.1819 283.961 50.0348 284.108ZM59.3121 283.982L64.7617 278.312L66.6517 278.312L66.6517 283.982L68.661 283.982L68.661 285.64L66.6517 285.64L66.6517 287.631L64.7617 287.631L64.7617 285.64L59.3002 285.64L59.3121 283.982ZM64.7617 283.982L64.7617 280.703L61.5778 283.982L64.7617 283.982ZM70.5034 283.231C70.5034 282.385 70.6286 281.647 70.879 281.019C71.1334 280.387 71.4792 279.862 71.9164 279.445C72.3576 279.028 72.8763 278.716 73.4726 278.509C74.0688 278.302 74.7127 278.199 75.4044 278.199C75.6945 278.199 75.9887 278.215 76.2868 278.247C76.5889 278.275 76.885 278.32 77.1752 278.384C77.4653 278.447 77.7455 278.531 78.0158 278.634C78.2901 278.734 78.5445 278.853 78.779 278.992L77.9383 280.423C77.7634 280.324 77.5766 280.24 77.3779 280.173C77.1831 280.101 76.9804 280.045 76.7697 280.006C76.5591 279.962 76.3464 279.93 76.1318 279.91C75.9171 279.89 75.7064 279.88 75.4998 279.88C75.0387 279.88 74.6213 279.94 74.2477 280.059C73.878 280.178 73.558 280.347 73.2877 280.566C73.0175 280.785 72.8008 281.047 72.6379 281.353C72.4789 281.655 72.3795 281.991 72.3397 282.361C72.5464 282.198 72.775 282.057 73.0254 281.937C73.2758 281.818 73.5401 281.721 73.8184 281.645C74.1006 281.566 74.3888 281.508 74.6829 281.472C74.981 281.433 75.2791 281.413 75.5773 281.413C76.1576 281.413 76.6843 281.482 77.1573 281.621C77.6343 281.76 78.0417 281.961 78.3795 282.224C78.7174 282.486 78.9778 282.806 79.1606 283.183C79.3474 283.557 79.4408 283.982 79.4408 284.459C79.4408 284.928 79.3474 285.364 79.1606 285.765C78.9778 286.167 78.7055 286.516 78.3438 286.815C77.9821 287.109 77.5329 287.341 76.9963 287.512C76.4597 287.679 75.8376 287.763 75.1301 287.763C74.4424 287.763 73.8144 287.675 73.246 287.5C72.6776 287.325 72.1907 287.053 71.7852 286.683C71.3798 286.314 71.0638 285.845 70.8372 285.276C70.6146 284.704 70.5034 284.022 70.5034 283.231ZM72.3815 284.108C72.4769 284.76 72.7631 285.252 73.24 285.586C73.717 285.916 74.3431 286.081 75.1182 286.081C75.5077 286.081 75.8535 286.041 76.1556 285.962C76.4577 285.882 76.7121 285.773 76.9188 285.634C77.1255 285.491 77.2825 285.322 77.3898 285.127C77.4971 284.932 77.5508 284.72 77.5508 284.489C77.5508 284.294 77.509 284.112 77.4256 283.941C77.3421 283.77 77.2109 283.623 77.0321 283.499C76.8572 283.372 76.6306 283.273 76.3524 283.201C76.0741 283.126 75.7382 283.088 75.3447 283.088C75.0148 283.088 74.7028 283.114 74.4087 283.166C74.1145 283.217 73.8422 283.289 73.5918 283.38C73.3414 283.472 73.1128 283.579 72.9062 283.702C72.7034 283.825 72.5285 283.961 72.3815 284.108ZM81.6767 283.231C81.6767 282.385 81.8019 281.647 82.0523 281.019C82.3067 280.387 82.6525 279.862 83.0898 279.445C83.531 279.028 84.0497 278.716 84.6459 278.509C85.2421 278.302 85.8861 278.199 86.5777 278.199C86.8679 278.199 87.162 278.215 87.4601 278.247C87.7622 278.275 88.0583 278.32 88.3485 278.384C88.6387 278.447 88.9189 278.531 89.1892 278.634C89.4634 278.734 89.7178 278.853 89.9523 278.992L89.1117 280.423C88.9368 280.324 88.75 280.24 88.5512 280.173C88.3564 280.101 88.1537 280.045 87.9431 280.006C87.7324 279.962 87.5197 279.93 87.3051 279.91C87.0904 279.89 86.8798 279.88 86.6731 279.88C86.212 279.88 85.7946 279.94 85.421 280.059C85.0513 280.178 84.7314 280.347 84.4611 280.566C84.1908 280.785 83.9742 281.047 83.8112 281.353C83.6522 281.655 83.5528 281.991 83.5131 282.361C83.7198 282.198 83.9483 282.057 84.1987 281.937C84.4492 281.818 84.7135 281.721 84.9917 281.645C85.2739 281.566 85.5621 281.508 85.8563 281.472C86.1544 281.433 86.4525 281.413 86.7506 281.413C87.3309 281.413 87.8576 281.482 88.3306 281.621C88.8076 281.76 89.215 281.961 89.5529 282.224C89.8907 282.486 90.1511 282.806 90.3339 283.183C90.5208 283.557 90.6142 283.982 90.6142 284.459C90.6142 284.928 90.5208 285.364 90.3339 285.765C90.1511 286.167 89.8788 286.516 89.5171 286.815C89.1554 287.109 88.7062 287.341 88.1696 287.512C87.633 287.679 87.011 287.763 86.3034 287.763C85.6158 287.763 84.9877 287.675 84.4193 287.5C83.8509 287.325 83.364 287.053 82.9586 286.683C82.5531 286.314 82.2371 285.845 82.0106 285.276C81.788 284.704 81.6767 284.022 81.6767 283.231ZM83.5548 284.108C83.6502 284.76 83.9364 285.252 84.4134 285.586C84.8904 285.916 85.5164 286.081 86.2915 286.081C86.681 286.081 87.0269 286.041 87.3289 285.962C87.631 285.882 87.8854 285.773 88.0921 285.634C88.2988 285.491 88.4558 285.322 88.5631 285.127C88.6705 284.932 88.7241 284.72 88.7241 284.489C88.7241 284.294 88.6824 284.112 88.5989 283.941C88.5154 283.77 88.3843 283.623 88.2054 283.499C88.0305 283.372 87.8039 283.273 87.5257 283.201C87.2475 283.126 86.9116 283.088 86.5181 283.088C86.1882 283.088 85.8761 283.114 85.582 283.166C85.2878 283.217 85.0156 283.289 84.7652 283.38C84.5147 283.472 84.2862 283.579 84.0795 283.702C83.8768 283.825 83.7019 283.961 83.5548 284.108ZM92.6294 284.793C92.6294 284.515 92.6672 284.257 92.7427 284.018C92.8182 283.78 92.9216 283.563 93.0527 283.368C93.1839 283.17 93.335 282.995 93.5059 282.844C93.6808 282.689 93.8676 282.553 94.0663 282.438C93.7921 282.168 93.5933 281.9 93.4701 281.633C93.3469 281.363 93.2853 281.105 93.2853 280.858C93.2853 280.465 93.3767 280.105 93.5595 279.779C93.7464 279.453 94.0127 279.173 94.3585 278.938C94.7043 278.7 95.1236 278.517 95.6165 278.39C96.1094 278.259 96.6639 278.193 97.28 278.193C97.8961 278.193 98.4506 278.259 98.9435 278.39C99.4364 278.517 99.8557 278.7 100.202 278.938C100.547 279.173 100.812 279.453 100.995 279.779C101.181 280.105 101.275 280.465 101.275 280.858C101.275 281.105 101.213 281.363 101.09 281.633C100.967 281.9 100.768 282.168 100.494 282.438C100.688 282.553 100.873 282.689 101.048 282.844C101.223 282.995 101.376 283.17 101.507 283.368C101.638 283.563 101.742 283.78 101.817 284.018C101.893 284.257 101.931 284.515 101.931 284.793C101.931 285.258 101.821 285.676 101.603 286.045C101.388 286.411 101.078 286.721 100.673 286.975C100.271 287.226 99.7822 287.419 99.2058 287.554C98.6334 287.689 97.9915 287.757 97.28 287.757C96.5685 287.757 95.9246 287.689 95.3482 287.554C94.7758 287.419 94.2869 287.226 93.8815 286.975C93.48 286.721 93.17 286.411 92.9514 286.045C92.7367 285.676 92.6294 285.258 92.6294 284.793ZM95.1753 280.942C95.1753 281.089 95.2111 281.228 95.2826 281.359C95.3582 281.486 95.4774 281.599 95.6404 281.699C95.8073 281.794 96.0239 281.87 96.2903 281.925C96.5606 281.981 96.8905 282.009 97.28 282.009C97.6695 282.009 97.9975 281.981 98.2638 281.925C98.5341 281.87 98.7507 281.794 98.9137 281.699C99.0806 281.599 99.1999 281.486 99.2714 281.359C99.3469 281.228 99.3847 281.089 99.3847 280.942C99.3847 280.795 99.3469 280.657 99.2714 280.53C99.1999 280.399 99.0806 280.286 98.9137 280.19C98.7507 280.091 98.5341 280.014 98.2638 279.958C97.9975 279.902 97.6695 279.874 97.28 279.874C96.8905 279.874 96.5606 279.902 96.2903 279.958C96.0239 280.014 95.8073 280.091 95.6404 280.19C95.4774 280.286 95.3582 280.399 95.2826 280.53C95.2111 280.657 95.1753 280.795 95.1753 280.942ZM94.5195 284.704C94.5195 284.907 94.5771 285.093 94.6924 285.264C94.8116 285.431 94.9865 285.574 95.2171 285.694C95.4476 285.813 95.7358 285.906 96.0816 285.974C96.4274 286.041 96.8269 286.075 97.28 286.075C97.7331 286.075 98.1326 286.041 98.4784 285.974C98.8242 285.906 99.1124 285.813 99.343 285.694C99.5735 285.574 99.7464 285.431 99.8617 285.264C99.9809 285.093 100.041 284.907 100.041 284.704C100.041 284.501 99.9829 284.316 99.8676 284.149C99.7563 283.978 99.5854 283.833 99.3549 283.714C99.1283 283.595 98.8421 283.501 98.4963 283.434C98.1505 283.366 97.7451 283.333 97.28 283.333C96.8149 283.333 96.4095 283.366 96.0637 283.434C95.7179 283.501 95.4297 283.595 95.1992 283.714C94.9726 283.833 94.8017 283.978 94.6864 284.149C94.5751 284.316 94.5195 284.501 94.5195 284.704ZM105.341 285.479C105.512 285.578 105.703 285.666 105.913 285.741C106.124 285.817 106.341 285.88 106.563 285.932C106.79 285.98 107.016 286.018 107.243 286.045C107.474 286.069 107.692 286.081 107.899 286.081C108.36 286.081 108.775 286.022 109.145 285.902C109.519 285.783 109.841 285.614 110.111 285.395C110.381 285.177 110.596 284.917 110.755 284.614C110.918 284.308 111.019 283.971 111.059 283.601C110.852 283.764 110.624 283.905 110.373 284.024C110.123 284.143 109.856 284.243 109.574 284.322C109.296 284.398 109.008 284.455 108.71 284.495C108.416 284.531 108.119 284.549 107.821 284.549C107.241 284.549 106.712 284.479 106.235 284.34C105.762 284.201 105.357 284 105.019 283.738C104.681 283.476 104.419 283.158 104.232 282.784C104.049 282.406 103.958 281.979 103.958 281.502C103.958 281.033 104.049 280.598 104.232 280.196C104.419 279.795 104.693 279.447 105.055 279.153C105.417 278.855 105.866 278.622 106.402 278.455C106.939 278.284 107.561 278.199 108.269 278.199C108.956 278.199 109.584 278.286 110.153 278.461C110.721 278.636 111.208 278.909 111.613 279.278C112.019 279.648 112.333 280.119 112.555 280.691C112.782 281.26 112.895 281.939 112.895 282.73C112.895 283.577 112.768 284.316 112.514 284.948C112.263 285.576 111.917 286.099 111.476 286.516C111.039 286.934 110.522 287.246 109.926 287.452C109.33 287.659 108.686 287.763 107.994 287.763C107.704 287.763 107.402 287.745 107.088 287.709C106.778 287.673 106.47 287.619 106.164 287.548C105.858 287.476 105.562 287.387 105.275 287.28C104.993 287.172 104.735 287.049 104.5 286.91L105.341 285.479ZM105.848 281.472C105.848 281.667 105.89 281.85 105.973 282.021C106.056 282.192 106.186 282.341 106.361 282.468C106.539 282.591 106.768 282.691 107.046 282.766C107.324 282.838 107.66 282.873 108.054 282.873C108.384 282.873 108.696 282.848 108.99 282.796C109.284 282.744 109.556 282.673 109.807 282.581C110.057 282.49 110.284 282.383 110.486 282.259C110.693 282.136 110.87 282.001 111.017 281.854C110.922 281.202 110.636 280.711 110.159 280.381C109.682 280.047 109.056 279.88 108.28 279.88C107.891 279.88 107.545 279.92 107.243 280C106.941 280.079 106.687 280.19 106.48 280.334C106.273 280.473 106.116 280.64 106.009 280.834C105.901 281.029 105.848 281.242 105.848 281.472ZM114.809 282.951C114.809 282.2 114.922 281.526 115.149 280.93C115.376 280.334 115.698 279.829 116.115 279.415C116.532 278.998 117.039 278.68 117.635 278.461C118.231 278.243 118.899 278.133 119.639 278.133C120.378 278.133 121.046 278.243 121.642 278.461C122.238 278.68 122.745 278.998 123.162 279.415C123.58 279.829 123.902 280.334 124.128 280.93C124.355 281.526 124.468 282.2 124.468 282.951C124.468 283.702 124.355 284.376 124.128 284.972C123.902 285.568 123.58 286.073 123.162 286.487C122.745 286.9 122.238 287.216 121.642 287.435C121.046 287.653 120.378 287.763 119.639 287.763C118.899 287.763 118.231 287.653 117.635 287.435C117.039 287.216 116.532 286.9 116.115 286.487C115.698 286.073 115.376 285.568 115.149 284.972C114.922 284.376 114.809 283.702 114.809 282.951ZM116.699 282.945C116.699 283.454 116.767 283.903 116.902 284.292C117.041 284.682 117.238 285.01 117.492 285.276C117.747 285.539 118.055 285.739 118.416 285.878C118.778 286.014 119.185 286.081 119.639 286.081C120.092 286.081 120.499 286.014 120.861 285.878C121.223 285.739 121.531 285.539 121.785 285.276C122.039 285.01 122.234 284.682 122.369 284.292C122.508 283.903 122.578 283.454 122.578 282.945C122.578 282.44 122.508 281.995 122.369 281.609C122.234 281.22 122.039 280.892 121.785 280.626C121.531 280.359 121.223 280.159 120.861 280.023C120.499 279.884 120.092 279.815 119.639 279.815C119.185 279.815 118.778 279.884 118.416 280.023C118.055 280.159 117.747 280.359 117.492 280.626C117.238 280.892 117.041 281.22 116.902 281.609C116.767 281.995 116.699 282.44 116.699 282.945ZM126.561 286.01L129.846 283.756C130.339 283.418 130.742 283.124 131.056 282.873C131.37 282.623 131.617 282.4 131.796 282.206C131.975 282.007 132.098 281.828 132.165 281.669C132.233 281.51 132.267 281.351 132.267 281.192C132.267 281.009 132.229 280.838 132.153 280.679C132.078 280.52 131.959 280.381 131.796 280.262C131.637 280.143 131.43 280.049 131.176 279.982C130.925 279.914 130.625 279.88 130.275 279.88C129.767 279.88 129.26 279.952 128.755 280.095C128.25 280.238 127.735 280.467 127.211 280.781L126.34 279.35C126.925 278.988 127.557 278.706 128.236 278.503C128.92 278.3 129.637 278.199 130.389 278.199C131.044 278.199 131.613 278.279 132.094 278.437C132.579 278.593 132.978 278.805 133.292 279.075C133.61 279.346 133.847 279.66 134.002 280.018C134.157 280.375 134.234 280.755 134.234 281.156C134.234 281.466 134.183 281.762 134.079 282.045C133.976 282.327 133.795 282.619 133.537 282.921C133.278 283.223 132.929 283.549 132.487 283.899C132.05 284.245 131.498 284.638 130.83 285.079L129.47 285.974L134.574 285.974L134.574 287.631L126.561 287.631L126.561 286.01Z" fill="#D9D9D9"/>
<path opacity="0.5" d="M338.308 113.432L337.352 113.432C337.296 113.157 337.197 112.915 337.055 112.707C336.917 112.499 336.747 112.324 336.546 112.183C336.349 112.039 336.129 111.931 335.887 111.859C335.646 111.787 335.394 111.751 335.132 111.751C334.654 111.751 334.221 111.872 333.833 112.114C333.448 112.355 333.14 112.711 332.912 113.181C332.686 113.652 332.573 114.228 332.573 114.912C332.573 115.595 332.686 116.172 332.912 116.643C333.14 117.113 333.448 117.469 333.833 117.71C334.221 117.952 334.654 118.073 335.132 118.073C335.394 118.073 335.646 118.037 335.887 117.965C336.129 117.893 336.349 117.786 336.546 117.645C336.747 117.501 336.917 117.325 337.055 117.117C337.197 116.906 337.296 116.664 337.352 116.392L338.308 116.392C338.236 116.795 338.105 117.157 337.915 117.475C337.725 117.794 337.488 118.065 337.206 118.288C336.923 118.509 336.606 118.678 336.254 118.793C335.904 118.909 335.53 118.967 335.132 118.967C334.459 118.967 333.86 118.802 333.336 118.473C332.812 118.145 332.399 117.677 332.099 117.07C331.798 116.464 331.648 115.745 331.648 114.912C331.648 114.079 331.798 113.36 332.099 112.754C332.399 112.147 332.812 111.679 333.336 111.35C333.86 111.022 334.459 110.857 335.132 110.857C335.53 110.857 335.904 110.915 336.254 111.031C336.606 111.146 336.923 111.316 337.206 111.539C337.488 111.76 337.725 112.03 337.915 112.349C338.105 112.665 338.236 113.026 338.308 113.432ZM339.729 118.859L339.729 112.939L340.608 112.939L340.608 113.833L340.67 113.833C340.778 113.54 340.973 113.302 341.256 113.12C341.538 112.937 341.857 112.846 342.212 112.846C342.278 112.846 342.362 112.847 342.462 112.85C342.562 112.852 342.638 112.856 342.689 112.861L342.689 113.786C342.659 113.779 342.588 113.767 342.477 113.752C342.37 113.734 342.255 113.725 342.134 113.725C341.847 113.725 341.59 113.785 341.364 113.906C341.14 114.024 340.963 114.189 340.832 114.399C340.703 114.607 340.639 114.845 340.639 115.112L340.639 118.859L339.729 118.859ZM346.07 118.982C345.499 118.982 345.007 118.856 344.594 118.604C344.182 118.35 343.865 117.995 343.642 117.541C343.421 117.083 343.31 116.551 343.31 115.945C343.31 115.339 343.421 114.804 343.642 114.342C343.865 113.876 344.176 113.514 344.574 113.255C344.975 112.992 345.443 112.861 345.977 112.861C346.286 112.861 346.59 112.913 346.891 113.016C347.191 113.118 347.465 113.285 347.712 113.517C347.958 113.745 348.155 114.049 348.301 114.426C348.448 114.804 348.521 115.269 348.521 115.822L348.521 116.207L343.958 116.207L343.958 115.421L347.596 115.421C347.596 115.087 347.529 114.789 347.396 114.527C347.265 114.264 347.077 114.058 346.833 113.906C346.591 113.754 346.306 113.679 345.977 113.679C345.615 113.679 345.301 113.768 345.037 113.948C344.775 114.126 344.573 114.357 344.432 114.642C344.29 114.927 344.22 115.233 344.22 115.56L344.22 116.084C344.22 116.531 344.297 116.91 344.451 117.221C344.608 117.529 344.825 117.764 345.102 117.926C345.38 118.085 345.702 118.165 346.07 118.165C346.309 118.165 346.525 118.132 346.717 118.065C346.913 117.995 347.081 117.893 347.222 117.757C347.364 117.618 347.473 117.446 347.55 117.24L348.429 117.487C348.336 117.785 348.181 118.047 347.962 118.273C347.744 118.497 347.474 118.671 347.153 118.797C346.832 118.921 346.471 118.982 346.07 118.982ZM352.14 118.982C351.647 118.982 351.212 118.858 350.834 118.608C350.456 118.357 350.161 118.002 349.947 117.545C349.734 117.085 349.627 116.541 349.627 115.914C349.627 115.292 349.734 114.753 349.947 114.295C350.161 113.838 350.457 113.485 350.838 113.235C351.218 112.986 351.657 112.861 352.156 112.861C352.541 112.861 352.846 112.926 353.069 113.054C353.296 113.18 353.468 113.324 353.586 113.486C353.707 113.645 353.8 113.776 353.867 113.879L353.944 113.879L353.944 110.965L354.854 110.965L354.854 118.859L353.975 118.859L353.975 117.949L353.867 117.949C353.8 118.057 353.705 118.193 353.582 118.358C353.459 118.52 353.283 118.665 353.054 118.793C352.825 118.919 352.521 118.982 352.14 118.982ZM352.264 118.165C352.629 118.165 352.937 118.07 353.189 117.88C353.441 117.687 353.632 117.421 353.763 117.082C353.894 116.74 353.96 116.346 353.96 115.899C353.96 115.457 353.896 115.07 353.767 114.739C353.639 114.404 353.448 114.145 353.197 113.96C352.945 113.772 352.634 113.679 352.264 113.679C351.878 113.679 351.557 113.777 351.3 113.975C351.046 114.171 350.854 114.437 350.726 114.773C350.6 115.107 350.537 115.482 350.537 115.899C350.537 116.32 350.601 116.703 350.73 117.047C350.861 117.389 351.054 117.661 351.308 117.864C351.565 118.065 351.884 118.165 352.264 118.165ZM356.646 118.859L356.646 112.939L357.556 112.939L357.556 118.859L356.646 118.859ZM357.109 111.952C356.932 111.952 356.779 111.891 356.65 111.771C356.524 111.65 356.461 111.505 356.461 111.335C356.461 111.165 356.524 111.02 356.65 110.9C356.779 110.779 356.932 110.718 357.109 110.718C357.286 110.718 357.438 110.779 357.564 110.9C357.692 111.02 357.756 111.165 357.756 111.335C357.756 111.505 357.692 111.65 357.564 111.771C357.438 111.891 357.286 111.952 357.109 111.952ZM361.797 112.939L361.797 113.709L358.729 113.709L358.729 112.939L361.797 112.939ZM359.623 111.52L360.532 111.52L360.532 117.163C360.532 117.42 360.57 117.613 360.644 117.741C360.721 117.867 360.819 117.952 360.937 117.996C361.058 118.037 361.185 118.057 361.319 118.057C361.419 118.057 361.501 118.052 361.565 118.042C361.63 118.029 361.681 118.019 361.72 118.011L361.905 118.828C361.843 118.851 361.757 118.874 361.646 118.897C361.536 118.923 361.396 118.936 361.226 118.936C360.969 118.936 360.718 118.881 360.471 118.77C360.227 118.66 360.024 118.491 359.862 118.265C359.703 118.039 359.623 117.754 359.623 117.41L359.623 111.52ZM372.693 113.432L371.737 113.432C371.681 113.157 371.582 112.915 371.44 112.707C371.302 112.499 371.132 112.324 370.932 112.183C370.734 112.039 370.514 111.931 370.273 111.859C370.031 111.787 369.779 111.751 369.517 111.751C369.039 111.751 368.606 111.872 368.218 112.114C367.833 112.355 367.526 112.711 367.297 113.181C367.071 113.652 366.958 114.228 366.958 114.912C366.958 115.595 367.071 116.172 367.297 116.643C367.526 117.113 367.833 117.469 368.218 117.71C368.606 117.952 369.039 118.073 369.517 118.073C369.779 118.073 370.031 118.037 370.273 117.965C370.514 117.893 370.734 117.786 370.932 117.645C371.132 117.501 371.302 117.325 371.44 117.117C371.582 116.906 371.681 116.664 371.737 116.392L372.693 116.392C372.621 116.795 372.49 117.157 372.3 117.475C372.11 117.794 371.873 118.065 371.591 118.288C371.308 118.509 370.991 118.678 370.639 118.793C370.289 118.909 369.915 118.967 369.517 118.967C368.844 118.967 368.245 118.802 367.721 118.473C367.197 118.145 366.784 117.677 366.484 117.07C366.183 116.464 366.033 115.745 366.033 114.912C366.033 114.079 366.183 113.36 366.484 112.754C366.784 112.147 367.197 111.679 367.721 111.35C368.245 111.022 368.844 110.857 369.517 110.857C369.915 110.857 370.289 110.915 370.639 111.031C370.991 111.146 371.308 111.316 371.591 111.539C371.873 111.76 372.11 112.03 372.3 112.349C372.49 112.665 372.621 113.026 372.693 113.432ZM375.857 118.998C375.482 118.998 375.141 118.927 374.835 118.786C374.529 118.642 374.287 118.435 374.107 118.165C373.927 117.893 373.837 117.564 373.837 117.178C373.837 116.839 373.904 116.564 374.037 116.354C374.171 116.14 374.35 115.973 374.573 115.852C374.797 115.732 375.043 115.642 375.313 115.583C375.586 115.521 375.859 115.472 376.134 115.436C376.494 115.39 376.786 115.355 377.009 115.332C377.235 115.306 377.4 115.264 377.503 115.205C377.608 115.146 377.661 115.043 377.661 114.897L377.661 114.866C377.661 114.485 377.556 114.19 377.348 113.979C377.143 113.768 376.831 113.663 376.412 113.663C375.977 113.663 375.637 113.758 375.39 113.948C375.144 114.139 374.97 114.342 374.87 114.557L374.007 114.249C374.161 113.889 374.366 113.609 374.623 113.409C374.883 113.206 375.165 113.064 375.471 112.985C375.78 112.903 376.083 112.861 376.381 112.861C376.571 112.861 376.789 112.885 377.036 112.931C377.285 112.974 377.526 113.066 377.757 113.204C377.991 113.343 378.185 113.553 378.339 113.833C378.493 114.113 378.57 114.488 378.57 114.958L378.57 118.859L377.661 118.859L377.661 118.057L377.614 118.057C377.553 118.186 377.45 118.323 377.306 118.47C377.162 118.616 376.971 118.741 376.732 118.843C376.493 118.946 376.201 118.998 375.857 118.998ZM375.995 118.181C376.355 118.181 376.658 118.11 376.905 117.969C377.154 117.827 377.342 117.645 377.468 117.421C377.596 117.198 377.661 116.963 377.661 116.716L377.661 115.883C377.622 115.93 377.537 115.972 377.406 116.01C377.278 116.046 377.129 116.079 376.959 116.107C376.792 116.133 376.629 116.156 376.47 116.176C376.313 116.194 376.186 116.21 376.088 116.222C375.852 116.253 375.631 116.303 375.425 116.373C375.222 116.44 375.058 116.541 374.932 116.677C374.808 116.811 374.747 116.993 374.747 117.225C374.747 117.541 374.864 117.78 375.097 117.942C375.334 118.101 375.633 118.181 375.995 118.181ZM380.23 118.859L380.23 112.939L381.109 112.939L381.109 113.833L381.171 113.833C381.279 113.54 381.474 113.302 381.757 113.12C382.039 112.937 382.358 112.846 382.713 112.846C382.78 112.846 382.863 112.847 382.963 112.85C383.063 112.852 383.139 112.856 383.191 112.861L383.191 113.786C383.16 113.779 383.089 113.767 382.979 113.752C382.871 113.734 382.756 113.725 382.636 113.725C382.348 113.725 382.091 113.785 381.865 113.906C381.641 114.024 381.464 114.189 381.333 114.399C381.204 114.607 381.14 114.845 381.14 115.112L381.14 118.859L380.23 118.859ZM386.324 118.982C385.831 118.982 385.395 118.858 385.018 118.608C384.64 118.357 384.344 118.002 384.131 117.545C383.918 117.085 383.811 116.541 383.811 115.914C383.811 115.292 383.918 114.753 384.131 114.295C384.344 113.838 384.641 113.485 385.021 113.235C385.402 112.986 385.841 112.861 386.34 112.861C386.725 112.861 387.03 112.926 387.253 113.054C387.479 113.18 387.651 113.324 387.77 113.486C387.89 113.645 387.984 113.776 388.051 113.879L388.128 113.879L388.128 110.965L389.038 110.965L389.038 118.859L388.159 118.859L388.159 117.949L388.051 117.949C387.984 118.057 387.889 118.193 387.766 118.358C387.642 118.52 387.466 118.665 387.238 118.793C387.009 118.919 386.705 118.982 386.324 118.982ZM386.448 118.165C386.813 118.165 387.121 118.07 387.373 117.88C387.625 117.687 387.816 117.421 387.947 117.082C388.078 116.74 388.144 116.346 388.144 115.899C388.144 115.457 388.079 115.07 387.951 114.739C387.822 114.404 387.632 114.145 387.38 113.96C387.129 113.772 386.818 113.679 386.448 113.679C386.062 113.679 385.741 113.777 385.484 113.975C385.23 114.171 385.038 114.437 384.91 114.773C384.784 115.107 384.721 115.482 384.721 115.899C384.721 116.32 384.785 116.703 384.914 117.047C385.045 117.389 385.237 117.661 385.492 117.864C385.749 118.065 386.067 118.165 386.448 118.165Z" fill="white"/>
<rect x="47.5" y="102.613" width="94" height="24" rx="12" stroke="#DBDBDB" stroke-opacity="0.4"/>
<path d="M59.2775 110.219L60.3722 110.219L62.5615 113.904L62.654 113.904L64.8433 110.219L65.9379 110.219L63.0857 114.86L63.0857 118.113L62.1298 118.113L62.1298 114.86L59.2775 110.219ZM73.4637 114.166C73.4637 114.998 73.3134 115.718 73.0127 116.324C72.7121 116.931 72.2996 117.398 71.7754 117.727C71.2512 118.056 70.6525 118.221 69.9793 118.221C69.3061 118.221 68.7073 118.056 68.1831 117.727C67.6589 117.398 67.2465 116.931 66.9459 116.324C66.6452 115.718 66.4949 114.998 66.4949 114.166C66.4949 113.333 66.6452 112.614 66.9459 112.007C67.2465 111.401 67.6589 110.933 68.1831 110.604C68.7073 110.275 69.3061 110.111 69.9793 110.111C70.6525 110.111 71.2512 110.275 71.7754 110.604C72.2996 110.933 72.7121 111.401 73.0127 112.007C73.3134 112.614 73.4637 113.333 73.4637 114.166ZM72.5386 114.166C72.5386 113.482 72.4243 112.905 72.1956 112.435C71.9694 111.965 71.6624 111.609 71.2744 111.368C70.8889 111.126 70.4572 111.005 69.9793 111.005C69.5013 111.005 69.0684 111.126 68.6804 111.368C68.2949 111.609 67.9878 111.965 67.7591 112.435C67.533 112.905 67.42 113.482 67.42 114.166C67.42 114.849 67.533 115.426 67.7591 115.897C67.9878 116.367 68.2949 116.723 68.6804 116.964C69.0684 117.206 69.5013 117.326 69.9793 117.326C70.4572 117.326 70.8889 117.206 71.2744 116.964C71.6624 116.723 71.9694 116.367 72.1956 115.897C72.4243 115.426 72.5386 114.849 72.5386 114.166ZM80.2513 110.219L81.2072 110.219L81.2072 115.446C81.2072 115.985 81.08 116.467 80.8256 116.891C80.5738 117.312 80.2179 117.645 79.7579 117.889C79.298 118.131 78.7583 118.252 78.1391 118.252C77.5198 118.252 76.9802 118.131 76.5202 117.889C76.0603 117.645 75.7031 117.312 75.4487 116.891C75.1969 116.467 75.071 115.985 75.071 115.446L75.071 110.219L76.0269 110.219L76.0269 115.368C76.0269 115.754 76.1117 116.097 76.2812 116.398C76.4508 116.696 76.6924 116.931 77.0059 117.103C77.3219 117.273 77.6997 117.357 78.1391 117.357C78.5785 117.357 78.9562 117.273 79.2723 117.103C79.5883 116.931 79.8299 116.696 79.9969 116.398C80.1665 116.097 80.2513 115.754 80.2513 115.368L80.2513 110.219ZM83.1161 118.113L83.1161 110.219L85.7833 110.219C86.4 110.219 86.9063 110.324 87.302 110.535C87.6977 110.743 87.9906 111.03 88.1808 111.395C88.3709 111.759 88.466 112.174 88.466 112.64C88.466 113.105 88.3709 113.517 88.1808 113.877C87.9906 114.237 87.699 114.519 87.3058 114.725C86.9127 114.928 86.4103 115.029 85.7988 115.029L83.6403 115.029L83.6403 114.166L85.7679 114.166C86.1893 114.166 86.5285 114.104 86.7855 113.981C87.045 113.858 87.2326 113.683 87.3482 113.457C87.4664 113.228 87.5255 112.956 87.5255 112.64C87.5255 112.323 87.4664 112.047 87.3482 111.811C87.23 111.574 87.0412 111.392 86.7816 111.264C86.5221 111.132 86.1791 111.067 85.7525 111.067L84.072 111.067L84.072 118.113L83.1161 118.113ZM86.8317 114.567L88.7744 118.113L87.6643 118.113L85.7525 114.567L86.8317 114.567ZM93.1115 118.113L93.1115 110.219L95.8713 110.219C96.4212 110.219 96.8747 110.314 97.2319 110.504C97.5891 110.692 97.855 110.945 98.0298 111.264C98.2045 111.58 98.2919 111.93 98.2919 112.316C98.2919 112.655 98.2315 112.935 98.1107 113.156C97.9925 113.377 97.8358 113.552 97.6405 113.68C97.4477 113.809 97.2383 113.904 97.0122 113.965L97.0122 114.043C97.2537 114.058 97.4966 114.143 97.7407 114.297C97.9848 114.451 98.1891 114.672 98.3535 114.96C98.518 115.248 98.6002 115.6 98.6002 116.016C98.6002 116.412 98.5103 116.768 98.3304 117.084C98.1505 117.4 97.8666 117.65 97.4786 117.835C97.0906 118.02 96.5856 118.113 95.9638 118.113L93.1115 118.113ZM94.0674 117.265L95.9638 117.265C96.5882 117.265 97.0315 117.144 97.2936 116.903C97.5582 116.658 97.6906 116.363 97.6906 116.016C97.6906 115.749 97.6225 115.502 97.4863 115.276C97.3501 115.047 97.1561 114.865 96.9043 114.729C96.6525 114.59 96.3544 114.52 96.0101 114.52L94.0674 114.52L94.0674 117.265ZM94.0674 113.688L95.8405 113.688C96.1283 113.688 96.3878 113.631 96.619 113.518C96.8529 113.405 97.0379 113.246 97.1741 113.04C97.3128 112.835 97.3822 112.593 97.3822 112.316C97.3822 111.969 97.2614 111.675 97.0199 111.433C96.7784 111.189 96.3955 111.067 95.8713 111.067L94.0674 111.067L94.0674 113.688ZM100.171 118.113L100.171 110.219L102.838 110.219C103.455 110.219 103.961 110.324 104.357 110.535C104.752 110.743 105.045 111.03 105.236 111.395C105.426 111.759 105.521 112.174 105.521 112.64C105.521 113.105 105.426 113.517 105.236 113.877C105.045 114.237 104.754 114.519 104.361 114.725C103.967 114.928 103.465 115.029 102.854 115.029L100.695 115.029L100.695 114.166L102.823 114.166C103.244 114.166 103.583 114.104 103.84 113.981C104.1 113.858 104.287 113.683 104.403 113.457C104.521 113.228 104.58 112.956 104.58 112.64C104.58 112.323 104.521 112.047 104.403 111.811C104.285 111.574 104.096 111.392 103.836 111.264C103.577 111.132 103.234 111.067 102.807 111.067L101.127 111.067L101.127 118.113L100.171 118.113ZM103.887 114.567L105.829 118.113L104.719 118.113L102.807 114.567L103.887 114.567ZM107.437 118.113L106.435 118.113L109.334 110.219L110.321 110.219L113.219 118.113L112.217 118.113L109.858 111.468L109.796 111.468L107.437 118.113ZM107.807 115.029L111.847 115.029L111.847 115.877L107.807 115.877L107.807 115.029ZM120.708 110.219L120.708 118.113L119.783 118.113L115.482 111.915L115.404 111.915L115.404 118.113L114.449 118.113L114.449 110.219L115.374 110.219L119.691 116.432L119.768 116.432L119.768 110.219L120.708 110.219ZM125.057 118.113L122.621 118.113L122.621 110.219L125.165 110.219C125.931 110.219 126.586 110.377 127.131 110.693C127.675 111.007 128.093 111.458 128.383 112.046C128.674 112.632 128.819 113.333 128.819 114.15C128.819 114.973 128.672 115.681 128.379 116.274C128.086 116.865 127.66 117.32 127.1 117.639C126.54 117.955 125.859 118.113 125.057 118.113ZM123.577 117.265L124.995 117.265C125.648 117.265 126.189 117.139 126.618 116.887C127.047 116.635 127.367 116.277 127.578 115.812C127.788 115.347 127.894 114.793 127.894 114.15C127.894 113.513 127.79 112.965 127.582 112.505C127.373 112.042 127.062 111.687 126.649 111.441C126.235 111.192 125.72 111.067 125.103 111.067L123.577 111.067L123.577 117.265Z" fill="white"/>
<path d="M383.436 282.959C382.234 283.326 380.564 283.145 379.498 281.547L378.802 280.503L378.2 279.6L379.498 277.653C380.562 276.056 382.225 275.872 383.436 276.241C384.642 276.605 385.93 277.68 385.93 279.601C385.93 281.521 384.642 282.595 383.436 282.959ZM372.011 281.547C370.946 283.143 369.28 283.328 368.07 282.959C366.866 282.595 365.578 281.521 365.578 279.601C365.578 277.68 366.866 276.605 368.072 276.241C368.403 276.14 368.769 276.08 369.148 276.08C370.148 276.08 371.237 276.494 372.011 277.653L373.309 279.6L372.011 281.547ZM384.615 272.344C381.345 271.357 378.007 272.552 376.112 275.396L375.754 275.93L375.398 275.396C373.5 272.552 370.168 271.349 366.891 272.345C363.622 273.335 361.508 276.183 361.508 279.601C361.508 283.018 363.622 285.865 366.891 286.855C370.161 287.848 373.499 286.65 375.398 283.805L375.754 283.269L376.112 283.805C376.191 283.924 376.273 284.041 376.358 284.154C377.818 286.115 380.003 287.198 382.338 287.198C383.088 287.198 383.853 287.087 384.617 286.856C387.886 285.865 390 283.018 390 279.601C390 276.182 387.886 273.335 384.615 272.344Z" fill="white"/>
<path d="M378.802 280.503L376.357 284.153C376.273 284.04 376.191 283.924 376.112 283.805L375.754 283.269L378.2 279.599L378.802 280.503Z" fill="#BBBCBD"/>
<path d="M375.753 275.93L373.309 279.581C373.224 279.468 373.142 279.351 373.063 279.232L372.705 278.696L375.151 275.027L375.753 275.93Z" fill="#BBBCBD"/>
<defs>
<filter id="filter0_dddd_516_3057" x="0.578455" y="0.202967" width="432.843" height="312.867" filterUnits="userSpaceOnUse" color-interpolation-filters="sRGB">
<feFlood flood-opacity="0" result="BackgroundImageFix"/>
<feColorMatrix in="SourceAlpha" type="matrix" values="0 0 0 0 0 0 0 0 0 0 0 0 0 0 0 0 0 0 127 0" result="hardAlpha"/>
<feOffset dy="-4.07026"/>
<feGaussianBlur stdDeviation="4.07026"/>
<feColorMatrix type="matrix" values="0 0 0 0 0 0 0 0 0 0 0 0 0 0 0 0 0 0 0.1 0"/>
<feBlend mode="normal" in2="BackgroundImageFix" result="effect1_dropShadow_516_3057"/>
<feColorMatrix in="SourceAlpha" type="matrix" values="0 0 0 0 0 0 0 0 0 0 0 0 0 0 0 0 0 0 127 0" result="hardAlpha"/>
<feOffset dy="-14.9243"/>
<feGaussianBlur stdDeviation="7.46214"/>
<feColorMatrix type="matrix" values="0 0 0 0 0 0 0 0 0 0 0 0 0 0 0 0 0 0 0.09 0"/>
<feBlend mode="normal" in2="effect1_dropShadow_516_3057" result="effect2_dropShadow_516_3057"/>
<feColorMatrix in="SourceAlpha" type="matrix" values="0 0 0 0 0 0 0 0 0 0 0 0 0 0 0 0 0 0 127 0" result="hardAlpha"/>
<feOffset dy="-33.9188"/>
<feGaussianBlur stdDeviation="10.1756"/>
<feColorMatrix type="matrix" values="0 0 0 0 0 0 0 0 0 0 0 0 0 0 0 0 0 0 0.05 0"/>
<feBlend mode="normal" in2="effect2_dropShadow_516_3057" result="effect3_dropShadow_516_3057"/>
<feColorMatrix in="SourceAlpha" type="matrix" values="0 0 0 0 0 0 0 0 0 0 0 0 0 0 0 0 0 0 127 0" result="hardAlpha"/>
<feOffset dy="-60.3755"/>
<feGaussianBlur stdDeviation="12.2108"/>
<feColorMatrix type="matrix" values="0 0 0 0 0 0 0 0 0 0 0 0 0 0 0 0 0 0 0.01 0"/>
<feBlend mode="normal" in2="effect3_dropShadow_516_3057" result="effect4_dropShadow_516_3057"/>
<feBlend mode="normal" in="SourceGraphic" in2="effect4_dropShadow_516_3057" result="shape"/>
</filter>
<linearGradient id="paint0_linear_516_3057" x1="331.865" y1="501" x2="9.78114" y2="501.2" gradientUnits="userSpaceOnUse">
<stop stop-color="#666969"/>
<stop offset="1" stop-color="#030303"/>
</linearGradient>
<linearGradient id="paint1_linear_516_3057" x1="93.6147" y1="199.343" x2="53.1328" y2="233.047" gradientUnits="userSpaceOnUse">
<stop stop-color="#CDCDCD"/>
<stop offset="0.447917" stop-color="#E8E8E8"/>
<stop offset="1" stop-color="#B4B4B4"/>
</linearGradient>
<linearGradient id="paint2_linear_516_3057" x1="93.6147" y1="199.343" x2="53.1328" y2="233.046" gradientUnits="userSpaceOnUse">
<stop stop-color="#CDCDCD"/>
<stop offset="0.447917" stop-color="#E8E8E8"/>
<stop offset="1" stop-color="#B4B4B4"/>
</linearGradient>
</defs>
</svg>
