<svg width="152" height="42" viewBox="0 0 152 42" fill="none" xmlns="http://www.w3.org/2000/svg">
<path d="M49.8455 31.0851V10.4483H58.3066C59.7413 10.4483 60.95 10.6743 61.9327 11.1263C62.9155 11.5784 63.6623 12.2073 64.1733 13.0131C64.6843 13.7993 64.9398 14.7132 64.9398 15.7549C64.9398 16.7966 64.7138 17.6712 64.2618 18.3787C63.8097 19.0863 63.2103 19.6366 62.4634 20.0297C61.7166 20.4031 60.9107 20.6193 60.046 20.6782L60.5177 20.3539C61.4611 20.3933 62.2964 20.6488 63.0236 21.1205C63.7704 21.5725 64.3502 22.1818 64.7629 22.9483C65.1953 23.7148 65.4115 24.5501 65.4115 25.4542C65.4115 26.5548 65.1462 27.5277 64.6155 28.3728C64.0849 29.2179 63.3085 29.8862 62.2865 30.3775C61.2842 30.8492 60.0558 31.0851 58.6014 31.0851H49.8455ZM53.8254 27.8422H57.9823C59.0633 27.8422 59.8986 27.5965 60.4882 27.1051C61.0778 26.6138 61.3726 25.9062 61.3726 24.9825C61.3726 24.0587 61.068 23.3414 60.4587 22.8304C59.8494 22.2997 59.0043 22.0344 57.9233 22.0344H53.8254V27.8422ZM53.8254 19.0568H57.6875C58.7095 19.0568 59.4956 18.8209 60.046 18.3492C60.5963 17.8775 60.8714 17.2093 60.8714 16.3445C60.8714 15.4994 60.5963 14.841 60.046 14.3693C59.4956 13.8779 58.6898 13.6322 57.6285 13.6322H53.8254V19.0568ZM68.2129 31.0851V10.065H72.1929V31.0851H68.2129ZM82.599 31.4389C81.2036 31.4389 79.9359 31.1146 78.796 30.466C77.656 29.8174 76.7519 28.9133 76.0837 27.7537C75.4351 26.5941 75.1108 25.2675 75.1108 23.7738C75.1108 22.2604 75.4449 20.9337 76.1132 19.7938C76.7814 18.6342 77.6757 17.7301 78.796 17.0815C79.9359 16.433 81.2134 16.1087 82.6285 16.1087C84.0436 16.1087 85.3211 16.433 86.4611 17.0815C87.601 17.7301 88.4953 18.6342 89.1438 19.7938C89.8121 20.9337 90.1462 22.2604 90.1462 23.7738C90.1462 25.2871 89.8121 26.6236 89.1438 27.7832C88.4756 28.9231 87.5715 29.8174 86.4316 30.466C85.2916 31.1146 84.0141 31.4389 82.599 31.4389ZM82.599 28.019C83.2476 28.019 83.8274 27.8618 84.3384 27.5473C84.8691 27.2329 85.2916 26.7612 85.6061 26.1323C85.9206 25.5033 86.0778 24.7172 86.0778 23.7738C86.0778 22.8304 85.9206 22.0442 85.6061 21.4153C85.2916 20.7863 84.8691 20.3146 84.3384 20.0002C83.8274 19.6857 83.2574 19.5285 82.6285 19.5285C82.0192 19.5285 81.4493 19.6857 80.9186 20.0002C80.3879 20.3146 79.9556 20.7863 79.6214 21.4153C79.307 22.0442 79.1497 22.8304 79.1497 23.7738C79.1497 24.7172 79.307 25.5033 79.6214 26.1323C79.9556 26.7612 80.3781 27.2329 80.8891 27.5473C81.4198 27.8618 81.9898 28.019 82.599 28.019ZM100.252 31.4389C98.7192 31.4389 97.3729 31.1146 96.2133 30.466C95.0734 29.7977 94.1791 28.8937 93.5305 27.7537C92.882 26.5941 92.5577 25.2675 92.5577 23.7738C92.5577 22.28 92.882 20.9632 93.5305 19.8233C94.1791 18.6637 95.0832 17.7596 96.2428 17.111C97.4024 16.4428 98.7389 16.1087 100.252 16.1087C102.139 16.1087 103.721 16.6 104.999 17.5827C106.296 18.5654 107.121 19.9216 107.475 21.6511H103.259C103.082 20.9632 102.719 20.4326 102.169 20.0591C101.618 19.6661 100.97 19.4695 100.223 19.4695C99.5349 19.4695 98.9158 19.6464 98.3654 20.0002C97.8348 20.3343 97.4024 20.8256 97.0683 21.4742C96.7538 22.1032 96.5966 22.8697 96.5966 23.7738C96.5966 24.442 96.685 25.0414 96.8619 25.5721C97.0585 26.0831 97.314 26.5253 97.6284 26.8988C97.9625 27.2722 98.3458 27.5572 98.7782 27.7537C99.2106 27.9503 99.6921 28.0485 100.223 28.0485C100.734 28.0485 101.186 27.9699 101.579 27.8127C101.992 27.6358 102.345 27.3901 102.64 27.0756C102.955 26.7415 103.161 26.3484 103.259 25.8964H107.475C107.121 27.5867 106.296 28.933 104.999 29.9353C103.721 30.9377 102.139 31.4389 100.252 31.4389ZM120.178 31.0851L113.781 23.0367L119.412 16.4624H124.129L116.847 24.6877L116.817 21.5332L125.131 31.0851H120.178ZM110.391 31.0851V10.065H114.37V31.0851H110.391ZM127.146 31.0851V10.065H131.126V31.0851H127.146ZM136.55 37.3646L140.088 29.4341H139.233L133.248 16.4624H137.582L141.857 25.8669H141.886L145.689 16.4624H149.935L140.766 37.3646H136.55Z" fill="#170F49"/>
<mask id="mask0_534_552" style="mask-type:alpha" maskUnits="userSpaceOnUse" x="0" y="0" width="38" height="42">
<path d="M15.0907 1.91288C17.2761 0.651112 19.9687 0.65111 22.1541 1.91288L33.713 8.58642C35.8985 9.84819 37.2448 12.18 37.2448 14.7036V28.0507C37.2448 30.5742 35.8985 32.906 33.713 34.1678L22.1541 40.8414C19.9687 42.1031 17.2761 42.1031 15.0907 40.8414L3.53174 34.1678C1.34629 32.906 0 30.5742 0 28.0507V14.7036C0 12.18 1.34629 9.84819 3.53173 8.58643L15.0907 1.91288Z" fill="#C4C4C4"/>
</mask>
<g mask="url(#mask0_534_552)">
<rect width="23.5707" height="23.5707" transform="matrix(0.866025 0.5 -0.866025 0.5 18.6227 -0.476685)" fill="#4A3AFF"/>
<rect width="21.6883" height="21.6883" transform="matrix(0.866025 0.5 -2.20305e-08 1 -0.160637 11.4791)" fill="#4CBFFF"/>
<rect width="21.6883" height="21.6883" transform="matrix(0.866025 -0.5 2.20305e-08 1 18.6227 22.3262)" fill="#9328FF"/>
</g>
</svg>
