<svg width="434" height="314" viewBox="0 0 434 314" fill="none" xmlns="http://www.w3.org/2000/svg">
<g filter="url(#filter0_dddd_540_772)">
<rect x="25" y="309" width="224" height="384" rx="11.5644" transform="rotate(-90 25 309)" fill="url(#paint0_linear_540_772)"/>
</g>
<mask id="mask0_540_772" style="mask-type:alpha" maskUnits="userSpaceOnUse" x="46" y="197" width="52" height="32">
<rect x="46.668" y="197.001" width="50.558" height="31.2304" rx="3.15392" fill="url(#paint1_linear_540_772)"/>
</mask>
<g mask="url(#mask0_540_772)">
<rect x="46.668" y="197" width="50.558" height="31.2304" rx="3.15392" fill="url(#paint2_linear_540_772)"/>
<path fill-rule="evenodd" clip-rule="evenodd" d="M58.3413 206.655L46.668 206.655L46.668 206.342L58.468 206.342L63.0993 209.546L63.0993 218.275L59.3823 221.489L46.668 221.489L46.668 221.177L59.2327 221.177L62.7382 218.145L62.7382 209.697L58.3413 206.655Z" fill="#868686"/>
<path fill-rule="evenodd" clip-rule="evenodd" d="M84.6696 202.751L98.1289 202.751L98.1289 202.438L84.5035 202.438L78.9891 208.002L78.9891 218.268L84.5035 223.831L98.1289 223.831L98.1289 223.519L84.6696 223.519L79.3502 218.152L79.3502 208.118L84.6696 202.751Z" fill="#868686"/>
<path fill-rule="evenodd" clip-rule="evenodd" d="M70.4791 201.76L61.1133 195.724L61.33 195.439L70.8569 201.579L70.8569 207.583L79.1697 207.583L79.1697 207.931L70.4791 207.931L70.4791 201.76Z" fill="#868686"/>
<path fill-rule="evenodd" clip-rule="evenodd" d="M62.918 218.053L71.2239 218.053L71.2239 223.753L63.9291 228.484L63.7125 228.234L70.8628 223.597L70.8628 218.366L62.918 218.366L62.918 218.053Z" fill="#868686"/>
<path fill-rule="evenodd" clip-rule="evenodd" d="M79.1699 218.053L70.864 218.053L70.864 223.753L78.1588 228.484L78.3754 228.234L71.2251 223.597L71.2251 218.366L79.1699 218.366L79.1699 218.053Z" fill="#868686"/>
</g>
<rect x="46.9308" y="197.263" width="50.0323" height="30.7048" rx="2.89109" stroke="white" stroke-width="0.525653"/>
<path d="M53.0637 279.982L47.6439 279.982L47.6439 278.312L55.9255 278.312L51.0663 287.631L48.9199 287.631L53.0637 279.982ZM57.1061 284.793C57.1061 284.515 57.1438 284.257 57.2194 284.018C57.2949 283.78 57.3982 283.563 57.5294 283.368C57.6606 283.17 57.8116 282.995 57.9825 282.844C58.1574 282.689 58.3443 282.553 58.543 282.438C58.2687 282.168 58.07 281.9 57.9468 281.633C57.8235 281.363 57.7619 281.105 57.7619 280.858C57.7619 280.465 57.8534 280.105 58.0362 279.779C58.223 279.453 58.4893 279.173 58.8351 278.938C59.181 278.7 59.6003 278.517 60.0932 278.39C60.5861 278.259 61.1406 278.193 61.7567 278.193C62.3728 278.193 62.9273 278.259 63.4201 278.39C63.913 278.517 64.3324 278.7 64.6782 278.938C65.024 279.173 65.2883 279.453 65.4712 279.779C65.658 280.105 65.7514 280.465 65.7514 280.858C65.7514 281.105 65.6898 281.363 65.5666 281.633C65.4434 281.9 65.2446 282.168 64.9703 282.438C65.1651 282.553 65.3499 282.689 65.5248 282.844C65.6997 282.995 65.8528 283.17 65.9839 283.368C66.1151 283.563 66.2185 283.78 66.294 284.018C66.3695 284.257 66.4073 284.515 66.4073 284.793C66.4073 285.258 66.2979 285.676 66.0793 286.045C65.8647 286.411 65.5546 286.721 65.1492 286.975C64.7478 287.226 64.2588 287.419 63.6825 287.554C63.1101 287.689 62.4682 287.757 61.7567 287.757C61.0452 287.757 60.4012 287.689 59.8249 287.554C59.2525 287.419 58.7636 287.226 58.3582 286.975C57.9567 286.721 57.6467 286.411 57.428 286.045C57.2134 285.676 57.1061 285.258 57.1061 284.793ZM59.652 280.942C59.652 281.089 59.6878 281.228 59.7593 281.359C59.8348 281.486 59.9541 281.599 60.117 281.699C60.284 281.794 60.5006 281.87 60.7669 281.925C61.0372 281.981 61.3671 282.009 61.7567 282.009C62.1462 282.009 62.4741 281.981 62.7404 281.925C63.0107 281.87 63.2274 281.794 63.3903 281.699C63.5573 281.599 63.6765 281.486 63.7481 281.359C63.8236 281.228 63.8614 281.089 63.8614 280.942C63.8614 280.795 63.8236 280.657 63.7481 280.53C63.6765 280.399 63.5573 280.286 63.3903 280.19C63.2274 280.091 63.0107 280.014 62.7404 279.958C62.4741 279.902 62.1462 279.874 61.7567 279.874C61.3671 279.874 61.0372 279.902 60.7669 279.958C60.5006 280.014 60.284 280.091 60.117 280.19C59.9541 280.286 59.8348 280.399 59.7593 280.53C59.6878 280.657 59.652 280.795 59.652 280.942ZM58.9961 284.704C58.9961 284.907 59.0538 285.093 59.169 285.264C59.2883 285.431 59.4632 285.574 59.6937 285.694C59.9243 285.813 60.2124 285.906 60.5582 285.974C60.9041 286.041 61.3035 286.075 61.7567 286.075C62.2098 286.075 62.6093 286.041 62.9551 285.974C63.3009 285.906 63.5891 285.813 63.8196 285.694C64.0502 285.574 64.2231 285.431 64.3383 285.264C64.4576 285.093 64.5172 284.907 64.5172 284.704C64.5172 284.501 64.4596 284.316 64.3443 284.149C64.233 283.978 64.0621 283.833 63.8315 283.714C63.605 283.595 63.3188 283.501 62.973 283.434C62.6272 283.366 62.2217 283.333 61.7567 283.333C61.2916 283.333 60.8862 283.366 60.5404 283.434C60.1946 283.501 59.9064 283.595 59.6758 283.714C59.4493 283.833 59.2783 283.978 59.1631 284.149C59.0518 284.316 58.9961 284.501 58.9961 284.704ZM73.407 279.982L67.9873 279.982L67.9873 278.312L76.2689 278.312L71.4096 287.631L69.2632 287.631L73.407 279.982ZM78.1649 285.413C78.6339 285.644 79.1348 285.813 79.6674 285.92C80.204 286.024 80.7267 286.075 81.2355 286.075C81.6886 286.075 82.0801 286.039 82.41 285.968C82.74 285.892 83.0122 285.791 83.2269 285.664C83.4415 285.537 83.6005 285.386 83.7039 285.211C83.8072 285.036 83.8589 284.847 83.8589 284.644C83.8589 284.37 83.7655 284.126 83.5787 283.911C83.3918 283.692 83.1076 283.529 82.726 283.422C82.3484 283.311 81.8695 283.267 81.2891 283.291C80.7128 283.315 80.0331 283.428 79.25 283.631L79.256 282.235L82.738 279.97L77.8072 279.97L77.8072 278.312L85.266 278.312L85.266 279.934L82.2014 281.878C82.7618 281.878 83.2627 281.949 83.7039 282.092C84.1451 282.235 84.5167 282.432 84.8188 282.683C85.1209 282.933 85.3514 283.229 85.5104 283.571C85.6694 283.913 85.7489 284.281 85.7489 284.674C85.7489 285.139 85.6456 285.562 85.4389 285.944C85.2362 286.322 84.94 286.646 84.5505 286.916C84.161 287.182 83.684 287.389 83.1196 287.536C82.5591 287.683 81.9231 287.757 81.2116 287.757C80.4564 287.757 79.7588 287.677 79.1189 287.518C78.4789 287.355 77.8708 287.131 77.2944 286.844L78.1649 285.413ZM87.6449 284.793C87.6449 284.515 87.6827 284.257 87.7582 284.018C87.8337 283.78 87.9371 283.563 88.0683 283.368C88.1994 283.17 88.3505 282.995 88.5214 282.844C88.6963 282.689 88.8831 282.553 89.0819 282.438C88.8076 282.168 88.6088 281.9 88.4856 281.633C88.3624 281.363 88.3008 281.105 88.3008 280.858C88.3008 280.465 88.3922 280.105 88.5751 279.779C88.7619 279.453 89.0282 279.173 89.374 278.938C89.7198 278.7 90.1392 278.517 90.632 278.39C91.1249 278.259 91.6794 278.193 92.2955 278.193C92.9116 278.193 93.4661 278.259 93.959 278.39C94.4519 278.517 94.8712 278.7 95.2171 278.938C95.5629 279.173 95.8272 279.453 96.01 279.779C96.1969 280.105 96.2903 280.465 96.2903 280.858C96.2903 281.105 96.2287 281.363 96.1054 281.633C95.9822 281.9 95.7835 282.168 95.5092 282.438C95.704 282.553 95.8888 282.689 96.0637 282.844C96.2386 282.995 96.3916 283.17 96.5228 283.368C96.654 283.563 96.7573 283.78 96.8328 284.018C96.9084 284.257 96.9461 284.515 96.9461 284.793C96.9461 285.258 96.8368 285.676 96.6182 286.045C96.4035 286.411 96.0935 286.721 95.6881 286.975C95.2866 287.226 94.7977 287.419 94.2213 287.554C93.649 287.689 93.007 287.757 92.2955 287.757C91.584 287.757 90.9401 287.689 90.3637 287.554C89.7914 287.419 89.3025 287.226 88.897 286.975C88.4956 286.721 88.1855 286.411 87.9669 286.045C87.7523 285.676 87.6449 285.258 87.6449 284.793ZM90.1908 280.942C90.1908 281.089 90.2266 281.228 90.2982 281.359C90.3737 281.486 90.4929 281.599 90.6559 281.699C90.8228 281.794 91.0395 281.87 91.3058 281.925C91.5761 281.981 91.906 282.009 92.2955 282.009C92.6851 282.009 93.013 281.981 93.2793 281.925C93.5496 281.87 93.7662 281.794 93.9292 281.699C94.0961 281.599 94.2154 281.486 94.2869 281.359C94.3625 281.228 94.4002 281.089 94.4002 280.942C94.4002 280.795 94.3625 280.657 94.2869 280.53C94.2154 280.399 94.0961 280.286 93.9292 280.19C93.7662 280.091 93.5496 280.014 93.2793 279.958C93.013 279.902 92.6851 279.874 92.2955 279.874C91.906 279.874 91.5761 279.902 91.3058 279.958C91.0395 280.014 90.8228 280.091 90.6559 280.19C90.4929 280.286 90.3737 280.399 90.2982 280.53C90.2266 280.657 90.1908 280.795 90.1908 280.942ZM89.535 284.704C89.535 284.907 89.5926 285.093 89.7079 285.264C89.8271 285.431 90.002 285.574 90.2326 285.694C90.4631 285.813 90.7513 285.906 91.0971 285.974C91.4429 286.041 91.8424 286.075 92.2955 286.075C92.7487 286.075 93.1481 286.041 93.4939 285.974C93.8398 285.906 94.1279 285.813 94.3585 285.694C94.589 285.574 94.7619 285.431 94.8772 285.264C94.9964 285.093 95.0561 284.907 95.0561 284.704C95.0561 284.501 94.9984 284.316 94.8832 284.149C94.7719 283.978 94.6009 283.833 94.3704 283.714C94.1438 283.595 93.8576 283.501 93.5118 283.434C93.166 283.366 92.7606 283.333 92.2955 283.333C91.8305 283.333 91.425 283.366 91.0792 283.434C90.7334 283.501 90.4452 283.595 90.2147 283.714C89.9881 283.833 89.8172 283.978 89.7019 284.149C89.5906 284.316 89.535 284.501 89.535 284.704ZM100.357 285.479C100.527 285.578 100.718 285.666 100.929 285.741C101.14 285.817 101.356 285.88 101.579 285.932C101.805 285.98 102.032 286.018 102.259 286.045C102.489 286.069 102.708 286.081 102.914 286.081C103.375 286.081 103.791 286.022 104.16 285.902C104.534 285.783 104.856 285.614 105.126 285.395C105.397 285.177 105.611 284.917 105.77 284.614C105.933 284.308 106.035 283.971 106.074 283.601C105.868 283.764 105.639 283.905 105.389 284.024C105.138 284.143 104.872 284.243 104.59 284.322C104.312 284.398 104.023 284.455 103.725 284.495C103.431 284.531 103.135 284.549 102.837 284.549C102.257 284.549 101.728 284.479 101.251 284.34C100.778 284.201 100.372 284 100.035 283.738C99.6967 283.476 99.4344 283.158 99.2476 282.784C99.0647 282.406 98.9733 281.979 98.9733 281.502C98.9733 281.033 99.0647 280.598 99.2476 280.196C99.4344 279.795 99.7086 279.447 100.07 279.153C100.432 278.855 100.881 278.622 101.418 278.455C101.954 278.284 102.577 278.199 103.284 278.199C103.972 278.199 104.6 278.286 105.168 278.461C105.737 278.636 106.223 278.909 106.629 279.278C107.034 279.648 107.348 280.119 107.571 280.691C107.797 281.26 107.911 281.939 107.911 282.73C107.911 283.577 107.784 284.316 107.529 284.948C107.279 285.576 106.933 286.099 106.492 286.516C106.055 286.934 105.538 287.246 104.942 287.452C104.345 287.659 103.701 287.763 103.01 287.763C102.72 287.763 102.418 287.745 102.103 287.709C101.793 287.673 101.485 287.619 101.179 287.548C100.873 287.476 100.577 287.387 100.291 287.28C100.009 287.172 99.7504 287.049 99.5159 286.91L100.357 285.479ZM100.863 281.472C100.863 281.667 100.905 281.85 100.989 282.021C101.072 282.192 101.201 282.341 101.376 282.468C101.555 282.591 101.784 282.691 102.062 282.766C102.34 282.838 102.676 282.873 103.069 282.873C103.399 282.873 103.711 282.848 104.005 282.796C104.3 282.744 104.572 282.673 104.822 282.581C105.073 282.49 105.299 282.383 105.502 282.259C105.709 282.136 105.886 282.001 106.033 281.854C105.937 281.202 105.651 280.711 105.174 280.381C104.697 280.047 104.071 279.88 103.296 279.88C102.906 279.88 102.561 279.92 102.259 280C101.956 280.079 101.702 280.19 101.495 280.334C101.289 280.473 101.132 280.64 101.024 280.834C100.917 281.029 100.863 281.242 100.863 281.472ZM110.194 283.982L115.644 278.312L117.534 278.312L117.534 283.982L119.543 283.982L119.543 285.64L117.534 285.64L117.534 287.631L115.644 287.631L115.644 285.64L110.182 285.64L110.194 283.982ZM115.644 283.982L115.644 280.703L112.46 283.982L115.644 283.982ZM121.88 285.413C122.349 285.644 122.85 285.813 123.383 285.92C123.92 286.024 124.442 286.075 124.951 286.075C125.404 286.075 125.796 286.039 126.126 285.968C126.455 285.892 126.728 285.791 126.942 285.664C127.157 285.537 127.316 285.386 127.419 285.211C127.523 285.036 127.574 284.847 127.574 284.644C127.574 284.37 127.481 284.126 127.294 283.911C127.107 283.692 126.823 283.529 126.442 283.422C126.064 283.311 125.585 283.267 125.005 283.291C124.428 283.315 123.749 283.428 122.966 283.631L122.972 282.235L126.453 279.97L121.523 279.97L121.523 278.312L128.982 278.312L128.982 279.934L125.917 281.878C126.477 281.878 126.978 281.949 127.419 282.092C127.861 282.235 128.232 282.432 128.534 282.683C128.836 282.933 129.067 283.229 129.226 283.571C129.385 283.913 129.464 284.281 129.464 284.674C129.464 285.139 129.361 285.562 129.154 285.944C128.952 286.322 128.656 286.646 128.266 286.916C127.876 287.182 127.4 287.389 126.835 287.536C126.275 287.683 125.639 287.757 124.927 287.757C124.172 287.757 123.474 287.677 122.834 287.518C122.194 287.355 121.586 287.131 121.01 286.844L121.88 285.413Z" fill="#D9D9D9"/>
<path opacity="0.5" d="M326.392 118.859L323.956 118.859L323.956 110.965L326.5 110.965C327.266 110.965 327.921 111.123 328.466 111.439C329.01 111.753 329.428 112.204 329.718 112.792C330.009 113.378 330.154 114.079 330.154 114.897C330.154 115.719 330.007 116.427 329.714 117.02C329.421 117.611 328.995 118.066 328.435 118.385C327.875 118.701 327.194 118.859 326.392 118.859ZM324.912 118.011L326.33 118.011C326.983 118.011 327.524 117.885 327.953 117.633C328.382 117.381 328.702 117.023 328.913 116.558C329.123 116.093 329.229 115.539 329.229 114.897C329.229 114.259 329.125 113.711 328.917 113.251C328.708 112.788 328.397 112.434 327.984 112.187C327.57 111.938 327.055 111.813 326.438 111.813L324.912 111.813L324.912 118.011ZM334.116 118.982C333.546 118.982 333.054 118.856 332.64 118.604C332.229 118.35 331.911 117.995 331.688 117.541C331.467 117.083 331.356 116.551 331.356 115.945C331.356 115.339 331.467 114.804 331.688 114.342C331.911 113.876 332.222 113.514 332.621 113.255C333.021 112.992 333.489 112.861 334.024 112.861C334.332 112.861 334.636 112.913 334.937 113.016C335.238 113.118 335.511 113.285 335.758 113.517C336.005 113.745 336.201 114.049 336.348 114.426C336.494 114.804 336.568 115.269 336.568 115.822L336.568 116.207L332.004 116.207L332.004 115.421L335.642 115.421C335.642 115.087 335.576 114.789 335.442 114.527C335.311 114.264 335.123 114.058 334.879 113.906C334.638 113.754 334.353 113.679 334.024 113.679C333.661 113.679 333.348 113.768 333.083 113.948C332.821 114.126 332.619 114.357 332.478 114.642C332.337 114.927 332.266 115.233 332.266 115.56L332.266 116.084C332.266 116.531 332.343 116.91 332.497 117.221C332.654 117.529 332.871 117.764 333.149 117.926C333.426 118.085 333.749 118.165 334.116 118.165C334.355 118.165 334.571 118.132 334.764 118.065C334.959 117.995 335.127 117.893 335.269 117.757C335.41 117.618 335.519 117.446 335.596 117.24L336.475 117.487C336.383 117.785 336.227 118.047 336.009 118.273C335.79 118.497 335.52 118.671 335.199 118.797C334.878 118.921 334.517 118.982 334.116 118.982ZM338.075 118.859L338.075 110.965L338.984 110.965L338.984 113.879L339.061 113.879C339.128 113.776 339.221 113.645 339.339 113.486C339.46 113.324 339.632 113.18 339.855 113.054C340.081 112.926 340.387 112.861 340.773 112.861C341.271 112.861 341.711 112.986 342.091 113.235C342.471 113.485 342.768 113.838 342.981 114.295C343.195 114.753 343.301 115.292 343.301 115.914C343.301 116.541 343.195 117.085 342.981 117.545C342.768 118.002 342.472 118.357 342.095 118.608C341.717 118.858 341.281 118.982 340.788 118.982C340.408 118.982 340.103 118.919 339.875 118.793C339.646 118.665 339.47 118.52 339.347 118.358C339.223 118.193 339.128 118.057 339.061 117.949L338.953 117.949L338.953 118.859L338.075 118.859ZM338.969 115.899C338.969 116.346 339.034 116.74 339.165 117.082C339.296 117.421 339.488 117.687 339.74 117.88C339.992 118.07 340.3 118.165 340.665 118.165C341.045 118.165 341.362 118.065 341.617 117.864C341.874 117.661 342.066 117.389 342.195 117.047C342.326 116.703 342.392 116.32 342.392 115.899C342.392 115.482 342.327 115.107 342.199 114.773C342.073 114.437 341.881 114.171 341.625 113.975C341.37 113.777 341.05 113.679 340.665 113.679C340.295 113.679 339.984 113.772 339.732 113.96C339.48 114.145 339.29 114.404 339.162 114.739C339.033 115.07 338.969 115.457 338.969 115.899ZM344.693 118.859L344.693 112.939L345.602 112.939L345.602 118.859L344.693 118.859ZM345.155 111.952C344.978 111.952 344.825 111.891 344.696 111.771C344.571 111.65 344.508 111.505 344.508 111.335C344.508 111.165 344.571 111.02 344.696 110.9C344.825 110.779 344.978 110.718 345.155 110.718C345.332 110.718 345.484 110.779 345.61 110.9C345.738 111.02 345.803 111.165 345.803 111.335C345.803 111.505 345.738 111.65 345.61 111.771C345.484 111.891 345.332 111.952 345.155 111.952ZM349.843 112.939L349.843 113.709L346.775 113.709L346.775 112.939L349.843 112.939ZM347.669 111.52L348.579 111.52L348.579 117.163C348.579 117.42 348.616 117.613 348.691 117.741C348.768 117.867 348.865 117.952 348.984 117.995C349.104 118.037 349.232 118.057 349.365 118.057C349.465 118.057 349.548 118.052 349.612 118.042C349.676 118.029 349.727 118.019 349.766 118.011L349.951 118.828C349.889 118.851 349.803 118.874 349.693 118.897C349.582 118.923 349.442 118.936 349.273 118.936C349.016 118.936 348.764 118.881 348.517 118.77C348.273 118.66 348.07 118.491 347.908 118.265C347.749 118.039 347.669 117.754 347.669 117.41L347.669 111.52ZM360.739 113.432L359.784 113.432C359.727 113.157 359.628 112.915 359.487 112.707C359.348 112.499 359.178 112.324 358.978 112.183C358.78 112.039 358.56 111.931 358.319 111.859C358.077 111.787 357.826 111.751 357.563 111.751C357.086 111.751 356.653 111.872 356.265 112.114C355.879 112.355 355.572 112.711 355.343 113.181C355.117 113.652 355.004 114.228 355.004 114.912C355.004 115.595 355.117 116.172 355.343 116.643C355.572 117.113 355.879 117.469 356.265 117.71C356.653 117.952 357.086 118.073 357.563 118.073C357.826 118.073 358.077 118.037 358.319 117.965C358.56 117.893 358.78 117.786 358.978 117.645C359.178 117.501 359.348 117.325 359.487 117.117C359.628 116.906 359.727 116.664 359.784 116.392L360.739 116.392C360.668 116.795 360.536 117.157 360.346 117.475C360.156 117.794 359.92 118.065 359.637 118.288C359.354 118.509 359.037 118.678 358.685 118.793C358.336 118.909 357.962 118.967 357.563 118.967C356.89 118.967 356.292 118.802 355.767 118.473C355.243 118.145 354.831 117.677 354.53 117.07C354.229 116.464 354.079 115.745 354.079 114.912C354.079 114.079 354.229 113.36 354.53 112.754C354.831 112.147 355.243 111.679 355.767 111.35C356.292 111.022 356.89 110.857 357.563 110.857C357.962 110.857 358.336 110.915 358.685 111.031C359.037 111.146 359.354 111.316 359.637 111.539C359.92 111.76 360.156 112.03 360.346 112.349C360.536 112.665 360.668 113.026 360.739 113.432ZM363.903 118.998C363.528 118.998 363.187 118.927 362.882 118.786C362.576 118.642 362.333 118.435 362.153 118.165C361.973 117.893 361.883 117.564 361.883 117.178C361.883 116.839 361.95 116.564 362.084 116.354C362.217 116.14 362.396 115.973 362.619 115.852C362.843 115.732 363.09 115.642 363.36 115.583C363.632 115.521 363.906 115.472 364.181 115.436C364.54 115.39 364.832 115.355 365.055 115.332C365.282 115.306 365.446 115.264 365.549 115.205C365.654 115.146 365.707 115.043 365.707 114.897L365.707 114.866C365.707 114.485 365.603 114.19 365.395 113.979C365.189 113.768 364.877 113.663 364.458 113.663C364.024 113.663 363.683 113.758 363.437 113.948C363.19 114.139 363.016 114.342 362.916 114.557L362.053 114.249C362.207 113.889 362.413 113.609 362.67 113.409C362.929 113.206 363.212 113.064 363.518 112.985C363.826 112.903 364.129 112.861 364.427 112.861C364.617 112.861 364.836 112.885 365.082 112.931C365.332 112.974 365.572 113.066 365.803 113.204C366.037 113.343 366.231 113.553 366.385 113.833C366.539 114.113 366.617 114.488 366.617 114.958L366.617 118.859L365.707 118.859L365.707 118.057L365.661 118.057C365.599 118.186 365.496 118.323 365.352 118.47C365.208 118.616 365.017 118.741 364.778 118.843C364.539 118.946 364.247 118.998 363.903 118.998ZM364.042 118.181C364.402 118.181 364.705 118.11 364.951 117.969C365.201 117.827 365.388 117.645 365.514 117.421C365.643 117.198 365.707 116.963 365.707 116.716L365.707 115.883C365.668 115.93 365.584 115.972 365.452 116.01C365.324 116.046 365.175 116.079 365.005 116.107C364.838 116.133 364.675 116.156 364.516 116.176C364.359 116.194 364.232 116.21 364.134 116.222C363.898 116.253 363.677 116.303 363.471 116.373C363.268 116.44 363.104 116.541 362.978 116.677C362.855 116.811 362.793 116.993 362.793 117.225C362.793 117.541 362.91 117.78 363.144 117.942C363.38 118.101 363.679 118.181 364.042 118.181ZM368.277 118.859L368.277 112.939L369.156 112.939L369.156 113.833L369.217 113.833C369.325 113.54 369.52 113.302 369.803 113.12C370.086 112.937 370.404 112.846 370.759 112.846C370.826 112.846 370.909 112.847 371.01 112.85C371.11 112.852 371.186 112.856 371.237 112.861L371.237 113.786C371.206 113.779 371.135 113.767 371.025 113.752C370.917 113.734 370.803 113.725 370.682 113.725C370.394 113.725 370.137 113.785 369.911 113.906C369.688 114.024 369.51 114.189 369.379 114.399C369.251 114.607 369.186 114.845 369.186 115.112L369.186 118.859L368.277 118.859ZM374.371 118.982C373.877 118.982 373.442 118.858 373.064 118.608C372.686 118.357 372.391 118.002 372.177 117.545C371.964 117.085 371.858 116.541 371.858 115.914C371.858 115.292 371.964 114.753 372.177 114.295C372.391 113.838 372.688 113.485 373.068 113.235C373.448 112.986 373.888 112.861 374.386 112.861C374.771 112.861 375.076 112.926 375.3 113.054C375.526 113.18 375.698 113.324 375.816 113.486C375.937 113.645 376.031 113.776 376.097 113.879L376.174 113.879L376.174 110.965L377.084 110.965L377.084 118.859L376.205 118.859L376.205 117.949L376.097 117.949C376.031 118.057 375.936 118.193 375.812 118.358C375.689 118.52 375.513 118.665 375.284 118.793C375.055 118.919 374.751 118.982 374.371 118.982ZM374.494 118.165C374.859 118.165 375.167 118.07 375.419 117.88C375.671 117.687 375.862 117.421 375.993 117.082C376.124 116.74 376.19 116.346 376.19 115.899C376.19 115.457 376.126 115.07 375.997 114.739C375.869 114.404 375.679 114.145 375.427 113.96C375.175 113.772 374.864 113.679 374.494 113.679C374.109 113.679 373.787 113.777 373.53 113.975C373.276 114.171 373.085 114.437 372.956 114.773C372.83 115.107 372.767 115.482 372.767 115.899C372.767 116.32 372.831 116.703 372.96 117.047C373.091 117.389 373.284 117.661 373.538 117.864C373.795 118.065 374.114 118.165 374.494 118.165Z" fill="white"/>
<rect x="47.5" y="102.613" width="94" height="24" rx="12" stroke="#DBDBDB" stroke-opacity="0.4"/>
<path d="M59.2775 110.219L60.3722 110.219L62.5615 113.904L62.654 113.904L64.8433 110.219L65.9379 110.219L63.0857 114.86L63.0857 118.113L62.1298 118.113L62.1298 114.86L59.2775 110.219ZM73.4637 114.166C73.4637 114.998 73.3134 115.718 73.0127 116.324C72.7121 116.931 72.2996 117.398 71.7754 117.727C71.2512 118.056 70.6525 118.221 69.9793 118.221C69.3061 118.221 68.7073 118.056 68.1831 117.727C67.6589 117.398 67.2465 116.931 66.9459 116.324C66.6452 115.718 66.4949 114.998 66.4949 114.166C66.4949 113.333 66.6452 112.614 66.9459 112.007C67.2465 111.401 67.6589 110.933 68.1831 110.604C68.7073 110.275 69.3061 110.111 69.9793 110.111C70.6525 110.111 71.2512 110.275 71.7754 110.604C72.2996 110.933 72.7121 111.401 73.0127 112.007C73.3134 112.614 73.4637 113.333 73.4637 114.166ZM72.5386 114.166C72.5386 113.482 72.4243 112.905 72.1956 112.435C71.9694 111.965 71.6624 111.609 71.2744 111.368C70.8889 111.126 70.4572 111.005 69.9793 111.005C69.5013 111.005 69.0684 111.126 68.6804 111.368C68.2949 111.609 67.9878 111.965 67.7591 112.435C67.533 112.905 67.42 113.482 67.42 114.166C67.42 114.849 67.533 115.426 67.7591 115.897C67.9878 116.367 68.2949 116.723 68.6804 116.964C69.0684 117.206 69.5013 117.326 69.9793 117.326C70.4572 117.326 70.8889 117.206 71.2744 116.964C71.6624 116.723 71.9694 116.367 72.1956 115.897C72.4243 115.426 72.5386 114.849 72.5386 114.166ZM80.2513 110.219L81.2072 110.219L81.2072 115.446C81.2072 115.985 81.08 116.467 80.8256 116.891C80.5738 117.312 80.2179 117.645 79.7579 117.889C79.298 118.131 78.7583 118.252 78.1391 118.252C77.5198 118.252 76.9802 118.131 76.5202 117.889C76.0603 117.645 75.7031 117.312 75.4487 116.891C75.1969 116.467 75.071 115.985 75.071 115.446L75.071 110.219L76.0269 110.219L76.0269 115.368C76.0269 115.754 76.1117 116.097 76.2812 116.398C76.4508 116.696 76.6924 116.931 77.0059 117.103C77.3219 117.273 77.6997 117.357 78.1391 117.357C78.5785 117.357 78.9562 117.273 79.2723 117.103C79.5883 116.931 79.8299 116.696 79.9969 116.398C80.1665 116.097 80.2513 115.754 80.2513 115.368L80.2513 110.219ZM83.1161 118.113L83.1161 110.219L85.7833 110.219C86.4 110.219 86.9063 110.324 87.302 110.535C87.6977 110.743 87.9906 111.03 88.1808 111.395C88.3709 111.759 88.466 112.174 88.466 112.64C88.466 113.105 88.3709 113.517 88.1808 113.877C87.9906 114.237 87.699 114.519 87.3058 114.725C86.9127 114.928 86.4103 115.029 85.7988 115.029L83.6403 115.029L83.6403 114.166L85.7679 114.166C86.1893 114.166 86.5285 114.104 86.7855 113.981C87.045 113.858 87.2326 113.683 87.3482 113.457C87.4664 113.228 87.5255 112.956 87.5255 112.64C87.5255 112.323 87.4664 112.047 87.3482 111.811C87.23 111.574 87.0412 111.392 86.7816 111.264C86.5221 111.132 86.1791 111.067 85.7525 111.067L84.072 111.067L84.072 118.113L83.1161 118.113ZM86.8317 114.567L88.7744 118.113L87.6643 118.113L85.7525 114.567L86.8317 114.567ZM93.1115 118.113L93.1115 110.219L95.8713 110.219C96.4212 110.219 96.8747 110.314 97.2319 110.504C97.5891 110.692 97.855 110.945 98.0298 111.264C98.2045 111.58 98.2919 111.93 98.2919 112.316C98.2919 112.655 98.2315 112.935 98.1107 113.156C97.9925 113.377 97.8358 113.552 97.6405 113.68C97.4477 113.809 97.2383 113.904 97.0122 113.965L97.0122 114.043C97.2537 114.058 97.4966 114.143 97.7407 114.297C97.9848 114.451 98.1891 114.672 98.3535 114.96C98.518 115.248 98.6002 115.6 98.6002 116.016C98.6002 116.412 98.5103 116.768 98.3304 117.084C98.1505 117.4 97.8666 117.65 97.4786 117.835C97.0906 118.02 96.5856 118.113 95.9638 118.113L93.1115 118.113ZM94.0674 117.265L95.9638 117.265C96.5882 117.265 97.0315 117.144 97.2936 116.903C97.5582 116.658 97.6906 116.363 97.6906 116.016C97.6906 115.749 97.6225 115.502 97.4863 115.276C97.3501 115.047 97.1561 114.865 96.9043 114.729C96.6525 114.59 96.3544 114.52 96.0101 114.52L94.0674 114.52L94.0674 117.265ZM94.0674 113.688L95.8405 113.688C96.1283 113.688 96.3878 113.631 96.619 113.518C96.8529 113.405 97.0379 113.246 97.1741 113.04C97.3128 112.835 97.3822 112.593 97.3822 112.316C97.3822 111.969 97.2614 111.675 97.0199 111.433C96.7784 111.189 96.3955 111.067 95.8713 111.067L94.0674 111.067L94.0674 113.688ZM100.171 118.113L100.171 110.219L102.838 110.219C103.455 110.219 103.961 110.324 104.357 110.535C104.752 110.743 105.045 111.03 105.236 111.395C105.426 111.759 105.521 112.174 105.521 112.64C105.521 113.105 105.426 113.517 105.236 113.877C105.045 114.237 104.754 114.519 104.361 114.725C103.967 114.928 103.465 115.029 102.854 115.029L100.695 115.029L100.695 114.166L102.823 114.166C103.244 114.166 103.583 114.104 103.84 113.981C104.1 113.858 104.287 113.683 104.403 113.457C104.521 113.228 104.58 112.956 104.58 112.64C104.58 112.323 104.521 112.047 104.403 111.811C104.285 111.574 104.096 111.392 103.836 111.264C103.577 111.132 103.234 111.067 102.807 111.067L101.127 111.067L101.127 118.113L100.171 118.113ZM103.887 114.567L105.829 118.113L104.719 118.113L102.807 114.567L103.887 114.567ZM107.437 118.113L106.435 118.113L109.334 110.219L110.321 110.219L113.219 118.113L112.217 118.113L109.858 111.468L109.796 111.468L107.437 118.113ZM107.807 115.029L111.847 115.029L111.847 115.877L107.807 115.877L107.807 115.029ZM120.708 110.219L120.708 118.113L119.783 118.113L115.482 111.915L115.404 111.915L115.404 118.113L114.449 118.113L114.449 110.219L115.374 110.219L119.691 116.432L119.768 116.432L119.768 110.219L120.708 110.219ZM125.057 118.113L122.621 118.113L122.621 110.219L125.165 110.219C125.931 110.219 126.586 110.377 127.131 110.693C127.675 111.007 128.093 111.458 128.383 112.046C128.674 112.632 128.819 113.333 128.819 114.15C128.819 114.973 128.672 115.681 128.379 116.274C128.086 116.865 127.66 117.32 127.1 117.639C126.54 117.955 125.859 118.113 125.057 118.113ZM123.577 117.265L124.995 117.265C125.648 117.265 126.189 117.139 126.618 116.887C127.047 116.635 127.367 116.277 127.578 115.812C127.788 115.347 127.894 114.793 127.894 114.15C127.894 113.513 127.79 112.965 127.582 112.505C127.373 112.042 127.062 111.687 126.649 111.441C126.235 111.192 125.72 111.067 125.103 111.067L123.577 111.067L123.577 117.265Z" fill="white"/>
<path d="M383.436 282.959C382.234 283.326 380.564 283.145 379.498 281.547L378.802 280.503L378.2 279.6L379.498 277.653C380.562 276.056 382.225 275.872 383.436 276.241C384.642 276.605 385.93 277.68 385.93 279.601C385.93 281.521 384.642 282.595 383.436 282.959ZM372.011 281.547C370.946 283.143 369.28 283.328 368.07 282.959C366.866 282.595 365.578 281.521 365.578 279.601C365.578 277.68 366.866 276.605 368.072 276.241C368.403 276.14 368.769 276.08 369.148 276.08C370.148 276.08 371.237 276.494 372.011 277.653L373.309 279.6L372.011 281.547ZM384.615 272.344C381.345 271.357 378.007 272.552 376.112 275.396L375.754 275.93L375.398 275.396C373.5 272.552 370.168 271.349 366.891 272.345C363.622 273.335 361.508 276.183 361.508 279.601C361.508 283.018 363.622 285.865 366.891 286.855C370.161 287.848 373.499 286.65 375.398 283.805L375.754 283.269L376.112 283.805C376.191 283.924 376.273 284.041 376.358 284.154C377.818 286.115 380.003 287.198 382.338 287.198C383.088 287.198 383.853 287.087 384.617 286.856C387.886 285.865 390 283.018 390 279.601C390 276.182 387.886 273.335 384.615 272.344Z" fill="white"/>
<path d="M378.802 280.503L376.357 284.153C376.273 284.04 376.191 283.924 376.112 283.805L375.754 283.269L378.2 279.599L378.802 280.503Z" fill="#BBBCBD"/>
<path d="M375.753 275.93L373.309 279.581C373.224 279.468 373.142 279.351 373.063 279.232L372.705 278.696L375.151 275.027L375.753 275.93Z" fill="#BBBCBD"/>
<defs>
<filter id="filter0_dddd_540_772" x="0.578455" y="0.202967" width="432.843" height="312.867" filterUnits="userSpaceOnUse" color-interpolation-filters="sRGB">
<feFlood flood-opacity="0" result="BackgroundImageFix"/>
<feColorMatrix in="SourceAlpha" type="matrix" values="0 0 0 0 0 0 0 0 0 0 0 0 0 0 0 0 0 0 127 0" result="hardAlpha"/>
<feOffset dy="-4.07026"/>
<feGaussianBlur stdDeviation="4.07026"/>
<feColorMatrix type="matrix" values="0 0 0 0 0 0 0 0 0 0 0 0 0 0 0 0 0 0 0.1 0"/>
<feBlend mode="normal" in2="BackgroundImageFix" result="effect1_dropShadow_540_772"/>
<feColorMatrix in="SourceAlpha" type="matrix" values="0 0 0 0 0 0 0 0 0 0 0 0 0 0 0 0 0 0 127 0" result="hardAlpha"/>
<feOffset dy="-14.9243"/>
<feGaussianBlur stdDeviation="7.46214"/>
<feColorMatrix type="matrix" values="0 0 0 0 0 0 0 0 0 0 0 0 0 0 0 0 0 0 0.09 0"/>
<feBlend mode="normal" in2="effect1_dropShadow_540_772" result="effect2_dropShadow_540_772"/>
<feColorMatrix in="SourceAlpha" type="matrix" values="0 0 0 0 0 0 0 0 0 0 0 0 0 0 0 0 0 0 127 0" result="hardAlpha"/>
<feOffset dy="-33.9188"/>
<feGaussianBlur stdDeviation="10.1756"/>
<feColorMatrix type="matrix" values="0 0 0 0 0 0 0 0 0 0 0 0 0 0 0 0 0 0 0.05 0"/>
<feBlend mode="normal" in2="effect2_dropShadow_540_772" result="effect3_dropShadow_540_772"/>
<feColorMatrix in="SourceAlpha" type="matrix" values="0 0 0 0 0 0 0 0 0 0 0 0 0 0 0 0 0 0 127 0" result="hardAlpha"/>
<feOffset dy="-60.3755"/>
<feGaussianBlur stdDeviation="12.2108"/>
<feColorMatrix type="matrix" values="0 0 0 0 0 0 0 0 0 0 0 0 0 0 0 0 0 0 0.01 0"/>
<feBlend mode="normal" in2="effect3_dropShadow_540_772" result="effect4_dropShadow_540_772"/>
<feBlend mode="normal" in="SourceGraphic" in2="effect4_dropShadow_540_772" result="shape"/>
</filter>
<linearGradient id="paint0_linear_540_772" x1="331.865" y1="501" x2="25" y2="501" gradientUnits="userSpaceOnUse">
<stop stop-color="#666969"/>
<stop offset="1" stop-color="#055D81"/>
</linearGradient>
<linearGradient id="paint1_linear_540_772" x1="93.6147" y1="199.343" x2="53.1328" y2="233.047" gradientUnits="userSpaceOnUse">
<stop stop-color="#CDCDCD"/>
<stop offset="0.447917" stop-color="#E8E8E8"/>
<stop offset="1" stop-color="#B4B4B4"/>
</linearGradient>
<linearGradient id="paint2_linear_540_772" x1="93.6147" y1="199.343" x2="53.1328" y2="233.046" gradientUnits="userSpaceOnUse">
<stop stop-color="#CDCDCD"/>
<stop offset="0.447917" stop-color="#E8E8E8"/>
<stop offset="1" stop-color="#B4B4B4"/>
</linearGradient>
</defs>
</svg>
