<svg width="168" height="46" viewBox="0 0 168 46" fill="none" xmlns="http://www.w3.org/2000/svg">
<path d="M66.7699 33.4782C64.6865 33.4782 62.898 33.036 61.4043 32.1516C59.9106 31.2475 58.751 29.9994 57.9255 28.4075C57.1197 26.7958 56.7168 24.9385 56.7168 22.8355C56.7168 20.7325 57.1197 18.8752 57.9255 17.2636C58.751 15.652 59.9106 14.3941 61.4043 13.49C62.898 12.5859 64.6865 12.1339 66.7699 12.1339C69.2659 12.1339 71.3099 12.753 72.9019 13.9912C74.5136 15.2294 75.5159 16.9786 75.909 19.2388H71.5163C71.2805 18.1382 70.7596 17.2833 69.9538 16.674C69.148 16.045 68.0769 15.7306 66.7404 15.7306C65.4825 15.7306 64.4114 16.0254 63.5269 16.615C62.6425 17.185 61.9644 18.0006 61.4927 19.0619C61.021 20.1233 60.7852 21.3811 60.7852 22.8355C60.7852 24.2899 61.021 25.5478 61.4927 26.6091C61.9644 27.6704 62.6425 28.4861 63.5269 29.0561C64.4114 29.6064 65.4825 29.8815 66.7404 29.8815C68.0769 29.8815 69.148 29.5965 69.9538 29.0266C70.7596 28.4566 71.2903 27.6508 71.5458 26.6091H75.909C75.5159 28.7514 74.5136 30.4318 72.9019 31.6504C71.3099 32.8689 69.2659 33.4782 66.7699 33.4782ZM83.7333 33.4782C82.5147 33.4782 81.5123 33.2817 80.7262 32.8886C79.94 32.4955 79.3504 31.9649 78.9573 31.2966C78.5839 30.6284 78.3972 29.8914 78.3972 29.0855C78.3972 28.1814 78.6232 27.3953 79.0752 26.727C79.5469 26.0391 80.2545 25.4987 81.1979 25.1056C82.1413 24.7125 83.3303 24.516 84.7651 24.516H88.4502C88.4502 23.8084 88.3421 23.2188 88.1259 22.7471C87.9294 22.2754 87.6149 21.9314 87.1825 21.7152C86.7698 21.4794 86.2392 21.3615 85.5906 21.3615C84.8241 21.3615 84.1656 21.5285 83.6153 21.8627C83.0847 22.1968 82.7604 22.7176 82.6425 23.4252H78.7509C78.8689 22.3442 79.2226 21.4106 79.8123 20.6244C80.4215 19.8383 81.2274 19.229 82.2297 18.7966C83.2321 18.3642 84.3524 18.148 85.5906 18.148C87.0057 18.148 88.2242 18.3839 89.2462 18.8556C90.2682 19.3076 91.0544 19.9857 91.6047 20.8898C92.155 21.7742 92.4302 22.8552 92.4302 24.1327V33.1245H89.0988L88.6566 30.8544H88.6271C88.3913 31.2671 88.1063 31.6307 87.7722 31.9452C87.4577 32.2597 87.0941 32.5348 86.6814 32.7707C86.2883 33.0065 85.8461 33.1834 85.3547 33.3013C84.8634 33.4193 84.3229 33.4782 83.7333 33.4782ZM84.8241 30.4122C85.3547 30.4122 85.8166 30.3237 86.2097 30.1469C86.6224 29.9503 86.9664 29.6948 87.2415 29.3803C87.5363 29.0659 87.7722 28.7023 87.9491 28.2895C88.1259 27.8572 88.234 27.4149 88.2734 26.9629H85.2073C84.6177 26.9629 84.1263 27.0415 83.7333 27.1987C83.3402 27.3363 83.0552 27.5427 82.8783 27.8178C82.7014 28.0733 82.613 28.378 82.613 28.7318C82.613 29.0855 82.7014 29.3902 82.8783 29.6457C83.0552 29.9012 83.3107 30.0977 83.6448 30.2353C83.9789 30.3532 84.372 30.4122 84.8241 30.4122ZM95.5363 33.1245V18.5018H99.0446L99.3689 20.6244H99.4278C99.8799 19.8383 100.499 19.229 101.285 18.7966C102.071 18.3642 102.985 18.148 104.027 18.148C104.754 18.148 105.422 18.2463 106.032 18.4428C106.641 18.6394 107.181 18.9342 107.653 19.3273C108.125 19.7204 108.508 20.2215 108.803 20.8308H108.862C109.412 19.9857 110.12 19.3273 110.984 18.8556C111.849 18.3839 112.842 18.148 113.962 18.148C115.2 18.148 116.252 18.4134 117.117 18.944C117.981 19.455 118.64 20.2117 119.092 21.2141C119.544 22.2164 119.77 23.4546 119.77 24.9287V33.1245H115.819V25.2825C115.819 24.0639 115.583 23.1303 115.112 22.4818C114.64 21.8332 113.903 21.5089 112.901 21.5089C112.252 21.5089 111.682 21.6661 111.191 21.9806C110.699 22.2754 110.316 22.7176 110.041 23.3072C109.786 23.8969 109.658 24.6241 109.658 25.4888V33.1245H105.678V25.2825C105.678 24.0639 105.442 23.1303 104.97 22.4818C104.499 21.8332 103.762 21.5089 102.759 21.5089C102.13 21.5089 101.57 21.6759 101.079 22.0101C100.607 22.3245 100.224 22.7864 99.929 23.3957C99.6538 23.9853 99.5163 24.7125 99.5163 25.5773V33.1245H95.5363ZM130.052 33.4782C128.558 33.4782 127.231 33.1638 126.072 32.5348C124.932 31.9059 124.037 31.0215 123.389 29.8815C122.74 28.7416 122.416 27.4346 122.416 25.9605C122.416 24.4275 122.73 23.0812 123.359 21.9216C124.008 20.7424 124.902 19.8186 126.042 19.1504C127.202 18.4822 128.538 18.148 130.052 18.148C131.526 18.148 132.813 18.4625 133.914 19.0914C135.014 19.7204 135.879 20.5851 136.508 21.6858C137.137 22.7667 137.451 23.9951 137.451 25.3709C137.451 25.5675 137.442 25.7935 137.422 26.049C137.422 26.2848 137.412 26.5305 137.392 26.786H125.246V24.3391H133.412C133.353 23.435 133.01 22.7078 132.381 22.1575C131.771 21.6072 131.005 21.332 130.081 21.332C129.393 21.332 128.764 21.4892 128.194 21.8037C127.624 22.0985 127.172 22.5604 126.838 23.1893C126.504 23.7986 126.337 24.5651 126.337 25.4888V26.3438C126.337 27.1496 126.494 27.8473 126.809 28.4369C127.123 29.0069 127.556 29.4491 128.106 29.7636C128.676 30.0781 129.315 30.2353 130.022 30.2353C130.749 30.2353 131.359 30.0781 131.85 29.7636C132.341 29.4295 132.715 29.0069 132.97 28.4959H137.009C136.734 29.4197 136.272 30.2648 135.624 31.0313C134.975 31.7781 134.179 32.3776 133.236 32.8296C132.292 33.262 131.231 33.4782 130.052 33.4782ZM140.132 33.1245V18.5018H143.641L143.994 21.391H144.024C144.417 20.6244 144.869 20.0053 145.38 19.5336C145.891 19.0619 146.481 18.718 147.149 18.5018C147.837 18.266 148.593 18.148 149.419 18.148V22.3638H148.328C147.679 22.3638 147.09 22.4326 146.559 22.5702C146.048 22.7078 145.606 22.9436 145.233 23.2777C144.879 23.5922 144.604 24.0148 144.407 24.5454C144.211 25.0761 144.112 25.7443 144.112 26.5502V33.1245H140.132ZM156.486 33.4782C155.267 33.4782 154.265 33.2817 153.479 32.8886C152.693 32.4955 152.103 31.9649 151.71 31.2966C151.337 30.6284 151.15 29.8914 151.15 29.0855C151.15 28.1814 151.376 27.3953 151.828 26.727C152.3 26.0391 153.007 25.4987 153.951 25.1056C154.894 24.7125 156.083 24.516 157.518 24.516H161.203C161.203 23.8084 161.095 23.2188 160.879 22.7471C160.682 22.2754 160.368 21.9314 159.935 21.7152C159.523 21.4794 158.992 21.3615 158.343 21.3615C157.577 21.3615 156.918 21.5285 156.368 21.8627C155.837 22.1968 155.513 22.7176 155.395 23.4252H151.504C151.622 22.3442 151.975 21.4106 152.565 20.6244C153.174 19.8383 153.98 19.229 154.982 18.7966C155.985 18.3642 157.105 18.148 158.343 18.148C159.758 18.148 160.977 18.3839 161.999 18.8556C163.021 19.3076 163.807 19.9857 164.357 20.8898C164.908 21.7742 165.183 22.8552 165.183 24.1327V33.1245H161.852L161.409 30.8544H161.38C161.144 31.2671 160.859 31.6307 160.525 31.9452C160.21 32.2597 159.847 32.5348 159.434 32.7707C159.041 33.0065 158.599 33.1834 158.107 33.3013C157.616 33.4193 157.076 33.4782 156.486 33.4782ZM157.577 30.4122C158.107 30.4122 158.569 30.3237 158.962 30.1469C159.375 29.9503 159.719 29.6948 159.994 29.3803C160.289 29.0659 160.525 28.7023 160.702 28.2895C160.879 27.8572 160.987 27.4149 161.026 26.9629H157.96C157.37 26.9629 156.879 27.0415 156.486 27.1987C156.093 27.3363 155.808 27.5427 155.631 27.8178C155.454 28.0733 155.366 28.378 155.366 28.7318C155.366 29.0855 155.454 29.3902 155.631 29.6457C155.808 29.9012 156.063 30.0977 156.398 30.2353C156.732 30.3532 157.125 30.4122 157.577 30.4122Z" fill="#170F49"/>
<mask id="mask0_326_2548" style="mask-type:alpha" maskUnits="userSpaceOnUse" x="0" y="0" width="45" height="46">
<circle cx="22.244" cy="23.0284" r="22.182" fill="#C4C4C4"/>
</mask>
<g mask="url(#mask0_326_2548)">
<circle cx="11.6912" cy="-3.09302" r="18.4035" transform="rotate(-22 11.6912 -3.09302)" fill="#4A3AFF"/>
<circle cx="32.799" cy="49.149" r="18.4035" transform="rotate(-22 32.799 49.149)" fill="#4A3AFF"/>
<circle cx="-3.87597" cy="33.5818" r="18.4035" transform="rotate(-22 -3.87597 33.5818)" fill="#9328FF"/>
<circle cx="47.882" cy="11.2782" r="18.4035" transform="rotate(-22 47.882 11.2782)" fill="#9328FF"/>
</g>
</svg>
