<svg width="24" height="25" viewBox="0 0 24 25" fill="none" xmlns="http://www.w3.org/2000/svg">
<path d="M2 20.0566V17.0566H4V6.05664C4 5.50664 4.19583 5.03581 4.5875 4.64414C4.97917 4.25247 5.45 4.05664 6 4.05664H21V6.05664H6V17.0566H12V20.0566H2Z" fill="#E8EAED"/>
<path d="M16.7701 20V18.6861C16.1087 18.5639 15.5379 18.3296 15.0575 17.9833C14.5771 17.637 14.2246 17.1481 14 16.5167L15.385 16.0583C15.5722 16.5472 15.8498 16.919 16.2179 17.1736C16.586 17.4282 17.0695 17.5556 17.6684 17.5556C18.18 17.5556 18.6136 17.4613 18.9693 17.2729C19.3249 17.0845 19.5027 16.7917 19.5027 16.3944C19.5027 16.038 19.3654 15.7553 19.0909 15.5465C18.8164 15.3377 18.18 15.1009 17.1818 14.8361C16.1087 14.5611 15.3725 14.2326 14.9733 13.8507C14.574 13.4688 14.3743 13.0028 14.3743 12.4528C14.3743 11.7907 14.6364 11.2764 15.1604 10.9097C15.6845 10.5431 16.221 10.3343 16.7701 10.2833V9H18.2674V10.2833C18.8913 10.3648 19.406 10.5507 19.8115 10.841C20.217 11.1312 20.5134 11.4852 20.7005 11.9028L19.3155 12.3917C19.1658 12.0657 18.9537 11.8213 18.6791 11.6583C18.4046 11.4954 18.0303 11.4139 17.5561 11.4139C17.0071 11.4139 16.5891 11.5132 16.3021 11.7118C16.0152 11.9104 15.8717 12.1574 15.8717 12.4528C15.8717 12.7889 16.0588 13.0537 16.4332 13.2472C16.8075 13.4407 17.4563 13.6444 18.3797 13.8583C19.2406 14.062 19.8926 14.3854 20.3356 14.8285C20.7785 15.2715 21 15.7833 21 16.3639C21 17.087 20.738 17.637 20.2139 18.0139C19.6898 18.3907 19.041 18.625 18.2674 18.7167V20H16.7701Z" fill="#E8EAED"/>
</svg>
