<svg width="24" height="25" viewBox="0 0 24 25" fill="none" xmlns="http://www.w3.org/2000/svg">
<path d="M13.025 2.10669C15.4084 2.34002 17.4375 3.29419 19.1125 4.96919C20.7875 6.64419 21.7417 8.67336 21.975 11.0567H14.825C14.675 10.6234 14.4459 10.2442 14.1375 9.91919C13.8292 9.59419 13.4584 9.35669 13.025 9.20669V2.10669ZM15.025 4.65669V8.05669C15.2084 8.20669 15.3834 8.36502 15.55 8.53169C15.7167 8.69836 15.875 8.87336 16.025 9.05669H19.425C19.025 8.05669 18.4417 7.17336 17.675 6.40669C16.9084 5.64002 16.025 5.05669 15.025 4.65669ZM11.025 2.10669V9.20669C10.425 9.42336 9.94169 9.79419 9.57502 10.3192C9.20836 10.8442 9.02502 11.4234 9.02502 12.0567C9.02502 12.69 9.20836 13.2609 9.57502 13.7692C9.94169 14.2775 10.425 14.64 11.025 14.8567V22.0067C8.45836 21.7567 6.31669 20.6817 4.60002 18.7817C2.88336 16.8817 2.02502 14.64 2.02502 12.0567C2.02502 9.47336 2.88336 7.23169 4.60002 5.33169C6.31669 3.43169 8.45836 2.35669 11.025 2.10669ZM9.02502 4.65669C7.50836 5.24002 6.29586 6.20669 5.38752 7.55669C4.47919 8.90669 4.02502 10.4067 4.02502 12.0567C4.02502 13.7067 4.47919 15.2067 5.38752 16.5567C6.29586 17.9067 7.50836 18.89 9.02502 19.5067V16.0567C8.39169 15.5734 7.90002 14.9859 7.55002 14.2942C7.20002 13.6025 7.02502 12.8567 7.02502 12.0567C7.02502 11.2567 7.20002 10.5109 7.55002 9.81919C7.90002 9.12752 8.39169 8.54002 9.02502 8.05669V4.65669ZM14.825 13.0567H21.975C21.7417 15.44 20.7875 17.4692 19.1125 19.1442C17.4375 20.8192 15.4084 21.7734 13.025 22.0067V14.8567C13.4584 14.7067 13.8292 14.4775 14.1375 14.1692C14.4459 13.8609 14.675 13.49 14.825 13.0567ZM16.025 15.0567C15.8917 15.24 15.7375 15.415 15.5625 15.5817C15.3875 15.7484 15.2084 15.9067 15.025 16.0567V19.4567C16.025 19.0567 16.9084 18.4734 17.675 17.7067C18.4417 16.94 19.025 16.0567 19.425 15.0567H16.025Z" fill="#E8EAED"/>
</svg>
