<svg width="488" height="641" viewBox="0 0 488 641" fill="none" xmlns="http://www.w3.org/2000/svg">
<g clip-path="url(#clip0_657_2346)">
<rect width="488" height="640" transform="translate(0 0.0566406)" fill="url(#paint0_radial_657_2346)" fill-opacity="0.3"/>
<g filter="url(#filter0_d_657_2346)">
<mask id="mask0_657_2346" style="mask-type:luminance" maskUnits="userSpaceOnUse" x="23" y="48" width="742" height="497">
<path d="M410.657 53.8624L31.2939 306.771C20.6382 313.875 20.5747 325.393 31.1522 332.497L338.634 539.015C349.211 546.119 366.424 546.119 377.08 539.016L756.443 286.107C767.099 279.003 767.162 267.485 756.585 260.381L449.103 53.8632C438.526 46.759 421.313 46.7586 410.657 53.8624Z" fill="white"/>
<path d="M32.0397 307.272L411.403 54.3633C421.649 47.5324 438.194 47.5364 448.356 54.3616L755.837 260.879C765.999 267.704 765.944 278.775 755.697 285.606L376.334 538.515C366.088 545.346 349.543 545.342 339.381 538.516L31.8997 331.999C21.7377 325.174 21.7933 314.103 32.0397 307.272Z" stroke="white" stroke-width="1.79686"/>
</mask>
<g mask="url(#mask0_657_2346)">
<path d="M410.657 53.8624L31.2939 306.771C20.6382 313.875 20.5747 325.393 31.1522 332.497L338.634 539.015C349.211 546.119 366.424 546.119 377.08 539.016L756.443 286.107C767.099 279.003 767.162 267.485 756.585 260.381L449.103 53.8632C438.526 46.759 421.313 46.7586 410.657 53.8624Z" fill="#2A2A2A"/>
<path d="M429.951 40.9998L12 319.634L35.894 335.682L453.845 57.0481L429.951 40.9998Z" fill="#020202"/>
<path d="M45.5294 317.993C47.4938 316.684 47.5055 314.56 45.5556 313.251C43.6056 311.941 40.4324 311.941 38.468 313.25C36.5036 314.56 36.4919 316.683 38.4419 317.993C40.3918 319.303 43.565 319.303 45.5294 317.993Z" fill="#A5A5A5"/>
<path d="M57.5656 309.97C59.53 308.66 59.5417 306.537 57.5917 305.227C55.6417 303.917 52.4685 303.917 50.5041 305.227C48.5397 306.537 48.528 308.66 50.478 309.97C52.428 311.279 55.6012 311.279 57.5656 309.97Z" fill="#A5A5A5"/>
<path d="M69.5998 301.946C71.5642 300.636 71.5758 298.513 69.6259 297.203C67.6759 295.893 64.5027 295.893 62.5383 297.203C60.5739 298.513 60.5622 300.636 62.5122 301.946C64.4621 303.255 67.6354 303.255 69.5998 301.946Z" fill="#A5A5A5"/>
<path d="M453.845 57.0477L35.8936 335.682L101.458 379.718L519.409 101.084L453.845 57.0477Z" fill="#7C7C7C"/>
<path d="M186.47 263.098L75.9391 336.785C73.3008 338.544 73.2851 341.396 75.904 343.155L90.3143 352.833C92.9331 354.592 97.1949 354.592 99.8331 352.833L210.364 279.146C213.003 277.387 213.018 274.535 210.399 272.776L195.989 263.098C193.37 261.339 189.109 261.339 186.47 263.098Z" fill="#2A2A2A"/>
<path d="M444.657 386.026L306.684 478.008C303.658 480.026 303.64 483.297 306.644 485.315L315.984 491.588C318.988 493.606 323.877 493.606 326.904 491.589L464.877 399.607C467.903 397.589 467.921 394.318 464.917 392.3L455.577 386.027C452.572 384.009 447.684 384.009 444.657 386.026Z" fill="#020202"/>
<mask id="mask1_657_2346" style="mask-type:luminance" maskUnits="userSpaceOnUse" x="23" y="48" width="742" height="497">
<path d="M410.657 53.8624L31.2939 306.771C20.6382 313.875 20.5747 325.393 31.1522 332.497L338.634 539.015C349.211 546.119 366.424 546.119 377.08 539.016L756.443 286.107C767.099 279.003 767.162 267.485 756.585 260.381L449.103 53.8632C438.526 46.759 421.313 46.7586 410.657 53.8624Z" fill="white"/>
<path d="M32.0397 307.272L411.403 54.3633C421.649 47.5324 438.194 47.5364 448.356 54.3616L755.837 260.879C765.999 267.704 765.944 278.775 755.697 285.606L376.334 538.515C366.088 545.346 349.543 545.342 339.381 538.516L31.8997 331.999C21.7377 325.174 21.7933 314.103 32.0397 307.272Z" stroke="white" stroke-width="1.79686"/>
</mask>
<g mask="url(#mask1_657_2346)">
<path d="M243.268 316.965L159.765 372.634C153.974 376.494 153.94 382.753 159.688 386.614L258.61 453.054C264.358 456.914 273.711 456.915 279.502 453.054L363.005 397.385C368.795 393.525 368.83 387.266 363.082 383.406L264.16 316.965C258.412 313.105 249.058 313.105 243.268 316.965Z" fill="#020202"/>
<path d="M160.511 373.135L244.014 317.466C249.395 313.879 258.08 313.882 263.412 317.464L362.335 383.904C367.667 387.485 367.64 393.297 362.259 396.884L278.756 452.553C273.375 456.141 264.69 456.137 259.357 452.555L160.435 386.115C155.103 382.534 155.129 376.722 160.511 373.135Z" stroke="white" stroke-opacity="0.3" stroke-width="1.79686"/>
<path d="M375.927 228.527L292.424 284.195C286.633 288.056 286.599 294.315 292.347 298.175L391.269 364.615C397.017 368.476 406.37 368.476 412.161 364.616L495.664 308.947C501.455 305.087 501.489 298.828 495.741 294.967L396.819 228.527C391.071 224.666 381.718 224.666 375.927 228.527Z" fill="#A5A5A5"/>
<path d="M293.17 284.696L376.673 229.027C382.054 225.44 390.739 225.444 396.072 229.025L494.994 295.466C500.326 299.047 500.3 304.859 494.918 308.446L411.415 364.115C406.034 367.702 397.349 367.698 392.017 364.117L293.094 297.677C287.762 294.095 287.789 288.284 293.17 284.696Z" stroke="white" stroke-opacity="0.3" stroke-width="1.79686"/>
<path d="M508.606 140.074L425.103 195.743C419.312 199.603 419.278 205.862 425.026 209.723L523.948 276.163C529.696 280.023 539.049 280.023 544.84 276.163L628.343 220.494C634.133 216.634 634.168 210.375 628.42 206.515L529.498 140.074C523.75 136.214 514.396 136.214 508.606 140.074Z" fill="#020202"/>
<path d="M425.848 196.244L509.352 140.575C514.733 136.987 523.418 136.991 528.75 140.573L627.672 207.013C633.005 210.594 632.978 216.406 627.597 219.993L544.094 275.662C538.713 279.25 530.028 279.246 524.695 275.664L425.773 209.224C420.441 205.643 420.467 199.831 425.848 196.244Z" stroke="white" stroke-opacity="0.3" stroke-width="1.79686"/>
<path d="M431.567 443.435L348.064 499.104C342.273 502.964 342.239 509.223 347.987 513.083L446.909 579.524C452.657 583.384 462.01 583.384 467.801 579.524L551.304 523.855C557.094 519.995 557.129 513.736 551.381 509.875L452.459 443.435C446.711 439.575 437.357 439.574 431.567 443.435Z" fill="#020202"/>
<path d="M348.809 499.605L432.313 443.936C437.694 440.348 446.379 440.352 451.711 443.934L550.633 510.374C555.966 513.955 555.939 519.767 550.558 523.354L467.055 579.023C461.674 582.61 452.989 582.607 447.656 579.025L348.734 512.585C343.402 509.004 343.428 503.192 348.809 499.605Z" stroke="white" stroke-opacity="0.3" stroke-width="1.79686"/>
<path d="M564.225 354.996L480.722 410.665C474.931 414.525 474.897 420.784 480.645 424.644L579.567 491.085C585.315 494.945 594.668 494.945 600.459 491.085L683.962 435.416C689.752 431.556 689.787 425.297 684.039 421.436L585.117 354.996C579.369 351.136 570.015 351.136 564.225 354.996Z" fill="#020202"/>
<path d="M481.468 411.166L564.971 355.497C570.352 351.909 579.037 351.913 584.369 355.495L683.292 421.935C688.624 425.516 688.597 431.328 683.216 434.915L599.713 490.584C594.332 494.172 585.647 494.168 580.314 490.586L481.392 424.146C476.06 420.565 476.086 414.753 481.468 411.166Z" stroke="white" stroke-opacity="0.3" stroke-width="1.79686"/>
</g>
</g>
</g>
<g filter="url(#filter1_d_657_2346)">
<rect width="132.237" height="136.245" rx="8.01439" transform="matrix(0.83205 -0.5547 0.830139 0.557556 146 501.352)" fill="url(#paint1_radial_657_2346)" fill-opacity="0.3"/>
<rect x="0.831095" y="0.00142801" width="131.237" height="135.245" rx="7.51439" transform="matrix(0.83205 -0.5547 0.830139 0.557556 146.138 501.814)" stroke="white" stroke-opacity="0.3"/>
<path d="M261.215 510.464L261.137 507.288L253.977 507.276L253.985 502.485L249.24 502.421L249.226 510.443L261.215 510.464ZM269.217 505.129L269.231 497.107L257.242 497.086L257.32 500.262L264.48 500.274L264.472 505.065L269.217 505.129ZM262.528 521.609C261.611 522.22 260.501 522.525 259.196 522.522C257.892 522.52 256.782 522.212 255.867 521.597L232.582 505.958C231.667 505.343 231.21 504.6 231.212 503.727C231.213 502.854 231.673 502.112 232.589 501.501L239.591 496.833C238.954 495.922 238.755 494.979 238.992 494.004C239.23 493.03 239.877 492.191 240.933 491.487C241.988 490.783 243.245 490.353 244.702 490.198C246.16 490.042 247.568 490.18 248.927 490.609L255.929 485.941C256.846 485.33 257.956 485.025 259.261 485.028C260.565 485.03 261.675 485.338 262.589 485.953L285.875 501.592C286.79 502.207 287.247 502.95 287.245 503.823C287.244 504.696 286.784 505.438 285.867 506.049L262.528 521.609ZM259.202 519.375L282.541 503.815L259.255 488.175L235.916 503.735L259.202 519.375ZM246.338 495.117C246.699 494.877 246.88 494.598 246.881 494.283C246.881 493.967 246.701 493.688 246.341 493.446C245.981 493.204 245.565 493.082 245.093 493.082C244.621 493.081 244.204 493.201 243.843 493.442C243.482 493.682 243.301 493.961 243.301 494.276C243.3 494.592 243.48 494.871 243.84 495.113C244.201 495.355 244.617 495.477 245.089 495.477C245.56 495.478 245.977 495.358 246.338 495.117Z" fill="#E8EAED"/>
</g>
<g filter="url(#filter2_d_657_2346)">
<rect width="139.495" height="139.546" rx="8.2086" transform="matrix(0.83205 -0.5547 0.830139 0.557556 128 154.378)" fill="url(#paint2_radial_657_2346)" fill-opacity="0.3"/>
<rect x="1.70553" y="0.00293049" width="137.443" height="137.494" rx="7.18253" transform="matrix(0.83205 -0.5547 0.830139 0.557556 128.284 155.325)" stroke="white" stroke-opacity="0.3" stroke-width="2.05215"/>
<path d="M263.859 146.451L263.831 162.771C263.831 163.228 263.702 163.656 263.445 164.055C263.189 164.454 262.847 164.795 262.42 165.08C261.993 165.365 261.481 165.592 260.884 165.762C260.287 165.932 259.647 166.017 258.965 166.016L228.862 165.964C228.237 165.963 227.633 165.881 227.051 165.718C226.468 165.556 225.95 165.322 225.495 165.016L213.272 156.807C212.335 156.178 211.868 155.416 211.869 154.522C211.871 153.628 212.341 152.868 213.28 152.242L225.531 144.074C225.987 143.771 226.52 143.539 227.132 143.378C227.743 143.217 228.361 143.138 228.987 143.139L259.047 143.219C259.729 143.22 260.361 143.312 260.944 143.493C261.526 143.675 262.03 143.909 262.456 144.195C262.882 144.481 263.223 144.814 263.478 145.195C263.733 145.576 263.86 145.995 263.859 146.451ZM259.013 162.792L259.041 146.472L228.896 146.391L216.687 154.53L228.868 162.711L259.013 162.792ZM227.77 156.261C228.482 155.787 228.838 155.217 228.839 154.551C228.84 153.885 228.486 153.314 227.776 152.837C227.066 152.361 226.214 152.121 225.219 152.12C224.224 152.118 223.371 152.354 222.66 152.829C221.948 153.303 221.592 153.873 221.591 154.539C221.59 155.204 221.944 155.776 222.654 156.252C223.364 156.729 224.216 156.968 225.211 156.97C226.206 156.972 227.059 156.736 227.77 156.261Z" fill="#E8EAED"/>
</g>
</g>
<defs>
<filter id="filter0_d_657_2346" x="-131.013" y="-28.6023" width="1049.76" height="804.357" filterUnits="userSpaceOnUse" color-interpolation-filters="sRGB">
<feFlood flood-opacity="0" result="BackgroundImageFix"/>
<feColorMatrix in="SourceAlpha" type="matrix" values="0 0 0 0 0 0 0 0 0 0 0 0 0 0 0 0 0 0 127 0" result="hardAlpha"/>
<feOffset dy="77.137"/>
<feGaussianBlur stdDeviation="77.137"/>
<feColorMatrix type="matrix" values="0 0 0 0 0.203922 0 0 0 0 0.25098 0 0 0 0 0.329412 0 0 0 0.18 0"/>
<feBlend mode="normal" in2="BackgroundImageFix" result="effect1_dropShadow_657_2346"/>
<feBlend mode="normal" in="SourceGraphic" in2="effect1_dropShadow_657_2346" result="shape"/>
</filter>
<filter id="filter1_d_657_2346" x="65.8561" y="387.928" width="383.418" height="309.604" filterUnits="userSpaceOnUse" color-interpolation-filters="sRGB">
<feFlood flood-opacity="0" result="BackgroundImageFix"/>
<feColorMatrix in="SourceAlpha" type="matrix" values="0 0 0 0 0 0 0 0 0 0 0 0 0 0 0 0 0 0 127 0" result="hardAlpha"/>
<feOffset dy="40.0719"/>
<feGaussianBlur stdDeviation="40.0719"/>
<feComposite in2="hardAlpha" operator="out"/>
<feColorMatrix type="matrix" values="0 0 0 0 0 0 0 0 0 0 0 0 0 0 0 0 0 0 0.05 0"/>
<feBlend mode="normal" in2="BackgroundImageFix" result="effect1_dropShadow_657_2346"/>
<feBlend mode="normal" in="SourceGraphic" in2="effect1_dropShadow_657_2346" result="shape"/>
</filter>
<filter id="filter2_d_657_2346" x="-36.4673" y="-5.23364" width="560.844" height="484.117" filterUnits="userSpaceOnUse" color-interpolation-filters="sRGB">
<feFlood flood-opacity="0" result="BackgroundImageFix"/>
<feColorMatrix in="SourceAlpha" type="matrix" values="0 0 0 0 0 0 0 0 0 0 0 0 0 0 0 0 0 0 127 0" result="hardAlpha"/>
<feOffset dy="82.2336"/>
<feGaussianBlur stdDeviation="82.2336"/>
<feComposite in2="hardAlpha" operator="out"/>
<feColorMatrix type="matrix" values="0 0 0 0 0 0 0 0 0 0 0 0 0 0 0 0 0 0 0.05 0"/>
<feBlend mode="normal" in2="BackgroundImageFix" result="effect1_dropShadow_657_2346"/>
<feBlend mode="normal" in="SourceGraphic" in2="effect1_dropShadow_657_2346" result="shape"/>
</filter>
<radialGradient id="paint0_radial_657_2346" cx="0" cy="0" r="1" gradientUnits="userSpaceOnUse" gradientTransform="rotate(52.6745) scale(804.825 1781.88)">
<stop stop-color="white" stop-opacity="0.6"/>
<stop offset="1" stop-color="white" stop-opacity="0.2"/>
</radialGradient>
<radialGradient id="paint1_radial_657_2346" cx="0" cy="0" r="1" gradientUnits="userSpaceOnUse" gradientTransform="rotate(45.8551) scale(189.867 435.718)">
<stop stop-color="white" stop-opacity="0.6"/>
<stop offset="1" stop-color="white" stop-opacity="0.1"/>
</radialGradient>
<radialGradient id="paint2_radial_657_2346" cx="0" cy="0" r="1" gradientUnits="userSpaceOnUse" gradientTransform="rotate(45.0105) scale(197.312 453.005)">
<stop stop-color="white" stop-opacity="0.6"/>
<stop offset="1" stop-color="white" stop-opacity="0.1"/>
</radialGradient>
<clipPath id="clip0_657_2346">
<rect width="488" height="640" fill="white" transform="translate(0 0.0566406)"/>
</clipPath>
</defs>
</svg>
