<svg width="434" height="314" viewBox="0 0 434 314" fill="none" xmlns="http://www.w3.org/2000/svg">
<g filter="url(#filter0_dddd_516_3568)">
<rect x="25" y="309" width="224" height="384" rx="11.5644" transform="rotate(-90 25 309)" fill="url(#paint0_linear_516_3568)"/>
</g>
<mask id="mask0_516_3568" style="mask-type:alpha" maskUnits="userSpaceOnUse" x="46" y="197" width="52" height="32">
<rect x="46.668" y="197.001" width="50.558" height="31.2304" rx="3.15392" fill="url(#paint1_linear_516_3568)"/>
</mask>
<g mask="url(#mask0_516_3568)">
<rect x="46.668" y="197" width="50.558" height="31.2304" rx="3.15392" fill="url(#paint2_linear_516_3568)"/>
<path fill-rule="evenodd" clip-rule="evenodd" d="M58.3413 206.655L46.668 206.655L46.668 206.342L58.468 206.342L63.0993 209.546L63.0993 218.275L59.3823 221.489L46.668 221.489L46.668 221.177L59.2327 221.177L62.7382 218.145L62.7382 209.697L58.3413 206.655Z" fill="#868686"/>
<path fill-rule="evenodd" clip-rule="evenodd" d="M84.6696 202.751L98.1289 202.751L98.1289 202.438L84.5035 202.438L78.9891 208.002L78.9891 218.268L84.5035 223.831L98.1289 223.831L98.1289 223.519L84.6696 223.519L79.3502 218.152L79.3502 208.118L84.6696 202.751Z" fill="#868686"/>
<path fill-rule="evenodd" clip-rule="evenodd" d="M70.4791 201.76L61.1133 195.724L61.33 195.439L70.8569 201.579L70.8569 207.583L79.1697 207.583L79.1697 207.931L70.4791 207.931L70.4791 201.76Z" fill="#868686"/>
<path fill-rule="evenodd" clip-rule="evenodd" d="M62.918 218.053L71.2239 218.053L71.2239 223.753L63.9291 228.484L63.7125 228.234L70.8628 223.597L70.8628 218.366L62.918 218.366L62.918 218.053Z" fill="#868686"/>
<path fill-rule="evenodd" clip-rule="evenodd" d="M79.1699 218.053L70.864 218.053L70.864 223.753L78.1588 228.484L78.3754 228.234L71.2251 223.597L71.2251 218.366L79.1699 218.366L79.1699 218.053Z" fill="#868686"/>
</g>
<rect x="46.9308" y="197.263" width="50.0323" height="30.7048" rx="2.89109" stroke="white" stroke-width="0.525653"/>
<path d="M48.1567 283.231C48.1567 282.385 48.2819 281.647 48.5323 281.019C48.7867 280.387 49.1325 279.862 49.5697 279.445C50.011 279.028 50.5297 278.716 51.1259 278.509C51.7221 278.302 52.3661 278.199 53.0577 278.199C53.3479 278.199 53.642 278.215 53.9401 278.247C54.2422 278.275 54.5383 278.32 54.8285 278.384C55.1187 278.447 55.3989 278.531 55.6692 278.634C55.9434 278.734 56.1978 278.853 56.4323 278.992L55.5917 280.423C55.4168 280.324 55.2299 280.24 55.0312 280.173C54.8364 280.101 54.6337 280.045 54.4231 280.006C54.2124 279.962 53.9997 279.93 53.7851 279.91C53.5704 279.89 53.3598 279.88 53.1531 279.88C52.692 279.88 52.2746 279.94 51.901 280.059C51.5313 280.178 51.2114 280.347 50.9411 280.566C50.6708 280.785 50.4542 281.047 50.2912 281.353C50.1322 281.655 50.0328 281.991 49.9931 282.361C50.1998 282.198 50.4283 282.057 50.6787 281.937C50.9291 281.818 51.1935 281.721 51.4717 281.645C51.7539 281.566 52.0421 281.508 52.3363 281.472C52.6344 281.433 52.9325 281.413 53.2306 281.413C53.8109 281.413 54.3376 281.482 54.8106 281.621C55.2876 281.76 55.695 281.961 56.0329 282.224C56.3707 282.486 56.6311 282.806 56.8139 283.183C57.0007 283.557 57.0942 283.982 57.0942 284.459C57.0942 284.928 57.0007 285.364 56.8139 285.765C56.6311 286.167 56.3588 286.516 55.9971 286.815C55.6354 287.109 55.1862 287.341 54.6496 287.512C54.113 287.679 53.4909 287.763 52.7834 287.763C52.0958 287.763 51.4677 287.675 50.8993 287.5C50.3309 287.325 49.844 287.053 49.4386 286.683C49.0331 286.314 48.7171 285.845 48.4906 285.276C48.268 284.704 48.1567 284.022 48.1567 283.231ZM50.0348 284.108C50.1302 284.76 50.4164 285.252 50.8934 285.586C51.3704 285.916 51.9964 286.081 52.7715 286.081C53.161 286.081 53.5068 286.041 53.8089 285.962C54.111 285.882 54.3654 285.773 54.5721 285.634C54.7788 285.491 54.9358 285.322 55.0431 285.127C55.1505 284.932 55.2041 284.72 55.2041 284.489C55.2041 284.294 55.1624 284.112 55.0789 283.941C54.9954 283.77 54.8643 283.623 54.6854 283.499C54.5105 283.372 54.2839 283.273 54.0057 283.201C53.7275 283.126 53.3916 283.088 52.9981 283.088C52.6682 283.088 52.3561 283.114 52.062 283.166C51.7678 283.217 51.4956 283.289 51.2452 283.38C50.9947 283.472 50.7662 283.579 50.5595 283.702C50.3568 283.825 50.1819 283.961 50.0348 284.108ZM58.9425 282.951C58.9425 282.2 59.0558 281.526 59.2823 280.93C59.5089 280.334 59.8309 279.829 60.2482 279.415C60.6656 278.998 61.1724 278.68 61.7686 278.461C62.3648 278.243 63.0326 278.133 63.7719 278.133C64.5112 278.133 65.179 278.243 65.7753 278.461C66.3715 278.68 66.8783 278.998 67.2956 279.415C67.713 279.829 68.035 280.334 68.2615 280.93C68.4881 281.526 68.6014 282.2 68.6014 282.951C68.6014 283.702 68.4881 284.376 68.2615 284.972C68.035 285.568 67.713 286.073 67.2956 286.487C66.8783 286.9 66.3715 287.216 65.7753 287.435C65.179 287.653 64.5112 287.763 63.7719 287.763C63.0326 287.763 62.3648 287.653 61.7686 287.435C61.1724 287.216 60.6656 286.9 60.2482 286.487C59.8309 286.073 59.5089 285.568 59.2823 284.972C59.0558 284.376 58.9425 283.702 58.9425 282.951ZM60.8325 282.945C60.8325 283.454 60.9001 283.903 61.0352 284.292C61.1744 284.682 61.3711 285.01 61.6255 285.276C61.8799 285.539 62.1879 285.739 62.5497 285.878C62.9114 286.014 63.3188 286.081 63.7719 286.081C64.2251 286.081 64.6325 286.014 64.9942 285.878C65.3559 285.739 65.664 285.539 65.9184 285.276C66.1727 285.01 66.3675 284.682 66.5027 284.292C66.6418 283.903 66.7113 283.454 66.7113 282.945C66.7113 282.44 66.6418 281.995 66.5027 281.609C66.3675 281.22 66.1727 280.892 65.9184 280.626C65.664 280.359 65.3559 280.159 64.9942 280.023C64.6325 279.884 64.2251 279.815 63.7719 279.815C63.3188 279.815 62.9114 279.884 62.5497 280.023C62.1879 280.159 61.8799 280.359 61.6255 280.626C61.3711 280.892 61.1744 281.22 61.0352 281.609C60.9001 281.995 60.8325 282.44 60.8325 282.945ZM70.5391 283.231C70.5391 282.385 70.6643 281.647 70.9148 281.019C71.1691 280.387 71.515 279.862 71.9522 279.445C72.3934 279.028 72.9121 278.716 73.5083 278.509C74.1046 278.302 74.7485 278.199 75.4401 278.199C75.7303 278.199 76.0244 278.215 76.3225 278.247C76.6246 278.275 76.9208 278.32 77.2109 278.384C77.5011 278.447 77.7813 278.531 78.0516 278.634C78.3259 278.734 78.5803 278.853 78.8148 278.992L77.9741 280.423C77.7992 280.324 77.6124 280.24 77.4136 280.173C77.2189 280.101 77.0162 280.045 76.8055 280.006C76.5948 279.962 76.3822 279.93 76.1675 279.91C75.9529 279.89 75.7422 279.88 75.5355 279.88C75.0744 279.88 74.6571 279.94 74.2834 280.059C73.9138 280.178 73.5938 280.347 73.3235 280.566C73.0532 280.785 72.8366 281.047 72.6736 281.353C72.5146 281.655 72.4153 281.991 72.3755 282.361C72.5822 282.198 72.8108 282.057 73.0612 281.937C73.3116 281.818 73.5759 281.721 73.8542 281.645C74.1364 281.566 74.4246 281.508 74.7187 281.472C75.0168 281.433 75.3149 281.413 75.613 281.413C76.1934 281.413 76.72 281.482 77.193 281.621C77.67 281.76 78.0775 281.961 78.4153 282.224C78.7532 282.486 79.0135 282.806 79.1964 283.183C79.3832 283.557 79.4766 283.982 79.4766 284.459C79.4766 284.928 79.3832 285.364 79.1964 285.765C79.0135 286.167 78.7413 286.516 78.3795 286.815C78.0178 287.109 77.5687 287.341 77.0321 287.512C76.4955 287.679 75.8734 287.763 75.1659 287.763C74.4782 287.763 73.8502 287.675 73.2818 287.5C72.7134 287.325 72.2265 287.053 71.821 286.683C71.4156 286.314 71.0996 285.845 70.873 285.276C70.6504 284.704 70.5391 284.022 70.5391 283.231ZM72.4172 284.108C72.5126 284.76 72.7988 285.252 73.2758 285.586C73.7528 285.916 74.3788 286.081 75.1539 286.081C75.5435 286.081 75.8893 286.041 76.1914 285.962C76.4935 285.882 76.7479 285.773 76.9546 285.634C77.1612 285.491 77.3183 285.322 77.4256 285.127C77.5329 284.932 77.5866 284.72 77.5866 284.489C77.5866 284.294 77.5448 284.112 77.4613 283.941C77.3779 283.77 77.2467 283.623 77.0678 283.499C76.8929 283.372 76.6664 283.273 76.3881 283.201C76.1099 283.126 75.774 283.088 75.3805 283.088C75.0506 283.088 74.7386 283.114 74.4444 283.166C74.1503 283.217 73.878 283.289 73.6276 283.38C73.3772 283.472 73.1486 283.579 72.9419 283.702C72.7392 283.825 72.5643 283.961 72.4172 284.108ZM81.7125 283.231C81.7125 282.385 81.8377 281.647 82.0881 281.019C82.3425 280.387 82.6883 279.862 83.1255 279.445C83.5667 279.028 84.0855 278.716 84.6817 278.509C85.2779 278.302 85.9218 278.199 86.6135 278.199C86.9036 278.199 87.1978 278.215 87.4959 278.247C87.798 278.275 88.0941 278.32 88.3843 278.384C88.6744 278.447 88.9547 278.531 89.2249 278.634C89.4992 278.734 89.7536 278.853 89.9881 278.992L89.1474 280.423C88.9725 280.324 88.7857 280.24 88.587 280.173C88.3922 280.101 88.1895 280.045 87.9788 280.006C87.7682 279.962 87.5555 279.93 87.3409 279.91C87.1262 279.89 86.9156 279.88 86.7089 279.88C86.2478 279.88 85.8304 279.94 85.4568 280.059C85.0871 280.178 84.7671 280.347 84.4968 280.566C84.2266 280.785 84.0099 281.047 83.847 281.353C83.688 281.655 83.5886 281.991 83.5488 282.361C83.7555 282.198 83.9841 282.057 84.2345 281.937C84.4849 281.818 84.7493 281.721 85.0275 281.645C85.3097 281.566 85.5979 281.508 85.892 281.472C86.1901 281.433 86.4883 281.413 86.7864 281.413C87.3667 281.413 87.8934 281.482 88.3664 281.621C88.8434 281.76 89.2508 281.961 89.5886 282.224C89.9265 282.486 90.1869 282.806 90.3697 283.183C90.5565 283.557 90.6499 283.982 90.6499 284.459C90.6499 284.928 90.5565 285.364 90.3697 285.765C90.1869 286.167 89.9146 286.516 89.5529 286.815C89.1912 287.109 88.742 287.341 88.2054 287.512C87.6688 287.679 87.0467 287.763 86.3392 287.763C85.6515 287.763 85.0235 287.675 84.4551 287.5C83.8867 287.325 83.3998 287.053 82.9944 286.683C82.5889 286.314 82.2729 285.845 82.0463 285.276C81.8238 284.704 81.7125 284.022 81.7125 283.231ZM83.5906 284.108C83.686 284.76 83.9722 285.252 84.4492 285.586C84.9261 285.916 85.5522 286.081 86.3273 286.081C86.7168 286.081 87.0626 286.041 87.3647 285.962C87.6668 285.882 87.9212 285.773 88.1279 285.634C88.3346 285.491 88.4916 285.322 88.5989 285.127C88.7062 284.932 88.7599 284.72 88.7599 284.489C88.7599 284.294 88.7182 284.112 88.6347 283.941C88.5512 283.77 88.42 283.623 88.2412 283.499C88.0663 283.372 87.8397 283.273 87.5615 283.201C87.2832 283.126 86.9474 283.088 86.5538 283.088C86.2239 283.088 85.9119 283.114 85.6178 283.166C85.3236 283.217 85.0513 283.289 84.8009 283.38C84.5505 283.472 84.322 283.579 84.1153 283.702C83.9125 283.825 83.7377 283.961 83.5906 284.108ZM93.0408 286.01L96.326 283.756C96.8189 283.418 97.2224 283.124 97.5364 282.873C97.8504 282.623 98.0968 282.4 98.2757 282.206C98.4546 282.007 98.5778 281.828 98.6454 281.669C98.7129 281.51 98.7467 281.351 98.7467 281.192C98.7467 281.009 98.709 280.838 98.6334 280.679C98.5579 280.52 98.4387 280.381 98.2757 280.262C98.1167 280.143 97.91 280.049 97.6556 279.982C97.4052 279.914 97.1051 279.88 96.7553 279.88C96.2465 279.88 95.7397 279.952 95.2349 280.095C94.7301 280.238 94.2154 280.467 93.6907 280.781L92.8202 279.35C93.4045 278.988 94.0365 278.706 94.7162 278.503C95.3999 278.3 96.1174 278.199 96.8686 278.199C97.5245 278.199 98.0929 278.279 98.5738 278.437C99.0588 278.593 99.4582 278.805 99.7722 279.075C100.09 279.346 100.327 279.66 100.482 280.018C100.637 280.375 100.714 280.755 100.714 281.156C100.714 281.466 100.663 281.762 100.559 282.045C100.456 282.327 100.275 282.619 100.017 282.921C99.7583 283.223 99.4085 283.549 98.9673 283.899C98.5301 284.245 97.9776 284.638 97.3098 285.079L95.9504 285.974L101.054 285.974L101.054 287.631L93.0408 287.631L93.0408 286.01ZM102.896 285.974L105.013 285.974L105.013 280.173C104.735 280.236 104.467 280.32 104.208 280.423C103.954 280.526 103.721 280.651 103.511 280.799L102.58 279.469C102.922 279.254 103.27 279.073 103.624 278.926C103.982 278.775 104.341 278.656 104.703 278.569C105.069 278.477 105.434 278.412 105.8 278.372C106.17 278.332 106.537 278.312 106.903 278.312L106.897 278.324L106.903 278.324L106.903 285.974L108.924 285.974L108.924 287.631L102.896 287.631L102.896 285.974ZM110.367 286.01L113.652 283.756C114.145 283.418 114.549 283.124 114.863 282.873C115.177 282.623 115.423 282.4 115.602 282.206C115.781 282.007 115.904 281.828 115.972 281.669C116.039 281.51 116.073 281.351 116.073 281.192C116.073 281.009 116.035 280.838 115.96 280.679C115.884 280.52 115.765 280.381 115.602 280.262C115.443 280.143 115.236 280.049 114.982 279.982C114.732 279.914 114.432 279.88 114.082 279.88C113.573 279.88 113.066 279.952 112.561 280.095C112.057 280.238 111.542 280.467 111.017 280.781L110.147 279.35C110.731 278.988 111.363 278.706 112.043 278.503C112.726 278.3 113.444 278.199 114.195 278.199C114.851 278.199 115.419 278.279 115.9 278.437C116.385 278.593 116.785 278.805 117.099 279.075C117.417 279.346 117.653 279.66 117.808 280.018C117.963 280.375 118.041 280.755 118.041 281.156C118.041 281.466 117.989 281.762 117.886 282.045C117.782 282.327 117.601 282.619 117.343 282.921C117.085 283.223 116.735 283.549 116.294 283.899C115.857 284.245 115.304 284.638 114.636 285.079L113.277 285.974L118.381 285.974L118.381 287.631L110.367 287.631L110.367 286.01ZM120.223 285.974L122.34 285.974L122.34 280.173C122.061 280.236 121.793 280.32 121.535 280.423C121.28 280.526 121.048 280.651 120.837 280.799L119.907 279.469C120.249 279.254 120.597 279.073 120.95 278.926C121.308 278.775 121.668 278.656 122.029 278.569C122.395 278.477 122.761 278.412 123.127 278.372C123.496 278.332 123.864 278.312 124.23 278.312L124.224 278.324L124.23 278.324L124.23 285.974L126.251 285.974L126.251 287.631L120.223 287.631L120.223 285.974Z" fill="#D9D9D9"/>
<path opacity="0.5" d="M335.352 113.432C335.267 113.172 335.155 112.94 335.017 112.734C334.881 112.526 334.717 112.349 334.527 112.202C334.34 112.056 334.126 111.944 333.887 111.867C333.648 111.79 333.386 111.751 333.101 111.751C332.633 111.751 332.208 111.872 331.825 112.114C331.442 112.355 331.138 112.711 330.912 113.181C330.686 113.652 330.573 114.228 330.573 114.912C330.573 115.595 330.687 116.172 330.916 116.643C331.144 117.113 331.454 117.469 331.845 117.71C332.235 117.952 332.675 118.073 333.163 118.073C333.615 118.073 334.013 117.976 334.358 117.784C334.705 117.588 334.974 117.313 335.167 116.959C335.362 116.601 335.46 116.181 335.46 115.698L335.753 115.76L333.379 115.76L333.379 114.912L336.385 114.912L336.385 115.76C336.385 116.41 336.246 116.975 335.969 117.456C335.694 117.936 335.314 118.309 334.828 118.574C334.345 118.836 333.79 118.967 333.163 118.967C332.464 118.967 331.85 118.802 331.32 118.473C330.794 118.145 330.382 117.677 330.087 117.07C329.794 116.464 329.648 115.745 329.648 114.912C329.648 114.288 329.731 113.726 329.898 113.228C330.068 112.727 330.307 112.3 330.615 111.948C330.923 111.596 331.288 111.326 331.71 111.139C332.131 110.951 332.595 110.857 333.101 110.857C333.517 110.857 333.905 110.92 334.265 111.046C334.627 111.169 334.95 111.345 335.233 111.574C335.518 111.8 335.755 112.071 335.946 112.387C336.136 112.701 336.267 113.049 336.339 113.432L335.352 113.432ZM338.809 110.965L338.809 118.859L337.899 118.859L337.899 110.965L338.809 110.965ZM342.88 118.982C342.345 118.982 341.876 118.855 341.473 118.601C341.072 118.346 340.759 117.99 340.532 117.533C340.309 117.076 340.197 116.541 340.197 115.93C340.197 115.313 340.309 114.774 340.532 114.315C340.759 113.855 341.072 113.497 341.473 113.243C341.876 112.989 342.345 112.861 342.88 112.861C343.414 112.861 343.882 112.989 344.283 113.243C344.686 113.497 345 113.855 345.223 114.315C345.449 114.774 345.562 115.313 345.562 115.93C345.562 116.541 345.449 117.076 345.223 117.533C345 117.99 344.686 118.346 344.283 118.601C343.882 118.855 343.414 118.982 342.88 118.982ZM342.88 118.165C343.286 118.165 343.62 118.061 343.882 117.853C344.144 117.645 344.338 117.371 344.464 117.032C344.59 116.693 344.653 116.325 344.653 115.93C344.653 115.534 344.59 115.165 344.464 114.823C344.338 114.482 344.144 114.205 343.882 113.995C343.62 113.784 343.286 113.679 342.88 113.679C342.474 113.679 342.14 113.784 341.878 113.995C341.615 114.205 341.421 114.482 341.296 114.823C341.17 115.165 341.107 115.534 341.107 115.93C341.107 116.325 341.17 116.693 341.296 117.032C341.421 117.371 341.615 117.645 341.878 117.853C342.14 118.061 342.474 118.165 342.88 118.165ZM347.074 118.859L347.074 110.965L347.984 110.965L347.984 113.879L348.061 113.879C348.128 113.776 348.22 113.645 348.339 113.486C348.459 113.324 348.631 113.18 348.855 113.054C349.081 112.926 349.387 112.861 349.772 112.861C350.271 112.861 350.71 112.986 351.091 113.235C351.471 113.485 351.768 113.838 351.981 114.295C352.194 114.753 352.301 115.292 352.301 115.914C352.301 116.541 352.194 117.085 351.981 117.545C351.768 118.002 351.472 118.357 351.094 118.608C350.717 118.858 350.281 118.982 349.788 118.982C349.407 118.982 349.103 118.919 348.874 118.793C348.646 118.665 348.47 118.52 348.346 118.358C348.223 118.193 348.128 118.057 348.061 117.949L347.953 117.949L347.953 118.859L347.074 118.859ZM347.969 115.899C347.969 116.346 348.034 116.74 348.165 117.082C348.296 117.421 348.488 117.687 348.739 117.88C348.991 118.07 349.3 118.165 349.664 118.165C350.045 118.165 350.362 118.065 350.616 117.864C350.873 117.661 351.066 117.389 351.195 117.047C351.326 116.703 351.391 116.32 351.391 115.899C351.391 115.482 351.327 115.107 351.199 114.773C351.073 114.437 350.881 114.171 350.624 113.975C350.37 113.777 350.05 113.679 349.664 113.679C349.294 113.679 348.984 113.772 348.732 113.96C348.48 114.145 348.29 114.404 348.161 114.739C348.033 115.07 347.969 115.457 347.969 115.899ZM355.435 118.998C355.059 118.998 354.719 118.927 354.413 118.786C354.107 118.642 353.864 118.435 353.685 118.165C353.505 117.893 353.415 117.564 353.415 117.178C353.415 116.839 353.482 116.564 353.615 116.354C353.749 116.14 353.927 115.973 354.151 115.852C354.375 115.732 354.621 115.642 354.891 115.583C355.163 115.521 355.437 115.472 355.712 115.436C356.072 115.39 356.363 115.355 356.587 115.332C356.813 115.306 356.978 115.264 357.08 115.205C357.186 115.146 357.238 115.043 357.238 114.897L357.238 114.866C357.238 114.485 357.134 114.19 356.926 113.979C356.721 113.768 356.408 113.663 355.99 113.663C355.555 113.663 355.215 113.758 354.968 113.948C354.721 114.139 354.548 114.342 354.448 114.557L353.584 114.249C353.739 113.889 353.944 113.609 354.201 113.409C354.461 113.206 354.743 113.064 355.049 112.985C355.357 112.903 355.661 112.861 355.959 112.861C356.149 112.861 356.367 112.885 356.614 112.931C356.863 112.974 357.103 113.066 357.335 113.204C357.569 113.343 357.763 113.553 357.917 113.833C358.071 114.113 358.148 114.488 358.148 114.958L358.148 118.859L357.238 118.859L357.238 118.057L357.192 118.057C357.13 118.186 357.028 118.323 356.884 118.47C356.74 118.616 356.548 118.741 356.309 118.843C356.07 118.946 355.779 118.998 355.435 118.998ZM355.573 118.181C355.933 118.181 356.236 118.11 356.483 117.969C356.732 117.827 356.92 117.645 357.046 117.421C357.174 117.198 357.238 116.963 357.238 116.716L357.238 115.883C357.2 115.93 357.115 115.972 356.984 116.01C356.856 116.046 356.706 116.079 356.537 116.107C356.37 116.133 356.207 116.156 356.047 116.176C355.891 116.194 355.763 116.21 355.666 116.222C355.429 116.253 355.208 116.303 355.003 116.373C354.8 116.44 354.635 116.541 354.509 116.677C354.386 116.811 354.324 116.993 354.324 117.225C354.324 117.541 354.441 117.78 354.675 117.942C354.912 118.101 355.211 118.181 355.573 118.181ZM360.718 110.965L360.718 118.859L359.808 118.859L359.808 110.965L360.718 110.965ZM371.912 113.432L370.956 113.432C370.9 113.157 370.801 112.915 370.659 112.707C370.521 112.499 370.351 112.324 370.151 112.183C369.953 112.039 369.733 111.931 369.492 111.859C369.25 111.787 368.998 111.751 368.736 111.751C368.258 111.751 367.825 111.872 367.437 112.114C367.052 112.355 366.745 112.711 366.516 113.181C366.29 113.652 366.177 114.228 366.177 114.912C366.177 115.595 366.29 116.172 366.516 116.643C366.745 117.113 367.052 117.469 367.437 117.71C367.825 117.952 368.258 118.073 368.736 118.073C368.998 118.073 369.25 118.037 369.492 117.965C369.733 117.893 369.953 117.786 370.151 117.645C370.351 117.501 370.521 117.325 370.659 117.117C370.801 116.906 370.9 116.664 370.956 116.392L371.912 116.392C371.84 116.795 371.709 117.157 371.519 117.475C371.329 117.794 371.092 118.065 370.81 118.288C370.527 118.509 370.21 118.678 369.858 118.793C369.508 118.909 369.134 118.967 368.736 118.967C368.063 118.967 367.464 118.802 366.94 118.473C366.416 118.145 366.003 117.677 365.703 117.07C365.402 116.464 365.252 115.745 365.252 114.912C365.252 114.079 365.402 113.36 365.703 112.754C366.003 112.147 366.416 111.679 366.94 111.35C367.464 111.022 368.063 110.857 368.736 110.857C369.134 110.857 369.508 110.915 369.858 111.031C370.21 111.146 370.527 111.316 370.81 111.539C371.092 111.76 371.329 112.03 371.519 112.349C371.709 112.665 371.84 113.026 371.912 113.432ZM375.076 118.998C374.7 118.998 374.36 118.927 374.054 118.786C373.748 118.642 373.506 118.435 373.326 118.165C373.146 117.893 373.056 117.564 373.056 117.178C373.056 116.839 373.123 116.564 373.256 116.354C373.39 116.14 373.569 115.973 373.792 115.852C374.016 115.732 374.262 115.642 374.532 115.583C374.805 115.521 375.078 115.472 375.353 115.436C375.713 115.39 376.005 115.355 376.228 115.332C376.454 115.306 376.619 115.264 376.721 115.205C376.827 115.146 376.879 115.043 376.879 114.897L376.879 114.866C376.879 114.485 376.775 114.19 376.567 113.979C376.362 113.768 376.05 113.663 375.631 113.663C375.196 113.663 374.856 113.758 374.609 113.948C374.363 114.139 374.189 114.342 374.089 114.557L373.226 114.249C373.38 113.889 373.585 113.609 373.842 113.409C374.102 113.206 374.384 113.064 374.69 112.985C374.999 112.903 375.302 112.861 375.6 112.861C375.79 112.861 376.008 112.885 376.255 112.931C376.504 112.974 376.745 113.066 376.976 113.204C377.21 113.343 377.404 113.553 377.558 113.833C377.712 114.113 377.789 114.488 377.789 114.958L377.789 118.859L376.879 118.859L376.879 118.057L376.833 118.057C376.772 118.186 376.669 118.323 376.525 118.47C376.381 118.616 376.19 118.741 375.951 118.843C375.712 118.946 375.42 118.998 375.076 118.998ZM375.214 118.181C375.574 118.181 375.877 118.11 376.124 117.969C376.373 117.827 376.561 117.645 376.687 117.421C376.815 117.198 376.879 116.963 376.879 116.716L376.879 115.883C376.841 115.93 376.756 115.972 376.625 116.01C376.497 116.046 376.348 116.079 376.178 116.107C376.011 116.133 375.848 116.156 375.688 116.176C375.532 116.194 375.405 116.21 375.307 116.222C375.07 116.253 374.849 116.303 374.644 116.373C374.441 116.44 374.276 116.541 374.151 116.677C374.027 116.811 373.966 116.993 373.966 117.225C373.966 117.541 374.082 117.78 374.316 117.942C374.553 118.101 374.852 118.181 375.214 118.181ZM379.449 118.859L379.449 112.939L380.328 112.939L380.328 113.833L380.39 113.833C380.498 113.54 380.693 113.302 380.976 113.12C381.258 112.937 381.577 112.846 381.932 112.846C381.998 112.846 382.082 112.847 382.182 112.85C382.282 112.852 382.358 112.856 382.41 112.861L382.41 113.786C382.379 113.779 382.308 113.767 382.198 113.752C382.09 113.734 381.975 113.725 381.855 113.725C381.567 113.725 381.31 113.785 381.084 113.906C380.86 114.024 380.683 114.189 380.552 114.399C380.423 114.607 380.359 114.845 380.359 115.112L380.359 118.859L379.449 118.859ZM385.543 118.982C385.05 118.982 384.614 118.858 384.237 118.608C383.859 118.357 383.563 118.002 383.35 117.545C383.137 117.085 383.03 116.541 383.03 115.914C383.03 115.292 383.137 114.753 383.35 114.295C383.563 113.838 383.86 113.485 384.24 113.235C384.621 112.986 385.06 112.861 385.559 112.861C385.944 112.861 386.249 112.926 386.472 113.054C386.698 113.18 386.87 113.324 386.989 113.486C387.109 113.645 387.203 113.776 387.27 113.879L387.347 113.879L387.347 110.965L388.257 110.965L388.257 118.859L387.378 118.859L387.378 117.949L387.27 117.949C387.203 118.057 387.108 118.193 386.985 118.358C386.861 118.52 386.685 118.665 386.457 118.793C386.228 118.919 385.924 118.982 385.543 118.982ZM385.667 118.165C386.031 118.165 386.34 118.07 386.592 117.88C386.843 117.687 387.035 117.421 387.166 117.082C387.297 116.74 387.363 116.346 387.363 115.899C387.363 115.457 387.298 115.07 387.17 114.739C387.041 114.404 386.851 114.145 386.599 113.96C386.348 113.772 386.037 113.679 385.667 113.679C385.281 113.679 384.96 113.777 384.703 113.975C384.449 114.171 384.257 114.437 384.129 114.773C384.003 115.107 383.94 115.482 383.94 115.899C383.94 116.32 384.004 116.703 384.133 117.047C384.264 117.389 384.456 117.661 384.711 117.864C384.968 118.065 385.286 118.165 385.667 118.165Z" fill="white"/>
<rect x="47.5" y="102.613" width="94" height="24" rx="12" stroke="#DBDBDB" stroke-opacity="0.4"/>
<path d="M59.2775 110.219L60.3722 110.219L62.5615 113.904L62.654 113.904L64.8433 110.219L65.9379 110.219L63.0857 114.86L63.0857 118.113L62.1298 118.113L62.1298 114.86L59.2775 110.219ZM73.4637 114.166C73.4637 114.998 73.3134 115.718 73.0127 116.324C72.7121 116.931 72.2996 117.398 71.7754 117.727C71.2512 118.056 70.6525 118.221 69.9793 118.221C69.3061 118.221 68.7073 118.056 68.1831 117.727C67.6589 117.398 67.2465 116.931 66.9459 116.324C66.6452 115.718 66.4949 114.998 66.4949 114.166C66.4949 113.333 66.6452 112.614 66.9459 112.007C67.2465 111.401 67.6589 110.933 68.1831 110.604C68.7073 110.275 69.3061 110.111 69.9793 110.111C70.6525 110.111 71.2512 110.275 71.7754 110.604C72.2996 110.933 72.7121 111.401 73.0127 112.007C73.3134 112.614 73.4637 113.333 73.4637 114.166ZM72.5386 114.166C72.5386 113.482 72.4243 112.905 72.1956 112.435C71.9694 111.965 71.6624 111.609 71.2744 111.368C70.8889 111.126 70.4572 111.005 69.9793 111.005C69.5013 111.005 69.0684 111.126 68.6804 111.368C68.2949 111.609 67.9878 111.965 67.7591 112.435C67.533 112.905 67.42 113.482 67.42 114.166C67.42 114.849 67.533 115.426 67.7591 115.897C67.9878 116.367 68.2949 116.723 68.6804 116.964C69.0684 117.206 69.5013 117.326 69.9793 117.326C70.4572 117.326 70.8889 117.206 71.2744 116.964C71.6624 116.723 71.9694 116.367 72.1956 115.897C72.4243 115.426 72.5386 114.849 72.5386 114.166ZM80.2513 110.219L81.2072 110.219L81.2072 115.446C81.2072 115.985 81.08 116.467 80.8256 116.891C80.5738 117.312 80.2179 117.645 79.7579 117.889C79.298 118.131 78.7583 118.252 78.1391 118.252C77.5198 118.252 76.9802 118.131 76.5202 117.889C76.0603 117.645 75.7031 117.312 75.4487 116.891C75.1969 116.467 75.071 115.985 75.071 115.446L75.071 110.219L76.0269 110.219L76.0269 115.368C76.0269 115.754 76.1117 116.097 76.2812 116.398C76.4508 116.696 76.6924 116.931 77.0059 117.103C77.3219 117.273 77.6997 117.357 78.1391 117.357C78.5785 117.357 78.9562 117.273 79.2723 117.103C79.5883 116.931 79.8299 116.696 79.9969 116.398C80.1665 116.097 80.2513 115.754 80.2513 115.368L80.2513 110.219ZM83.1161 118.113L83.1161 110.219L85.7833 110.219C86.4 110.219 86.9063 110.324 87.302 110.535C87.6977 110.743 87.9906 111.03 88.1808 111.395C88.3709 111.759 88.466 112.174 88.466 112.64C88.466 113.105 88.3709 113.517 88.1808 113.877C87.9906 114.237 87.699 114.519 87.3058 114.725C86.9127 114.928 86.4103 115.029 85.7988 115.029L83.6403 115.029L83.6403 114.166L85.7679 114.166C86.1893 114.166 86.5285 114.104 86.7855 113.981C87.045 113.858 87.2326 113.683 87.3482 113.457C87.4664 113.228 87.5255 112.956 87.5255 112.64C87.5255 112.323 87.4664 112.047 87.3482 111.811C87.23 111.574 87.0412 111.392 86.7816 111.264C86.5221 111.132 86.1791 111.067 85.7525 111.067L84.072 111.067L84.072 118.113L83.1161 118.113ZM86.8317 114.567L88.7744 118.113L87.6643 118.113L85.7525 114.567L86.8317 114.567ZM93.1115 118.113L93.1115 110.219L95.8713 110.219C96.4212 110.219 96.8747 110.314 97.2319 110.504C97.5891 110.692 97.855 110.945 98.0298 111.264C98.2045 111.58 98.2919 111.93 98.2919 112.316C98.2919 112.655 98.2315 112.935 98.1107 113.156C97.9925 113.377 97.8358 113.552 97.6405 113.68C97.4477 113.809 97.2383 113.904 97.0122 113.965L97.0122 114.043C97.2537 114.058 97.4966 114.143 97.7407 114.297C97.9848 114.451 98.1891 114.672 98.3535 114.96C98.518 115.248 98.6002 115.6 98.6002 116.016C98.6002 116.412 98.5103 116.768 98.3304 117.084C98.1505 117.4 97.8666 117.65 97.4786 117.835C97.0906 118.02 96.5856 118.113 95.9638 118.113L93.1115 118.113ZM94.0674 117.265L95.9638 117.265C96.5882 117.265 97.0315 117.144 97.2936 116.903C97.5582 116.658 97.6906 116.363 97.6906 116.016C97.6906 115.749 97.6225 115.502 97.4863 115.276C97.3501 115.047 97.1561 114.865 96.9043 114.729C96.6525 114.59 96.3544 114.52 96.0101 114.52L94.0674 114.52L94.0674 117.265ZM94.0674 113.688L95.8405 113.688C96.1283 113.688 96.3878 113.631 96.619 113.518C96.8529 113.405 97.0379 113.246 97.1741 113.04C97.3128 112.835 97.3822 112.593 97.3822 112.316C97.3822 111.969 97.2614 111.675 97.0199 111.433C96.7784 111.189 96.3955 111.067 95.8713 111.067L94.0674 111.067L94.0674 113.688ZM100.171 118.113L100.171 110.219L102.838 110.219C103.455 110.219 103.961 110.324 104.357 110.535C104.752 110.743 105.045 111.03 105.236 111.395C105.426 111.759 105.521 112.174 105.521 112.64C105.521 113.105 105.426 113.517 105.236 113.877C105.045 114.237 104.754 114.519 104.361 114.725C103.967 114.928 103.465 115.029 102.854 115.029L100.695 115.029L100.695 114.166L102.823 114.166C103.244 114.166 103.583 114.104 103.84 113.981C104.1 113.858 104.287 113.683 104.403 113.457C104.521 113.228 104.58 112.956 104.58 112.64C104.58 112.323 104.521 112.047 104.403 111.811C104.285 111.574 104.096 111.392 103.836 111.264C103.577 111.132 103.234 111.067 102.807 111.067L101.127 111.067L101.127 118.113L100.171 118.113ZM103.887 114.567L105.829 118.113L104.719 118.113L102.807 114.567L103.887 114.567ZM107.437 118.113L106.435 118.113L109.334 110.219L110.321 110.219L113.219 118.113L112.217 118.113L109.858 111.468L109.796 111.468L107.437 118.113ZM107.807 115.029L111.847 115.029L111.847 115.877L107.807 115.877L107.807 115.029ZM120.708 110.219L120.708 118.113L119.783 118.113L115.482 111.915L115.404 111.915L115.404 118.113L114.449 118.113L114.449 110.219L115.374 110.219L119.691 116.432L119.768 116.432L119.768 110.219L120.708 110.219ZM125.057 118.113L122.621 118.113L122.621 110.219L125.165 110.219C125.931 110.219 126.586 110.377 127.131 110.693C127.675 111.007 128.093 111.458 128.383 112.046C128.674 112.632 128.819 113.333 128.819 114.15C128.819 114.973 128.672 115.681 128.379 116.274C128.086 116.865 127.66 117.32 127.1 117.639C126.54 117.955 125.859 118.113 125.057 118.113ZM123.577 117.265L124.995 117.265C125.648 117.265 126.189 117.139 126.618 116.887C127.047 116.635 127.367 116.277 127.578 115.812C127.788 115.347 127.894 114.793 127.894 114.15C127.894 113.513 127.79 112.965 127.582 112.505C127.373 112.042 127.062 111.687 126.649 111.441C126.235 111.192 125.72 111.067 125.103 111.067L123.577 111.067L123.577 117.265Z" fill="white"/>
<path d="M383.436 282.959C382.234 283.326 380.564 283.145 379.498 281.547L378.802 280.503L378.2 279.6L379.498 277.653C380.562 276.056 382.225 275.872 383.436 276.241C384.642 276.605 385.93 277.68 385.93 279.601C385.93 281.521 384.642 282.595 383.436 282.959ZM372.011 281.547C370.946 283.143 369.28 283.328 368.07 282.959C366.866 282.595 365.578 281.521 365.578 279.601C365.578 277.68 366.866 276.605 368.072 276.241C368.403 276.14 368.769 276.08 369.148 276.08C370.148 276.08 371.237 276.494 372.011 277.653L373.309 279.6L372.011 281.547ZM384.615 272.344C381.345 271.357 378.007 272.552 376.112 275.396L375.754 275.93L375.398 275.396C373.5 272.552 370.168 271.349 366.891 272.345C363.622 273.335 361.508 276.183 361.508 279.601C361.508 283.018 363.622 285.865 366.891 286.855C370.161 287.848 373.499 286.65 375.398 283.805L375.754 283.269L376.112 283.805C376.191 283.924 376.273 284.041 376.358 284.154C377.818 286.115 380.003 287.198 382.338 287.198C383.088 287.198 383.853 287.087 384.617 286.856C387.886 285.865 390 283.018 390 279.601C390 276.182 387.886 273.335 384.615 272.344Z" fill="white"/>
<path d="M378.802 280.503L376.357 284.153C376.273 284.04 376.191 283.924 376.112 283.805L375.754 283.269L378.2 279.599L378.802 280.503Z" fill="#BBBCBD"/>
<path d="M375.753 275.93L373.309 279.581C373.224 279.468 373.142 279.351 373.063 279.232L372.705 278.696L375.151 275.027L375.753 275.93Z" fill="#BBBCBD"/>
<defs>
<filter id="filter0_dddd_516_3568" x="0.578455" y="0.202967" width="432.843" height="312.867" filterUnits="userSpaceOnUse" color-interpolation-filters="sRGB">
<feFlood flood-opacity="0" result="BackgroundImageFix"/>
<feColorMatrix in="SourceAlpha" type="matrix" values="0 0 0 0 0 0 0 0 0 0 0 0 0 0 0 0 0 0 127 0" result="hardAlpha"/>
<feOffset dy="-4.07026"/>
<feGaussianBlur stdDeviation="4.07026"/>
<feColorMatrix type="matrix" values="0 0 0 0 0 0 0 0 0 0 0 0 0 0 0 0 0 0 0.1 0"/>
<feBlend mode="normal" in2="BackgroundImageFix" result="effect1_dropShadow_516_3568"/>
<feColorMatrix in="SourceAlpha" type="matrix" values="0 0 0 0 0 0 0 0 0 0 0 0 0 0 0 0 0 0 127 0" result="hardAlpha"/>
<feOffset dy="-14.9243"/>
<feGaussianBlur stdDeviation="7.46214"/>
<feColorMatrix type="matrix" values="0 0 0 0 0 0 0 0 0 0 0 0 0 0 0 0 0 0 0.09 0"/>
<feBlend mode="normal" in2="effect1_dropShadow_516_3568" result="effect2_dropShadow_516_3568"/>
<feColorMatrix in="SourceAlpha" type="matrix" values="0 0 0 0 0 0 0 0 0 0 0 0 0 0 0 0 0 0 127 0" result="hardAlpha"/>
<feOffset dy="-33.9188"/>
<feGaussianBlur stdDeviation="10.1756"/>
<feColorMatrix type="matrix" values="0 0 0 0 0 0 0 0 0 0 0 0 0 0 0 0 0 0 0.05 0"/>
<feBlend mode="normal" in2="effect2_dropShadow_516_3568" result="effect3_dropShadow_516_3568"/>
<feColorMatrix in="SourceAlpha" type="matrix" values="0 0 0 0 0 0 0 0 0 0 0 0 0 0 0 0 0 0 127 0" result="hardAlpha"/>
<feOffset dy="-60.3755"/>
<feGaussianBlur stdDeviation="12.2108"/>
<feColorMatrix type="matrix" values="0 0 0 0 0 0 0 0 0 0 0 0 0 0 0 0 0 0 0.01 0"/>
<feBlend mode="normal" in2="effect3_dropShadow_516_3568" result="effect4_dropShadow_516_3568"/>
<feBlend mode="normal" in="SourceGraphic" in2="effect4_dropShadow_516_3568" result="shape"/>
</filter>
<linearGradient id="paint0_linear_516_3568" x1="331.865" y1="501" x2="25" y2="501" gradientUnits="userSpaceOnUse">
<stop stop-color="#666969"/>
<stop offset="1" stop-color="#26AF23"/>
</linearGradient>
<linearGradient id="paint1_linear_516_3568" x1="93.6147" y1="199.343" x2="53.1328" y2="233.047" gradientUnits="userSpaceOnUse">
<stop stop-color="#CDCDCD"/>
<stop offset="0.447917" stop-color="#E8E8E8"/>
<stop offset="1" stop-color="#B4B4B4"/>
</linearGradient>
<linearGradient id="paint2_linear_516_3568" x1="93.6147" y1="199.343" x2="53.1328" y2="233.046" gradientUnits="userSpaceOnUse">
<stop stop-color="#CDCDCD"/>
<stop offset="0.447917" stop-color="#E8E8E8"/>
<stop offset="1" stop-color="#B4B4B4"/>
</linearGradient>
</defs>
</svg>
