<svg width="384" height="224" viewBox="0 0 384 224" fill="none" xmlns="http://www.w3.org/2000/svg">
<rect x="384" width="224" height="384" rx="12" transform="rotate(90 384 0)" fill="url(#paint0_linear_720_833)"/>
<mask id="mask0_720_833" style="mask-type:alpha" maskUnits="userSpaceOnUse" x="21" y="111" width="52" height="33">
<rect x="21.668" y="111.944" width="50.558" height="31.2304" rx="3.15392" fill="url(#paint1_linear_720_833)"/>
</mask>
<g mask="url(#mask0_720_833)">
<rect x="21.668" y="111.944" width="50.558" height="31.2304" rx="3.15392" fill="url(#paint2_linear_720_833)"/>
<path fill-rule="evenodd" clip-rule="evenodd" d="M33.3413 121.598L21.668 121.598L21.668 121.286L33.468 121.286L38.0993 124.49L38.0993 133.218L34.3823 136.432L21.668 136.432L21.668 136.12L34.2327 136.12L37.7382 133.089L37.7382 124.64L33.3413 121.598Z" fill="#868686"/>
<path fill-rule="evenodd" clip-rule="evenodd" d="M59.6696 117.694L73.1289 117.694L73.1289 117.382L59.5035 117.382L53.9891 122.946L53.9891 133.211L59.5035 138.775L73.1289 138.775L73.1289 138.462L59.6696 138.462L54.3502 133.095L54.3502 123.061L59.6696 117.694Z" fill="#868686"/>
<path fill-rule="evenodd" clip-rule="evenodd" d="M45.4791 116.703L36.1133 110.667L36.33 110.382L45.8569 116.522L45.8569 122.527L54.1697 122.527L54.1697 122.875L45.4791 122.875L45.4791 116.703Z" fill="#868686"/>
<path fill-rule="evenodd" clip-rule="evenodd" d="M37.918 132.997L46.2239 132.997L46.2239 138.696L38.9291 143.428L38.7125 143.178L45.8628 138.54L45.8628 133.309L37.918 133.309L37.918 132.997Z" fill="#868686"/>
<path fill-rule="evenodd" clip-rule="evenodd" d="M54.1699 132.997L45.864 132.997L45.864 138.696L53.1588 143.428L53.3754 143.178L46.2251 138.54L46.2251 133.309L54.1699 133.309L54.1699 132.997Z" fill="#868686"/>
</g>
<rect x="21.9308" y="112.206" width="50.0323" height="30.7048" rx="2.89109" stroke="white" stroke-width="0.525653"/>
<path d="M23.1567 198.175C23.1567 197.328 23.2819 196.591 23.5323 195.963C23.7867 195.331 24.1325 194.806 24.5697 194.388C25.011 193.971 25.5297 193.659 26.1259 193.452C26.7221 193.246 27.3661 193.142 28.0577 193.142C28.3479 193.142 28.642 193.158 28.9401 193.19C29.2422 193.218 29.5383 193.264 29.8285 193.327C30.1187 193.391 30.3989 193.474 30.6692 193.578C30.9434 193.677 31.1978 193.796 31.4323 193.935L30.5917 195.366C30.4168 195.267 30.2299 195.183 30.0312 195.116C29.8364 195.044 29.6337 194.989 29.4231 194.949C29.2124 194.905 28.9997 194.873 28.7851 194.854C28.5704 194.834 28.3598 194.824 28.1531 194.824C27.692 194.824 27.2746 194.883 26.901 195.003C26.5313 195.122 26.2114 195.291 25.9411 195.509C25.6708 195.728 25.4542 195.99 25.2912 196.296C25.1322 196.599 25.0328 196.934 24.9931 197.304C25.1998 197.141 25.4283 197 25.6787 196.881C25.9291 196.761 26.1935 196.664 26.4717 196.589C26.7539 196.509 27.0421 196.451 27.3363 196.416C27.6344 196.376 27.9325 196.356 28.2306 196.356C28.8109 196.356 29.3376 196.426 29.8106 196.565C30.2876 196.704 30.695 196.905 31.0329 197.167C31.3707 197.429 31.6311 197.749 31.8139 198.127C32.0007 198.5 32.0942 198.926 32.0942 199.403C32.0942 199.872 32.0007 200.307 31.8139 200.709C31.6311 201.11 31.3588 201.46 30.9971 201.758C30.6354 202.052 30.1862 202.285 29.6496 202.455C29.113 202.622 28.4909 202.706 27.7834 202.706C27.0958 202.706 26.4677 202.618 25.8993 202.444C25.3309 202.269 24.844 201.996 24.4386 201.627C24.0331 201.257 23.7171 200.788 23.4906 200.22C23.268 199.647 23.1567 198.966 23.1567 198.175ZM25.0348 199.051C25.1302 199.703 25.4164 200.196 25.8934 200.53C26.3704 200.86 26.9964 201.025 27.7715 201.025C28.161 201.025 28.5068 200.985 28.8089 200.905C29.111 200.826 29.3654 200.716 29.5721 200.577C29.7788 200.434 29.9358 200.265 30.0431 200.071C30.1505 199.876 30.2041 199.663 30.2041 199.433C30.2041 199.238 30.1624 199.055 30.0789 198.884C29.9954 198.713 29.8643 198.566 29.6854 198.443C29.5105 198.316 29.2839 198.216 29.0057 198.145C28.7275 198.069 28.3916 198.031 27.9981 198.031C27.6682 198.031 27.3561 198.057 27.062 198.109C26.7678 198.161 26.4956 198.232 26.2452 198.324C25.9947 198.415 25.7662 198.522 25.5595 198.646C25.3568 198.769 25.1819 198.904 25.0348 199.051ZM33.9425 197.894C33.9425 197.143 34.0558 196.469 34.2823 195.873C34.5089 195.277 34.8309 194.772 35.2482 194.359C35.6656 193.941 36.1724 193.623 36.7686 193.405C37.3648 193.186 38.0326 193.077 38.7719 193.077C39.5112 193.077 40.179 193.186 40.7753 193.405C41.3715 193.623 41.8783 193.941 42.2956 194.359C42.713 194.772 43.035 195.277 43.2615 195.873C43.4881 196.469 43.6014 197.143 43.6014 197.894C43.6014 198.646 43.4881 199.319 43.2615 199.916C43.035 200.512 42.713 201.017 42.2956 201.43C41.8783 201.843 41.3715 202.159 40.7753 202.378C40.179 202.597 39.5112 202.706 38.7719 202.706C38.0326 202.706 37.3648 202.597 36.7686 202.378C36.1724 202.159 35.6656 201.843 35.2482 201.43C34.8309 201.017 34.5089 200.512 34.2823 199.916C34.0558 199.319 33.9425 198.646 33.9425 197.894ZM35.8325 197.888C35.8325 198.397 35.9001 198.846 36.0352 199.236C36.1744 199.625 36.3711 199.953 36.6255 200.22C36.8799 200.482 37.1879 200.683 37.5497 200.822C37.9114 200.957 38.3188 201.025 38.7719 201.025C39.2251 201.025 39.6325 200.957 39.9942 200.822C40.3559 200.683 40.664 200.482 40.9184 200.22C41.1727 199.953 41.3675 199.625 41.5027 199.236C41.6418 198.846 41.7113 198.397 41.7113 197.888C41.7113 197.384 41.6418 196.938 41.5027 196.553C41.3675 196.163 41.1727 195.835 40.9184 195.569C40.664 195.303 40.3559 195.102 39.9942 194.967C39.6325 194.828 39.2251 194.758 38.7719 194.758C38.3188 194.758 37.9114 194.828 37.5497 194.967C37.1879 195.102 36.8799 195.303 36.6255 195.569C36.3711 195.835 36.1744 196.163 36.0352 196.553C35.9001 196.938 35.8325 197.384 35.8325 197.888ZM45.5391 198.175C45.5391 197.328 45.6643 196.591 45.9148 195.963C46.1691 195.331 46.515 194.806 46.9522 194.388C47.3934 193.971 47.9121 193.659 48.5083 193.452C49.1046 193.246 49.7485 193.142 50.4401 193.142C50.7303 193.142 51.0244 193.158 51.3225 193.19C51.6246 193.218 51.9208 193.264 52.2109 193.327C52.5011 193.391 52.7813 193.474 53.0516 193.578C53.3259 193.677 53.5803 193.796 53.8148 193.935L52.9741 195.366C52.7992 195.267 52.6124 195.183 52.4136 195.116C52.2189 195.044 52.0162 194.989 51.8055 194.949C51.5948 194.905 51.3822 194.873 51.1675 194.854C50.9529 194.834 50.7422 194.824 50.5355 194.824C50.0744 194.824 49.6571 194.883 49.2834 195.003C48.9138 195.122 48.5938 195.291 48.3235 195.509C48.0532 195.728 47.8366 195.99 47.6736 196.296C47.5146 196.599 47.4153 196.934 47.3755 197.304C47.5822 197.141 47.8108 197 48.0612 196.881C48.3116 196.761 48.5759 196.664 48.8542 196.589C49.1364 196.509 49.4246 196.451 49.7187 196.416C50.0168 196.376 50.3149 196.356 50.613 196.356C51.1934 196.356 51.72 196.426 52.193 196.565C52.67 196.704 53.0775 196.905 53.4153 197.167C53.7532 197.429 54.0135 197.749 54.1964 198.127C54.3832 198.5 54.4766 198.926 54.4766 199.403C54.4766 199.872 54.3832 200.307 54.1964 200.709C54.0135 201.11 53.7413 201.46 53.3795 201.758C53.0178 202.052 52.5687 202.285 52.0321 202.455C51.4955 202.622 50.8734 202.706 50.1659 202.706C49.4782 202.706 48.8502 202.618 48.2818 202.444C47.7134 202.269 47.2265 201.996 46.821 201.627C46.4156 201.257 46.0996 200.788 45.873 200.22C45.6504 199.647 45.5391 198.966 45.5391 198.175ZM47.4172 199.051C47.5126 199.703 47.7988 200.196 48.2758 200.53C48.7528 200.86 49.3788 201.025 50.1539 201.025C50.5435 201.025 50.8893 200.985 51.1914 200.905C51.4935 200.826 51.7479 200.716 51.9546 200.577C52.1612 200.434 52.3183 200.265 52.4256 200.071C52.5329 199.876 52.5866 199.663 52.5866 199.433C52.5866 199.238 52.5448 199.055 52.4613 198.884C52.3779 198.713 52.2467 198.566 52.0678 198.443C51.8929 198.316 51.6664 198.216 51.3881 198.145C51.1099 198.069 50.774 198.031 50.3805 198.031C50.0506 198.031 49.7386 198.057 49.4444 198.109C49.1503 198.161 48.878 198.232 48.6276 198.324C48.3772 198.415 48.1486 198.522 47.9419 198.646C47.7392 198.769 47.5643 198.904 47.4172 199.051ZM56.7125 198.175C56.7125 197.328 56.8377 196.591 57.0881 195.963C57.3425 195.331 57.6883 194.806 58.1255 194.388C58.5667 193.971 59.0855 193.659 59.6817 193.452C60.2779 193.246 60.9218 193.142 61.6135 193.142C61.9036 193.142 62.1978 193.158 62.4959 193.19C62.798 193.218 63.0941 193.264 63.3843 193.327C63.6744 193.391 63.9547 193.474 64.2249 193.578C64.4992 193.677 64.7536 193.796 64.9881 193.935L64.1474 195.366C63.9725 195.267 63.7857 195.183 63.587 195.116C63.3922 195.044 63.1895 194.989 62.9788 194.949C62.7682 194.905 62.5555 194.873 62.3409 194.854C62.1262 194.834 61.9156 194.824 61.7089 194.824C61.2478 194.824 60.8304 194.883 60.4568 195.003C60.0871 195.122 59.7671 195.291 59.4968 195.509C59.2266 195.728 59.0099 195.99 58.847 196.296C58.688 196.599 58.5886 196.934 58.5488 197.304C58.7555 197.141 58.9841 197 59.2345 196.881C59.4849 196.761 59.7493 196.664 60.0275 196.589C60.3097 196.509 60.5979 196.451 60.892 196.416C61.1901 196.376 61.4883 196.356 61.7864 196.356C62.3667 196.356 62.8934 196.426 63.3664 196.565C63.8434 196.704 64.2508 196.905 64.5886 197.167C64.9265 197.429 65.1869 197.749 65.3697 198.127C65.5565 198.5 65.6499 198.926 65.6499 199.403C65.6499 199.872 65.5565 200.307 65.3697 200.709C65.1869 201.11 64.9146 201.46 64.5529 201.758C64.1912 202.052 63.742 202.285 63.2054 202.455C62.6688 202.622 62.0467 202.706 61.3392 202.706C60.6515 202.706 60.0235 202.618 59.4551 202.444C58.8867 202.269 58.3998 201.996 57.9944 201.627C57.5889 201.257 57.2729 200.788 57.0463 200.22C56.8238 199.647 56.7125 198.966 56.7125 198.175ZM58.5906 199.051C58.686 199.703 58.9722 200.196 59.4492 200.53C59.9261 200.86 60.5522 201.025 61.3273 201.025C61.7168 201.025 62.0626 200.985 62.3647 200.905C62.6668 200.826 62.9212 200.716 63.1279 200.577C63.3346 200.434 63.4916 200.265 63.5989 200.071C63.7062 199.876 63.7599 199.663 63.7599 199.433C63.7599 199.238 63.7182 199.055 63.6347 198.884C63.5512 198.713 63.42 198.566 63.2412 198.443C63.0663 198.316 62.8397 198.216 62.5615 198.145C62.2832 198.069 61.9474 198.031 61.5538 198.031C61.2239 198.031 60.9119 198.057 60.6178 198.109C60.3236 198.161 60.0513 198.232 59.8009 198.324C59.5505 198.415 59.322 198.522 59.1153 198.646C58.9125 198.769 58.7377 198.904 58.5906 199.051ZM68.0408 200.953L71.326 198.699C71.8189 198.361 72.2224 198.067 72.5364 197.817C72.8504 197.566 73.0968 197.344 73.2757 197.149C73.4546 196.95 73.5778 196.771 73.6454 196.612C73.7129 196.453 73.7467 196.294 73.7467 196.135C73.7467 195.953 73.709 195.782 73.6334 195.623C73.5579 195.464 73.4387 195.325 73.2757 195.205C73.1167 195.086 72.91 194.993 72.6556 194.925C72.4052 194.858 72.1051 194.824 71.7553 194.824C71.2465 194.824 70.7397 194.895 70.2349 195.038C69.7301 195.181 69.2154 195.41 68.6907 195.724L67.8202 194.293C68.4045 193.931 69.0365 193.649 69.7162 193.446C70.3999 193.244 71.1174 193.142 71.8686 193.142C72.5245 193.142 73.0929 193.222 73.5738 193.381C74.0588 193.536 74.4582 193.749 74.7722 194.019C75.0902 194.289 75.3267 194.603 75.4818 194.961C75.6368 195.319 75.7143 195.698 75.7143 196.1C75.7143 196.41 75.6626 196.706 75.5593 196.988C75.4559 197.27 75.2751 197.562 75.0167 197.864C74.7583 198.167 74.4085 198.493 73.9673 198.842C73.5301 199.188 72.9776 199.582 72.3098 200.023L70.9504 200.917L76.0541 200.917L76.0541 202.575L68.0408 202.575L68.0408 200.953ZM77.8965 200.917L80.0131 200.917L80.0131 195.116C79.7349 195.179 79.4666 195.263 79.2082 195.366C78.9538 195.47 78.7213 195.595 78.5106 195.742L77.5805 194.412C77.9223 194.198 78.2701 194.017 78.6239 193.87C78.9816 193.719 79.3413 193.599 79.7031 193.512C80.0687 193.421 80.4344 193.355 80.8001 193.315C81.1698 193.276 81.5375 193.256 81.9031 193.256L81.8972 193.268L81.9031 193.268L81.9031 200.917L83.9244 200.917L83.9244 202.575L77.8965 202.575L77.8965 200.917ZM85.3672 200.953L88.6525 198.699C89.1453 198.361 89.5488 198.067 89.8628 197.817C90.1768 197.566 90.4233 197.344 90.6021 197.149C90.781 196.95 90.9042 196.771 90.9718 196.612C91.0394 196.453 91.0731 196.294 91.0731 196.135C91.0731 195.953 91.0354 195.782 90.9599 195.623C90.8843 195.464 90.7651 195.325 90.6021 195.205C90.4431 195.086 90.2364 194.993 89.982 194.925C89.7316 194.858 89.4315 194.824 89.0817 194.824C88.573 194.824 88.0662 194.895 87.5614 195.038C87.0565 195.181 86.5418 195.41 86.0171 195.724L85.1466 194.293C85.7309 193.931 86.3629 193.649 87.0426 193.446C87.7263 193.244 88.4438 193.142 89.195 193.142C89.8509 193.142 90.4193 193.222 90.9002 193.381C91.3852 193.536 91.7846 193.749 92.0987 194.019C92.4166 194.289 92.6532 194.603 92.8082 194.961C92.9632 195.319 93.0407 195.698 93.0407 196.1C93.0407 196.41 92.989 196.706 92.8857 196.988C92.7823 197.27 92.6015 197.562 92.3431 197.865C92.0847 198.167 91.735 198.493 91.2937 198.842C90.8565 199.188 90.304 199.582 89.6362 200.023L88.2768 200.917L93.3805 200.917L93.3805 202.575L85.3672 202.575L85.3672 200.953ZM95.2229 200.917L97.3395 200.917L97.3395 195.116C97.0613 195.179 96.793 195.263 96.5346 195.366C96.2802 195.47 96.0477 195.595 95.837 195.742L94.9069 194.412C95.2487 194.198 95.5965 194.017 95.9503 193.87C96.308 193.719 96.6678 193.599 97.0295 193.512C97.3952 193.421 97.7608 193.355 98.1265 193.315C98.4962 193.276 98.8639 193.256 99.2296 193.256L99.2236 193.268L99.2296 193.268L99.2296 200.917L101.251 200.917L101.251 202.575L95.2229 202.575L95.2229 200.917Z" fill="#D9D9D9"/>
<path opacity="0.5" d="M313.308 28.3752L312.352 28.3752C312.296 28.1003 312.197 27.8587 312.055 27.6506C311.917 27.4425 311.747 27.2677 311.546 27.1264C311.349 26.9825 311.129 26.8746 310.887 26.8026C310.646 26.7307 310.394 26.6947 310.132 26.6947C309.654 26.6947 309.221 26.8155 308.833 27.057C308.448 27.2986 308.14 27.6545 307.912 28.1247C307.686 28.5949 307.573 29.1718 307.573 29.8553C307.573 30.5388 307.686 31.1157 307.912 31.586C308.14 32.0562 308.448 32.4121 308.833 32.6536C309.221 32.8952 309.654 33.0159 310.132 33.0159C310.394 33.0159 310.646 32.98 310.887 32.908C311.129 32.8361 311.349 32.7294 311.546 32.5881C311.747 32.4442 311.917 32.2682 312.055 32.0601C312.197 31.8493 312.296 31.6078 312.352 31.3354L313.308 31.3354C313.236 31.7389 313.105 32.0999 312.915 32.4185C312.725 32.7371 312.488 33.0082 312.206 33.2318C311.923 33.4528 311.606 33.6211 311.254 33.7367C310.904 33.8524 310.53 33.9102 310.132 33.9102C309.459 33.9102 308.86 33.7457 308.336 33.4168C307.812 33.0879 307.399 32.6202 307.099 32.0138C306.798 31.4074 306.648 30.6879 306.648 29.8553C306.648 29.0228 306.798 28.3033 307.099 27.6969C307.399 27.0904 307.812 26.6228 308.336 26.2939C308.86 25.9649 309.459 25.8005 310.132 25.8005C310.53 25.8005 310.904 25.8583 311.254 25.9739C311.606 26.0896 311.923 26.2592 312.206 26.4827C312.488 26.7037 312.725 26.9735 312.915 27.2921C313.105 27.6082 313.236 27.9692 313.308 28.3752ZM314.729 33.8022L314.729 27.8819L315.608 27.8819L315.608 28.7761L315.67 28.7761C315.778 28.4832 315.973 28.2455 316.256 28.063C316.538 27.8806 316.857 27.7894 317.212 27.7894C317.278 27.7894 317.362 27.7907 317.462 27.7932C317.562 27.7958 317.638 27.7996 317.689 27.8048L317.689 28.7298C317.659 28.7221 317.588 28.7106 317.477 28.6952C317.37 28.6772 317.255 28.6682 317.134 28.6682C316.847 28.6682 316.59 28.7286 316.364 28.8493C316.14 28.9675 315.963 29.132 315.832 29.3427C315.703 29.5508 315.639 29.7885 315.639 30.0558L315.639 33.8022L314.729 33.8022ZM321.07 33.9256C320.499 33.9256 320.007 33.7997 319.594 33.5479C319.182 33.2935 318.865 32.9389 318.642 32.484C318.421 32.0266 318.31 31.4947 318.31 30.8883C318.31 30.2819 318.421 29.7474 318.642 29.2849C318.865 28.8198 319.176 28.4575 319.574 28.1979C319.975 27.9358 320.443 27.8048 320.977 27.8048C321.286 27.8048 321.59 27.8562 321.891 27.959C322.191 28.0617 322.465 28.2288 322.712 28.46C322.958 28.6887 323.155 28.9919 323.301 29.3697C323.448 29.7474 323.521 30.2125 323.521 30.765L323.521 31.1504L318.958 31.1504L318.958 30.3641L322.596 30.3641C322.596 30.0301 322.529 29.732 322.396 29.4699C322.265 29.2078 322.077 29.0009 321.833 28.8493C321.591 28.6977 321.306 28.6219 320.977 28.6219C320.615 28.6219 320.301 28.7119 320.037 28.8917C319.775 29.069 319.573 29.3003 319.432 29.5855C319.29 29.8707 319.22 30.1765 319.22 30.5029L319.22 31.0271C319.22 31.4742 319.297 31.8532 319.451 32.1641C319.608 32.4725 319.825 32.7076 320.102 32.8695C320.38 33.0288 320.702 33.1085 321.07 33.1085C321.309 33.1085 321.525 33.075 321.717 33.0082C321.913 32.9389 322.081 32.8361 322.222 32.6999C322.364 32.5611 322.473 32.389 322.55 32.1834L323.429 32.4301C323.336 32.7282 323.181 32.9903 322.962 33.2164C322.744 33.4399 322.474 33.6147 322.153 33.7406C321.832 33.8639 321.471 33.9256 321.07 33.9256ZM327.14 33.9256C326.647 33.9256 326.212 33.801 325.834 33.5517C325.456 33.2999 325.161 32.9453 324.947 32.4879C324.734 32.0279 324.627 31.4845 324.627 30.8575C324.627 30.2356 324.734 29.696 324.947 29.2386C325.161 28.7812 325.457 28.4279 325.838 28.1787C326.218 27.9294 326.657 27.8048 327.156 27.8048C327.541 27.8048 327.846 27.869 328.069 27.9975C328.296 28.1234 328.468 28.2673 328.586 28.4292C328.707 28.5885 328.8 28.7196 328.867 28.8223L328.944 28.8223L328.944 25.9084L329.854 25.9084L329.854 33.8022L328.975 33.8022L328.975 32.8926L328.867 32.8926C328.8 33.0005 328.705 33.1367 328.582 33.3012C328.459 33.4631 328.283 33.6082 328.054 33.7367C327.825 33.8626 327.521 33.9256 327.14 33.9256ZM327.264 33.1085C327.629 33.1085 327.937 33.0134 328.189 32.8232C328.441 32.6305 328.632 32.3646 328.763 32.0254C328.894 31.6836 328.96 31.2892 328.96 30.8421C328.96 30.4001 328.896 30.0134 328.767 29.6819C328.639 29.3478 328.448 29.0883 328.197 28.9033C327.945 28.7157 327.634 28.6219 327.264 28.6219C326.878 28.6219 326.557 28.7208 326.3 28.9187C326.046 29.114 325.854 29.38 325.726 29.7166C325.6 30.0506 325.537 30.4258 325.537 30.8421C325.537 31.2635 325.601 31.6463 325.73 31.9907C325.861 32.3324 326.054 32.6048 326.308 32.8078C326.565 33.0082 326.884 33.1085 327.264 33.1085ZM331.646 33.8022L331.646 27.8819L332.556 27.8819L332.556 33.8022L331.646 33.8022ZM332.109 26.8951C331.932 26.8951 331.779 26.8348 331.65 26.714C331.524 26.5932 331.461 26.448 331.461 26.2784C331.461 26.1088 331.524 25.9637 331.65 25.8429C331.779 25.7221 331.932 25.6617 332.109 25.6617C332.286 25.6617 332.438 25.7221 332.564 25.8429C332.692 25.9637 332.756 26.1088 332.756 26.2784C332.756 26.448 332.692 26.5932 332.564 26.714C332.438 26.8348 332.286 26.8951 332.109 26.8951ZM336.797 27.8819L336.797 28.6528L333.729 28.6528L333.729 27.8819L336.797 27.8819ZM334.623 26.4634L335.532 26.4634L335.532 32.1063C335.532 32.3633 335.57 32.556 335.644 32.6845C335.721 32.8104 335.819 32.8952 335.937 32.9389C336.058 32.98 336.185 33.0005 336.319 33.0005C336.419 33.0005 336.501 32.9954 336.565 32.9851C336.63 32.9723 336.681 32.962 336.72 32.9543L336.905 33.7714C336.843 33.7945 336.757 33.8177 336.646 33.8408C336.536 33.8665 336.396 33.8793 336.226 33.8793C335.969 33.8793 335.718 33.8241 335.471 33.7136C335.227 33.6031 335.024 33.4348 334.862 33.2087C334.703 32.9825 334.623 32.6973 334.623 32.353L334.623 26.4634ZM347.693 28.3752L346.737 28.3752C346.681 28.1003 346.582 27.8587 346.44 27.6506C346.302 27.4425 346.132 27.2677 345.932 27.1264C345.734 26.9825 345.514 26.8746 345.273 26.8026C345.031 26.7307 344.779 26.6947 344.517 26.6947C344.039 26.6947 343.606 26.8155 343.218 27.057C342.833 27.2986 342.526 27.6545 342.297 28.1247C342.071 28.5949 341.958 29.1718 341.958 29.8553C341.958 30.5388 342.071 31.1157 342.297 31.586C342.526 32.0562 342.833 32.4121 343.218 32.6536C343.606 32.8952 344.039 33.0159 344.517 33.0159C344.779 33.0159 345.031 32.98 345.273 32.908C345.514 32.8361 345.734 32.7294 345.932 32.5881C346.132 32.4442 346.302 32.2682 346.44 32.0601C346.582 31.8493 346.681 31.6078 346.737 31.3354L347.693 31.3354C347.621 31.7389 347.49 32.0999 347.3 32.4185C347.11 32.7371 346.873 33.0082 346.591 33.2318C346.308 33.4528 345.991 33.6211 345.639 33.7367C345.289 33.8524 344.915 33.9102 344.517 33.9102C343.844 33.9102 343.245 33.7457 342.721 33.4168C342.197 33.0879 341.784 32.6202 341.484 32.0138C341.183 31.4074 341.033 30.6879 341.033 29.8553C341.033 29.0228 341.183 28.3033 341.484 27.6969C341.784 27.0904 342.197 26.6228 342.721 26.2939C343.245 25.9649 343.844 25.8005 344.517 25.8005C344.915 25.8005 345.289 25.8583 345.639 25.9739C345.991 26.0896 346.308 26.2592 346.591 26.4827C346.873 26.7037 347.11 26.9735 347.3 27.2921C347.49 27.6082 347.621 27.9692 347.693 28.3752ZM350.857 33.941C350.482 33.941 350.141 33.8703 349.835 33.729C349.529 33.5851 349.287 33.3783 349.107 33.1085C348.927 32.8361 348.837 32.5072 348.837 32.1217C348.837 31.7825 348.904 31.5076 349.037 31.2969C349.171 31.0836 349.35 30.9166 349.573 30.7958C349.797 30.675 350.043 30.5851 350.313 30.526C350.586 30.4643 350.859 30.4155 351.134 30.3795C351.494 30.3333 351.786 30.2986 352.009 30.2755C352.235 30.2498 352.4 30.2074 352.503 30.1483C352.608 30.0892 352.661 29.9864 352.661 29.8399L352.661 29.8091C352.661 29.4288 352.556 29.1333 352.348 28.9226C352.143 28.7119 351.831 28.6065 351.412 28.6065C350.977 28.6065 350.637 28.7016 350.39 28.8917C350.144 29.0819 349.97 29.2849 349.87 29.5007L349.007 29.1924C349.161 28.8326 349.366 28.5525 349.623 28.3521C349.883 28.1491 350.165 28.0078 350.471 27.9281C350.78 27.8459 351.083 27.8048 351.381 27.8048C351.571 27.8048 351.789 27.8279 352.036 27.8742C352.285 27.9178 352.526 28.0091 352.757 28.1478C352.991 28.2866 353.185 28.496 353.339 28.7761C353.493 29.0562 353.57 29.4313 353.57 29.9016L353.57 33.8022L352.661 33.8022L352.661 33.0005L352.614 33.0005C352.553 33.129 352.45 33.2665 352.306 33.413C352.162 33.5594 351.971 33.684 351.732 33.7868C351.493 33.8896 351.201 33.941 350.857 33.941ZM350.995 33.1239C351.355 33.1239 351.658 33.0532 351.905 32.9119C352.154 32.7706 352.342 32.5881 352.468 32.3646C352.596 32.141 352.661 31.9059 352.661 31.6592L352.661 30.8266C352.622 30.8729 352.537 30.9153 352.406 30.9538C352.278 30.9898 352.129 31.0219 351.959 31.0502C351.792 31.0759 351.629 31.099 351.47 31.1196C351.313 31.1376 351.186 31.153 351.088 31.1658C350.852 31.1967 350.631 31.2468 350.425 31.3162C350.222 31.383 350.058 31.4845 349.932 31.6207C349.808 31.7543 349.747 31.9367 349.747 32.168C349.747 32.484 349.864 32.723 350.097 32.8849C350.334 33.0442 350.633 33.1239 350.995 33.1239ZM355.23 33.8022L355.23 27.8819L356.109 27.8819L356.109 28.7761L356.171 28.7761C356.279 28.4832 356.474 28.2455 356.757 28.063C357.039 27.8806 357.358 27.7894 357.713 27.7894C357.78 27.7894 357.863 27.7907 357.963 27.7932C358.063 27.7958 358.139 27.7996 358.191 27.8048L358.191 28.7298C358.16 28.7221 358.089 28.7106 357.979 28.6952C357.871 28.6772 357.756 28.6682 357.636 28.6682C357.348 28.6682 357.091 28.7286 356.865 28.8493C356.641 28.9675 356.464 29.132 356.333 29.3427C356.204 29.5508 356.14 29.7885 356.14 30.0558L356.14 33.8022L355.23 33.8022ZM361.324 33.9256C360.831 33.9256 360.395 33.801 360.018 33.5517C359.64 33.2999 359.344 32.9453 359.131 32.4879C358.918 32.0279 358.811 31.4845 358.811 30.8575C358.811 30.2356 358.918 29.696 359.131 29.2386C359.344 28.7812 359.641 28.4279 360.021 28.1787C360.402 27.9294 360.841 27.8048 361.34 27.8048C361.725 27.8048 362.03 27.869 362.253 27.9975C362.479 28.1234 362.651 28.2673 362.77 28.4292C362.89 28.5885 362.984 28.7196 363.051 28.8223L363.128 28.8223L363.128 25.9084L364.038 25.9084L364.038 33.8022L363.159 33.8022L363.159 32.8926L363.051 32.8926C362.984 33.0005 362.889 33.1367 362.766 33.3012C362.642 33.4631 362.466 33.6082 362.238 33.7367C362.009 33.8626 361.705 33.9256 361.324 33.9256ZM361.448 33.1085C361.813 33.1085 362.121 33.0134 362.373 32.8232C362.625 32.6305 362.816 32.3646 362.947 32.0254C363.078 31.6836 363.144 31.2892 363.144 30.8421C363.144 30.4001 363.079 30.0134 362.951 29.6819C362.822 29.3478 362.632 29.0883 362.38 28.9033C362.129 28.7157 361.818 28.6219 361.448 28.6219C361.062 28.6219 360.741 28.7209 360.484 28.9187C360.23 29.114 360.038 29.38 359.91 29.7166C359.784 30.0506 359.721 30.4258 359.721 30.8421C359.721 31.2635 359.785 31.6463 359.914 31.9907C360.045 32.3324 360.237 32.6048 360.492 32.8078C360.749 33.0082 361.067 33.1085 361.448 33.1085Z" fill="white"/>
<rect x="22.5" y="17.5562" width="94" height="24" rx="12" stroke="#DBDBDB" stroke-opacity="0.4"/>
<path d="M34.2775 25.1623L35.3722 25.1623L37.5615 28.8471L37.654 28.8471L39.8433 25.1623L40.9379 25.1623L38.0857 29.803L38.0857 33.0562L37.1298 33.0562L37.1298 29.803L34.2775 25.1623ZM48.4637 29.1092C48.4637 29.9418 48.3134 30.6613 48.0127 31.2677C47.7121 31.8741 47.2996 32.3418 46.7754 32.6707C46.2512 32.9996 45.6525 33.1641 44.9793 33.1641C44.3061 33.1641 43.7073 32.9996 43.1831 32.6707C42.6589 32.3418 42.2465 31.8741 41.9459 31.2677C41.6452 30.6613 41.4949 29.9418 41.4949 29.1092C41.4949 28.2767 41.6452 27.5572 41.9459 26.9508C42.2465 26.3443 42.6589 25.8767 43.1831 25.5478C43.7073 25.2189 44.3061 25.0544 44.9793 25.0544C45.6525 25.0544 46.2512 25.2189 46.7754 25.5478C47.2996 25.8767 47.7121 26.3443 48.0127 26.9508C48.3134 27.5572 48.4637 28.2767 48.4637 29.1092ZM47.5386 29.1092C47.5386 28.4257 47.4243 27.8488 47.1956 27.3786C46.9694 26.9084 46.6624 26.5525 46.2744 26.3109C45.8889 26.0694 45.4572 25.9486 44.9793 25.9486C44.5013 25.9486 44.0684 26.0694 43.6804 26.3109C43.2949 26.5525 42.9878 26.9084 42.7591 27.3786C42.533 27.8488 42.42 28.4257 42.42 29.1092C42.42 29.7928 42.533 30.3696 42.7591 30.8399C42.9878 31.3101 43.2949 31.666 43.6804 31.9075C44.0684 32.1491 44.5013 32.2699 44.9793 32.2699C45.4572 32.2699 45.8889 32.1491 46.2744 31.9075C46.6624 31.666 46.9694 31.3101 47.1956 30.8399C47.4243 30.3696 47.5386 29.7928 47.5386 29.1092ZM55.2513 25.1623L56.2072 25.1623L56.2072 30.3889C56.2072 30.9285 56.08 31.4103 55.8256 31.8343C55.5738 32.2557 55.2179 32.5885 54.7579 32.8326C54.298 33.0741 53.7583 33.1949 53.1391 33.1949C52.5198 33.1949 51.9802 33.0741 51.5202 32.8326C51.0603 32.5885 50.7031 32.2557 50.4487 31.8343C50.1969 31.4103 50.071 30.9285 50.071 30.3889L50.071 25.1623L51.0269 25.1623L51.0269 30.3118C51.0269 30.6973 51.1117 31.0403 51.2812 31.3409C51.4508 31.639 51.6924 31.8741 52.0059 32.0463C52.3219 32.2159 52.6997 32.3007 53.1391 32.3007C53.5785 32.3007 53.9562 32.2159 54.2723 32.0463C54.5883 31.8741 54.8299 31.639 54.9969 31.3409C55.1665 31.0403 55.2513 30.6973 55.2513 30.3118L55.2513 25.1623ZM58.1161 33.0562L58.1161 25.1623L60.7833 25.1623C61.4 25.1623 61.9063 25.2677 62.302 25.4784C62.6977 25.6865 62.9906 25.973 63.1808 26.3379C63.3709 26.7028 63.466 27.1178 63.466 27.5829C63.466 28.048 63.3709 28.4604 63.1808 28.8202C62.9906 29.1799 62.699 29.4626 62.3058 29.6681C61.9127 29.8711 61.4103 29.9726 60.7988 29.9726L58.6403 29.9726L58.6403 29.1092L60.7679 29.1092C61.1893 29.1092 61.5285 29.0476 61.7855 28.9242C62.045 28.8009 62.2326 28.6262 62.3482 28.4C62.4664 28.1713 62.5255 27.899 62.5255 27.5829C62.5255 27.2668 62.4664 26.9906 62.3482 26.7542C62.23 26.5178 62.0412 26.3353 61.7816 26.2069C61.5221 26.0758 61.1791 26.0103 60.7525 26.0103L59.072 26.0103L59.072 33.0562L58.1161 33.0562ZM61.8317 29.5101L63.7744 33.0562L62.6643 33.0562L60.7525 29.5101L61.8317 29.5101ZM68.1115 33.0562L68.1115 25.1623L70.8713 25.1623C71.4212 25.1623 71.8747 25.2574 72.2319 25.4475C72.5891 25.6351 72.855 25.8882 73.0298 26.2069C73.2045 26.5229 73.2919 26.8737 73.2919 27.2591C73.2919 27.5983 73.2315 27.8784 73.1107 28.0994C72.9925 28.3204 72.8358 28.4951 72.6405 28.6236C72.4477 28.7521 72.2383 28.8471 72.0122 28.9088L72.0122 28.9859C72.2537 29.0013 72.4966 29.0861 72.7407 29.2403C72.9848 29.3945 73.1891 29.6155 73.3535 29.9032C73.518 30.191 73.6002 30.5431 73.6002 30.9594C73.6002 31.3551 73.5103 31.711 73.3304 32.027C73.1505 32.3431 72.8666 32.5936 72.4786 32.7786C72.0906 32.9636 71.5856 33.0562 70.9638 33.0562L68.1115 33.0562ZM69.0674 32.2082L70.9638 32.2082C71.5882 32.2082 72.0315 32.0874 72.2936 31.8459C72.5582 31.6018 72.6906 31.3063 72.6906 30.9594C72.6906 30.6921 72.6225 30.4454 72.4863 30.2193C72.3501 29.9906 72.1561 29.8082 71.9043 29.672C71.6525 29.5332 71.3544 29.4638 71.0101 29.4638L69.0674 29.4638L69.0674 32.2082ZM69.0674 28.6313L70.8405 28.6313C71.1283 28.6313 71.3878 28.5748 71.619 28.4617C71.8529 28.3486 72.0379 28.1893 72.1741 27.9837C72.3128 27.7782 72.3822 27.5366 72.3822 27.2591C72.3822 26.9122 72.2614 26.618 72.0199 26.3765C71.7784 26.1323 71.3955 26.0103 70.8713 26.0103L69.0674 26.0103L69.0674 28.6313ZM75.1709 33.0562L75.1709 25.1623L77.8381 25.1623C78.4548 25.1623 78.9611 25.2677 79.3568 25.4784C79.7525 25.6865 80.0454 25.973 80.2356 26.3379C80.4257 26.7028 80.5208 27.1178 80.5208 27.5829C80.5208 28.048 80.4257 28.4604 80.2356 28.8202C80.0454 29.1799 79.7538 29.4626 79.3606 29.6681C78.9675 29.8711 78.4651 29.9726 77.8536 29.9726L75.6951 29.9726L75.6951 29.1092L77.8227 29.1092C78.2441 29.1092 78.5833 29.0476 78.8403 28.9242C79.0998 28.8009 79.2874 28.6262 79.403 28.4C79.5212 28.1713 79.5803 27.899 79.5803 27.5829C79.5803 27.2668 79.5212 26.9906 79.403 26.7542C79.2848 26.5178 79.096 26.3353 78.8364 26.2069C78.5769 26.0758 78.2339 26.0103 77.8073 26.0103L76.1268 26.0103L76.1268 33.0562L75.1709 33.0562ZM78.8865 29.5101L80.8292 33.0562L79.7191 33.0562L77.8073 29.5101L78.8865 29.5101ZM82.4374 33.0562L81.4353 33.0562L84.3338 25.1623L85.3205 25.1623L88.219 33.0562L87.2169 33.0562L84.858 26.4112L84.7963 26.4112L82.4374 33.0562ZM82.8074 29.9726L86.8469 29.9726L86.8469 30.8206L82.8074 30.8206L82.8074 29.9726ZM95.7081 25.1623L95.7081 33.0562L94.7831 33.0562L90.4816 26.8583L90.4045 26.8583L90.4045 33.0562L89.4486 33.0562L89.4486 25.1623L90.3736 25.1623L94.6906 31.3756L94.7677 31.3756L94.7677 25.1623L95.7081 25.1623ZM100.057 33.0562L97.6209 33.0562L97.6209 25.1623L100.165 25.1623C100.931 25.1623 101.586 25.3204 102.131 25.6364C102.675 25.9499 103.093 26.4009 103.383 26.9893C103.674 27.5752 103.819 28.2767 103.819 29.0938C103.819 29.9161 103.672 30.624 103.379 31.2176C103.086 31.8086 102.66 32.2634 102.1 32.5821C101.54 32.8981 100.859 33.0562 100.057 33.0562ZM98.5768 32.2082L99.9952 32.2082C100.648 32.2082 101.189 32.0823 101.618 31.8305C102.047 31.5786 102.367 31.2202 102.578 30.7551C102.788 30.29 102.894 29.7362 102.894 29.0938C102.894 28.4566 102.79 27.9079 102.582 27.448C102.373 26.9855 102.062 26.6309 101.649 26.3842C101.235 26.1349 100.72 26.0103 100.103 26.0103L98.5768 26.0103L98.5768 32.2082Z" fill="white"/>
<path d="M358.436 197.903C357.234 198.27 355.564 198.088 354.498 196.491L353.802 195.446L353.2 194.543L354.498 192.597C355.562 191 357.225 190.815 358.436 191.184C359.642 191.548 360.93 192.623 360.93 194.544C360.93 196.464 359.642 197.538 358.436 197.903ZM347.011 196.491C345.946 198.087 344.28 198.271 343.07 197.903C341.866 197.538 340.578 196.464 340.578 194.544C340.578 192.623 341.866 191.548 343.072 191.184C343.403 191.083 343.769 191.023 344.148 191.023C345.148 191.023 346.237 191.437 347.011 192.597L348.309 194.543L347.011 196.491ZM359.615 187.288C356.345 186.3 353.007 187.496 351.112 190.339L350.754 190.874L350.398 190.339C348.5 187.496 345.168 186.292 341.891 187.289C338.622 188.278 336.508 191.127 336.508 194.544C336.508 197.961 338.622 200.808 341.891 201.798C345.161 202.792 348.499 201.593 350.398 198.748L350.754 198.213L351.112 198.748C351.191 198.868 351.273 198.984 351.358 199.097C352.818 201.058 355.003 202.141 357.338 202.141C358.088 202.141 358.853 202.03 359.617 201.8C362.886 200.808 365 197.961 365 194.544C365 191.126 362.886 188.278 359.615 187.288Z" fill="white"/>
<path d="M353.802 195.446L351.357 199.097C351.273 198.984 351.191 198.867 351.112 198.748L350.754 198.212L353.2 194.543L353.802 195.446Z" fill="#BBBCBD"/>
<path d="M350.753 190.873L348.309 194.524C348.224 194.411 348.142 194.295 348.063 194.175L347.705 193.64L350.151 189.97L350.753 190.873Z" fill="#BBBCBD"/>
<defs>
<linearGradient id="paint0_linear_720_833" x1="690.865" y1="192" x2="384" y2="192" gradientUnits="userSpaceOnUse">
<stop stop-color="#666969"/>
<stop offset="1" stop-color="#26AF23"/>
</linearGradient>
<linearGradient id="paint1_linear_720_833" x1="68.6147" y1="114.287" x2="28.1328" y2="147.99" gradientUnits="userSpaceOnUse">
<stop stop-color="#CDCDCD"/>
<stop offset="0.447917" stop-color="#E8E8E8"/>
<stop offset="1" stop-color="#B4B4B4"/>
</linearGradient>
<linearGradient id="paint2_linear_720_833" x1="68.6147" y1="114.286" x2="28.1328" y2="147.99" gradientUnits="userSpaceOnUse">
<stop stop-color="#CDCDCD"/>
<stop offset="0.447917" stop-color="#E8E8E8"/>
<stop offset="1" stop-color="#B4B4B4"/>
</linearGradient>
</defs>
</svg>
