<svg width="84" height="48" viewBox="0 0 84 48" fill="none" xmlns="http://www.w3.org/2000/svg">
<path d="M66.0166 34.4778C64.5229 34.4778 63.1864 34.2223 62.0072 33.7113C60.8476 33.2003 59.9238 32.4534 59.2359 31.4707C58.5677 30.488 58.2237 29.2989 58.2041 27.9035H62.4199C62.4395 28.5128 62.5968 29.0631 62.8916 29.5544C63.1864 30.0458 63.5893 30.4389 64.1003 30.7337C64.631 31.0088 65.2697 31.1464 66.0166 31.1464C66.6259 31.1464 67.1565 31.0482 67.6086 30.8516C68.0803 30.6551 68.4439 30.3701 68.6994 29.9967C68.9745 29.6232 69.1121 29.1712 69.1121 28.6405C69.1121 28.0509 68.9647 27.5596 68.6699 27.1665C68.3751 26.7537 67.9722 26.4098 67.4612 26.1346C66.9502 25.8595 66.3605 25.6138 65.6923 25.3976C65.0437 25.1618 64.3656 24.9259 63.6581 24.6901C62.0465 24.1397 60.8083 23.4224 59.9435 22.5379C59.0983 21.6535 58.6758 20.4841 58.6758 19.0297C58.6758 17.7915 58.9706 16.74 59.5602 15.8752C60.1498 14.9908 60.9753 14.3127 62.0366 13.841C63.098 13.3693 64.3067 13.1335 65.6628 13.1335C67.0583 13.1335 68.2768 13.3791 69.3185 13.8705C70.3798 14.3422 71.2151 15.0301 71.8244 15.9342C72.4533 16.8382 72.7874 17.8996 72.8267 19.1181H68.552C68.5323 18.6464 68.3947 18.214 68.1392 17.821C67.9034 17.4082 67.5693 17.0839 67.1369 16.8481C66.7045 16.5926 66.1935 16.4648 65.6039 16.4648C65.0928 16.4452 64.6211 16.5238 64.1888 16.7007C63.776 16.8776 63.4419 17.1331 63.1864 17.4672C62.9505 17.8013 62.8326 18.2239 62.8326 18.7349C62.8326 19.2262 62.9505 19.6488 63.1864 20.0026C63.4222 20.3367 63.7564 20.6217 64.1888 20.8575C64.6211 21.0934 65.1223 21.3194 65.6923 21.5356C66.2819 21.7518 66.9305 21.9778 67.638 22.2136C68.6797 22.5674 69.6231 22.99 70.4682 23.4813C71.333 23.953 72.0209 24.5721 72.5319 25.3386C73.0626 26.1052 73.3279 27.1075 73.3279 28.3457C73.3279 29.4463 73.0429 30.4585 72.473 31.3823C71.9226 32.306 71.107 33.0529 70.026 33.6228C68.945 34.1928 67.6086 34.4778 66.0166 34.4778ZM83.1131 34.4778C81.7177 34.4778 80.45 34.1535 79.31 33.5049C78.1701 32.8563 77.266 31.9522 76.5978 30.7927C75.9492 29.6331 75.6249 28.3064 75.6249 26.8127C75.6249 25.2993 75.959 23.9727 76.6273 22.8327C77.2955 21.6732 78.1898 20.7691 79.31 20.1205C80.45 19.4719 81.7275 19.1476 83.1426 19.1476C84.5577 19.1476 85.8352 19.4719 86.9751 20.1205C88.1151 20.7691 89.0093 21.6732 89.6579 22.8327C90.3262 23.9727 90.6603 25.2993 90.6603 26.8127C90.6603 28.3261 90.3262 29.6625 89.6579 30.8221C88.9897 31.9621 88.0856 32.8563 86.9457 33.5049C85.8057 34.1535 84.5282 34.4778 83.1131 34.4778ZM83.1131 31.058C83.7617 31.058 84.3415 30.9008 84.8525 30.5863C85.3832 30.2718 85.8057 29.8001 86.1202 29.1712C86.4347 28.5423 86.5919 27.7561 86.5919 26.8127C86.5919 25.8693 86.4347 25.0831 86.1202 24.4542C85.8057 23.8253 85.3832 23.3536 84.8525 23.0391C84.3415 22.7246 83.7715 22.5674 83.1426 22.5674C82.5333 22.5674 81.9633 22.7246 81.4327 23.0391C80.902 23.3536 80.4696 23.8253 80.1355 24.4542C79.8211 25.0831 79.6638 25.8693 79.6638 26.8127C79.6638 27.7561 79.8211 28.5423 80.1355 29.1712C80.4696 29.8001 80.8922 30.2718 81.4032 30.5863C81.9339 30.9008 82.5038 31.058 83.1131 31.058ZM94.31 34.124V18.1452C94.31 16.907 94.5163 15.9243 94.9291 15.1971C95.3615 14.4699 95.9609 13.9393 96.7274 13.6051C97.4939 13.271 98.398 13.104 99.4397 13.104H101.091V16.4648H100.059C99.4298 16.4648 98.9778 16.5926 98.7026 16.8481C98.4275 17.0839 98.2899 17.5065 98.2899 18.1158V34.124H94.31ZM92.3347 22.7738V19.5014H101.385V22.7738H92.3347ZM110.483 34.124C109.461 34.124 108.557 33.9668 107.771 33.6523C106.984 33.3182 106.375 32.7777 105.943 32.0309C105.53 31.2644 105.324 30.2227 105.324 28.9059V22.7738H102.818V19.5014H105.324L105.736 15.5214H109.274V19.5014H113.166V22.7738H109.304V28.9648C109.304 29.6331 109.441 30.1048 109.716 30.3799C110.011 30.6354 110.522 30.7632 111.249 30.7632H113.107V34.124H110.483ZM118.599 34.124L114.472 19.5014H118.393L121.164 31.6476L120.574 31.6181L123.729 19.5014H128.18L131.335 31.6181L130.745 31.6476L133.487 19.5014H137.437L133.281 34.124H128.947L125.615 21.7714H126.294L122.933 34.124H118.599ZM143.639 34.4778C142.42 34.4778 141.418 34.2813 140.632 33.8882C139.845 33.4951 139.256 32.9644 138.863 32.2962C138.489 31.628 138.303 30.8909 138.303 30.0851C138.303 29.181 138.529 28.3949 138.981 27.7266C139.452 27.0387 140.16 26.4982 141.103 26.1052C142.047 25.7121 143.236 25.5155 144.67 25.5155H148.356C148.356 24.808 148.247 24.2184 148.031 23.7467C147.835 23.275 147.52 22.931 147.088 22.7148C146.675 22.479 146.144 22.361 145.496 22.361C144.729 22.361 144.071 22.5281 143.521 22.8622C142.99 23.1963 142.666 23.7172 142.548 24.4247H138.656C138.774 23.3438 139.128 22.4102 139.718 21.624C140.327 20.8379 141.133 20.2286 142.135 19.7962C143.137 19.3638 144.258 19.1476 145.496 19.1476C146.911 19.1476 148.13 19.3835 149.152 19.8552C150.174 20.3072 150.96 20.9853 151.51 21.8893C152.06 22.7738 152.336 23.8548 152.336 25.1323V34.124H149.004L148.562 31.854H148.532C148.297 32.2667 148.012 32.6303 147.678 32.9448C147.363 33.2592 146.999 33.5344 146.587 33.7702C146.194 34.0061 145.751 34.183 145.26 34.3009C144.769 34.4188 144.228 34.4778 143.639 34.4778ZM144.729 31.4118C145.26 31.4118 145.722 31.3233 146.115 31.1464C146.528 30.9499 146.872 30.6944 147.147 30.3799C147.442 30.0655 147.678 29.7019 147.854 29.2891C148.031 28.8567 148.139 28.4145 148.179 27.9625H145.113C144.523 27.9625 144.032 28.0411 143.639 28.1983C143.246 28.3359 142.961 28.5423 142.784 28.8174C142.607 29.0729 142.518 29.3776 142.518 29.7313C142.518 30.0851 142.607 30.3897 142.784 30.6452C142.961 30.9008 143.216 31.0973 143.55 31.2349C143.884 31.3528 144.277 31.4118 144.729 31.4118ZM155.442 34.124V19.5014H158.95L159.304 22.3905H159.333C159.726 21.624 160.178 21.0049 160.689 20.5332C161.2 20.0615 161.79 19.7176 162.458 19.5014C163.146 19.2655 163.903 19.1476 164.728 19.1476V23.3634H163.637C162.989 23.3634 162.399 23.4322 161.869 23.5698C161.358 23.7074 160.915 23.9432 160.542 24.2773C160.188 24.5918 159.913 25.0144 159.716 25.545C159.52 26.0757 159.422 26.7439 159.422 27.5497V34.124H155.442ZM173.806 34.4778C172.312 34.4778 170.985 34.1633 169.826 33.5344C168.686 32.9055 167.791 32.021 167.143 30.8811C166.494 29.7412 166.17 28.4342 166.17 26.9601C166.17 25.4271 166.484 24.0808 167.113 22.9212C167.762 21.7419 168.656 20.8182 169.796 20.15C170.956 19.4817 172.292 19.1476 173.806 19.1476C175.28 19.1476 176.567 19.4621 177.668 20.091C178.768 20.7199 179.633 21.5847 180.262 22.6853C180.891 23.7663 181.205 24.9947 181.205 26.3705C181.205 26.567 181.196 26.793 181.176 27.0485C181.176 27.2844 181.166 27.5301 181.146 27.7856H169V25.3386H177.166C177.108 24.4346 176.764 23.7074 176.135 23.157C175.525 22.6067 174.759 22.3316 173.835 22.3316C173.147 22.3316 172.518 22.4888 171.948 22.8033C171.378 23.0981 170.926 23.5599 170.592 24.1889C170.258 24.7982 170.091 25.5647 170.091 26.4884V27.3434C170.091 28.1492 170.248 28.8469 170.563 29.4365C170.877 30.0065 171.31 30.4487 171.86 30.7632C172.43 31.0776 173.069 31.2349 173.776 31.2349C174.503 31.2349 175.113 31.0776 175.604 30.7632C176.095 30.4291 176.469 30.0065 176.724 29.4955H180.763C180.488 30.4192 180.026 31.2644 179.378 32.0309C178.729 32.7777 177.933 33.3772 176.99 33.8292C176.046 34.2616 174.985 34.4778 173.806 34.4778Z" fill="#170F49"/>
<rect x="9.62769" y="9.27795" width="29.5001" height="29.5001" rx="6.20656" fill="#4A3AFF"/>
<rect x="15.6675" y="0.601868" width="4.50175" height="6.94119" rx="2.25088" fill="#702DFF"/>
<rect x="22.1271" y="0.601868" width="4.50175" height="6.94119" rx="2.25088" fill="#702DFF"/>
<rect x="28.5883" y="0.601868" width="4.50175" height="6.94119" rx="2.25088" fill="#702DFF"/>
<rect x="0.951172" y="32.7394" width="4.50175" height="6.94119" rx="2.25088" transform="rotate(-90 0.951172 32.7394)" fill="#702DFF"/>
<rect x="0.951172" y="26.279" width="4.50175" height="6.94119" rx="2.25088" transform="rotate(-90 0.951172 26.279)" fill="#702DFF"/>
<rect x="0.951172" y="19.8195" width="4.50175" height="6.94119" rx="2.25088" transform="rotate(-90 0.951172 19.8195)" fill="#702DFF"/>
<rect x="40.8635" y="32.7393" width="4.50175" height="6.94119" rx="2.25088" transform="rotate(-90 40.8635 32.7393)" fill="#702DFF"/>
<rect x="40.8635" y="26.2789" width="4.50175" height="6.94119" rx="2.25088" transform="rotate(-90 40.8635 26.2789)" fill="#702DFF"/>
<rect x="40.8635" y="19.8193" width="4.50175" height="6.94119" rx="2.25088" transform="rotate(-90 40.8635 19.8193)" fill="#702DFF"/>
<rect x="15.6675" y="40.5137" width="4.50175" height="6.94119" rx="2.25088" fill="#702DFF"/>
<rect x="22.1271" y="40.5137" width="4.50175" height="6.94119" rx="2.25088" fill="#702DFF"/>
<rect x="28.5883" y="40.5137" width="4.50175" height="6.94119" rx="2.25088" fill="#702DFF"/>
</svg>
