<svg width="177" height="36" viewBox="0 0 177 36" fill="none" xmlns="http://www.w3.org/2000/svg">
<path d="M68.3603 29.0667C66.277 29.0667 64.4885 28.6244 62.9948 27.74C61.5011 26.8359 60.3415 25.5879 59.516 23.9959C58.7102 22.3843 58.3073 20.527 58.3073 18.424C58.3073 16.321 58.7102 14.4637 59.516 12.852C60.3415 11.2404 61.5011 9.98254 62.9948 9.07845C64.4885 8.17436 66.277 7.72232 68.3603 7.72232C70.8564 7.72232 72.9004 8.34142 74.4924 9.57963C76.1041 10.8178 77.1064 12.5671 77.4995 14.8273H73.1068C72.871 13.7266 72.3501 12.8717 71.5443 12.2624C70.7385 11.6335 69.6673 11.319 68.3309 11.319C67.073 11.319 66.0018 11.6138 65.1174 12.2035C64.233 12.7734 63.5549 13.5891 63.0832 14.6504C62.6115 15.7117 62.3757 16.9696 62.3757 18.424C62.3757 19.8784 62.6115 21.1362 63.0832 22.1976C63.5549 23.2589 64.233 24.0745 65.1174 24.6445C66.0018 25.1948 67.073 25.47 68.3309 25.47C69.6673 25.47 70.7385 25.185 71.5443 24.615C72.3501 24.045 72.8808 23.2392 73.1363 22.1976H77.4995C77.1064 24.3399 76.1041 26.0203 74.4924 27.2388C72.9004 28.4574 70.8564 29.0667 68.3603 29.0667ZM87.4169 29.0667C86.0215 29.0667 84.7538 28.7424 83.6138 28.0938C82.4739 27.4452 81.5698 26.5411 80.9016 25.3815C80.253 24.2219 79.9287 22.8953 79.9287 21.4016C79.9287 19.8882 80.2628 18.5616 80.931 17.4216C81.5993 16.262 82.4935 15.3579 83.6138 14.7093C84.7538 14.0608 86.0313 13.7365 87.4464 13.7365C88.8615 13.7365 90.139 14.0608 91.2789 14.7093C92.4189 15.3579 93.3131 16.262 93.9617 17.4216C94.63 18.5616 94.9641 19.8882 94.9641 21.4016C94.9641 22.9149 94.63 24.2514 93.9617 25.411C93.2935 26.5509 92.3894 27.4452 91.2494 28.0938C90.1095 28.7424 88.832 29.0667 87.4169 29.0667ZM87.4169 25.6469C88.0655 25.6469 88.6453 25.4896 89.1563 25.1752C89.6869 24.8607 90.1095 24.389 90.424 23.7601C90.7384 23.1311 90.8957 22.345 90.8957 21.4016C90.8957 20.4582 90.7384 19.672 90.424 19.0431C90.1095 18.4141 89.6869 17.9424 89.1563 17.628C88.6453 17.3135 88.0753 17.1563 87.4464 17.1563C86.8371 17.1563 86.2671 17.3135 85.7365 17.628C85.2058 17.9424 84.7734 18.4141 84.4393 19.0431C84.1248 19.672 83.9676 20.4582 83.9676 21.4016C83.9676 22.345 84.1248 23.1311 84.4393 23.7601C84.7734 24.389 85.196 24.8607 85.707 25.1752C86.2377 25.4896 86.8076 25.6469 87.4169 25.6469ZM104.451 29.0667C103.075 29.0667 101.857 28.7325 100.795 28.0643C99.734 27.3961 98.8987 26.4822 98.2895 25.3226C97.6802 24.163 97.3755 22.8461 97.3755 21.3721C97.3755 19.898 97.6802 18.591 98.2895 17.4511C98.8987 16.2915 99.734 15.3874 100.795 14.7388C101.876 14.0706 103.105 13.7365 104.48 13.7365C105.601 13.7365 106.564 13.9428 107.37 14.3556C108.195 14.7683 108.854 15.3186 109.345 16.0065V7.69284H113.325V28.7129H109.846L109.492 26.5018H109.463C109.129 26.9932 108.726 27.4354 108.254 27.8285C107.782 28.2019 107.232 28.4967 106.603 28.7129C105.974 28.9487 105.257 29.0667 104.451 29.0667ZM105.424 25.6763C106.21 25.6763 106.908 25.4896 107.517 25.1162C108.126 24.7428 108.598 24.2416 108.932 23.6127C109.266 22.9641 109.433 22.227 109.433 21.4016C109.433 20.5564 109.266 19.8194 108.932 19.1905C108.598 18.5419 108.126 18.0407 107.517 17.6869C106.908 17.3135 106.21 17.1268 105.424 17.1268C104.638 17.1268 103.94 17.3135 103.331 17.6869C102.721 18.0407 102.25 18.5419 101.916 19.1905C101.582 19.8194 101.414 20.5466 101.414 21.3721C101.414 22.2172 101.582 22.9641 101.916 23.6127C102.25 24.2416 102.721 24.7428 103.331 25.1162C103.94 25.4896 104.638 25.6763 105.424 25.6763ZM123.869 29.0667C122.375 29.0667 121.048 28.7522 119.889 28.1233C118.749 27.4943 117.855 26.6099 117.206 25.47C116.557 24.33 116.233 23.023 116.233 21.549C116.233 20.016 116.548 18.6696 117.176 17.5101C117.825 16.3308 118.719 15.4071 119.859 14.7388C121.019 14.0706 122.355 13.7365 123.869 13.7365C125.343 13.7365 126.63 14.0509 127.731 14.6799C128.831 15.3088 129.696 16.1736 130.325 17.2742C130.954 18.3552 131.268 19.5836 131.268 20.9594C131.268 21.1559 131.259 21.3819 131.239 21.6374C131.239 21.8733 131.229 22.1189 131.21 22.3744H119.063V19.9275H127.23C127.171 19.0234 126.827 18.2962 126.198 17.7459C125.588 17.1956 124.822 16.9204 123.898 16.9204C123.21 16.9204 122.581 17.0777 122.011 17.3921C121.441 17.6869 120.989 18.1488 120.655 18.7777C120.321 19.387 120.154 20.1535 120.154 21.0773V21.9322C120.154 22.738 120.311 23.4358 120.626 24.0254C120.94 24.5954 121.373 25.0376 121.923 25.352C122.493 25.6665 123.132 25.8237 123.839 25.8237C124.566 25.8237 125.176 25.6665 125.667 25.352C126.158 25.0179 126.532 24.5954 126.787 24.0844H130.826C130.551 25.0081 130.089 25.8532 129.441 26.6197C128.792 27.3666 127.996 27.966 127.053 28.4181C126.109 28.8505 125.048 29.0667 123.869 29.0667ZM134.008 28.7129V7.69284H137.988V28.7129H134.008ZM141.584 28.7129V14.0902H145.564V28.7129H141.584ZM143.589 12.056C142.862 12.056 142.272 11.8497 141.82 11.4369C141.368 11.0046 141.142 10.4641 141.142 9.81548C141.142 9.16689 141.368 8.63623 141.82 8.2235C142.272 7.79111 142.862 7.57491 143.589 7.57491C144.316 7.57491 144.906 7.79111 145.358 8.2235C145.83 8.63623 146.065 9.16689 146.065 9.81548C146.065 10.4641 145.83 11.0046 145.358 11.4369C144.906 11.8497 144.316 12.056 143.589 12.056ZM149.889 28.7129V12.7341C149.889 11.4959 150.095 10.5132 150.508 9.786C150.941 9.0588 151.54 8.52814 152.306 8.19402C153.073 7.8599 153.977 7.69284 155.019 7.69284H156.67V11.0537H155.638C155.009 11.0537 154.557 11.1814 154.282 11.4369C154.007 11.6728 153.869 12.0954 153.869 12.7046V28.7129H149.889ZM147.914 17.3627V14.0902H156.965V17.3627H147.914ZM161.492 34.9924L165.03 27.0619H164.175L158.191 14.0902H162.524L166.799 23.4947H166.828L170.632 14.0902H174.877L165.708 34.9924H161.492Z" fill="#170F49"/>
<path d="M19.6775 35.2659C19.4082 35.2659 19.1254 35.239 18.8426 35.1582C16.9976 34.7003 15.8664 32.8284 16.3243 30.9834L23.2193 3.40338C23.6906 1.55843 25.5625 0.440686 27.4075 0.88509C29.2524 1.35643 30.3702 3.22832 29.9123 5.07328L23.0173 32.6533C22.6268 34.2155 21.2262 35.2659 19.6775 35.2659Z" fill="#9328FF"/>
<path d="M35.8948 28.3711C35.006 28.3711 34.1307 28.0344 33.4573 27.3611C32.1107 26.0144 32.1107 23.8328 33.4573 22.4861L37.9149 18.0286L33.4573 13.571C32.1107 12.2244 32.1107 10.0427 33.4573 8.69605C34.804 7.34936 36.9857 7.34936 38.3323 8.69605L45.2274 15.5911C46.574 16.9377 46.574 19.1194 45.2274 20.4661L38.3323 27.3611C37.659 28.0344 36.7837 28.3711 35.8948 28.3711Z" fill="#4A3AFF"/>
<path d="M10.3426 28.3711C9.45376 28.3711 8.57841 28.0344 7.90507 27.3611L1.01006 20.4661C-0.336625 19.1194 -0.336625 16.9377 1.01006 15.5911L7.90507 8.69605C9.25176 7.34936 11.4334 7.34936 12.7801 8.69605C14.1267 10.0427 14.1267 12.2244 12.7801 13.571L8.32254 18.0286L12.7801 22.4861C14.1267 23.8328 14.1267 26.0144 12.7801 27.3611C12.1067 28.0344 11.2314 28.3711 10.3426 28.3711Z" fill="#4A3AFF"/>
</svg>
