<svg width="183" height="47" viewBox="0 0 183 47" fill="none" xmlns="http://www.w3.org/2000/svg">
<path d="M65.0654 33.9328C63.5717 33.9328 62.2352 33.6772 61.0559 33.1662C59.8964 32.6552 58.9726 31.9084 58.2847 30.9257C57.6165 29.943 57.2725 28.7539 57.2529 27.3585H61.4687C61.4883 27.9677 61.6456 28.5181 61.9404 29.0094C62.2352 29.5008 62.6381 29.8938 63.1491 30.1886C63.6798 30.4638 64.3185 30.6014 65.0654 30.6014C65.6747 30.6014 66.2053 30.5031 66.6574 30.3066C67.1291 30.11 67.4927 29.825 67.7482 29.4516C68.0233 29.0782 68.1609 28.6261 68.1609 28.0955C68.1609 27.5059 68.0135 27.0145 67.7187 26.6214C67.4239 26.2087 67.021 25.8647 66.51 25.5896C65.999 25.3144 65.4093 25.0688 64.7411 24.8526C64.0925 24.6167 63.4144 24.3809 62.7069 24.145C61.0953 23.5947 59.857 22.8773 58.9923 21.9929C58.1471 21.1085 57.7246 19.939 57.7246 18.4846C57.7246 17.2464 58.0194 16.1949 58.609 15.3302C59.1986 14.4457 60.0241 13.7677 61.0854 13.296C62.1468 12.8243 63.3555 12.5884 64.7116 12.5884C66.1071 12.5884 67.3256 12.8341 68.3673 13.3254C69.4286 13.7971 70.2639 14.485 70.8732 15.3891C71.5021 16.2932 71.8362 17.3545 71.8755 18.5731H67.6008C67.5811 18.1014 67.4435 17.669 67.188 17.2759C66.9522 16.8632 66.6181 16.5389 66.1857 16.303C65.7533 16.0475 65.2423 15.9198 64.6526 15.9198C64.1416 15.9001 63.6699 15.9787 63.2376 16.1556C62.8248 16.3325 62.4907 16.588 62.2352 16.9221C61.9993 17.2563 61.8814 17.6788 61.8814 18.1898C61.8814 18.6812 61.9993 19.1037 62.2352 19.4575C62.471 19.7916 62.8052 20.0766 63.2376 20.3125C63.6699 20.5483 64.1711 20.7743 64.7411 20.9905C65.3307 21.2067 65.9793 21.4327 66.6868 21.6686C67.7285 22.0224 68.6719 22.4449 69.517 22.9363C70.3818 23.408 71.0697 24.0271 71.5807 24.7936C72.1114 25.5601 72.3767 26.5625 72.3767 27.8007C72.3767 28.9013 72.0917 29.9135 71.5218 30.8372C70.9714 31.761 70.1558 32.5078 69.0748 33.0778C67.9938 33.6478 66.6574 33.9328 65.0654 33.9328ZM82.1619 33.9328C80.7665 33.9328 79.4988 33.6085 78.3588 32.9599C77.2189 32.3113 76.3148 31.4072 75.6466 30.2476C74.998 29.088 74.6737 27.7614 74.6737 26.2677C74.6737 24.7543 75.0078 23.4276 75.6761 22.2877C76.3443 21.1281 77.2386 20.224 78.3588 19.5754C79.4988 18.9269 80.7763 18.6026 82.1914 18.6026C83.6065 18.6026 84.884 18.9269 86.0239 19.5754C87.1639 20.224 88.0581 21.1281 88.7067 22.2877C89.375 23.4276 89.7091 24.7543 89.7091 26.2677C89.7091 27.781 89.375 29.1175 88.7067 30.2771C88.0385 31.417 87.1344 32.3113 85.9945 32.9599C84.8545 33.6085 83.577 33.9328 82.1619 33.9328ZM82.1619 30.5129C82.8105 30.5129 83.3903 30.3557 83.9013 30.0412C84.432 29.7268 84.8545 29.2551 85.169 28.6261C85.4835 27.9972 85.6407 27.2111 85.6407 26.2677C85.6407 25.3243 85.4835 24.5381 85.169 23.9092C84.8545 23.2802 84.432 22.8085 83.9013 22.4941C83.3903 22.1796 82.8203 22.0224 82.1914 22.0224C81.5821 22.0224 81.0121 22.1796 80.4815 22.4941C79.9508 22.8085 79.5184 23.2802 79.1843 23.9092C78.8699 24.5381 78.7126 25.3243 78.7126 26.2677C78.7126 27.2111 78.8699 27.9972 79.1843 28.6261C79.5184 29.2551 79.941 29.7268 80.452 30.0412C80.9827 30.3557 81.5526 30.5129 82.1619 30.5129ZM93.3588 33.579V17.6002C93.3588 16.362 93.5651 15.3793 93.9779 14.6521C94.4102 13.9249 95.0097 13.3942 95.7762 13.0601C96.5427 12.726 97.4468 12.5589 98.4885 12.5589H100.139V15.9198H99.1076C98.4786 15.9198 98.0266 16.0475 97.7514 16.303C97.4763 16.5389 97.3387 16.9614 97.3387 17.5707V33.579H93.3588ZM91.3835 22.2287V18.9563H100.434V22.2287H91.3835ZM109.532 33.579C108.51 33.579 107.606 33.4217 106.819 33.1073C106.033 32.7732 105.424 32.2327 104.992 31.4858C104.579 30.7193 104.372 29.6776 104.372 28.3608V22.2287H101.867V18.9563H104.372L104.785 14.9764H108.323V18.9563H112.214V22.2287H108.352V28.4198C108.352 29.088 108.49 29.5597 108.765 29.8349C109.06 30.0904 109.571 30.2181 110.298 30.2181H112.156V33.579H109.532ZM117.648 33.579L113.52 18.9563H117.441L120.213 31.1026L119.623 31.0731L122.777 18.9563H127.229L130.384 31.0731L129.794 31.1026L132.536 18.9563H136.486L132.329 33.579H127.996L124.664 21.2264H125.342L121.981 33.579H117.648ZM142.687 33.9328C141.469 33.9328 140.466 33.7362 139.68 33.3431C138.894 32.95 138.305 32.4194 137.911 31.7511C137.538 31.0829 137.351 30.3459 137.351 29.5401C137.351 28.636 137.577 27.8498 138.029 27.1816C138.501 26.4937 139.209 25.9532 140.152 25.5601C141.095 25.167 142.284 24.9705 143.719 24.9705H147.404C147.404 24.2629 147.296 23.6733 147.08 23.2016C146.884 22.7299 146.569 22.386 146.137 22.1698C145.724 21.9339 145.193 21.816 144.545 21.816C143.778 21.816 143.12 21.9831 142.569 22.3172C142.039 22.6513 141.715 23.1721 141.597 23.8797H137.705C137.823 22.7987 138.177 21.8651 138.766 21.079C139.376 20.2928 140.181 19.6835 141.184 19.2511C142.186 18.8188 143.306 18.6026 144.545 18.6026C145.96 18.6026 147.178 18.8384 148.2 19.3101C149.222 19.7622 150.009 20.4402 150.559 21.3443C151.109 22.2287 151.384 23.3097 151.384 24.5872V33.579H148.053L147.611 31.3089H147.581C147.345 31.7217 147.06 32.0853 146.726 32.3997C146.412 32.7142 146.048 32.9894 145.635 33.2252C145.242 33.4611 144.8 33.6379 144.309 33.7559C143.817 33.8738 143.277 33.9328 142.687 33.9328ZM143.778 30.8667C144.309 30.8667 144.771 30.7783 145.164 30.6014C145.577 30.4048 145.92 30.1493 146.196 29.8349C146.49 29.5204 146.726 29.1568 146.903 28.7441C147.08 28.3117 147.188 27.8695 147.227 27.4174H144.161C143.572 27.4174 143.08 27.496 142.687 27.6533C142.294 27.7908 142.009 27.9972 141.832 28.2724C141.656 28.5279 141.567 28.8325 141.567 29.1863C141.567 29.5401 141.656 29.8447 141.832 30.1002C142.009 30.3557 142.265 30.5522 142.599 30.6898C142.933 30.8078 143.326 30.8667 143.778 30.8667ZM154.49 33.579V18.9563H157.999L158.352 21.8455H158.382C158.775 21.079 159.227 20.4599 159.738 19.9882C160.249 19.5165 160.839 19.1725 161.507 18.9563C162.195 18.7205 162.952 18.6026 163.777 18.6026V22.8184H162.686C162.038 22.8184 161.448 22.8872 160.917 23.0247C160.406 23.1623 159.964 23.3982 159.591 23.7323C159.237 24.0467 158.962 24.4693 158.765 25C158.569 25.5306 158.47 26.1989 158.47 27.0047V33.579H154.49ZM172.854 33.9328C171.361 33.9328 170.034 33.6183 168.874 32.9894C167.735 32.3604 166.84 31.476 166.192 30.3361C165.543 29.1961 165.219 27.8891 165.219 26.4151C165.219 24.882 165.533 23.5357 166.162 22.3761C166.811 21.1969 167.705 20.2732 168.845 19.6049C170.005 18.9367 171.341 18.6026 172.854 18.6026C174.328 18.6026 175.616 18.917 176.716 19.546C177.817 20.1749 178.682 21.0397 179.311 22.1403C179.94 23.2213 180.254 24.4497 180.254 25.8254C180.254 26.022 180.244 26.248 180.225 26.5035C180.225 26.7394 180.215 26.985 180.195 27.2405H168.049V24.7936H176.215C176.156 23.8895 175.812 23.1623 175.183 22.612C174.574 22.0617 173.808 21.7865 172.884 21.7865C172.196 21.7865 171.567 21.9438 170.997 22.2582C170.427 22.553 169.975 23.0149 169.641 23.6438C169.307 24.2531 169.14 25.0196 169.14 25.9434V26.7983C169.14 27.6041 169.297 28.3019 169.611 28.8915C169.926 29.4614 170.358 29.9037 170.909 30.2181C171.479 30.5326 172.117 30.6898 172.825 30.6898C173.552 30.6898 174.161 30.5326 174.653 30.2181C175.144 29.884 175.518 29.4614 175.773 28.9504H179.812C179.537 29.8742 179.075 30.7193 178.426 31.4858C177.778 32.2327 176.982 32.8321 176.038 33.2842C175.095 33.7166 174.034 33.9328 172.854 33.9328Z" fill="#170F49"/>
<rect x="8.67651" y="8.73291" width="29.5001" height="29.5001" rx="6.20656" fill="#4A3AFF"/>
<rect x="14.7163" y="0.0567627" width="4.50175" height="6.94119" rx="2.25088" fill="#702DFF"/>
<rect x="21.1759" y="0.0567627" width="4.50175" height="6.94119" rx="2.25088" fill="#702DFF"/>
<rect x="27.6371" y="0.0567627" width="4.50175" height="6.94119" rx="2.25088" fill="#702DFF"/>
<rect x="2.28882e-05" y="32.1942" width="4.50175" height="6.94119" rx="2.25088" transform="rotate(-90 2.28882e-05 32.1942)" fill="#702DFF"/>
<rect x="1.52588e-05" y="25.7338" width="4.50175" height="6.94119" rx="2.25088" transform="rotate(-90 1.52588e-05 25.7338)" fill="#702DFF"/>
<rect x="1.52588e-05" y="19.2743" width="4.50175" height="6.94119" rx="2.25088" transform="rotate(-90 1.52588e-05 19.2743)" fill="#702DFF"/>
<rect x="39.9123" y="32.1941" width="4.50175" height="6.94119" rx="2.25088" transform="rotate(-90 39.9123 32.1941)" fill="#702DFF"/>
<rect x="39.9123" y="25.7338" width="4.50175" height="6.94119" rx="2.25088" transform="rotate(-90 39.9123 25.7338)" fill="#702DFF"/>
<rect x="39.9123" y="19.2742" width="4.50175" height="6.94119" rx="2.25088" transform="rotate(-90 39.9123 19.2742)" fill="#702DFF"/>
<rect x="14.7163" y="39.9686" width="4.50175" height="6.94119" rx="2.25088" fill="#702DFF"/>
<rect x="21.176" y="39.9686" width="4.50175" height="6.94119" rx="2.25088" fill="#702DFF"/>
<rect x="27.6371" y="39.9686" width="4.50175" height="6.94119" rx="2.25088" fill="#702DFF"/>
</svg>
