<svg width="173" height="36" viewBox="0 0 173 36" fill="none" xmlns="http://www.w3.org/2000/svg">
<rect x="13.9428" y="28.66" width="22.8187" height="6.97919" fill="#4A3AFF"/>
<circle cx="13.9426" cy="21.6963" r="13.9426" fill="#4A3AFF"/>
<circle cx="35.5894" cy="18.0282" r="17.6107" fill="#9328FF"/>
<path d="M75.3237 28.4779C73.2404 28.4779 71.4519 28.0357 69.9582 27.1513C68.4645 26.2472 67.3049 24.9991 66.4794 23.4072C65.6736 21.7955 65.2707 19.9382 65.2707 17.8352C65.2707 15.7322 65.6736 13.8749 66.4794 12.2633C67.3049 10.6517 68.4645 9.39379 69.9582 8.48971C71.4519 7.58562 73.2404 7.13357 75.3237 7.13357C77.8198 7.13357 79.8638 7.75268 81.4558 8.99088C83.0675 10.2291 84.0698 11.9783 84.4629 14.2385H80.0702C79.8344 13.1379 79.3135 12.2829 78.5077 11.6737C77.7019 11.0447 76.6307 10.7303 75.2943 10.7303C74.0364 10.7303 72.9653 11.0251 72.0808 11.6147C71.1964 12.1847 70.5183 13.0003 70.0466 14.0616C69.5749 15.123 69.3391 16.3808 69.3391 17.8352C69.3391 19.2896 69.5749 20.5475 70.0466 21.6088C70.5183 22.6701 71.1964 23.4858 72.0808 24.0557C72.9653 24.6061 74.0364 24.8812 75.2943 24.8812C76.6307 24.8812 77.7019 24.5962 78.5077 24.0263C79.3135 23.4563 79.8442 22.6505 80.0997 21.6088H84.4629C84.0698 23.7511 83.0675 25.4315 81.4558 26.6501C79.8638 27.8686 77.8198 28.4779 75.3237 28.4779ZM87.3933 28.1241V7.10409H91.3732V28.1241H87.3933ZM101.779 28.4779C100.384 28.4779 99.1163 28.1536 97.9763 27.505C96.8364 26.8565 95.9323 25.9524 95.2641 24.7928C94.6155 23.6332 94.2912 22.3065 94.2912 20.8128C94.2912 19.2995 94.6253 17.9728 95.2935 16.8329C95.9618 15.6733 96.856 14.7692 97.9763 14.1206C99.1163 13.472 100.394 13.1477 101.809 13.1477C103.224 13.1477 104.501 13.472 105.641 14.1206C106.781 14.7692 107.676 15.6733 108.324 16.8329C108.992 17.9728 109.327 19.2995 109.327 20.8128C109.327 22.3262 108.992 23.6627 108.324 24.8223C107.656 25.9622 106.752 26.8565 105.612 27.505C104.472 28.1536 103.194 28.4779 101.779 28.4779ZM101.779 25.0581C102.428 25.0581 103.008 24.9009 103.519 24.5864C104.049 24.2719 104.472 23.8002 104.786 23.1713C105.101 22.5424 105.258 21.7562 105.258 20.8128C105.258 19.8694 105.101 19.0833 104.786 18.4543C104.472 17.8254 104.049 17.3537 103.519 17.0392C103.008 16.7248 102.438 16.5675 101.809 16.5675C101.2 16.5675 100.63 16.7248 100.099 17.0392C99.5683 17.3537 99.1359 17.8254 98.8018 18.4543C98.4873 19.0833 98.3301 19.8694 98.3301 20.8128C98.3301 21.7562 98.4873 22.5424 98.8018 23.1713C99.1359 23.8002 99.5585 24.2719 100.069 24.5864C100.6 24.9009 101.17 25.0581 101.779 25.0581ZM117.693 28.4779C116.475 28.4779 115.443 28.2224 114.598 27.7114C113.753 27.2004 113.104 26.4437 112.652 25.4414C112.2 24.4193 111.974 23.1713 111.974 21.6973V13.5015H115.954V21.3435C115.954 22.562 116.199 23.4956 116.691 24.1442C117.182 24.7928 117.959 25.1171 119.02 25.1171C119.708 25.1171 120.307 24.9598 120.818 24.6454C121.349 24.3113 121.762 23.8494 122.056 23.2598C122.351 22.6505 122.499 21.9135 122.499 21.0487V13.5015H126.479V28.1241H123.029L122.705 25.7067H122.676C122.204 26.5518 121.545 27.2299 120.7 27.7409C119.875 28.2322 118.872 28.4779 117.693 28.4779ZM136.433 28.4779C135.057 28.4779 133.839 28.1438 132.777 27.4756C131.716 26.8073 130.881 25.8934 130.272 24.7338C129.662 23.5742 129.358 22.2574 129.358 20.7833C129.358 19.3093 129.662 18.0023 130.272 16.8623C130.881 15.7028 131.716 14.7987 132.777 14.1501C133.858 13.4818 135.087 13.1477 136.463 13.1477C137.583 13.1477 138.546 13.3541 139.352 13.7668C140.177 14.1796 140.836 14.7299 141.327 15.4178V7.10409H145.307V28.1241H141.828L141.474 25.9131H141.445C141.111 26.4044 140.708 26.8466 140.236 27.2397C139.764 27.6131 139.214 27.908 138.585 28.1241C137.956 28.36 137.239 28.4779 136.433 28.4779ZM137.406 25.0876C138.192 25.0876 138.89 24.9009 139.499 24.5274C140.108 24.154 140.58 23.6528 140.914 23.0239C141.248 22.3753 141.415 21.6383 141.415 20.8128C141.415 19.9677 141.248 19.2307 140.914 18.6017C140.58 17.9532 140.108 17.452 139.499 17.0982C138.89 16.7248 138.192 16.5381 137.406 16.5381C136.62 16.5381 135.922 16.7248 135.313 17.0982C134.704 17.452 134.232 17.9532 133.898 18.6017C133.564 19.2307 133.397 19.9579 133.397 20.7833C133.397 21.6285 133.564 22.3753 133.898 23.0239C134.232 23.6528 134.704 24.154 135.313 24.5274C135.922 24.9009 136.62 25.0876 137.406 25.0876ZM148.774 28.1241V7.10409H152.754V28.1241H148.774ZM158.178 34.4036L161.715 26.4732H160.861L154.876 13.5015H159.21L163.484 22.906H163.514L167.317 13.5015H171.562L162.394 34.4036H158.178Z" fill="#170F49"/>
</svg>
