<svg width="167" height="49" viewBox="0 0 167 49" fill="none" xmlns="http://www.w3.org/2000/svg">
<path d="M63.4273 35.0337V17.6103H57.4131V14.3969H73.4214V17.6103H67.4072V35.0337H63.4273ZM80.4379 35.3875C78.9442 35.3875 77.6175 35.073 76.4579 34.4441C75.318 33.8151 74.4237 32.9307 73.7752 31.7908C73.1266 30.6508 72.8023 29.3438 72.8023 27.8698C72.8023 26.3368 73.1167 24.9904 73.7457 23.8309C74.3943 22.6516 75.2885 21.7279 76.4285 21.0596C77.5881 20.3914 78.9245 20.0573 80.4379 20.0573C81.912 20.0573 83.1993 20.3717 84.2999 21.0007C85.4006 21.6296 86.2653 22.4944 86.8943 23.595C87.5232 24.676 87.8377 25.9044 87.8377 27.2802C87.8377 27.4767 87.8278 27.7027 87.8082 27.9582C87.8082 28.1941 87.7984 28.4397 87.7787 28.6952H75.6325V26.2483H83.7987C83.7398 25.3442 83.3958 24.617 82.7669 24.0667C82.1576 23.5164 81.3911 23.2412 80.4674 23.2412C79.7795 23.2412 79.1506 23.3985 78.5806 23.7129C78.0106 24.0077 77.5586 24.4696 77.2244 25.0985C76.8903 25.7078 76.7233 26.4743 76.7233 27.3981V28.253C76.7233 29.0588 76.8805 29.7566 77.195 30.3462C77.5094 30.9162 77.9418 31.3584 78.4921 31.6728C79.0621 31.9873 79.7009 32.1445 80.4084 32.1445C81.1356 32.1445 81.7449 31.9873 82.2362 31.6728C82.7276 31.3387 83.101 30.9162 83.3565 30.4052H87.3954C87.1203 31.3289 86.6584 32.174 86.0098 32.9405C85.3612 33.6874 84.5653 34.2868 83.6219 34.7389C82.6785 35.1713 81.6171 35.3875 80.4379 35.3875ZM97.771 35.3875C96.2379 35.3875 94.8916 35.0632 93.732 34.4146C92.5921 33.7463 91.6978 32.8423 91.0493 31.7023C90.4007 30.5427 90.0764 29.2161 90.0764 27.7224C90.0764 26.2287 90.4007 24.9118 91.0493 23.7719C91.6978 22.6123 92.6019 21.7082 93.7615 21.0596C94.9211 20.3914 96.2576 20.0573 97.771 20.0573C99.6578 20.0573 101.24 20.5486 102.517 21.5313C103.815 22.514 104.64 23.8702 104.994 25.5997H100.778C100.601 24.9118 100.238 24.3812 99.6872 24.0077C99.1369 23.6147 98.4883 23.4181 97.7415 23.4181C97.0536 23.4181 96.4345 23.595 95.8842 23.9488C95.3535 24.2829 94.9211 24.7743 94.587 25.4228C94.2725 26.0518 94.1153 26.8183 94.1153 27.7224C94.1153 28.3906 94.2037 28.9901 94.3806 29.5207C94.5772 30.0317 94.8327 30.4739 95.1471 30.8474C95.4813 31.2208 95.8645 31.5058 96.2969 31.7023C96.7293 31.8989 97.2108 31.9971 97.7415 31.9971C98.2525 31.9971 98.7045 31.9185 99.0976 31.7613C99.5103 31.5844 99.8641 31.3387 100.159 31.0243C100.473 30.6901 100.68 30.2971 100.778 29.845H104.994C104.64 31.5353 103.815 32.8816 102.517 33.8839C101.24 34.8863 99.6578 35.3875 97.771 35.3875ZM107.909 35.0337V14.0136H111.86V22.6811H111.919C112.41 21.8556 113.068 21.2169 113.894 20.7648C114.719 20.2931 115.682 20.0573 116.783 20.0573C117.982 20.0573 118.994 20.3226 119.82 20.8533C120.665 21.3643 121.304 22.121 121.736 23.1233C122.188 24.1257 122.414 25.3639 122.414 26.8379V35.0337H118.463V27.1917C118.463 25.9732 118.218 25.0396 117.726 24.391C117.255 23.7424 116.488 23.4181 115.427 23.4181C114.759 23.4181 114.149 23.5852 113.599 23.9193C113.068 24.2338 112.646 24.6956 112.331 25.3049C112.037 25.8945 111.889 26.6217 111.889 27.4865V35.0337H107.909ZM125.558 35.0337V14.0136H129.538V35.0337H125.558ZM133.134 35.0337V20.411H137.114V35.0337H133.134ZM135.138 18.3768C134.411 18.3768 133.821 18.1705 133.369 17.7577C132.917 17.3254 132.691 16.7849 132.691 16.1363C132.691 15.4877 132.917 14.957 133.369 14.5443C133.821 14.1119 134.411 13.8957 135.138 13.8957C135.866 13.8957 136.455 14.1119 136.907 14.5443C137.379 14.957 137.615 15.4877 137.615 16.1363C137.615 16.7849 137.379 17.3254 136.907 17.7577C136.455 18.1705 135.866 18.3768 135.138 18.3768ZM141.438 35.0337V19.0549C141.438 17.8167 141.645 16.834 142.057 16.1068C142.49 15.3796 143.089 14.8489 143.856 14.5148C144.622 14.1807 145.526 14.0136 146.568 14.0136H148.219V17.3745H147.187C146.558 17.3745 146.106 17.5022 145.831 17.7577C145.556 17.9936 145.418 18.4162 145.418 19.0254V35.0337H141.438ZM139.463 23.6835V20.411H148.514V23.6835H139.463ZM153.042 41.3132L156.579 33.3827H155.724L149.74 20.411H154.073L158.348 29.8155H158.378L162.181 20.411H166.426L157.257 41.3132H153.042Z" fill="#170F49"/>
<path d="M25.2626 7.74797C25.2626 5.44115 28.068 4.30421 29.674 5.96018L44.4721 21.2188C45.4467 22.2237 45.9917 23.5686 45.9917 24.9685V42.6302C45.9917 44.9371 43.1863 46.074 41.5803 44.418L26.7822 29.1594C25.8076 28.1545 25.2626 26.8096 25.2626 25.4097V7.74797Z" fill="#9328FF"/>
<path d="M12.4161 7.24639C12.4161 4.93956 15.2215 3.80262 16.8275 5.45859L31.4072 20.492C32.5218 21.6414 33.1452 23.1795 33.1452 24.7806V42.1286C33.1452 44.4355 30.3398 45.5724 28.7338 43.9164L13.9357 28.6578C12.9611 27.6529 12.4161 26.308 12.4161 24.9081V7.24639Z" fill="#4CBFFF"/>
<path d="M-3.8147e-05 7.74797C-3.8147e-05 5.44115 2.80536 4.30421 4.41135 5.96018L19.2094 21.2188C20.184 22.2237 20.7291 23.5686 20.7291 24.9685V42.6302C20.7291 44.9371 17.9237 46.074 16.3177 44.418L1.51958 29.1594C0.544998 28.1545 -3.8147e-05 26.8096 -3.8147e-05 25.4097V7.74797Z" fill="#4A3AFF"/>
</svg>
