<svg width="165" height="34" viewBox="0 0 165 34" fill="none" xmlns="http://www.w3.org/2000/svg">
<path d="M42.0858 26.7877V6.15092H47.0092L53.2592 19.27H53.2886L59.4502 6.15092H64.3736V26.7877H60.3936V12.7252H60.3346L54.9691 23.8396H51.4903L46.1247 12.7252H46.0658V26.7877H42.0858ZM72.7174 27.1415C71.4989 27.1415 70.4965 26.945 69.7103 26.5519C68.9242 26.1588 68.3345 25.6281 67.9415 24.9599C67.568 24.2916 67.3813 23.5546 67.3813 22.7488C67.3813 21.8447 67.6073 21.0586 68.0594 20.3903C68.5311 19.7024 69.2386 19.1619 70.182 18.7688C71.1254 18.3758 72.3145 18.1792 73.7493 18.1792H77.4344C77.4344 17.4717 77.3263 16.8821 77.1101 16.4104C76.9136 15.9387 76.5991 15.5947 76.1667 15.3785C75.754 15.1427 75.2233 15.0247 74.5747 15.0247C73.8082 15.0247 73.1498 15.1918 72.5995 15.5259C72.0688 15.86 71.7445 16.3809 71.6266 17.0884H67.7351C67.853 16.0074 68.2068 15.0739 68.7964 14.2877C69.4057 13.5016 70.2115 12.8923 71.2139 12.4599C72.2162 12.0275 73.3365 11.8113 74.5747 11.8113C75.9898 11.8113 77.2084 12.0471 78.2304 12.5188C79.2524 12.9709 80.0386 13.649 80.5889 14.553C81.1392 15.4375 81.4143 16.5185 81.4143 17.796V26.7877H78.083L77.6408 24.5177H77.6113C77.3754 24.9304 77.0904 25.294 76.7563 25.6085C76.4419 25.9229 76.0783 26.1981 75.6655 26.4339C75.2724 26.6698 74.8302 26.8467 74.3389 26.9646C73.8475 27.0825 73.307 27.1415 72.7174 27.1415ZM73.8082 24.0755C74.3389 24.0755 74.8007 23.987 75.1938 23.8101C75.6066 23.6136 75.9505 23.3581 76.2257 23.0436C76.5205 22.7291 76.7563 22.3655 76.9332 21.9528C77.1101 21.5204 77.2182 21.0782 77.2575 20.6262H74.1915C73.6018 20.6262 73.1105 20.7048 72.7174 20.862C72.3243 20.9996 72.0393 21.206 71.8625 21.4811C71.6856 21.7366 71.5971 22.0413 71.5971 22.395C71.5971 22.7488 71.6856 23.0534 71.8625 23.3089C72.0393 23.5644 72.2948 23.761 72.629 23.8986C72.9631 24.0165 73.3562 24.0755 73.8082 24.0755ZM84.5205 26.7877V12.1651H88.0287L88.3825 15.0542H88.412C88.8051 14.2877 89.2571 13.6686 89.7681 13.1969C90.2791 12.7252 90.8687 12.3813 91.537 12.1651C92.2249 11.9292 92.9816 11.8113 93.807 11.8113V16.0271H92.7162C92.0676 16.0271 91.478 16.0959 90.9474 16.2335C90.4363 16.371 89.9941 16.6069 89.6207 16.941C89.2669 17.2555 88.9918 17.678 88.7952 18.2087C88.5987 18.7394 88.5004 19.4076 88.5004 20.2134V26.7877H84.5205ZM105.768 26.7877L99.3707 18.7394L105.002 12.1651H109.719L102.437 20.3903L102.407 17.2358L110.721 26.7877H105.768ZM95.9803 26.7877V5.76767H99.9603V26.7877H95.9803ZM118.633 27.1415C117.139 27.1415 115.812 26.827 114.653 26.1981C113.513 25.5692 112.619 24.6847 111.97 23.5448C111.321 22.4049 110.997 21.0979 110.997 19.6238C110.997 18.0908 111.312 16.7445 111.94 15.5849C112.589 14.4056 113.483 13.4819 114.623 12.8137C115.783 12.1454 117.119 11.8113 118.633 11.8113C120.107 11.8113 121.394 12.1258 122.495 12.7547C123.595 13.3836 124.46 14.2484 125.089 15.349C125.718 16.43 126.032 17.6584 126.032 19.0342C126.032 19.2307 126.023 19.4567 126.003 19.7122C126.003 19.9481 125.993 20.1938 125.973 20.4493H113.827V18.0023H121.994C121.935 17.0983 121.591 16.371 120.962 15.8207C120.352 15.2704 119.586 14.9953 118.662 14.9953C117.974 14.9953 117.345 15.1525 116.775 15.467C116.205 15.7618 115.753 16.2236 115.419 16.8526C115.085 17.4619 114.918 18.2284 114.918 19.1521V20.0071C114.918 20.8129 115.075 21.5106 115.39 22.1002C115.704 22.6702 116.137 23.1124 116.687 23.4269C117.257 23.7413 117.896 23.8986 118.603 23.8986C119.33 23.8986 119.94 23.7413 120.431 23.4269C120.922 23.0927 121.296 22.6702 121.551 22.1592H125.59C125.315 23.0829 124.853 23.928 124.205 24.6946C123.556 25.4414 122.76 26.0409 121.817 26.4929C120.873 26.9253 119.812 27.1415 118.633 27.1415ZM135.145 26.7877C134.123 26.7877 133.219 26.6305 132.433 26.316C131.647 25.9819 131.037 25.4414 130.605 24.6946C130.192 23.928 129.986 22.8864 129.986 21.5696V15.4375H127.48V12.1651H129.986L130.399 8.18512H133.936V12.1651H137.828V15.4375H133.966V21.6285C133.966 22.2968 134.103 22.7685 134.379 23.0436C134.673 23.2991 135.184 23.4269 135.912 23.4269H137.769V26.7877H135.145ZM140.49 26.7877V5.76767H144.47V26.7877H140.49ZM149.894 33.0672L153.431 25.1368H152.577L146.592 12.1651H150.926L155.2 21.5696H155.23L159.033 12.1651H163.278L154.11 33.0672H149.894Z" fill="#170F49"/>
<rect x="6.10352e-05" y="19.729" width="7.54097" height="11.7226" rx="3.77048" fill="#4A3AFF"/>
<rect x="3.05176e-05" y="1.78589" width="7.54097" height="7.54097" rx="3.77048" fill="#9328FF"/>
<rect x="10.9721" y="10.5127" width="7.54097" height="20.9389" rx="3.77048" fill="#4A3AFF"/>
<rect x="21.9442" y="1.78589" width="7.54097" height="29.6656" rx="3.77048" fill="#4A3AFF"/>
</svg>
