<svg width="148" height="35" viewBox="0 0 148 35" fill="none" xmlns="http://www.w3.org/2000/svg">
<path d="M45.9399 26.4958V5.85905H50.2737L59.3834 20.4522H59.4128V5.85905H63.3928V26.4958H59.0885L49.9789 11.9322H49.9199V26.4958H45.9399ZM71.7636 26.8496C70.545 26.8496 69.5427 26.6531 68.7565 26.26C67.9703 25.8669 67.3807 25.3363 66.9876 24.668C66.6142 23.9998 66.4275 23.2628 66.4275 22.4569C66.4275 21.5528 66.6535 20.7667 67.1056 20.0984C67.5773 19.4105 68.2848 18.8701 69.2282 18.477C70.1716 18.0839 71.3607 17.8874 72.7954 17.8874H76.4806C76.4806 17.1798 76.3725 16.5902 76.1563 16.1185C75.9597 15.6468 75.6453 15.3028 75.2129 15.0866C74.8001 14.8508 74.2695 14.7329 73.6209 14.7329C72.8544 14.7329 72.196 14.8999 71.6457 15.2341C71.115 15.5682 70.7907 16.089 70.6728 16.7966H66.7813C66.8992 15.7156 67.253 14.782 67.8426 13.9958C68.4519 13.2097 69.2577 12.6004 70.26 12.168C71.2624 11.7356 72.3827 11.5194 73.6209 11.5194C75.036 11.5194 76.2545 11.7553 77.2766 12.227C78.2986 12.679 79.0847 13.3571 79.635 14.2612C80.1854 15.1456 80.4605 16.2266 80.4605 17.5041V26.4958H77.1292L76.6869 24.2258H76.6575C76.4216 24.6385 76.1366 25.0021 75.8025 25.3166C75.488 25.6311 75.1244 25.9062 74.7117 26.1421C74.3186 26.3779 73.8764 26.5548 73.385 26.6727C72.8937 26.7907 72.3532 26.8496 71.7636 26.8496ZM72.8544 23.7836C73.385 23.7836 73.8469 23.6951 74.24 23.5183C74.6527 23.3217 74.9967 23.0662 75.2718 22.7517C75.5667 22.4373 75.8025 22.0737 75.9794 21.6609C76.1563 21.2286 76.2644 20.7863 76.3037 20.3343H73.2376C72.648 20.3343 72.1567 20.4129 71.7636 20.5701C71.3705 20.7077 71.0855 20.9141 70.9086 21.1892C70.7317 21.4447 70.6433 21.7494 70.6433 22.1032C70.6433 22.4569 70.7317 22.7616 70.9086 23.0171C71.0855 23.2726 71.341 23.4691 71.6751 23.6067C72.0093 23.7246 72.4023 23.7836 72.8544 23.7836ZM90.0272 26.4958C89.0051 26.4958 88.1011 26.3386 87.3149 26.0242C86.5287 25.69 85.9194 25.1495 85.4871 24.4027C85.0743 23.6362 84.868 22.5945 84.868 21.2777V15.1456H82.3621V11.8732H84.868L85.2807 7.89325H88.8184V11.8732H92.7099V15.1456H88.8479V21.3366C88.8479 22.0049 88.9855 22.4766 89.2606 22.7517C89.5555 23.0072 90.0665 23.135 90.7937 23.135H92.651V26.4958H90.0272ZM100.826 26.8496C99.6074 26.8496 98.5756 26.5941 97.7305 26.0831C96.8854 25.5721 96.2368 24.8154 95.7847 23.8131C95.3327 22.7911 95.1067 21.543 95.1067 20.069V11.8732H99.0866V19.7152C99.0866 20.9337 99.3323 21.8673 99.8236 22.5159C100.315 23.1645 101.091 23.4888 102.153 23.4888C102.841 23.4888 103.44 23.3315 103.951 23.0171C104.482 22.683 104.894 22.2211 105.189 21.6315C105.484 21.0222 105.631 20.2852 105.631 19.4204V11.8732H109.611V26.4958H106.162L105.838 24.0784H105.808C105.337 24.9235 104.678 25.6016 103.833 26.1126C103.008 26.6039 102.005 26.8496 100.826 26.8496ZM112.933 26.4958V11.8732H116.441L116.795 14.7624H116.824C117.217 13.9958 117.669 13.3767 118.18 12.905C118.691 12.4333 119.281 12.0894 119.949 11.8732C120.637 11.6374 121.394 11.5194 122.219 11.5194V15.7352H121.128C120.48 15.7352 119.89 15.804 119.36 15.9416C118.848 16.0792 118.406 16.315 118.033 16.6491C117.679 16.9636 117.404 17.3862 117.207 17.9168C117.011 18.4475 116.913 19.1157 116.913 19.9216V26.4958H112.933ZM129.286 26.8496C128.068 26.8496 127.065 26.6531 126.279 26.26C125.493 25.8669 124.903 25.3363 124.51 24.668C124.137 23.9998 123.95 23.2628 123.95 22.4569C123.95 21.5528 124.176 20.7667 124.628 20.0984C125.1 19.4105 125.808 18.8701 126.751 18.477C127.694 18.0839 128.883 17.8874 130.318 17.8874H134.003C134.003 17.1798 133.895 16.5902 133.679 16.1185C133.483 15.6468 133.168 15.3028 132.736 15.0866C132.323 14.8508 131.792 14.7329 131.144 14.7329C130.377 14.7329 129.719 14.8999 129.168 15.2341C128.638 15.5682 128.313 16.089 128.196 16.7966H124.304C124.422 15.7156 124.776 14.782 125.365 13.9958C125.975 13.2097 126.78 12.6004 127.783 12.168C128.785 11.7356 129.905 11.5194 131.144 11.5194C132.559 11.5194 133.777 11.7553 134.799 12.227C135.821 12.679 136.608 13.3571 137.158 14.2612C137.708 15.1456 137.983 16.2266 137.983 17.5041V26.4958H134.652L134.21 24.2258H134.18C133.944 24.6385 133.659 25.0021 133.325 25.3166C133.011 25.6311 132.647 25.9062 132.234 26.1421C131.841 26.3779 131.399 26.5548 130.908 26.6727C130.416 26.7907 129.876 26.8496 129.286 26.8496ZM130.377 23.7836C130.908 23.7836 131.37 23.6951 131.763 23.5183C132.176 23.3217 132.519 23.0662 132.795 22.7517C133.089 22.4373 133.325 22.0737 133.502 21.6609C133.679 21.2286 133.787 20.7863 133.826 20.3343H130.76C130.171 20.3343 129.679 20.4129 129.286 20.5701C128.893 20.7077 128.608 20.9141 128.431 21.1892C128.255 21.4447 128.166 21.7494 128.166 22.1032C128.166 22.4569 128.255 22.7616 128.431 23.0171C128.608 23.2726 128.864 23.4691 129.198 23.6067C129.532 23.7246 129.925 23.7836 130.377 23.7836ZM141.148 26.4958V5.47579H145.128V26.4958H141.148Z" fill="#170F49"/>
<path d="M1.78913 34.5146C1.06724 34.5146 0.412497 34.0781 0.13717 33.41C-0.141514 32.7418 0.0129373 31.9695 0.523299 31.4592L10.2605 21.722C10.9622 21.0236 12.0937 21.0236 12.7921 21.722C13.4939 22.4204 13.4939 23.5553 12.7921 24.2537L3.05496 33.9908C2.72255 34.3266 2.26591 34.5146 1.78913 34.5146Z" fill="#4A3AFF"/>
<path d="M30.456 1.48553L4.99502 26.9432C-0.323484 21.6247 -0.323484 12.9989 4.99502 7.67702C12.5631 0.108898 30.456 1.48553 30.456 1.48553Z" fill="#9328FF"/>
<path d="M24.2612 26.943C18.9427 32.2648 10.317 32.2648 4.99509 26.943L30.4561 1.48535C30.4561 1.48535 31.8327 19.3749 24.2612 26.943Z" fill="#4A3AFF"/>
</svg>
