<svg width="434" height="314" viewBox="0 0 434 314" fill="none" xmlns="http://www.w3.org/2000/svg">
<g filter="url(#filter0_dddd_540_686)">
<rect x="25" y="309" width="224" height="384" rx="11.5644" transform="rotate(-90 25 309)" fill="url(#paint0_linear_540_686)"/>
</g>
<mask id="mask0_540_686" style="mask-type:alpha" maskUnits="userSpaceOnUse" x="46" y="197" width="52" height="32">
<rect x="46.668" y="197.001" width="50.558" height="31.2304" rx="3.15392" fill="url(#paint1_linear_540_686)"/>
</mask>
<g mask="url(#mask0_540_686)">
<rect x="46.668" y="197" width="50.558" height="31.2304" rx="3.15392" fill="url(#paint2_linear_540_686)"/>
<path fill-rule="evenodd" clip-rule="evenodd" d="M58.3413 206.655L46.668 206.655L46.668 206.342L58.468 206.342L63.0993 209.546L63.0993 218.275L59.3823 221.489L46.668 221.489L46.668 221.177L59.2327 221.177L62.7382 218.145L62.7382 209.697L58.3413 206.655Z" fill="#868686"/>
<path fill-rule="evenodd" clip-rule="evenodd" d="M84.6696 202.751L98.1289 202.751L98.1289 202.438L84.5035 202.438L78.9891 208.002L78.9891 218.268L84.5035 223.831L98.1289 223.831L98.1289 223.519L84.6696 223.519L79.3502 218.152L79.3502 208.118L84.6696 202.751Z" fill="#868686"/>
<path fill-rule="evenodd" clip-rule="evenodd" d="M70.4791 201.76L61.1133 195.724L61.33 195.439L70.8569 201.579L70.8569 207.583L79.1697 207.583L79.1697 207.931L70.4791 207.931L70.4791 201.76Z" fill="#868686"/>
<path fill-rule="evenodd" clip-rule="evenodd" d="M62.918 218.053L71.2239 218.053L71.2239 223.753L63.9291 228.484L63.7125 228.234L70.8628 223.597L70.8628 218.366L62.918 218.366L62.918 218.053Z" fill="#868686"/>
<path fill-rule="evenodd" clip-rule="evenodd" d="M79.1699 218.053L70.864 218.053L70.864 223.753L78.1588 228.484L78.3754 228.234L71.2251 223.597L71.2251 218.366L79.1699 218.366L79.1699 218.053Z" fill="#868686"/>
</g>
<rect x="46.9308" y="197.263" width="50.0323" height="30.7048" rx="2.89109" stroke="white" stroke-width="0.525653"/>
<path d="M53.0637 279.982L47.6439 279.982L47.6439 278.312L55.9255 278.312L51.0663 287.631L48.9199 287.631L53.0637 279.982ZM57.1061 284.793C57.1061 284.515 57.1438 284.257 57.2194 284.018C57.2949 283.78 57.3982 283.563 57.5294 283.368C57.6606 283.17 57.8116 282.995 57.9825 282.844C58.1574 282.689 58.3443 282.553 58.543 282.438C58.2687 282.168 58.07 281.9 57.9468 281.633C57.8235 281.363 57.7619 281.105 57.7619 280.858C57.7619 280.465 57.8534 280.105 58.0362 279.779C58.223 279.453 58.4893 279.173 58.8351 278.938C59.181 278.7 59.6003 278.517 60.0932 278.39C60.5861 278.259 61.1406 278.193 61.7567 278.193C62.3728 278.193 62.9273 278.259 63.4201 278.39C63.913 278.517 64.3324 278.7 64.6782 278.938C65.024 279.173 65.2883 279.453 65.4712 279.779C65.658 280.105 65.7514 280.465 65.7514 280.858C65.7514 281.105 65.6898 281.363 65.5666 281.633C65.4434 281.9 65.2446 282.168 64.9703 282.438C65.1651 282.553 65.3499 282.689 65.5248 282.844C65.6997 282.995 65.8528 283.17 65.9839 283.368C66.1151 283.563 66.2185 283.78 66.294 284.018C66.3695 284.257 66.4073 284.515 66.4073 284.793C66.4073 285.258 66.2979 285.676 66.0793 286.045C65.8647 286.411 65.5546 286.721 65.1492 286.975C64.7478 287.226 64.2588 287.419 63.6825 287.554C63.1101 287.689 62.4682 287.757 61.7567 287.757C61.0452 287.757 60.4012 287.689 59.8249 287.554C59.2525 287.419 58.7636 287.226 58.3582 286.975C57.9567 286.721 57.6467 286.411 57.428 286.045C57.2134 285.676 57.1061 285.258 57.1061 284.793ZM59.652 280.942C59.652 281.089 59.6878 281.228 59.7593 281.359C59.8348 281.486 59.9541 281.599 60.117 281.699C60.284 281.794 60.5006 281.87 60.7669 281.925C61.0372 281.981 61.3671 282.009 61.7567 282.009C62.1462 282.009 62.4741 281.981 62.7404 281.925C63.0107 281.87 63.2274 281.794 63.3903 281.699C63.5573 281.599 63.6765 281.486 63.7481 281.359C63.8236 281.228 63.8614 281.089 63.8614 280.942C63.8614 280.795 63.8236 280.657 63.7481 280.53C63.6765 280.399 63.5573 280.286 63.3903 280.19C63.2274 280.091 63.0107 280.014 62.7404 279.958C62.4741 279.902 62.1462 279.874 61.7567 279.874C61.3671 279.874 61.0372 279.902 60.7669 279.958C60.5006 280.014 60.284 280.091 60.117 280.19C59.9541 280.286 59.8348 280.399 59.7593 280.53C59.6878 280.657 59.652 280.795 59.652 280.942ZM58.9961 284.704C58.9961 284.907 59.0538 285.093 59.169 285.264C59.2883 285.431 59.4632 285.574 59.6937 285.694C59.9243 285.813 60.2124 285.906 60.5582 285.974C60.9041 286.041 61.3035 286.075 61.7567 286.075C62.2098 286.075 62.6093 286.041 62.9551 285.974C63.3009 285.906 63.5891 285.813 63.8196 285.694C64.0502 285.574 64.2231 285.431 64.3383 285.264C64.4576 285.093 64.5172 284.907 64.5172 284.704C64.5172 284.501 64.4596 284.316 64.3443 284.149C64.233 283.978 64.0621 283.833 63.8315 283.714C63.605 283.595 63.3188 283.501 62.973 283.434C62.6272 283.366 62.2217 283.333 61.7567 283.333C61.2916 283.333 60.8862 283.366 60.5404 283.434C60.1946 283.501 59.9064 283.595 59.6758 283.714C59.4493 283.833 59.2783 283.978 59.1631 284.149C59.0518 284.316 58.9961 284.501 58.9961 284.704ZM73.407 279.982L67.9873 279.982L67.9873 278.312L76.2689 278.312L71.4096 287.631L69.2632 287.631L73.407 279.982ZM78.1649 285.413C78.6339 285.644 79.1348 285.813 79.6674 285.92C80.204 286.024 80.7267 286.075 81.2355 286.075C81.6886 286.075 82.0801 286.039 82.41 285.968C82.74 285.892 83.0122 285.791 83.2269 285.664C83.4415 285.537 83.6005 285.386 83.7039 285.211C83.8072 285.036 83.8589 284.847 83.8589 284.644C83.8589 284.37 83.7655 284.126 83.5787 283.911C83.3918 283.692 83.1076 283.529 82.726 283.422C82.3484 283.311 81.8695 283.267 81.2891 283.291C80.7128 283.315 80.0331 283.428 79.25 283.631L79.256 282.235L82.738 279.97L77.8072 279.97L77.8072 278.312L85.266 278.312L85.266 279.934L82.2014 281.878C82.7618 281.878 83.2627 281.949 83.7039 282.092C84.1451 282.235 84.5167 282.432 84.8188 282.683C85.1209 282.933 85.3514 283.229 85.5104 283.571C85.6694 283.913 85.7489 284.281 85.7489 284.674C85.7489 285.139 85.6456 285.562 85.4389 285.944C85.2362 286.322 84.94 286.646 84.5505 286.916C84.161 287.182 83.684 287.389 83.1196 287.536C82.5591 287.683 81.9231 287.757 81.2116 287.757C80.4564 287.757 79.7588 287.677 79.1189 287.518C78.4789 287.355 77.8708 287.131 77.2944 286.844L78.1649 285.413ZM87.6449 284.793C87.6449 284.515 87.6827 284.257 87.7582 284.018C87.8337 283.78 87.9371 283.563 88.0683 283.368C88.1994 283.17 88.3505 282.995 88.5214 282.844C88.6963 282.689 88.8831 282.553 89.0819 282.438C88.8076 282.168 88.6088 281.9 88.4856 281.633C88.3624 281.363 88.3008 281.105 88.3008 280.858C88.3008 280.465 88.3922 280.105 88.5751 279.779C88.7619 279.453 89.0282 279.173 89.374 278.938C89.7198 278.7 90.1392 278.517 90.632 278.39C91.1249 278.259 91.6794 278.193 92.2955 278.193C92.9116 278.193 93.4661 278.259 93.959 278.39C94.4519 278.517 94.8712 278.7 95.2171 278.938C95.5629 279.173 95.8272 279.453 96.01 279.779C96.1969 280.105 96.2903 280.465 96.2903 280.858C96.2903 281.105 96.2287 281.363 96.1054 281.633C95.9822 281.9 95.7835 282.168 95.5092 282.438C95.704 282.553 95.8888 282.689 96.0637 282.844C96.2386 282.995 96.3916 283.17 96.5228 283.368C96.654 283.563 96.7573 283.78 96.8328 284.018C96.9084 284.257 96.9461 284.515 96.9461 284.793C96.9461 285.258 96.8368 285.676 96.6182 286.045C96.4035 286.411 96.0935 286.721 95.6881 286.975C95.2866 287.226 94.7977 287.419 94.2213 287.554C93.649 287.689 93.007 287.757 92.2955 287.757C91.584 287.757 90.9401 287.689 90.3637 287.554C89.7914 287.419 89.3025 287.226 88.897 286.975C88.4956 286.721 88.1855 286.411 87.9669 286.045C87.7523 285.676 87.6449 285.258 87.6449 284.793ZM90.1908 280.942C90.1908 281.089 90.2266 281.228 90.2982 281.359C90.3737 281.486 90.4929 281.599 90.6559 281.699C90.8228 281.794 91.0395 281.87 91.3058 281.925C91.5761 281.981 91.906 282.009 92.2955 282.009C92.6851 282.009 93.013 281.981 93.2793 281.925C93.5496 281.87 93.7662 281.794 93.9292 281.699C94.0961 281.599 94.2154 281.486 94.2869 281.359C94.3625 281.228 94.4002 281.089 94.4002 280.942C94.4002 280.795 94.3625 280.657 94.2869 280.53C94.2154 280.399 94.0961 280.286 93.9292 280.19C93.7662 280.091 93.5496 280.014 93.2793 279.958C93.013 279.902 92.6851 279.874 92.2955 279.874C91.906 279.874 91.5761 279.902 91.3058 279.958C91.0395 280.014 90.8228 280.091 90.6559 280.19C90.4929 280.286 90.3737 280.399 90.2982 280.53C90.2266 280.657 90.1908 280.795 90.1908 280.942ZM89.535 284.704C89.535 284.907 89.5926 285.093 89.7079 285.264C89.8271 285.431 90.002 285.574 90.2326 285.694C90.4631 285.813 90.7513 285.906 91.0971 285.974C91.4429 286.041 91.8424 286.075 92.2955 286.075C92.7487 286.075 93.1481 286.041 93.4939 285.974C93.8398 285.906 94.1279 285.813 94.3585 285.694C94.589 285.574 94.7619 285.431 94.8772 285.264C94.9964 285.093 95.0561 284.907 95.0561 284.704C95.0561 284.501 94.9984 284.316 94.8832 284.149C94.7719 283.978 94.6009 283.833 94.3704 283.714C94.1438 283.595 93.8576 283.501 93.5118 283.434C93.166 283.366 92.7606 283.333 92.2955 283.333C91.8305 283.333 91.425 283.366 91.0792 283.434C90.7334 283.501 90.4452 283.595 90.2147 283.714C89.9881 283.833 89.8172 283.978 89.7019 284.149C89.5906 284.316 89.535 284.501 89.535 284.704ZM100.357 285.479C100.527 285.578 100.718 285.666 100.929 285.741C101.14 285.817 101.356 285.88 101.579 285.932C101.805 285.98 102.032 286.018 102.259 286.045C102.489 286.069 102.708 286.081 102.914 286.081C103.375 286.081 103.791 286.022 104.16 285.902C104.534 285.783 104.856 285.614 105.126 285.395C105.397 285.177 105.611 284.917 105.77 284.614C105.933 284.308 106.035 283.971 106.074 283.601C105.868 283.764 105.639 283.905 105.389 284.024C105.138 284.143 104.872 284.243 104.59 284.322C104.312 284.398 104.023 284.455 103.725 284.495C103.431 284.531 103.135 284.549 102.837 284.549C102.257 284.549 101.728 284.479 101.251 284.34C100.778 284.201 100.372 284 100.035 283.738C99.6967 283.476 99.4344 283.158 99.2476 282.784C99.0647 282.406 98.9733 281.979 98.9733 281.502C98.9733 281.033 99.0647 280.598 99.2476 280.196C99.4344 279.795 99.7086 279.447 100.07 279.153C100.432 278.855 100.881 278.622 101.418 278.455C101.954 278.284 102.577 278.199 103.284 278.199C103.972 278.199 104.6 278.286 105.168 278.461C105.737 278.636 106.223 278.909 106.629 279.278C107.034 279.648 107.348 280.119 107.571 280.691C107.797 281.26 107.911 281.939 107.911 282.73C107.911 283.577 107.784 284.316 107.529 284.948C107.279 285.576 106.933 286.099 106.492 286.516C106.055 286.934 105.538 287.246 104.942 287.452C104.345 287.659 103.701 287.763 103.01 287.763C102.72 287.763 102.418 287.745 102.103 287.709C101.793 287.673 101.485 287.619 101.179 287.548C100.873 287.476 100.577 287.387 100.291 287.28C100.009 287.172 99.7504 287.049 99.5159 286.91L100.357 285.479ZM100.863 281.472C100.863 281.667 100.905 281.85 100.989 282.021C101.072 282.192 101.201 282.341 101.376 282.468C101.555 282.591 101.784 282.691 102.062 282.766C102.34 282.838 102.676 282.873 103.069 282.873C103.399 282.873 103.711 282.848 104.005 282.796C104.3 282.744 104.572 282.673 104.822 282.581C105.073 282.49 105.299 282.383 105.502 282.259C105.709 282.136 105.886 282.001 106.033 281.854C105.937 281.202 105.651 280.711 105.174 280.381C104.697 280.047 104.071 279.88 103.296 279.88C102.906 279.88 102.561 279.92 102.259 280C101.956 280.079 101.702 280.19 101.495 280.334C101.289 280.473 101.132 280.64 101.024 280.834C100.917 281.029 100.863 281.242 100.863 281.472ZM110.194 283.982L115.644 278.312L117.534 278.312L117.534 283.982L119.543 283.982L119.543 285.64L117.534 285.64L117.534 287.631L115.644 287.631L115.644 285.64L110.182 285.64L110.194 283.982ZM115.644 283.982L115.644 280.703L112.46 283.982L115.644 283.982ZM121.88 285.413C122.349 285.644 122.85 285.813 123.383 285.92C123.92 286.024 124.442 286.075 124.951 286.075C125.404 286.075 125.796 286.039 126.126 285.968C126.455 285.892 126.728 285.791 126.942 285.664C127.157 285.537 127.316 285.386 127.419 285.211C127.523 285.036 127.574 284.847 127.574 284.644C127.574 284.37 127.481 284.126 127.294 283.911C127.107 283.692 126.823 283.529 126.442 283.422C126.064 283.311 125.585 283.267 125.005 283.291C124.428 283.315 123.749 283.428 122.966 283.631L122.972 282.235L126.453 279.97L121.523 279.97L121.523 278.312L128.982 278.312L128.982 279.934L125.917 281.878C126.477 281.878 126.978 281.949 127.419 282.092C127.861 282.235 128.232 282.432 128.534 282.683C128.836 282.933 129.067 283.229 129.226 283.571C129.385 283.913 129.464 284.281 129.464 284.674C129.464 285.139 129.361 285.562 129.154 285.944C128.952 286.322 128.656 286.646 128.266 286.916C127.876 287.182 127.4 287.389 126.835 287.536C126.275 287.683 125.639 287.757 124.927 287.757C124.172 287.757 123.474 287.677 122.834 287.518C122.194 287.355 121.586 287.131 121.01 286.844L121.88 285.413Z" fill="#D9D9D9"/>
<path opacity="0.5" d="M323.956 118.859L323.956 110.965L326.623 110.965C327.242 110.965 327.749 111.077 328.142 111.3C328.538 111.521 328.83 111.821 329.021 112.198C329.211 112.576 329.306 112.998 329.306 113.463C329.306 113.928 329.211 114.351 329.021 114.731C328.833 115.111 328.543 115.414 328.149 115.64C327.756 115.864 327.253 115.976 326.639 115.976L324.727 115.976L324.727 115.128L326.608 115.128C327.032 115.128 327.372 115.055 327.629 114.908C327.886 114.762 328.072 114.564 328.188 114.315C328.306 114.063 328.365 113.779 328.365 113.463C328.365 113.147 328.306 112.864 328.188 112.615C328.072 112.365 327.885 112.17 327.625 112.029C327.366 111.885 327.021 111.813 326.592 111.813L324.912 111.813L324.912 118.859L323.956 118.859ZM330.722 118.859L330.722 112.939L331.601 112.939L331.601 113.833L331.663 113.833C331.771 113.54 331.966 113.302 332.249 113.12C332.531 112.937 332.85 112.846 333.205 112.846C333.271 112.846 333.355 112.847 333.455 112.85C333.555 112.852 333.631 112.856 333.682 112.861L333.682 113.786C333.652 113.779 333.581 113.767 333.471 113.752C333.363 113.734 333.248 113.725 333.127 113.725C332.84 113.725 332.583 113.785 332.357 113.906C332.133 114.024 331.956 114.189 331.825 114.399C331.696 114.607 331.632 114.845 331.632 115.112L331.632 118.859L330.722 118.859ZM337.063 118.982C336.492 118.982 336 118.856 335.587 118.604C335.175 118.35 334.858 117.995 334.635 117.541C334.414 117.083 334.303 116.551 334.303 115.945C334.303 115.339 334.414 114.804 334.635 114.342C334.858 113.876 335.169 113.514 335.567 113.255C335.968 112.992 336.436 112.861 336.97 112.861C337.279 112.861 337.583 112.913 337.884 113.016C338.184 113.118 338.458 113.285 338.705 113.517C338.951 113.745 339.148 114.049 339.295 114.426C339.441 114.804 339.514 115.269 339.514 115.822L339.514 116.207L334.951 116.207L334.951 115.421L338.589 115.421C338.589 115.087 338.522 114.789 338.389 114.527C338.258 114.264 338.07 114.058 337.826 113.906C337.584 113.754 337.299 113.679 336.97 113.679C336.608 113.679 336.295 113.768 336.03 113.948C335.768 114.126 335.566 114.357 335.425 114.642C335.283 114.927 335.213 115.233 335.213 115.56L335.213 116.084C335.213 116.531 335.29 116.91 335.444 117.221C335.601 117.529 335.818 117.764 336.095 117.926C336.373 118.085 336.695 118.165 337.063 118.165C337.302 118.165 337.518 118.132 337.71 118.065C337.906 117.995 338.074 117.893 338.215 117.757C338.357 117.618 338.466 117.446 338.543 117.24L339.422 117.487C339.329 117.785 339.174 118.047 338.955 118.273C338.737 118.497 338.467 118.671 338.146 118.797C337.825 118.921 337.464 118.982 337.063 118.982ZM340.898 121.079L340.898 112.939L341.777 112.939L341.777 113.879L341.885 113.879C341.951 113.776 342.044 113.645 342.162 113.486C342.283 113.324 342.455 113.18 342.679 113.054C342.905 112.926 343.211 112.861 343.596 112.861C344.095 112.861 344.534 112.986 344.914 113.235C345.295 113.485 345.591 113.838 345.805 114.295C346.018 114.753 346.125 115.292 346.125 115.914C346.125 116.541 346.018 117.085 345.805 117.545C345.591 118.002 345.296 118.357 344.918 118.608C344.54 118.858 344.105 118.982 343.611 118.982C343.231 118.982 342.927 118.919 342.698 118.793C342.469 118.665 342.293 118.52 342.17 118.358C342.047 118.193 341.951 118.057 341.885 117.949L341.808 117.949L341.808 121.079L340.898 121.079ZM341.792 115.899C341.792 116.346 341.858 116.74 341.989 117.082C342.12 117.421 342.311 117.687 342.563 117.88C342.815 118.07 343.123 118.165 343.488 118.165C343.868 118.165 344.186 118.065 344.44 117.864C344.697 117.661 344.89 117.389 345.018 117.047C345.149 116.703 345.215 116.32 345.215 115.899C345.215 115.482 345.151 115.107 345.022 114.773C344.896 114.437 344.705 114.171 344.448 113.975C344.193 113.777 343.874 113.679 343.488 113.679C343.118 113.679 342.807 113.772 342.555 113.96C342.304 114.145 342.113 114.404 341.985 114.739C341.856 115.07 341.792 115.457 341.792 115.899ZM349.254 118.998C348.879 118.998 348.539 118.927 348.233 118.786C347.927 118.642 347.684 118.435 347.504 118.165C347.325 117.893 347.235 117.564 347.235 117.178C347.235 116.839 347.301 116.564 347.435 116.354C347.569 116.14 347.747 115.973 347.971 115.852C348.194 115.732 348.441 115.642 348.711 115.583C348.983 115.521 349.257 115.472 349.532 115.436C349.892 115.39 350.183 115.355 350.407 115.332C350.633 115.306 350.797 115.264 350.9 115.205C351.006 115.146 351.058 115.043 351.058 114.897L351.058 114.866C351.058 114.485 350.954 114.19 350.746 113.979C350.54 113.768 350.228 113.663 349.809 113.663C349.375 113.663 349.035 113.758 348.788 113.948C348.541 114.139 348.368 114.342 348.268 114.557L347.404 114.249C347.558 113.889 347.764 113.609 348.021 113.409C348.28 113.206 348.563 113.064 348.869 112.985C349.177 112.903 349.48 112.861 349.779 112.861C349.969 112.861 350.187 112.885 350.434 112.931C350.683 112.974 350.923 113.066 351.155 113.204C351.388 113.343 351.582 113.553 351.737 113.833C351.891 114.113 351.968 114.488 351.968 114.958L351.968 118.859L351.058 118.859L351.058 118.057L351.012 118.057C350.95 118.186 350.847 118.323 350.704 118.47C350.56 118.616 350.368 118.741 350.129 118.843C349.89 118.946 349.599 118.998 349.254 118.998ZM349.393 118.181C349.753 118.181 350.056 118.11 350.303 117.969C350.552 117.827 350.74 117.645 350.865 117.421C350.994 117.198 351.058 116.963 351.058 116.716L351.058 115.883C351.02 115.93 350.935 115.972 350.804 116.01C350.675 116.046 350.526 116.079 350.357 116.107C350.19 116.133 350.026 116.156 349.867 116.176C349.71 116.194 349.583 116.21 349.486 116.222C349.249 116.253 349.028 116.303 348.823 116.373C348.62 116.44 348.455 116.541 348.329 116.677C348.206 116.811 348.144 116.993 348.144 117.225C348.144 117.541 348.261 117.78 348.495 117.942C348.731 118.101 349.031 118.181 349.393 118.181ZM353.628 118.859L353.628 112.939L354.538 112.939L354.538 118.859L353.628 118.859ZM354.091 111.952C353.913 111.952 353.76 111.891 353.632 111.771C353.506 111.65 353.443 111.505 353.443 111.335C353.443 111.165 353.506 111.02 353.632 110.9C353.76 110.779 353.913 110.718 354.091 110.718C354.268 110.718 354.42 110.779 354.545 110.9C354.674 111.02 354.738 111.165 354.738 111.335C354.738 111.505 354.674 111.65 354.545 111.771C354.42 111.891 354.268 111.952 354.091 111.952ZM358.439 118.982C357.946 118.982 357.51 118.858 357.133 118.608C356.755 118.357 356.459 118.002 356.246 117.545C356.033 117.085 355.926 116.541 355.926 115.914C355.926 115.292 356.033 114.753 356.246 114.295C356.459 113.838 356.756 113.485 357.137 113.235C357.517 112.986 357.956 112.861 358.455 112.861C358.84 112.861 359.145 112.926 359.368 113.054C359.594 113.18 359.767 113.324 359.885 113.486C360.006 113.645 360.099 113.776 360.166 113.879L360.243 113.879L360.243 110.965L361.153 110.965L361.153 118.859L360.274 118.859L360.274 117.949L360.166 117.949C360.099 118.057 360.004 118.193 359.881 118.358C359.758 118.52 359.582 118.665 359.353 118.793C359.124 118.919 358.82 118.982 358.439 118.982ZM358.563 118.165C358.928 118.165 359.236 118.07 359.488 117.88C359.74 117.687 359.931 117.421 360.062 117.082C360.193 116.74 360.259 116.346 360.259 115.899C360.259 115.457 360.194 115.07 360.066 114.739C359.937 114.404 359.747 114.145 359.495 113.96C359.244 113.772 358.933 113.679 358.563 113.679C358.177 113.679 357.856 113.777 357.599 113.975C357.345 114.171 357.153 114.437 357.025 114.773C356.899 115.107 356.836 115.482 356.836 115.899C356.836 116.32 356.9 116.703 357.029 117.047C357.16 117.389 357.352 117.661 357.607 117.864C357.864 118.065 358.182 118.165 358.563 118.165ZM372.473 113.432L371.517 113.432C371.461 113.157 371.362 112.915 371.221 112.707C371.082 112.499 370.912 112.324 370.712 112.183C370.514 112.039 370.294 111.931 370.053 111.859C369.811 111.787 369.559 111.751 369.297 111.751C368.819 111.751 368.386 111.872 367.998 112.114C367.613 112.355 367.306 112.711 367.077 113.181C366.851 113.652 366.738 114.228 366.738 114.912C366.738 115.595 366.851 116.172 367.077 116.643C367.306 117.113 367.613 117.469 367.998 117.71C368.386 117.952 368.819 118.073 369.297 118.073C369.559 118.073 369.811 118.037 370.053 117.965C370.294 117.893 370.514 117.786 370.712 117.645C370.912 117.501 371.082 117.325 371.221 117.117C371.362 116.906 371.461 116.664 371.517 116.392L372.473 116.392C372.401 116.795 372.27 117.157 372.08 117.475C371.89 117.794 371.654 118.065 371.371 118.288C371.088 118.509 370.771 118.678 370.419 118.793C370.069 118.909 369.696 118.967 369.297 118.967C368.624 118.967 368.025 118.802 367.501 118.473C366.977 118.145 366.564 117.677 366.264 117.07C365.963 116.464 365.813 115.745 365.813 114.912C365.813 114.079 365.963 113.36 366.264 112.754C366.564 112.147 366.977 111.679 367.501 111.35C368.025 111.022 368.624 110.857 369.297 110.857C369.696 110.857 370.069 110.915 370.419 111.031C370.771 111.146 371.088 111.316 371.371 111.539C371.654 111.76 371.89 112.03 372.08 112.349C372.27 112.665 372.401 113.026 372.473 113.432ZM375.637 118.998C375.262 118.998 374.921 118.927 374.615 118.786C374.31 118.642 374.067 118.435 373.887 118.165C373.707 117.893 373.617 117.564 373.617 117.178C373.617 116.839 373.684 116.564 373.818 116.354C373.951 116.14 374.13 115.973 374.353 115.852C374.577 115.732 374.824 115.642 375.093 115.583C375.366 115.521 375.639 115.472 375.914 115.436C376.274 115.39 376.566 115.355 376.789 115.332C377.015 115.306 377.18 115.264 377.283 115.205C377.388 115.146 377.441 115.043 377.441 114.897L377.441 114.866C377.441 114.485 377.337 114.19 377.128 113.979C376.923 113.768 376.611 113.663 376.192 113.663C375.758 113.663 375.417 113.758 375.17 113.948C374.924 114.139 374.75 114.342 374.65 114.557L373.787 114.249C373.941 113.889 374.146 113.609 374.403 113.409C374.663 113.206 374.946 113.064 375.251 112.985C375.56 112.903 375.863 112.861 376.161 112.861C376.351 112.861 376.57 112.885 376.816 112.931C377.065 112.974 377.306 113.066 377.537 113.204C377.771 113.343 377.965 113.553 378.119 113.833C378.273 114.113 378.35 114.488 378.35 114.958L378.35 118.859L377.441 118.859L377.441 118.057L377.394 118.057C377.333 118.186 377.23 118.323 377.086 118.47C376.942 118.616 376.751 118.741 376.512 118.843C376.273 118.946 375.981 118.998 375.637 118.998ZM375.776 118.181C376.135 118.181 376.439 118.11 376.685 117.969C376.934 117.827 377.122 117.645 377.248 117.421C377.376 117.198 377.441 116.963 377.441 116.716L377.441 115.883C377.402 115.93 377.317 115.972 377.186 116.01C377.058 116.046 376.909 116.079 376.739 116.107C376.572 116.133 376.409 116.156 376.25 116.176C376.093 116.194 375.966 116.21 375.868 116.222C375.632 116.253 375.411 116.303 375.205 116.373C375.002 116.44 374.838 116.541 374.712 116.677C374.588 116.811 374.527 116.993 374.527 117.225C374.527 117.541 374.644 117.78 374.877 117.942C375.114 118.101 375.413 118.181 375.776 118.181ZM380.011 118.859L380.011 112.939L380.889 112.939L380.889 113.833L380.951 113.833C381.059 113.54 381.254 113.302 381.537 113.12C381.82 112.937 382.138 112.846 382.493 112.846C382.56 112.846 382.643 112.847 382.743 112.85C382.844 112.852 382.919 112.856 382.971 112.861L382.971 113.786C382.94 113.779 382.869 113.767 382.759 113.752C382.651 113.734 382.537 113.725 382.416 113.725C382.128 113.725 381.871 113.785 381.645 113.906C381.421 114.024 381.244 114.189 381.113 114.399C380.984 114.607 380.92 114.845 380.92 115.112L380.92 118.859L380.011 118.859ZM386.104 118.982C385.611 118.982 385.175 118.858 384.798 118.608C384.42 118.357 384.125 118.002 383.911 117.545C383.698 117.085 383.591 116.541 383.591 115.914C383.591 115.292 383.698 114.753 383.911 114.295C384.125 113.838 384.421 113.485 384.802 113.235C385.182 112.986 385.621 112.861 386.12 112.861C386.505 112.861 386.81 112.926 387.033 113.054C387.259 113.18 387.432 113.324 387.55 113.486C387.671 113.645 387.764 113.776 387.831 113.879L387.908 113.879L387.908 110.965L388.818 110.965L388.818 118.859L387.939 118.859L387.939 117.949L387.831 117.949C387.764 118.057 387.669 118.193 387.546 118.358C387.423 118.52 387.247 118.665 387.018 118.793C386.789 118.919 386.485 118.982 386.104 118.982ZM386.228 118.165C386.593 118.165 386.901 118.07 387.153 117.88C387.405 117.687 387.596 117.421 387.727 117.082C387.858 116.74 387.924 116.346 387.924 115.899C387.924 115.457 387.859 115.07 387.731 114.739C387.602 114.404 387.412 114.145 387.161 113.96C386.909 113.772 386.598 113.679 386.228 113.679C385.842 113.679 385.521 113.777 385.264 113.975C385.01 114.171 384.818 114.437 384.69 114.773C384.564 115.107 384.501 115.482 384.501 115.899C384.501 116.32 384.565 116.703 384.694 117.047C384.825 117.389 385.017 117.661 385.272 117.864C385.529 118.065 385.847 118.165 386.228 118.165Z" fill="white"/>
<rect x="47.5" y="102.613" width="94" height="24" rx="12" stroke="#DBDBDB" stroke-opacity="0.4"/>
<path d="M59.2775 110.219L60.3722 110.219L62.5615 113.904L62.654 113.904L64.8433 110.219L65.9379 110.219L63.0857 114.86L63.0857 118.113L62.1298 118.113L62.1298 114.86L59.2775 110.219ZM73.4637 114.166C73.4637 114.998 73.3134 115.718 73.0127 116.324C72.7121 116.931 72.2996 117.398 71.7754 117.727C71.2512 118.056 70.6525 118.221 69.9793 118.221C69.3061 118.221 68.7073 118.056 68.1831 117.727C67.6589 117.398 67.2465 116.931 66.9459 116.324C66.6452 115.718 66.4949 114.998 66.4949 114.166C66.4949 113.333 66.6452 112.614 66.9459 112.007C67.2465 111.401 67.6589 110.933 68.1831 110.604C68.7073 110.275 69.3061 110.111 69.9793 110.111C70.6525 110.111 71.2512 110.275 71.7754 110.604C72.2996 110.933 72.7121 111.401 73.0127 112.007C73.3134 112.614 73.4637 113.333 73.4637 114.166ZM72.5386 114.166C72.5386 113.482 72.4243 112.905 72.1956 112.435C71.9694 111.965 71.6624 111.609 71.2744 111.368C70.8889 111.126 70.4572 111.005 69.9793 111.005C69.5013 111.005 69.0684 111.126 68.6804 111.368C68.2949 111.609 67.9878 111.965 67.7591 112.435C67.533 112.905 67.42 113.482 67.42 114.166C67.42 114.849 67.533 115.426 67.7591 115.897C67.9878 116.367 68.2949 116.723 68.6804 116.964C69.0684 117.206 69.5013 117.326 69.9793 117.326C70.4572 117.326 70.8889 117.206 71.2744 116.964C71.6624 116.723 71.9694 116.367 72.1956 115.897C72.4243 115.426 72.5386 114.849 72.5386 114.166ZM80.2513 110.219L81.2072 110.219L81.2072 115.446C81.2072 115.985 81.08 116.467 80.8256 116.891C80.5738 117.312 80.2179 117.645 79.7579 117.889C79.298 118.131 78.7583 118.252 78.1391 118.252C77.5198 118.252 76.9802 118.131 76.5202 117.889C76.0603 117.645 75.7031 117.312 75.4487 116.891C75.1969 116.467 75.071 115.985 75.071 115.446L75.071 110.219L76.0269 110.219L76.0269 115.368C76.0269 115.754 76.1117 116.097 76.2812 116.398C76.4508 116.696 76.6924 116.931 77.0059 117.103C77.3219 117.273 77.6997 117.357 78.1391 117.357C78.5785 117.357 78.9562 117.273 79.2723 117.103C79.5883 116.931 79.8299 116.696 79.9969 116.398C80.1665 116.097 80.2513 115.754 80.2513 115.368L80.2513 110.219ZM83.1161 118.113L83.1161 110.219L85.7833 110.219C86.4 110.219 86.9063 110.324 87.302 110.535C87.6977 110.743 87.9906 111.03 88.1808 111.395C88.3709 111.759 88.466 112.174 88.466 112.64C88.466 113.105 88.3709 113.517 88.1808 113.877C87.9906 114.237 87.699 114.519 87.3058 114.725C86.9127 114.928 86.4103 115.029 85.7988 115.029L83.6403 115.029L83.6403 114.166L85.7679 114.166C86.1893 114.166 86.5285 114.104 86.7855 113.981C87.045 113.858 87.2326 113.683 87.3482 113.457C87.4664 113.228 87.5255 112.956 87.5255 112.64C87.5255 112.323 87.4664 112.047 87.3482 111.811C87.23 111.574 87.0412 111.392 86.7816 111.264C86.5221 111.132 86.1791 111.067 85.7525 111.067L84.072 111.067L84.072 118.113L83.1161 118.113ZM86.8317 114.567L88.7744 118.113L87.6643 118.113L85.7525 114.567L86.8317 114.567ZM93.1115 118.113L93.1115 110.219L95.8713 110.219C96.4212 110.219 96.8747 110.314 97.2319 110.504C97.5891 110.692 97.855 110.945 98.0298 111.264C98.2045 111.58 98.2919 111.93 98.2919 112.316C98.2919 112.655 98.2315 112.935 98.1107 113.156C97.9925 113.377 97.8358 113.552 97.6405 113.68C97.4477 113.809 97.2383 113.904 97.0122 113.965L97.0122 114.043C97.2537 114.058 97.4966 114.143 97.7407 114.297C97.9848 114.451 98.1891 114.672 98.3535 114.96C98.518 115.248 98.6002 115.6 98.6002 116.016C98.6002 116.412 98.5103 116.768 98.3304 117.084C98.1505 117.4 97.8666 117.65 97.4786 117.835C97.0906 118.02 96.5856 118.113 95.9638 118.113L93.1115 118.113ZM94.0674 117.265L95.9638 117.265C96.5882 117.265 97.0315 117.144 97.2936 116.903C97.5582 116.658 97.6906 116.363 97.6906 116.016C97.6906 115.749 97.6225 115.502 97.4863 115.276C97.3501 115.047 97.1561 114.865 96.9043 114.729C96.6525 114.59 96.3544 114.52 96.0101 114.52L94.0674 114.52L94.0674 117.265ZM94.0674 113.688L95.8405 113.688C96.1283 113.688 96.3878 113.631 96.619 113.518C96.8529 113.405 97.0379 113.246 97.1741 113.04C97.3128 112.835 97.3822 112.593 97.3822 112.316C97.3822 111.969 97.2614 111.675 97.0199 111.433C96.7784 111.189 96.3955 111.067 95.8713 111.067L94.0674 111.067L94.0674 113.688ZM100.171 118.113L100.171 110.219L102.838 110.219C103.455 110.219 103.961 110.324 104.357 110.535C104.752 110.743 105.045 111.03 105.236 111.395C105.426 111.759 105.521 112.174 105.521 112.64C105.521 113.105 105.426 113.517 105.236 113.877C105.045 114.237 104.754 114.519 104.361 114.725C103.967 114.928 103.465 115.029 102.854 115.029L100.695 115.029L100.695 114.166L102.823 114.166C103.244 114.166 103.583 114.104 103.84 113.981C104.1 113.858 104.287 113.683 104.403 113.457C104.521 113.228 104.58 112.956 104.58 112.64C104.58 112.323 104.521 112.047 104.403 111.811C104.285 111.574 104.096 111.392 103.836 111.264C103.577 111.132 103.234 111.067 102.807 111.067L101.127 111.067L101.127 118.113L100.171 118.113ZM103.887 114.567L105.829 118.113L104.719 118.113L102.807 114.567L103.887 114.567ZM107.437 118.113L106.435 118.113L109.334 110.219L110.321 110.219L113.219 118.113L112.217 118.113L109.858 111.468L109.796 111.468L107.437 118.113ZM107.807 115.029L111.847 115.029L111.847 115.877L107.807 115.877L107.807 115.029ZM120.708 110.219L120.708 118.113L119.783 118.113L115.482 111.915L115.404 111.915L115.404 118.113L114.449 118.113L114.449 110.219L115.374 110.219L119.691 116.432L119.768 116.432L119.768 110.219L120.708 110.219ZM125.057 118.113L122.621 118.113L122.621 110.219L125.165 110.219C125.931 110.219 126.586 110.377 127.131 110.693C127.675 111.007 128.093 111.458 128.383 112.046C128.674 112.632 128.819 113.333 128.819 114.15C128.819 114.973 128.672 115.681 128.379 116.274C128.086 116.865 127.66 117.32 127.1 117.639C126.54 117.955 125.859 118.113 125.057 118.113ZM123.577 117.265L124.995 117.265C125.648 117.265 126.189 117.139 126.618 116.887C127.047 116.635 127.367 116.277 127.578 115.812C127.788 115.347 127.894 114.793 127.894 114.15C127.894 113.513 127.79 112.965 127.582 112.505C127.373 112.042 127.062 111.687 126.649 111.441C126.235 111.192 125.72 111.067 125.103 111.067L123.577 111.067L123.577 117.265Z" fill="white"/>
<path d="M383.436 282.959C382.234 283.326 380.564 283.145 379.498 281.547L378.802 280.503L378.2 279.6L379.498 277.653C380.562 276.056 382.225 275.872 383.436 276.241C384.642 276.605 385.93 277.68 385.93 279.601C385.93 281.521 384.642 282.595 383.436 282.959ZM372.011 281.547C370.946 283.143 369.28 283.328 368.07 282.959C366.866 282.595 365.578 281.521 365.578 279.601C365.578 277.68 366.866 276.605 368.072 276.241C368.403 276.14 368.769 276.08 369.148 276.08C370.148 276.08 371.237 276.494 372.011 277.653L373.309 279.6L372.011 281.547ZM384.615 272.344C381.345 271.357 378.007 272.552 376.112 275.396L375.754 275.93L375.398 275.396C373.5 272.552 370.168 271.349 366.891 272.345C363.622 273.335 361.508 276.183 361.508 279.601C361.508 283.018 363.622 285.865 366.891 286.855C370.161 287.848 373.499 286.65 375.398 283.805L375.754 283.269L376.112 283.805C376.191 283.924 376.273 284.041 376.358 284.154C377.818 286.115 380.003 287.198 382.338 287.198C383.088 287.198 383.853 287.087 384.617 286.856C387.886 285.865 390 283.018 390 279.601C390 276.182 387.886 273.335 384.615 272.344Z" fill="white"/>
<path d="M378.802 280.503L376.357 284.153C376.273 284.04 376.191 283.924 376.112 283.805L375.754 283.269L378.2 279.599L378.802 280.503Z" fill="#BBBCBD"/>
<path d="M375.753 275.93L373.309 279.581C373.224 279.468 373.142 279.351 373.063 279.232L372.705 278.696L375.151 275.027L375.753 275.93Z" fill="#BBBCBD"/>
<defs>
<filter id="filter0_dddd_540_686" x="0.578455" y="0.202967" width="432.843" height="312.867" filterUnits="userSpaceOnUse" color-interpolation-filters="sRGB">
<feFlood flood-opacity="0" result="BackgroundImageFix"/>
<feColorMatrix in="SourceAlpha" type="matrix" values="0 0 0 0 0 0 0 0 0 0 0 0 0 0 0 0 0 0 127 0" result="hardAlpha"/>
<feOffset dy="-4.07026"/>
<feGaussianBlur stdDeviation="4.07026"/>
<feColorMatrix type="matrix" values="0 0 0 0 0 0 0 0 0 0 0 0 0 0 0 0 0 0 0.1 0"/>
<feBlend mode="normal" in2="BackgroundImageFix" result="effect1_dropShadow_540_686"/>
<feColorMatrix in="SourceAlpha" type="matrix" values="0 0 0 0 0 0 0 0 0 0 0 0 0 0 0 0 0 0 127 0" result="hardAlpha"/>
<feOffset dy="-14.9243"/>
<feGaussianBlur stdDeviation="7.46214"/>
<feColorMatrix type="matrix" values="0 0 0 0 0 0 0 0 0 0 0 0 0 0 0 0 0 0 0.09 0"/>
<feBlend mode="normal" in2="effect1_dropShadow_540_686" result="effect2_dropShadow_540_686"/>
<feColorMatrix in="SourceAlpha" type="matrix" values="0 0 0 0 0 0 0 0 0 0 0 0 0 0 0 0 0 0 127 0" result="hardAlpha"/>
<feOffset dy="-33.9188"/>
<feGaussianBlur stdDeviation="10.1756"/>
<feColorMatrix type="matrix" values="0 0 0 0 0 0 0 0 0 0 0 0 0 0 0 0 0 0 0.05 0"/>
<feBlend mode="normal" in2="effect2_dropShadow_540_686" result="effect3_dropShadow_540_686"/>
<feColorMatrix in="SourceAlpha" type="matrix" values="0 0 0 0 0 0 0 0 0 0 0 0 0 0 0 0 0 0 127 0" result="hardAlpha"/>
<feOffset dy="-60.3755"/>
<feGaussianBlur stdDeviation="12.2108"/>
<feColorMatrix type="matrix" values="0 0 0 0 0 0 0 0 0 0 0 0 0 0 0 0 0 0 0.01 0"/>
<feBlend mode="normal" in2="effect3_dropShadow_540_686" result="effect4_dropShadow_540_686"/>
<feBlend mode="normal" in="SourceGraphic" in2="effect4_dropShadow_540_686" result="shape"/>
</filter>
<linearGradient id="paint0_linear_540_686" x1="331.865" y1="501" x2="25" y2="501" gradientUnits="userSpaceOnUse">
<stop stop-color="#666969"/>
<stop offset="1" stop-color="#EC991D"/>
</linearGradient>
<linearGradient id="paint1_linear_540_686" x1="93.6147" y1="199.343" x2="53.1328" y2="233.047" gradientUnits="userSpaceOnUse">
<stop stop-color="#CDCDCD"/>
<stop offset="0.447917" stop-color="#E8E8E8"/>
<stop offset="1" stop-color="#B4B4B4"/>
</linearGradient>
<linearGradient id="paint2_linear_540_686" x1="93.6147" y1="199.343" x2="53.1328" y2="233.046" gradientUnits="userSpaceOnUse">
<stop stop-color="#CDCDCD"/>
<stop offset="0.447917" stop-color="#E8E8E8"/>
<stop offset="1" stop-color="#B4B4B4"/>
</linearGradient>
</defs>
</svg>
