<svg width="384" height="224" viewBox="0 0 384 224" fill="none" xmlns="http://www.w3.org/2000/svg">
<rect x="384" width="224" height="384" rx="12" transform="rotate(90 384 0)" fill="url(#paint0_linear_720_867)"/>
<mask id="mask0_720_867" style="mask-type:alpha" maskUnits="userSpaceOnUse" x="21" y="111" width="52" height="33">
<rect x="21.668" y="111.944" width="50.558" height="31.2304" rx="3.15392" fill="url(#paint1_linear_720_867)"/>
</mask>
<g mask="url(#mask0_720_867)">
<rect x="21.668" y="111.944" width="50.558" height="31.2304" rx="3.15392" fill="url(#paint2_linear_720_867)"/>
<path fill-rule="evenodd" clip-rule="evenodd" d="M33.3413 121.598L21.668 121.598L21.668 121.286L33.468 121.286L38.0993 124.49L38.0993 133.218L34.3823 136.432L21.668 136.432L21.668 136.12L34.2327 136.12L37.7382 133.089L37.7382 124.64L33.3413 121.598Z" fill="#868686"/>
<path fill-rule="evenodd" clip-rule="evenodd" d="M59.6696 117.694L73.1289 117.694L73.1289 117.382L59.5035 117.382L53.9891 122.946L53.9891 133.211L59.5035 138.775L73.1289 138.775L73.1289 138.462L59.6696 138.462L54.3502 133.095L54.3502 123.061L59.6696 117.694Z" fill="#868686"/>
<path fill-rule="evenodd" clip-rule="evenodd" d="M45.4791 116.703L36.1133 110.667L36.33 110.382L45.8569 116.522L45.8569 122.527L54.1697 122.527L54.1697 122.875L45.4791 122.875L45.4791 116.703Z" fill="#868686"/>
<path fill-rule="evenodd" clip-rule="evenodd" d="M37.918 132.997L46.2239 132.997L46.2239 138.696L38.9291 143.428L38.7125 143.178L45.8628 138.54L45.8628 133.309L37.918 133.309L37.918 132.997Z" fill="#868686"/>
<path fill-rule="evenodd" clip-rule="evenodd" d="M54.1699 132.997L45.864 132.997L45.864 138.696L53.1588 143.428L53.3754 143.178L46.2251 138.54L46.2251 133.309L54.1699 133.309L54.1699 132.997Z" fill="#868686"/>
</g>
<rect x="21.9308" y="112.206" width="50.0323" height="30.7048" rx="2.89109" stroke="white" stroke-width="0.525653"/>
<path d="M28.0637 194.925L22.6439 194.925L22.6439 193.256L30.9255 193.256L26.0663 202.575L23.9199 202.575L28.0637 194.925ZM32.1061 199.737C32.1061 199.458 32.1438 199.2 32.2194 198.962C32.2949 198.723 32.3982 198.506 32.5294 198.312C32.6606 198.113 32.8116 197.938 32.9825 197.787C33.1574 197.632 33.3443 197.497 33.543 197.382C33.2687 197.111 33.07 196.843 32.9468 196.577C32.8235 196.306 32.7619 196.048 32.7619 195.802C32.7619 195.408 32.8534 195.048 33.0362 194.722C33.223 194.396 33.4893 194.116 33.8351 193.882C34.181 193.643 34.6003 193.46 35.0932 193.333C35.5861 193.202 36.1406 193.136 36.7567 193.136C37.3728 193.136 37.9273 193.202 38.4201 193.333C38.913 193.46 39.3324 193.643 39.6782 193.882C40.024 194.116 40.2883 194.396 40.4712 194.722C40.658 195.048 40.7514 195.408 40.7514 195.802C40.7514 196.048 40.6898 196.306 40.5666 196.577C40.4434 196.843 40.2446 197.111 39.9703 197.382C40.1651 197.497 40.3499 197.632 40.5248 197.787C40.6997 197.938 40.8528 198.113 40.9839 198.312C41.1151 198.506 41.2185 198.723 41.294 198.962C41.3695 199.2 41.4073 199.458 41.4073 199.737C41.4073 200.202 41.2979 200.619 41.0793 200.989C40.8647 201.354 40.5546 201.664 40.1492 201.919C39.7478 202.169 39.2588 202.362 38.6825 202.497C38.1101 202.632 37.4682 202.7 36.7567 202.7C36.0452 202.7 35.4012 202.632 34.8249 202.497C34.2525 202.362 33.7636 202.169 33.3582 201.919C32.9567 201.664 32.6467 201.354 32.428 200.989C32.2134 200.619 32.1061 200.202 32.1061 199.737ZM34.652 195.885C34.652 196.032 34.6878 196.171 34.7593 196.302C34.8348 196.43 34.9541 196.543 35.117 196.642C35.284 196.738 35.5006 196.813 35.7669 196.869C36.0372 196.924 36.3671 196.952 36.7567 196.952C37.1462 196.952 37.4741 196.924 37.7404 196.869C38.0107 196.813 38.2274 196.738 38.3903 196.642C38.5573 196.543 38.6765 196.43 38.7481 196.302C38.8236 196.171 38.8614 196.032 38.8614 195.885C38.8614 195.738 38.8236 195.601 38.7481 195.474C38.6765 195.342 38.5573 195.229 38.3903 195.134C38.2274 195.034 38.0107 194.957 37.7404 194.901C37.4741 194.846 37.1462 194.818 36.7567 194.818C36.3671 194.818 36.0372 194.846 35.7669 194.901C35.5006 194.957 35.284 195.034 35.117 195.134C34.9541 195.229 34.8348 195.342 34.7593 195.474C34.6878 195.601 34.652 195.738 34.652 195.885ZM33.9961 199.647C33.9961 199.85 34.0538 200.037 34.169 200.208C34.2883 200.375 34.4632 200.518 34.6937 200.637C34.9243 200.756 35.2124 200.85 35.5582 200.917C35.9041 200.985 36.3035 201.019 36.7567 201.019C37.2098 201.019 37.6093 200.985 37.9551 200.917C38.3009 200.85 38.5891 200.756 38.8196 200.637C39.0502 200.518 39.2231 200.375 39.3383 200.208C39.4576 200.037 39.5172 199.85 39.5172 199.647C39.5172 199.445 39.4596 199.26 39.3443 199.093C39.233 198.922 39.0621 198.777 38.8315 198.657C38.605 198.538 38.3188 198.445 37.973 198.377C37.6272 198.31 37.2217 198.276 36.7567 198.276C36.2916 198.276 35.8862 198.31 35.5404 198.377C35.1946 198.445 34.9064 198.538 34.6758 198.657C34.4493 198.777 34.2783 198.922 34.1631 199.093C34.0518 199.26 33.9961 199.445 33.9961 199.647ZM48.407 194.925L42.9873 194.925L42.9873 193.256L51.2689 193.256L46.4096 202.575L44.2632 202.575L48.407 194.925ZM53.1649 200.357C53.6339 200.587 54.1348 200.756 54.6674 200.864C55.204 200.967 55.7267 201.019 56.2355 201.019C56.6886 201.019 57.0801 200.983 57.41 200.911C57.74 200.836 58.0122 200.734 58.2269 200.607C58.4415 200.48 58.6005 200.329 58.7039 200.154C58.8072 199.979 58.8589 199.79 58.8589 199.588C58.8589 199.313 58.7655 199.069 58.5787 198.854C58.3918 198.636 58.1076 198.473 57.726 198.365C57.3484 198.254 56.8695 198.21 56.2891 198.234C55.7128 198.258 55.0331 198.371 54.25 198.574L54.256 197.179L57.738 194.913L52.8072 194.913L52.8072 193.256L60.266 193.256L60.266 194.877L57.2014 196.821C57.7618 196.821 58.2627 196.893 58.7039 197.036C59.1451 197.179 59.5167 197.376 59.8188 197.626C60.1209 197.876 60.3514 198.173 60.5104 198.514C60.6694 198.856 60.7489 199.224 60.7489 199.617C60.7489 200.082 60.6456 200.506 60.4389 200.887C60.2362 201.265 59.94 201.589 59.5505 201.859C59.161 202.126 58.684 202.332 58.1196 202.479C57.5591 202.626 56.9231 202.7 56.2116 202.7C55.4564 202.7 54.7588 202.62 54.1189 202.461C53.4789 202.298 52.8708 202.074 52.2944 201.788L53.1649 200.357ZM62.6449 199.737C62.6449 199.458 62.6827 199.2 62.7582 198.962C62.8337 198.723 62.9371 198.506 63.0683 198.312C63.1994 198.113 63.3505 197.938 63.5214 197.787C63.6963 197.632 63.8831 197.497 64.0819 197.382C63.8076 197.111 63.6088 196.843 63.4856 196.577C63.3624 196.306 63.3008 196.048 63.3008 195.802C63.3008 195.408 63.3922 195.048 63.5751 194.722C63.7619 194.396 64.0282 194.116 64.374 193.882C64.7198 193.643 65.1392 193.46 65.632 193.333C66.1249 193.202 66.6794 193.136 67.2955 193.136C67.9116 193.136 68.4661 193.202 68.959 193.333C69.4519 193.46 69.8712 193.643 70.2171 193.882C70.5629 194.116 70.8272 194.396 71.01 194.722C71.1969 195.048 71.2903 195.408 71.2903 195.802C71.2903 196.048 71.2287 196.306 71.1054 196.577C70.9822 196.843 70.7835 197.111 70.5092 197.382C70.704 197.497 70.8888 197.632 71.0637 197.787C71.2386 197.938 71.3916 198.113 71.5228 198.312C71.654 198.506 71.7573 198.723 71.8328 198.962C71.9084 199.2 71.9461 199.458 71.9461 199.737C71.9461 200.202 71.8368 200.619 71.6182 200.989C71.4035 201.354 71.0935 201.664 70.6881 201.919C70.2866 202.169 69.7977 202.362 69.2213 202.497C68.649 202.632 68.007 202.7 67.2955 202.7C66.584 202.7 65.9401 202.632 65.3637 202.497C64.7914 202.362 64.3025 202.169 63.897 201.919C63.4956 201.664 63.1855 201.354 62.9669 200.989C62.7523 200.619 62.6449 200.202 62.6449 199.737ZM65.1908 195.885C65.1908 196.032 65.2266 196.171 65.2982 196.302C65.3737 196.43 65.4929 196.543 65.6559 196.642C65.8228 196.738 66.0395 196.813 66.3058 196.869C66.5761 196.924 66.906 196.952 67.2955 196.952C67.6851 196.952 68.013 196.924 68.2793 196.869C68.5496 196.813 68.7662 196.738 68.9292 196.642C69.0961 196.543 69.2154 196.43 69.2869 196.302C69.3625 196.171 69.4002 196.032 69.4002 195.885C69.4002 195.738 69.3625 195.601 69.2869 195.474C69.2154 195.342 69.0961 195.229 68.9292 195.134C68.7662 195.034 68.5496 194.957 68.2793 194.901C68.013 194.846 67.6851 194.818 67.2955 194.818C66.906 194.818 66.5761 194.846 66.3058 194.901C66.0395 194.957 65.8228 195.034 65.6559 195.134C65.4929 195.229 65.3737 195.342 65.2982 195.474C65.2266 195.601 65.1908 195.738 65.1908 195.885ZM64.535 199.647C64.535 199.85 64.5926 200.037 64.7079 200.208C64.8271 200.375 65.002 200.518 65.2326 200.637C65.4631 200.756 65.7513 200.85 66.0971 200.917C66.4429 200.985 66.8424 201.019 67.2955 201.019C67.7487 201.019 68.1481 200.985 68.4939 200.917C68.8398 200.85 69.1279 200.756 69.3585 200.637C69.589 200.518 69.7619 200.375 69.8772 200.208C69.9964 200.037 70.0561 199.85 70.0561 199.647C70.0561 199.445 69.9984 199.26 69.8832 199.093C69.7719 198.922 69.6009 198.777 69.3704 198.657C69.1438 198.538 68.8576 198.445 68.5118 198.377C68.166 198.31 67.7606 198.276 67.2955 198.276C66.8305 198.276 66.425 198.31 66.0792 198.377C65.7334 198.445 65.4452 198.538 65.2147 198.657C64.9881 198.777 64.8172 198.922 64.7019 199.093C64.5906 199.26 64.535 199.445 64.535 199.647ZM75.3565 200.422C75.5275 200.522 75.7183 200.609 75.9289 200.685C76.1396 200.76 76.3562 200.824 76.5788 200.875C76.8054 200.923 77.0319 200.961 77.2585 200.989C77.4891 201.013 77.7077 201.025 77.9144 201.025C78.3755 201.025 78.7908 200.965 79.1605 200.846C79.5341 200.726 79.8561 200.557 80.1264 200.339C80.3967 200.12 80.6113 199.86 80.7703 199.558C80.9333 199.252 81.0346 198.914 81.0744 198.544C80.8677 198.707 80.6391 198.848 80.3887 198.968C80.1383 199.087 79.872 199.186 79.5898 199.266C79.3115 199.341 79.0234 199.399 78.7252 199.439C78.4311 199.474 78.135 199.492 77.8369 199.492C77.2565 199.492 76.7279 199.423 76.2509 199.284C75.7779 199.144 75.3724 198.944 75.0346 198.681C74.6967 198.419 74.4344 198.101 74.2476 197.727C74.0647 197.35 73.9733 196.922 73.9733 196.445C73.9733 195.976 74.0647 195.541 74.2476 195.14C74.4344 194.738 74.7086 194.39 75.0704 194.096C75.4321 193.798 75.8812 193.566 76.4178 193.399C76.9544 193.228 77.5765 193.142 78.284 193.142C78.9717 193.142 79.5997 193.23 80.1681 193.405C80.7365 193.58 81.2234 193.852 81.6289 194.222C82.0343 194.591 82.3483 195.062 82.5709 195.635C82.7975 196.203 82.9108 196.883 82.9108 197.674C82.9108 198.52 82.7836 199.26 82.5292 199.892C82.2788 200.52 81.933 201.042 81.4917 201.46C81.0545 201.877 80.5378 202.189 79.9415 202.396C79.3453 202.603 78.7014 202.706 78.0098 202.706C77.7196 202.706 77.4175 202.688 77.1035 202.652C76.7935 202.616 76.4854 202.563 76.1793 202.491C75.8733 202.42 75.5771 202.33 75.291 202.223C75.0087 202.116 74.7504 201.992 74.5159 201.853L75.3565 200.422ZM75.8633 196.416C75.8633 196.61 75.9051 196.793 75.9885 196.964C76.072 197.135 76.2012 197.284 76.3761 197.411C76.555 197.535 76.7835 197.634 77.0618 197.709C77.34 197.781 77.6759 197.817 78.0694 197.817C78.3993 197.817 78.7113 197.791 79.0055 197.739C79.2996 197.688 79.5719 197.616 79.8223 197.525C80.0727 197.433 80.2993 197.326 80.502 197.203C80.7087 197.079 80.8856 196.944 81.0326 196.797C80.9372 196.145 80.6511 195.654 80.1741 195.325C79.6971 194.991 79.0711 194.824 78.296 194.824C77.9064 194.824 77.5606 194.863 77.2585 194.943C76.9564 195.022 76.702 195.134 76.4953 195.277C76.2887 195.416 76.1316 195.583 76.0243 195.778C75.917 195.972 75.8633 196.185 75.8633 196.416ZM85.1943 198.926L90.6439 193.256L92.5339 193.256L92.5339 198.926L94.5432 198.926L94.5432 200.583L92.5339 200.583L92.5339 202.575L90.6439 202.575L90.6439 200.583L85.1824 200.583L85.1943 198.926ZM90.6439 198.926L90.6439 195.647L87.46 198.926L90.6439 198.926ZM96.8804 200.357C97.3495 200.587 97.8503 200.756 98.3829 200.864C98.9195 200.967 99.4422 201.019 99.951 201.019C100.404 201.019 100.796 200.983 101.126 200.911C101.455 200.836 101.728 200.734 101.942 200.607C102.157 200.48 102.316 200.329 102.419 200.154C102.523 199.979 102.574 199.79 102.574 199.588C102.574 199.313 102.481 199.069 102.294 198.854C102.107 198.636 101.823 198.473 101.442 198.365C101.064 198.254 100.585 198.21 100.005 198.234C99.4283 198.258 98.7486 198.371 97.9656 198.574L97.9715 197.179L101.453 194.913L96.5227 194.913L96.5227 193.256L103.982 193.256L103.982 194.877L100.917 196.821C101.477 196.821 101.978 196.893 102.419 197.036C102.861 197.179 103.232 197.376 103.534 197.626C103.836 197.876 104.067 198.173 104.226 198.514C104.385 198.856 104.464 199.224 104.464 199.617C104.464 200.082 104.361 200.506 104.154 200.887C103.952 201.265 103.656 201.589 103.266 201.859C102.876 202.126 102.4 202.332 101.835 202.479C101.275 202.626 100.639 202.7 99.9272 202.7C99.1719 202.7 98.4743 202.62 97.8344 202.461C97.1944 202.298 96.5863 202.074 96.0099 201.788L96.8804 200.357Z" fill="#D9D9D9"/>
<path opacity="0.5" d="M313.308 28.3752L312.352 28.3752C312.296 28.1003 312.197 27.8587 312.055 27.6506C311.917 27.4425 311.747 27.2677 311.546 27.1264C311.349 26.9825 311.129 26.8746 310.887 26.8026C310.646 26.7307 310.394 26.6947 310.132 26.6947C309.654 26.6947 309.221 26.8155 308.833 27.057C308.448 27.2986 308.14 27.6545 307.912 28.1247C307.686 28.5949 307.573 29.1718 307.573 29.8553C307.573 30.5388 307.686 31.1157 307.912 31.586C308.14 32.0562 308.448 32.4121 308.833 32.6536C309.221 32.8952 309.654 33.0159 310.132 33.0159C310.394 33.0159 310.646 32.98 310.887 32.908C311.129 32.8361 311.349 32.7294 311.546 32.5881C311.747 32.4442 311.917 32.2682 312.055 32.0601C312.197 31.8493 312.296 31.6078 312.352 31.3354L313.308 31.3354C313.236 31.7389 313.105 32.0999 312.915 32.4185C312.725 32.7371 312.488 33.0082 312.206 33.2318C311.923 33.4528 311.606 33.6211 311.254 33.7367C310.904 33.8524 310.53 33.9102 310.132 33.9102C309.459 33.9102 308.86 33.7457 308.336 33.4168C307.812 33.0879 307.399 32.6202 307.099 32.0138C306.798 31.4074 306.648 30.6879 306.648 29.8553C306.648 29.0228 306.798 28.3033 307.099 27.6969C307.399 27.0904 307.812 26.6228 308.336 26.2939C308.86 25.9649 309.459 25.8005 310.132 25.8005C310.53 25.8005 310.904 25.8583 311.254 25.9739C311.606 26.0896 311.923 26.2592 312.206 26.4827C312.488 26.7037 312.725 26.9735 312.915 27.2921C313.105 27.6082 313.236 27.9692 313.308 28.3752ZM314.729 33.8022L314.729 27.8819L315.608 27.8819L315.608 28.7761L315.67 28.7761C315.778 28.4832 315.973 28.2455 316.256 28.063C316.538 27.8806 316.857 27.7894 317.212 27.7894C317.278 27.7894 317.362 27.7907 317.462 27.7932C317.562 27.7958 317.638 27.7996 317.689 27.8048L317.689 28.7298C317.659 28.7221 317.588 28.7106 317.477 28.6952C317.37 28.6772 317.255 28.6682 317.134 28.6682C316.847 28.6682 316.59 28.7286 316.364 28.8493C316.14 28.9675 315.963 29.132 315.832 29.3427C315.703 29.5508 315.639 29.7885 315.639 30.0558L315.639 33.8022L314.729 33.8022ZM321.07 33.9256C320.499 33.9256 320.007 33.7997 319.594 33.5479C319.182 33.2935 318.865 32.9389 318.642 32.484C318.421 32.0266 318.31 31.4947 318.31 30.8883C318.31 30.2819 318.421 29.7474 318.642 29.2849C318.865 28.8198 319.176 28.4575 319.574 28.1979C319.975 27.9358 320.443 27.8048 320.977 27.8048C321.286 27.8048 321.59 27.8562 321.891 27.959C322.191 28.0617 322.465 28.2288 322.712 28.46C322.958 28.6887 323.155 28.9919 323.301 29.3697C323.448 29.7474 323.521 30.2125 323.521 30.765L323.521 31.1504L318.958 31.1504L318.958 30.3641L322.596 30.3641C322.596 30.0301 322.529 29.732 322.396 29.4699C322.265 29.2078 322.077 29.0009 321.833 28.8493C321.591 28.6977 321.306 28.6219 320.977 28.6219C320.615 28.6219 320.301 28.7119 320.037 28.8917C319.775 29.069 319.573 29.3003 319.432 29.5855C319.29 29.8707 319.22 30.1765 319.22 30.5029L319.22 31.0271C319.22 31.4742 319.297 31.8532 319.451 32.1641C319.608 32.4725 319.825 32.7076 320.102 32.8695C320.38 33.0288 320.702 33.1085 321.07 33.1085C321.309 33.1085 321.525 33.075 321.717 33.0082C321.913 32.9389 322.081 32.8361 322.222 32.6999C322.364 32.5611 322.473 32.389 322.55 32.1834L323.429 32.4301C323.336 32.7282 323.181 32.9903 322.962 33.2164C322.744 33.4399 322.474 33.6147 322.153 33.7406C321.832 33.8639 321.471 33.9256 321.07 33.9256ZM327.14 33.9256C326.647 33.9256 326.212 33.801 325.834 33.5517C325.456 33.2999 325.161 32.9453 324.947 32.4879C324.734 32.0279 324.627 31.4845 324.627 30.8575C324.627 30.2356 324.734 29.696 324.947 29.2386C325.161 28.7812 325.457 28.4279 325.838 28.1787C326.218 27.9294 326.657 27.8048 327.156 27.8048C327.541 27.8048 327.846 27.869 328.069 27.9975C328.296 28.1234 328.468 28.2673 328.586 28.4292C328.707 28.5885 328.8 28.7196 328.867 28.8223L328.944 28.8223L328.944 25.9084L329.854 25.9084L329.854 33.8022L328.975 33.8022L328.975 32.8926L328.867 32.8926C328.8 33.0005 328.705 33.1367 328.582 33.3012C328.459 33.4631 328.283 33.6082 328.054 33.7367C327.825 33.8626 327.521 33.9256 327.14 33.9256ZM327.264 33.1085C327.629 33.1085 327.937 33.0134 328.189 32.8232C328.441 32.6305 328.632 32.3646 328.763 32.0254C328.894 31.6836 328.96 31.2892 328.96 30.8421C328.96 30.4001 328.896 30.0134 328.767 29.6819C328.639 29.3478 328.448 29.0883 328.197 28.9033C327.945 28.7157 327.634 28.6219 327.264 28.6219C326.878 28.6219 326.557 28.7208 326.3 28.9187C326.046 29.114 325.854 29.38 325.726 29.7166C325.6 30.0506 325.537 30.4258 325.537 30.8421C325.537 31.2635 325.601 31.6463 325.73 31.9907C325.861 32.3324 326.054 32.6048 326.308 32.8078C326.565 33.0082 326.884 33.1085 327.264 33.1085ZM331.646 33.8022L331.646 27.8819L332.556 27.8819L332.556 33.8022L331.646 33.8022ZM332.109 26.8951C331.932 26.8951 331.779 26.8348 331.65 26.714C331.524 26.5932 331.461 26.448 331.461 26.2784C331.461 26.1088 331.524 25.9637 331.65 25.8429C331.779 25.7221 331.932 25.6617 332.109 25.6617C332.286 25.6617 332.438 25.7221 332.564 25.8429C332.692 25.9637 332.756 26.1088 332.756 26.2784C332.756 26.448 332.692 26.5932 332.564 26.714C332.438 26.8348 332.286 26.8951 332.109 26.8951ZM336.797 27.8819L336.797 28.6528L333.729 28.6528L333.729 27.8819L336.797 27.8819ZM334.623 26.4634L335.532 26.4634L335.532 32.1063C335.532 32.3633 335.57 32.556 335.644 32.6845C335.721 32.8104 335.819 32.8952 335.937 32.9389C336.058 32.98 336.185 33.0005 336.319 33.0005C336.419 33.0005 336.501 32.9954 336.565 32.9851C336.63 32.9723 336.681 32.962 336.72 32.9543L336.905 33.7714C336.843 33.7945 336.757 33.8177 336.646 33.8408C336.536 33.8665 336.396 33.8793 336.226 33.8793C335.969 33.8793 335.718 33.8241 335.471 33.7136C335.227 33.6031 335.024 33.4348 334.862 33.2087C334.703 32.9825 334.623 32.6973 334.623 32.353L334.623 26.4634ZM347.693 28.3752L346.737 28.3752C346.681 28.1003 346.582 27.8587 346.44 27.6506C346.302 27.4425 346.132 27.2677 345.932 27.1264C345.734 26.9825 345.514 26.8746 345.273 26.8026C345.031 26.7307 344.779 26.6947 344.517 26.6947C344.039 26.6947 343.606 26.8155 343.218 27.057C342.833 27.2986 342.526 27.6545 342.297 28.1247C342.071 28.5949 341.958 29.1718 341.958 29.8553C341.958 30.5388 342.071 31.1157 342.297 31.586C342.526 32.0562 342.833 32.4121 343.218 32.6536C343.606 32.8952 344.039 33.0159 344.517 33.0159C344.779 33.0159 345.031 32.98 345.273 32.908C345.514 32.8361 345.734 32.7294 345.932 32.5881C346.132 32.4442 346.302 32.2682 346.44 32.0601C346.582 31.8493 346.681 31.6078 346.737 31.3354L347.693 31.3354C347.621 31.7389 347.49 32.0999 347.3 32.4185C347.11 32.7371 346.873 33.0082 346.591 33.2318C346.308 33.4528 345.991 33.6211 345.639 33.7367C345.289 33.8524 344.915 33.9102 344.517 33.9102C343.844 33.9102 343.245 33.7457 342.721 33.4168C342.197 33.0879 341.784 32.6202 341.484 32.0138C341.183 31.4074 341.033 30.6879 341.033 29.8553C341.033 29.0228 341.183 28.3033 341.484 27.6969C341.784 27.0904 342.197 26.6228 342.721 26.2939C343.245 25.9649 343.844 25.8005 344.517 25.8005C344.915 25.8005 345.289 25.8583 345.639 25.9739C345.991 26.0896 346.308 26.2592 346.591 26.4827C346.873 26.7037 347.11 26.9735 347.3 27.2921C347.49 27.6082 347.621 27.9692 347.693 28.3752ZM350.857 33.941C350.482 33.941 350.141 33.8703 349.835 33.729C349.529 33.5851 349.287 33.3783 349.107 33.1085C348.927 32.8361 348.837 32.5072 348.837 32.1217C348.837 31.7825 348.904 31.5076 349.037 31.2969C349.171 31.0836 349.35 30.9166 349.573 30.7958C349.797 30.675 350.043 30.5851 350.313 30.526C350.586 30.4643 350.859 30.4155 351.134 30.3795C351.494 30.3333 351.786 30.2986 352.009 30.2755C352.235 30.2498 352.4 30.2074 352.503 30.1483C352.608 30.0892 352.661 29.9864 352.661 29.8399L352.661 29.8091C352.661 29.4288 352.556 29.1333 352.348 28.9226C352.143 28.7119 351.831 28.6065 351.412 28.6065C350.977 28.6065 350.637 28.7016 350.39 28.8917C350.144 29.0819 349.97 29.2849 349.87 29.5007L349.007 29.1924C349.161 28.8326 349.366 28.5525 349.623 28.3521C349.883 28.1491 350.165 28.0078 350.471 27.9281C350.78 27.8459 351.083 27.8048 351.381 27.8048C351.571 27.8048 351.789 27.8279 352.036 27.8742C352.285 27.9178 352.526 28.0091 352.757 28.1478C352.991 28.2866 353.185 28.496 353.339 28.7761C353.493 29.0562 353.57 29.4313 353.57 29.9016L353.57 33.8022L352.661 33.8022L352.661 33.0005L352.614 33.0005C352.553 33.129 352.45 33.2665 352.306 33.413C352.162 33.5594 351.971 33.684 351.732 33.7868C351.493 33.8896 351.201 33.941 350.857 33.941ZM350.995 33.1239C351.355 33.1239 351.658 33.0532 351.905 32.9119C352.154 32.7706 352.342 32.5881 352.468 32.3646C352.596 32.141 352.661 31.9059 352.661 31.6592L352.661 30.8266C352.622 30.8729 352.537 30.9153 352.406 30.9538C352.278 30.9898 352.129 31.0219 351.959 31.0502C351.792 31.0759 351.629 31.099 351.47 31.1196C351.313 31.1376 351.186 31.153 351.088 31.1658C350.852 31.1967 350.631 31.2468 350.425 31.3162C350.222 31.383 350.058 31.4845 349.932 31.6207C349.808 31.7543 349.747 31.9367 349.747 32.168C349.747 32.484 349.864 32.723 350.097 32.8849C350.334 33.0442 350.633 33.1239 350.995 33.1239ZM355.23 33.8022L355.23 27.8819L356.109 27.8819L356.109 28.7761L356.171 28.7761C356.279 28.4832 356.474 28.2455 356.757 28.063C357.039 27.8806 357.358 27.7894 357.713 27.7894C357.78 27.7894 357.863 27.7907 357.963 27.7932C358.063 27.7958 358.139 27.7996 358.191 27.8048L358.191 28.7298C358.16 28.7221 358.089 28.7106 357.979 28.6952C357.871 28.6772 357.756 28.6682 357.636 28.6682C357.348 28.6682 357.091 28.7286 356.865 28.8493C356.641 28.9675 356.464 29.132 356.333 29.3427C356.204 29.5508 356.14 29.7885 356.14 30.0558L356.14 33.8022L355.23 33.8022ZM361.324 33.9256C360.831 33.9256 360.395 33.801 360.018 33.5517C359.64 33.2999 359.344 32.9453 359.131 32.4879C358.918 32.0279 358.811 31.4845 358.811 30.8575C358.811 30.2356 358.918 29.696 359.131 29.2386C359.344 28.7812 359.641 28.4279 360.021 28.1787C360.402 27.9294 360.841 27.8048 361.34 27.8048C361.725 27.8048 362.03 27.869 362.253 27.9975C362.479 28.1234 362.651 28.2673 362.77 28.4292C362.89 28.5885 362.984 28.7196 363.051 28.8223L363.128 28.8223L363.128 25.9084L364.038 25.9084L364.038 33.8022L363.159 33.8022L363.159 32.8926L363.051 32.8926C362.984 33.0005 362.889 33.1367 362.766 33.3012C362.642 33.4631 362.466 33.6082 362.238 33.7367C362.009 33.8626 361.705 33.9256 361.324 33.9256ZM361.448 33.1085C361.813 33.1085 362.121 33.0134 362.373 32.8232C362.625 32.6305 362.816 32.3646 362.947 32.0254C363.078 31.6836 363.144 31.2892 363.144 30.8421C363.144 30.4001 363.079 30.0134 362.951 29.6819C362.822 29.3478 362.632 29.0883 362.38 28.9033C362.129 28.7157 361.818 28.6219 361.448 28.6219C361.062 28.6219 360.741 28.7209 360.484 28.9187C360.23 29.114 360.038 29.38 359.91 29.7166C359.784 30.0506 359.721 30.4258 359.721 30.8421C359.721 31.2635 359.785 31.6463 359.914 31.9907C360.045 32.3324 360.237 32.6048 360.492 32.8078C360.749 33.0082 361.067 33.1085 361.448 33.1085Z" fill="white"/>
<rect x="22.5" y="17.5562" width="94" height="24" rx="12" stroke="#DBDBDB" stroke-opacity="0.4"/>
<path d="M34.2775 25.1623L35.3722 25.1623L37.5615 28.8471L37.654 28.8471L39.8433 25.1623L40.9379 25.1623L38.0857 29.803L38.0857 33.0562L37.1298 33.0562L37.1298 29.803L34.2775 25.1623ZM48.4637 29.1092C48.4637 29.9418 48.3134 30.6613 48.0127 31.2677C47.7121 31.8741 47.2996 32.3418 46.7754 32.6707C46.2512 32.9996 45.6525 33.1641 44.9793 33.1641C44.3061 33.1641 43.7073 32.9996 43.1831 32.6707C42.6589 32.3418 42.2465 31.8741 41.9459 31.2677C41.6452 30.6613 41.4949 29.9418 41.4949 29.1092C41.4949 28.2767 41.6452 27.5572 41.9459 26.9508C42.2465 26.3443 42.6589 25.8767 43.1831 25.5478C43.7073 25.2189 44.3061 25.0544 44.9793 25.0544C45.6525 25.0544 46.2512 25.2189 46.7754 25.5478C47.2996 25.8767 47.7121 26.3443 48.0127 26.9508C48.3134 27.5572 48.4637 28.2767 48.4637 29.1092ZM47.5386 29.1092C47.5386 28.4257 47.4243 27.8488 47.1956 27.3786C46.9694 26.9084 46.6624 26.5525 46.2744 26.3109C45.8889 26.0694 45.4572 25.9486 44.9793 25.9486C44.5013 25.9486 44.0684 26.0694 43.6804 26.3109C43.2949 26.5525 42.9878 26.9084 42.7591 27.3786C42.533 27.8488 42.42 28.4257 42.42 29.1092C42.42 29.7928 42.533 30.3696 42.7591 30.8399C42.9878 31.3101 43.2949 31.666 43.6804 31.9075C44.0684 32.1491 44.5013 32.2699 44.9793 32.2699C45.4572 32.2699 45.8889 32.1491 46.2744 31.9075C46.6624 31.666 46.9694 31.3101 47.1956 30.8399C47.4243 30.3696 47.5386 29.7928 47.5386 29.1092ZM55.2513 25.1623L56.2072 25.1623L56.2072 30.3889C56.2072 30.9285 56.08 31.4103 55.8256 31.8343C55.5738 32.2557 55.2179 32.5885 54.7579 32.8326C54.298 33.0741 53.7583 33.1949 53.1391 33.1949C52.5198 33.1949 51.9802 33.0741 51.5202 32.8326C51.0603 32.5885 50.7031 32.2557 50.4487 31.8343C50.1969 31.4103 50.071 30.9285 50.071 30.3889L50.071 25.1623L51.0269 25.1623L51.0269 30.3118C51.0269 30.6973 51.1117 31.0403 51.2812 31.3409C51.4508 31.639 51.6924 31.8741 52.0059 32.0463C52.3219 32.2159 52.6997 32.3007 53.1391 32.3007C53.5785 32.3007 53.9562 32.2159 54.2723 32.0463C54.5883 31.8741 54.8299 31.639 54.9969 31.3409C55.1665 31.0403 55.2513 30.6973 55.2513 30.3118L55.2513 25.1623ZM58.1161 33.0562L58.1161 25.1623L60.7833 25.1623C61.4 25.1623 61.9063 25.2677 62.302 25.4784C62.6977 25.6865 62.9906 25.973 63.1808 26.3379C63.3709 26.7028 63.466 27.1178 63.466 27.5829C63.466 28.048 63.3709 28.4604 63.1808 28.8202C62.9906 29.1799 62.699 29.4626 62.3058 29.6681C61.9127 29.8711 61.4103 29.9726 60.7988 29.9726L58.6403 29.9726L58.6403 29.1092L60.7679 29.1092C61.1893 29.1092 61.5285 29.0476 61.7855 28.9242C62.045 28.8009 62.2326 28.6262 62.3482 28.4C62.4664 28.1713 62.5255 27.899 62.5255 27.5829C62.5255 27.2668 62.4664 26.9906 62.3482 26.7542C62.23 26.5178 62.0412 26.3353 61.7816 26.2069C61.5221 26.0758 61.1791 26.0103 60.7525 26.0103L59.072 26.0103L59.072 33.0562L58.1161 33.0562ZM61.8317 29.5101L63.7744 33.0562L62.6643 33.0562L60.7525 29.5101L61.8317 29.5101ZM68.1115 33.0562L68.1115 25.1623L70.8713 25.1623C71.4212 25.1623 71.8747 25.2574 72.2319 25.4475C72.5891 25.6351 72.855 25.8882 73.0298 26.2069C73.2045 26.5229 73.2919 26.8737 73.2919 27.2591C73.2919 27.5983 73.2315 27.8784 73.1107 28.0994C72.9925 28.3204 72.8358 28.4951 72.6405 28.6236C72.4477 28.7521 72.2383 28.8471 72.0122 28.9088L72.0122 28.9859C72.2537 29.0013 72.4966 29.0861 72.7407 29.2403C72.9848 29.3945 73.1891 29.6155 73.3535 29.9032C73.518 30.191 73.6002 30.5431 73.6002 30.9594C73.6002 31.3551 73.5103 31.711 73.3304 32.027C73.1505 32.3431 72.8666 32.5936 72.4786 32.7786C72.0906 32.9636 71.5856 33.0562 70.9638 33.0562L68.1115 33.0562ZM69.0674 32.2082L70.9638 32.2082C71.5882 32.2082 72.0315 32.0874 72.2936 31.8459C72.5582 31.6018 72.6906 31.3063 72.6906 30.9594C72.6906 30.6921 72.6225 30.4454 72.4863 30.2193C72.3501 29.9906 72.1561 29.8082 71.9043 29.672C71.6525 29.5332 71.3544 29.4638 71.0101 29.4638L69.0674 29.4638L69.0674 32.2082ZM69.0674 28.6313L70.8405 28.6313C71.1283 28.6313 71.3878 28.5748 71.619 28.4617C71.8529 28.3486 72.0379 28.1893 72.1741 27.9837C72.3128 27.7782 72.3822 27.5366 72.3822 27.2591C72.3822 26.9122 72.2614 26.618 72.0199 26.3765C71.7784 26.1323 71.3955 26.0103 70.8713 26.0103L69.0674 26.0103L69.0674 28.6313ZM75.1709 33.0562L75.1709 25.1623L77.8381 25.1623C78.4548 25.1623 78.9611 25.2677 79.3568 25.4784C79.7525 25.6865 80.0454 25.973 80.2356 26.3379C80.4257 26.7028 80.5208 27.1178 80.5208 27.5829C80.5208 28.048 80.4257 28.4604 80.2356 28.8202C80.0454 29.1799 79.7538 29.4626 79.3606 29.6681C78.9675 29.8711 78.4651 29.9726 77.8536 29.9726L75.6951 29.9726L75.6951 29.1092L77.8227 29.1092C78.2441 29.1092 78.5833 29.0476 78.8403 28.9242C79.0998 28.8009 79.2874 28.6262 79.403 28.4C79.5212 28.1713 79.5803 27.899 79.5803 27.5829C79.5803 27.2668 79.5212 26.9906 79.403 26.7542C79.2848 26.5178 79.096 26.3353 78.8364 26.2069C78.5769 26.0758 78.2339 26.0103 77.8073 26.0103L76.1268 26.0103L76.1268 33.0562L75.1709 33.0562ZM78.8865 29.5101L80.8292 33.0562L79.7191 33.0562L77.8073 29.5101L78.8865 29.5101ZM82.4374 33.0562L81.4353 33.0562L84.3338 25.1623L85.3205 25.1623L88.219 33.0562L87.2169 33.0562L84.858 26.4112L84.7963 26.4112L82.4374 33.0562ZM82.8074 29.9726L86.8469 29.9726L86.8469 30.8206L82.8074 30.8206L82.8074 29.9726ZM95.7081 25.1623L95.7081 33.0562L94.7831 33.0562L90.4816 26.8583L90.4045 26.8583L90.4045 33.0562L89.4486 33.0562L89.4486 25.1623L90.3736 25.1623L94.6906 31.3756L94.7677 31.3756L94.7677 25.1623L95.7081 25.1623ZM100.057 33.0562L97.6209 33.0562L97.6209 25.1623L100.165 25.1623C100.931 25.1623 101.586 25.3204 102.131 25.6364C102.675 25.9499 103.093 26.4009 103.383 26.9893C103.674 27.5752 103.819 28.2767 103.819 29.0938C103.819 29.9161 103.672 30.624 103.379 31.2176C103.086 31.8086 102.66 32.2634 102.1 32.5821C101.54 32.8981 100.859 33.0562 100.057 33.0562ZM98.5768 32.2082L99.9952 32.2082C100.648 32.2082 101.189 32.0823 101.618 31.8305C102.047 31.5786 102.367 31.2202 102.578 30.7551C102.788 30.29 102.894 29.7362 102.894 29.0938C102.894 28.4566 102.79 27.9079 102.582 27.448C102.373 26.9855 102.062 26.6309 101.649 26.3842C101.235 26.1349 100.72 26.0103 100.103 26.0103L98.5768 26.0103L98.5768 32.2082Z" fill="white"/>
<path d="M358.436 197.903C357.234 198.27 355.564 198.088 354.498 196.491L353.802 195.446L353.2 194.543L354.498 192.597C355.562 191 357.225 190.815 358.436 191.184C359.642 191.548 360.93 192.623 360.93 194.544C360.93 196.464 359.642 197.538 358.436 197.903ZM347.011 196.491C345.946 198.087 344.28 198.271 343.07 197.903C341.866 197.538 340.578 196.464 340.578 194.544C340.578 192.623 341.866 191.548 343.072 191.184C343.403 191.083 343.769 191.023 344.148 191.023C345.148 191.023 346.237 191.437 347.011 192.597L348.309 194.543L347.011 196.491ZM359.615 187.288C356.345 186.3 353.007 187.496 351.112 190.339L350.754 190.874L350.398 190.339C348.5 187.496 345.168 186.292 341.891 187.289C338.622 188.278 336.508 191.127 336.508 194.544C336.508 197.961 338.622 200.808 341.891 201.798C345.161 202.792 348.499 201.593 350.398 198.748L350.754 198.213L351.112 198.748C351.191 198.868 351.273 198.984 351.358 199.097C352.818 201.058 355.003 202.141 357.338 202.141C358.088 202.141 358.853 202.03 359.617 201.8C362.886 200.808 365 197.961 365 194.544C365 191.126 362.886 188.278 359.615 187.288Z" fill="white"/>
<path d="M353.802 195.446L351.357 199.097C351.273 198.984 351.191 198.867 351.112 198.748L350.754 198.212L353.2 194.543L353.802 195.446Z" fill="#BBBCBD"/>
<path d="M350.753 190.873L348.309 194.524C348.224 194.411 348.142 194.295 348.063 194.175L347.705 193.64L350.151 189.97L350.753 190.873Z" fill="#BBBCBD"/>
<defs>
<linearGradient id="paint0_linear_720_867" x1="690.865" y1="192" x2="384" y2="192" gradientUnits="userSpaceOnUse">
<stop stop-color="#666969"/>
<stop offset="1" stop-color="#EC991D"/>
</linearGradient>
<linearGradient id="paint1_linear_720_867" x1="68.6147" y1="114.287" x2="28.1328" y2="147.99" gradientUnits="userSpaceOnUse">
<stop stop-color="#CDCDCD"/>
<stop offset="0.447917" stop-color="#E8E8E8"/>
<stop offset="1" stop-color="#B4B4B4"/>
</linearGradient>
<linearGradient id="paint2_linear_720_867" x1="68.6147" y1="114.286" x2="28.1328" y2="147.99" gradientUnits="userSpaceOnUse">
<stop stop-color="#CDCDCD"/>
<stop offset="0.447917" stop-color="#E8E8E8"/>
<stop offset="1" stop-color="#B4B4B4"/>
</linearGradient>
</defs>
</svg>
