<svg width="384" height="224" viewBox="0 0 384 224" fill="none" xmlns="http://www.w3.org/2000/svg">
<rect x="384" width="224" height="384" rx="12" transform="rotate(90 384 0)" fill="url(#paint0_linear_720_901)"/>
<mask id="mask0_720_901" style="mask-type:alpha" maskUnits="userSpaceOnUse" x="21" y="111" width="52" height="33">
<rect x="21.668" y="111.944" width="50.558" height="31.2304" rx="3.15392" fill="url(#paint1_linear_720_901)"/>
</mask>
<g mask="url(#mask0_720_901)">
<rect x="21.668" y="111.944" width="50.558" height="31.2304" rx="3.15392" fill="url(#paint2_linear_720_901)"/>
<path fill-rule="evenodd" clip-rule="evenodd" d="M33.3413 121.598L21.668 121.598L21.668 121.286L33.468 121.286L38.0993 124.49L38.0993 133.218L34.3823 136.433L21.668 136.433L21.668 136.121L34.2327 136.121L37.7382 133.089L37.7382 124.64L33.3413 121.598Z" fill="#868686"/>
<path fill-rule="evenodd" clip-rule="evenodd" d="M59.6696 117.695L73.1289 117.695L73.1289 117.383L59.5035 117.383L53.9891 122.947L53.9891 133.212L59.5035 138.776L73.1289 138.776L73.1289 138.463L59.6696 138.463L54.3502 133.096L54.3502 123.062L59.6696 117.695Z" fill="#868686"/>
<path fill-rule="evenodd" clip-rule="evenodd" d="M45.4791 116.704L36.1133 110.668L36.33 110.383L45.8569 116.523L45.8569 122.527L54.1697 122.527L54.1697 122.875L45.4791 122.875L45.4791 116.704Z" fill="#868686"/>
<path fill-rule="evenodd" clip-rule="evenodd" d="M37.918 132.997L46.2239 132.997L46.2239 138.697L38.9291 143.428L38.7125 143.178L45.8628 138.54L45.8628 133.309L37.918 133.309L37.918 132.997Z" fill="#868686"/>
<path fill-rule="evenodd" clip-rule="evenodd" d="M54.1699 132.997L45.864 132.997L45.864 138.697L53.1588 143.428L53.3754 143.178L46.2251 138.54L46.2251 133.309L54.1699 133.309L54.1699 132.997Z" fill="#868686"/>
</g>
<rect x="21.9308" y="112.206" width="50.0323" height="30.7048" rx="2.89109" stroke="white" stroke-width="0.525653"/>
<path d="M23.1567 198.174C23.1567 197.327 23.2819 196.59 23.5323 195.962C23.7867 195.33 24.1325 194.805 24.5697 194.388C25.011 193.971 25.5297 193.659 26.1259 193.452C26.7221 193.245 27.3661 193.142 28.0577 193.142C28.3479 193.142 28.642 193.158 28.9401 193.19C29.2422 193.217 29.5383 193.263 29.8285 193.327C30.1187 193.39 30.3989 193.474 30.6692 193.577C30.9434 193.676 31.1978 193.796 31.4323 193.935L30.5917 195.366C30.4168 195.266 30.2299 195.183 30.0312 195.115C29.8364 195.044 29.6337 194.988 29.4231 194.948C29.2124 194.905 28.9997 194.873 28.7851 194.853C28.5704 194.833 28.3598 194.823 28.1531 194.823C27.692 194.823 27.2746 194.883 26.901 195.002C26.5313 195.121 26.2114 195.29 25.9411 195.509C25.6708 195.728 25.4542 195.99 25.2912 196.296C25.1322 196.598 25.0328 196.934 24.9931 197.304C25.1998 197.141 25.4283 196.999 25.6787 196.88C25.9291 196.761 26.1935 196.664 26.4717 196.588C26.7539 196.509 27.0421 196.451 27.3363 196.415C27.6344 196.375 27.9325 196.356 28.2306 196.356C28.8109 196.356 29.3376 196.425 29.8106 196.564C30.2876 196.703 30.695 196.904 31.0329 197.166C31.3707 197.429 31.6311 197.749 31.8139 198.126C32.0007 198.5 32.0942 198.925 32.0942 199.402C32.0942 199.871 32.0007 200.307 31.8139 200.708C31.6311 201.109 31.3588 201.459 30.9971 201.757C30.6354 202.052 30.1862 202.284 29.6496 202.455C29.113 202.622 28.4909 202.705 27.7834 202.705C27.0958 202.705 26.4677 202.618 25.8993 202.443C25.3309 202.268 24.844 201.996 24.4386 201.626C24.0331 201.257 23.7171 200.788 23.4906 200.219C23.268 199.647 23.1567 198.965 23.1567 198.174ZM25.0348 199.051C25.1302 199.702 25.4164 200.195 25.8934 200.529C26.3704 200.859 26.9964 201.024 27.7715 201.024C28.161 201.024 28.5068 200.984 28.8089 200.905C29.111 200.825 29.3654 200.716 29.5721 200.577C29.7788 200.434 29.9358 200.265 30.0431 200.07C30.1505 199.875 30.2041 199.663 30.2041 199.432C30.2041 199.237 30.1624 199.054 30.0789 198.884C29.9954 198.713 29.8643 198.566 29.6854 198.442C29.5105 198.315 29.2839 198.216 29.0057 198.144C28.7275 198.069 28.3916 198.031 27.9981 198.031C27.6682 198.031 27.3561 198.057 27.062 198.108C26.7678 198.16 26.4956 198.232 26.2452 198.323C25.9947 198.415 25.7662 198.522 25.5595 198.645C25.3568 198.768 25.1819 198.903 25.0348 199.051ZM33.9425 197.894C33.9425 197.143 34.0558 196.469 34.2823 195.873C34.5089 195.276 34.8309 194.772 35.2482 194.358C35.6656 193.941 36.1724 193.623 36.7686 193.404C37.3648 193.186 38.0326 193.076 38.7719 193.076C39.5112 193.076 40.179 193.186 40.7753 193.404C41.3715 193.623 41.8783 193.941 42.2956 194.358C42.713 194.772 43.035 195.276 43.2615 195.873C43.4881 196.469 43.6014 197.143 43.6014 197.894C43.6014 198.645 43.4881 199.319 43.2615 199.915C43.035 200.511 42.713 201.016 42.2956 201.429C41.8783 201.843 41.3715 202.159 40.7753 202.377C40.179 202.596 39.5112 202.705 38.7719 202.705C38.0326 202.705 37.3648 202.596 36.7686 202.377C36.1724 202.159 35.6656 201.843 35.2482 201.429C34.8309 201.016 34.5089 200.511 34.2823 199.915C34.0558 199.319 33.9425 198.645 33.9425 197.894ZM35.8325 197.888C35.8325 198.397 35.9001 198.846 36.0352 199.235C36.1744 199.625 36.3711 199.953 36.6255 200.219C36.8799 200.481 37.1879 200.682 37.5497 200.821C37.9114 200.956 38.3188 201.024 38.7719 201.024C39.2251 201.024 39.6325 200.956 39.9942 200.821C40.3559 200.682 40.664 200.481 40.9184 200.219C41.1727 199.953 41.3675 199.625 41.5027 199.235C41.6418 198.846 41.7113 198.397 41.7113 197.888C41.7113 197.383 41.6418 196.938 41.5027 196.552C41.3675 196.163 41.1727 195.835 40.9184 195.569C40.664 195.302 40.3559 195.101 39.9942 194.966C39.6325 194.827 39.2251 194.758 38.7719 194.758C38.3188 194.758 37.9114 194.827 37.5497 194.966C37.1879 195.101 36.8799 195.302 36.6255 195.569C36.3711 195.835 36.1744 196.163 36.0352 196.552C35.9001 196.938 35.8325 197.383 35.8325 197.888ZM45.5391 198.174C45.5391 197.327 45.6643 196.59 45.9148 195.962C46.1691 195.33 46.515 194.805 46.9522 194.388C47.3934 193.971 47.9121 193.659 48.5083 193.452C49.1046 193.245 49.7485 193.142 50.4401 193.142C50.7303 193.142 51.0244 193.158 51.3225 193.19C51.6246 193.217 51.9208 193.263 52.2109 193.327C52.5011 193.39 52.7813 193.474 53.0516 193.577C53.3259 193.676 53.5803 193.796 53.8148 193.935L52.9741 195.366C52.7992 195.266 52.6124 195.183 52.4136 195.115C52.2189 195.044 52.0162 194.988 51.8055 194.948C51.5948 194.905 51.3822 194.873 51.1675 194.853C50.9529 194.833 50.7422 194.823 50.5355 194.823C50.0744 194.823 49.6571 194.883 49.2834 195.002C48.9138 195.121 48.5938 195.29 48.3235 195.509C48.0532 195.728 47.8366 195.99 47.6736 196.296C47.5146 196.598 47.4153 196.934 47.3755 197.304C47.5822 197.141 47.8108 196.999 48.0612 196.88C48.3116 196.761 48.5759 196.664 48.8542 196.588C49.1364 196.509 49.4246 196.451 49.7187 196.415C50.0168 196.375 50.3149 196.356 50.613 196.356C51.1934 196.356 51.72 196.425 52.193 196.564C52.67 196.703 53.0775 196.904 53.4153 197.166C53.7532 197.429 54.0135 197.749 54.1964 198.126C54.3832 198.5 54.4766 198.925 54.4766 199.402C54.4766 199.871 54.3832 200.307 54.1964 200.708C54.0135 201.109 53.7413 201.459 53.3795 201.757C53.0178 202.052 52.5687 202.284 52.0321 202.455C51.4955 202.622 50.8734 202.705 50.1659 202.705C49.4782 202.705 48.8502 202.618 48.2818 202.443C47.7134 202.268 47.2265 201.996 46.821 201.626C46.4156 201.257 46.0996 200.788 45.873 200.219C45.6504 199.647 45.5391 198.965 45.5391 198.174ZM47.4172 199.051C47.5126 199.702 47.7988 200.195 48.2758 200.529C48.7528 200.859 49.3788 201.024 50.1539 201.024C50.5435 201.024 50.8893 200.984 51.1914 200.905C51.4935 200.825 51.7479 200.716 51.9546 200.577C52.1612 200.434 52.3183 200.265 52.4256 200.07C52.5329 199.875 52.5866 199.663 52.5866 199.432C52.5866 199.237 52.5448 199.054 52.4613 198.884C52.3779 198.713 52.2467 198.566 52.0678 198.442C51.8929 198.315 51.6664 198.216 51.3881 198.144C51.1099 198.069 50.774 198.031 50.3805 198.031C50.0506 198.031 49.7386 198.057 49.4444 198.108C49.1503 198.16 48.878 198.232 48.6276 198.323C48.3772 198.415 48.1486 198.522 47.9419 198.645C47.7392 198.768 47.5643 198.903 47.4172 199.051ZM56.7125 198.174C56.7125 197.327 56.8377 196.59 57.0881 195.962C57.3425 195.33 57.6883 194.805 58.1255 194.388C58.5667 193.971 59.0855 193.659 59.6817 193.452C60.2779 193.245 60.9218 193.142 61.6135 193.142C61.9036 193.142 62.1978 193.158 62.4959 193.19C62.798 193.217 63.0941 193.263 63.3843 193.327C63.6744 193.39 63.9547 193.474 64.2249 193.577C64.4992 193.676 64.7536 193.796 64.9881 193.935L64.1474 195.366C63.9725 195.266 63.7857 195.183 63.587 195.115C63.3922 195.044 63.1895 194.988 62.9788 194.948C62.7682 194.905 62.5555 194.873 62.3409 194.853C62.1262 194.833 61.9156 194.823 61.7089 194.823C61.2478 194.823 60.8304 194.883 60.4568 195.002C60.0871 195.121 59.7671 195.29 59.4968 195.509C59.2266 195.728 59.0099 195.99 58.847 196.296C58.688 196.598 58.5886 196.934 58.5488 197.304C58.7555 197.141 58.9841 196.999 59.2345 196.88C59.4849 196.761 59.7493 196.664 60.0275 196.588C60.3097 196.509 60.5979 196.451 60.892 196.415C61.1901 196.375 61.4883 196.356 61.7864 196.356C62.3667 196.356 62.8934 196.425 63.3664 196.564C63.8434 196.703 64.2508 196.904 64.5886 197.166C64.9265 197.429 65.1869 197.749 65.3697 198.126C65.5565 198.5 65.6499 198.925 65.6499 199.402C65.6499 199.871 65.5565 200.307 65.3697 200.708C65.1869 201.109 64.9146 201.459 64.5529 201.757C64.1912 202.052 63.742 202.284 63.2054 202.455C62.6688 202.622 62.0467 202.705 61.3392 202.705C60.6515 202.705 60.0235 202.618 59.4551 202.443C58.8867 202.268 58.3998 201.996 57.9944 201.626C57.5889 201.257 57.2729 200.788 57.0463 200.219C56.8238 199.647 56.7125 198.965 56.7125 198.174ZM58.5906 199.051C58.686 199.702 58.9722 200.195 59.4492 200.529C59.9261 200.859 60.5522 201.024 61.3273 201.024C61.7168 201.024 62.0626 200.984 62.3647 200.905C62.6668 200.825 62.9212 200.716 63.1279 200.577C63.3346 200.434 63.4916 200.265 63.5989 200.07C63.7062 199.875 63.7599 199.663 63.7599 199.432C63.7599 199.237 63.7182 199.054 63.6347 198.884C63.5512 198.713 63.42 198.566 63.2412 198.442C63.0663 198.315 62.8397 198.216 62.5615 198.144C62.2832 198.069 61.9474 198.031 61.5538 198.031C61.2239 198.031 60.9119 198.057 60.6178 198.108C60.3236 198.16 60.0513 198.232 59.8009 198.323C59.5505 198.415 59.322 198.522 59.1153 198.645C58.9125 198.768 58.7377 198.903 58.5906 199.051ZM68.0408 200.952L71.326 198.699C71.8189 198.361 72.2224 198.067 72.5364 197.816C72.8504 197.566 73.0968 197.343 73.2757 197.149C73.4546 196.95 73.5778 196.771 73.6454 196.612C73.7129 196.453 73.7467 196.294 73.7467 196.135C73.7467 195.952 73.709 195.781 73.6334 195.622C73.5579 195.463 73.4387 195.324 73.2757 195.205C73.1167 195.086 72.91 194.992 72.6556 194.925C72.4052 194.857 72.1051 194.823 71.7553 194.823C71.2465 194.823 70.7397 194.895 70.2349 195.038C69.7301 195.181 69.2154 195.41 68.6907 195.724L67.8202 194.293C68.4045 193.931 69.0365 193.649 69.7162 193.446C70.3999 193.243 71.1174 193.142 71.8686 193.142C72.5245 193.142 73.0929 193.221 73.5738 193.38C74.0588 193.535 74.4582 193.748 74.7722 194.018C75.0902 194.289 75.3267 194.603 75.4818 194.96C75.6368 195.318 75.7143 195.698 75.7143 196.099C75.7143 196.409 75.6626 196.705 75.5593 196.988C75.4559 197.27 75.2751 197.562 75.0167 197.864C74.7583 198.166 74.4085 198.492 73.9673 198.842C73.5301 199.188 72.9776 199.581 72.3098 200.022L70.9504 200.917L76.0541 200.917L76.0541 202.574L68.0408 202.574L68.0408 200.952ZM77.8965 200.917L80.0131 200.917L80.0131 195.115C79.7349 195.179 79.4666 195.262 79.2082 195.366C78.9538 195.469 78.7213 195.594 78.5106 195.741L77.5805 194.412C77.9223 194.197 78.2701 194.016 78.6239 193.869C78.9816 193.718 79.3413 193.599 79.7031 193.512C80.0687 193.42 80.4344 193.355 80.8001 193.315C81.1698 193.275 81.5375 193.255 81.9031 193.255L81.8972 193.267L81.9031 193.267L81.9031 200.917L83.9244 200.917L83.9244 202.574L77.8965 202.574L77.8965 200.917ZM85.3672 200.952L88.6525 198.699C89.1453 198.361 89.5488 198.067 89.8628 197.816C90.1768 197.566 90.4233 197.343 90.6021 197.149C90.781 196.95 90.9042 196.771 90.9718 196.612C91.0394 196.453 91.0731 196.294 91.0731 196.135C91.0731 195.952 91.0354 195.781 90.9599 195.622C90.8843 195.463 90.7651 195.324 90.6021 195.205C90.4431 195.086 90.2364 194.992 89.982 194.925C89.7316 194.857 89.4315 194.823 89.0817 194.823C88.573 194.823 88.0662 194.895 87.5614 195.038C87.0565 195.181 86.5418 195.41 86.0171 195.724L85.1466 194.293C85.7309 193.931 86.3629 193.649 87.0426 193.446C87.7263 193.243 88.4438 193.142 89.195 193.142C89.8509 193.142 90.4193 193.221 90.9002 193.38C91.3852 193.535 91.7846 193.748 92.0987 194.018C92.4166 194.289 92.6532 194.603 92.8082 194.96C92.9632 195.318 93.0407 195.698 93.0407 196.099C93.0407 196.409 92.989 196.705 92.8857 196.988C92.7823 197.27 92.6015 197.562 92.3431 197.864C92.0847 198.166 91.735 198.492 91.2937 198.842C90.8565 199.188 90.304 199.581 89.6362 200.022L88.2768 200.917L93.3805 200.917L93.3805 202.574L85.3672 202.574L85.3672 200.952ZM95.2229 200.917L97.3395 200.917L97.3395 195.115C97.0613 195.179 96.793 195.262 96.5346 195.366C96.2802 195.469 96.0477 195.594 95.837 195.741L94.9069 194.412C95.2487 194.197 95.5965 194.016 95.9503 193.869C96.308 193.718 96.6678 193.599 97.0295 193.512C97.3952 193.42 97.7608 193.355 98.1265 193.315C98.4962 193.275 98.8639 193.255 99.2296 193.255L99.2236 193.267L99.2296 193.267L99.2296 200.917L101.251 200.917L101.251 202.574L95.2229 202.574L95.2229 200.917Z" fill="#D9D9D9"/>
<path opacity="0.5" d="M313.308 28.3757L312.352 28.3757C312.296 28.1008 312.197 27.8592 312.055 27.6511C311.917 27.443 311.747 27.2682 311.546 27.1269C311.349 26.983 311.129 26.8751 310.887 26.8031C310.646 26.7312 310.394 26.6952 310.132 26.6952C309.654 26.6952 309.221 26.816 308.833 27.0575C308.448 27.2991 308.14 27.6549 307.912 28.1252C307.686 28.5954 307.573 29.1723 307.573 29.8558C307.573 30.5393 307.686 31.1162 307.912 31.5864C308.14 32.0567 308.448 32.4126 308.833 32.6541C309.221 32.8957 309.654 33.0164 310.132 33.0164C310.394 33.0164 310.646 32.9805 310.887 32.9085C311.129 32.8366 311.349 32.7299 311.546 32.5886C311.747 32.4447 311.917 32.2687 312.055 32.0605C312.197 31.8498 312.296 31.6083 312.352 31.3359L313.308 31.3359C313.236 31.7393 313.105 32.1004 312.915 32.419C312.725 32.7376 312.488 33.0087 312.206 33.2323C311.923 33.4533 311.606 33.6216 311.254 33.7372C310.904 33.8528 310.53 33.9107 310.132 33.9107C309.459 33.9107 308.86 33.7462 308.336 33.4173C307.812 33.0884 307.399 32.6207 307.099 32.0143C306.798 31.4079 306.648 30.6884 306.648 29.8558C306.648 29.0233 306.798 28.3038 307.099 27.6973C307.399 27.0909 307.812 26.6233 308.336 26.2943C308.86 25.9654 309.459 25.801 310.132 25.801C310.53 25.801 310.904 25.8588 311.254 25.9744C311.606 26.0901 311.923 26.2597 312.206 26.4832C312.488 26.7042 312.725 26.974 312.915 27.2926C313.105 27.6087 313.236 27.9697 313.308 28.3757ZM314.729 33.8027L314.729 27.8824L315.608 27.8824L315.608 28.7766L315.67 28.7766C315.778 28.4836 315.973 28.246 316.256 28.0635C316.538 27.8811 316.857 27.7899 317.212 27.7899C317.278 27.7899 317.362 27.7911 317.462 27.7937C317.562 27.7963 317.638 27.8001 317.689 27.8053L317.689 28.7303C317.659 28.7226 317.588 28.7111 317.477 28.6956C317.37 28.6777 317.255 28.6687 317.134 28.6687C316.847 28.6687 316.59 28.729 316.364 28.8498C316.14 28.968 315.963 29.1325 315.832 29.3432C315.703 29.5513 315.639 29.789 315.639 30.0562L315.639 33.8027L314.729 33.8027ZM321.07 33.9261C320.499 33.9261 320.007 33.8002 319.594 33.5483C319.182 33.294 318.865 32.9393 318.642 32.4845C318.421 32.0271 318.31 31.4952 318.31 30.8888C318.31 30.2824 318.421 29.7479 318.642 29.2854C318.865 28.8203 319.176 28.458 319.574 28.1984C319.975 27.9363 320.443 27.8053 320.977 27.8053C321.286 27.8053 321.59 27.8567 321.891 27.9594C322.191 28.0622 322.465 28.2293 322.712 28.4605C322.958 28.6892 323.155 28.9924 323.301 29.3702C323.448 29.7479 323.521 30.213 323.521 30.7655L323.521 31.1509L318.958 31.1509L318.958 30.3646L322.596 30.3646C322.596 30.0306 322.529 29.7325 322.396 29.4704C322.265 29.2083 322.077 29.0014 321.833 28.8498C321.591 28.6982 321.306 28.6224 320.977 28.6224C320.615 28.6224 320.301 28.7123 320.037 28.8922C319.775 29.0695 319.573 29.3008 319.432 29.586C319.29 29.8712 319.22 30.177 319.22 30.5034L319.22 31.0276C319.22 31.4747 319.297 31.8537 319.451 32.1646C319.608 32.473 319.825 32.7081 320.102 32.87C320.38 33.0293 320.702 33.1089 321.07 33.1089C321.309 33.1089 321.525 33.0755 321.717 33.0087C321.913 32.9393 322.081 32.8366 322.222 32.7004C322.364 32.5616 322.473 32.3895 322.55 32.1839L323.429 32.4306C323.336 32.7286 323.181 32.9907 322.962 33.2169C322.744 33.4404 322.474 33.6152 322.153 33.7411C321.832 33.8644 321.471 33.9261 321.07 33.9261ZM327.14 33.9261C326.647 33.9261 326.212 33.8015 325.834 33.5522C325.456 33.3004 325.161 32.9458 324.947 32.4884C324.734 32.0284 324.627 31.4849 324.627 30.858C324.627 30.2361 324.734 29.6965 324.947 29.2391C325.161 28.7817 325.457 28.4284 325.838 28.1792C326.218 27.9299 326.657 27.8053 327.156 27.8053C327.541 27.8053 327.846 27.8695 328.069 27.998C328.296 28.1239 328.468 28.2678 328.586 28.4297C328.707 28.589 328.8 28.7201 328.867 28.8228L328.944 28.8228L328.944 25.9089L329.854 25.9089L329.854 33.8027L328.975 33.8027L328.975 32.8931L328.867 32.8931C328.8 33.001 328.705 33.1372 328.582 33.3017C328.459 33.4635 328.283 33.6087 328.054 33.7372C327.825 33.8631 327.521 33.9261 327.14 33.9261ZM327.264 33.1089C327.629 33.1089 327.937 33.0139 328.189 32.8237C328.441 32.631 328.632 32.365 328.763 32.0259C328.894 31.6841 328.96 31.2897 328.96 30.8425C328.96 30.4006 328.896 30.0138 328.767 29.6824C328.639 29.3483 328.448 29.0888 328.197 28.9038C327.945 28.7162 327.634 28.6224 327.264 28.6224C326.878 28.6224 326.557 28.7213 326.3 28.9192C326.046 29.1145 325.854 29.3804 325.726 29.7171C325.6 30.0511 325.537 30.4263 325.537 30.8425C325.537 31.264 325.601 31.6468 325.73 31.9912C325.861 32.3329 326.054 32.6053 326.308 32.8083C326.565 33.0087 326.884 33.1089 327.264 33.1089ZM331.646 33.8027L331.646 27.8824L332.556 27.8824L332.556 33.8027L331.646 33.8027ZM332.109 26.8956C331.932 26.8956 331.779 26.8352 331.65 26.7145C331.524 26.5937 331.461 26.4485 331.461 26.2789C331.461 26.1093 331.524 25.9641 331.65 25.8434C331.779 25.7226 331.932 25.6622 332.109 25.6622C332.286 25.6622 332.438 25.7226 332.564 25.8434C332.692 25.9641 332.756 26.1093 332.756 26.2789C332.756 26.4485 332.692 26.5937 332.564 26.7145C332.438 26.8352 332.286 26.8956 332.109 26.8956ZM336.797 27.8824L336.797 28.6532L333.729 28.6532L333.729 27.8824L336.797 27.8824ZM334.623 26.4639L335.532 26.4639L335.532 32.1068C335.532 32.3638 335.57 32.5565 335.644 32.685C335.721 32.8109 335.819 32.8957 335.937 32.9393C336.058 32.9805 336.185 33.001 336.319 33.001C336.419 33.001 336.501 32.9959 336.565 32.9856C336.63 32.9728 336.681 32.9625 336.72 32.9548L336.905 33.7719C336.843 33.795 336.757 33.8182 336.646 33.8413C336.536 33.867 336.396 33.8798 336.226 33.8798C335.969 33.8798 335.718 33.8246 335.471 33.7141C335.227 33.6036 335.024 33.4353 334.862 33.2092C334.703 32.983 334.623 32.6978 334.623 32.3535L334.623 26.4639ZM347.693 28.3757L346.737 28.3757C346.681 28.1008 346.582 27.8592 346.44 27.6511C346.302 27.443 346.132 27.2682 345.932 27.1269C345.734 26.983 345.514 26.8751 345.273 26.8031C345.031 26.7312 344.779 26.6952 344.517 26.6952C344.039 26.6952 343.606 26.816 343.218 27.0575C342.833 27.2991 342.526 27.655 342.297 28.1252C342.071 28.5954 341.958 29.1723 341.958 29.8558C341.958 30.5393 342.071 31.1162 342.297 31.5864C342.526 32.0567 342.833 32.4126 343.218 32.6541C343.606 32.8957 344.039 33.0164 344.517 33.0164C344.779 33.0164 345.031 32.9805 345.273 32.9085C345.514 32.8366 345.734 32.7299 345.932 32.5886C346.132 32.4447 346.302 32.2687 346.44 32.0605C346.582 31.8498 346.681 31.6083 346.737 31.3359L347.693 31.3359C347.621 31.7393 347.49 32.1004 347.3 32.419C347.11 32.7376 346.873 33.0087 346.591 33.2323C346.308 33.4533 345.991 33.6216 345.639 33.7372C345.289 33.8528 344.915 33.9107 344.517 33.9107C343.844 33.9107 343.245 33.7462 342.721 33.4173C342.197 33.0884 341.784 32.6207 341.484 32.0143C341.183 31.4079 341.033 30.6884 341.033 29.8558C341.033 29.0233 341.183 28.3038 341.484 27.6973C341.784 27.0909 342.197 26.6233 342.721 26.2943C343.245 25.9654 343.844 25.801 344.517 25.801C344.915 25.801 345.289 25.8588 345.639 25.9744C345.991 26.0901 346.308 26.2597 346.591 26.4832C346.873 26.7042 347.11 26.974 347.3 27.2926C347.49 27.6087 347.621 27.9697 347.693 28.3757ZM350.857 33.9415C350.482 33.9415 350.141 33.8708 349.835 33.7295C349.529 33.5856 349.287 33.3788 349.107 33.1089C348.927 32.8366 348.837 32.5077 348.837 32.1222C348.837 31.783 348.904 31.5081 349.037 31.2974C349.171 31.0841 349.35 30.9171 349.573 30.7963C349.797 30.6755 350.043 30.5856 350.313 30.5265C350.586 30.4648 350.859 30.416 351.134 30.38C351.494 30.3338 351.786 30.2991 352.009 30.276C352.235 30.2503 352.4 30.2079 352.503 30.1488C352.608 30.0897 352.661 29.9869 352.661 29.8404L352.661 29.8096C352.661 29.4293 352.556 29.1338 352.348 28.9231C352.143 28.7123 351.831 28.607 351.412 28.607C350.977 28.607 350.637 28.7021 350.39 28.8922C350.144 29.0824 349.97 29.2854 349.87 29.5012L349.007 29.1929C349.161 28.8331 349.366 28.553 349.623 28.3526C349.883 28.1496 350.165 28.0083 350.471 27.9286C350.78 27.8464 351.083 27.8053 351.381 27.8053C351.571 27.8053 351.789 27.8284 352.036 27.8747C352.285 27.9183 352.526 28.0096 352.757 28.1483C352.991 28.2871 353.185 28.4965 353.339 28.7766C353.493 29.0567 353.57 29.4318 353.57 29.9021L353.57 33.8027L352.661 33.8027L352.661 33.001L352.614 33.001C352.553 33.1295 352.45 33.267 352.306 33.4134C352.162 33.5599 351.971 33.6845 351.732 33.7873C351.493 33.8901 351.201 33.9415 350.857 33.9415ZM350.995 33.1244C351.355 33.1244 351.658 33.0537 351.905 32.9124C352.154 32.771 352.342 32.5886 352.468 32.365C352.596 32.1415 352.661 31.9064 352.661 31.6597L352.661 30.8271C352.622 30.8734 352.537 30.9158 352.406 30.9543C352.278 30.9903 352.129 31.0224 351.959 31.0507C351.792 31.0764 351.629 31.0995 351.47 31.1201C351.313 31.1381 351.186 31.1535 351.088 31.1663C350.852 31.1972 350.631 31.2473 350.425 31.3166C350.222 31.3835 350.058 31.485 349.932 31.6211C349.808 31.7548 349.747 31.9372 349.747 32.1685C349.747 32.4845 349.864 32.7235 350.097 32.8854C350.334 33.0447 350.633 33.1244 350.995 33.1244ZM355.23 33.8027L355.23 27.8824L356.109 27.8824L356.109 28.7766L356.171 28.7766C356.279 28.4837 356.474 28.246 356.757 28.0635C357.039 27.8811 357.358 27.7899 357.713 27.7899C357.78 27.7899 357.863 27.7911 357.963 27.7937C358.063 27.7963 358.139 27.8001 358.191 27.8053L358.191 28.7303C358.16 28.7226 358.089 28.7111 357.979 28.6956C357.871 28.6777 357.756 28.6687 357.636 28.6687C357.348 28.6687 357.091 28.729 356.865 28.8498C356.641 28.968 356.464 29.1325 356.333 29.3432C356.204 29.5513 356.14 29.789 356.14 30.0562L356.14 33.8027L355.23 33.8027ZM361.324 33.9261C360.831 33.9261 360.395 33.8015 360.018 33.5522C359.64 33.3004 359.344 32.9458 359.131 32.4884C358.918 32.0284 358.811 31.485 358.811 30.858C358.811 30.2361 358.918 29.6965 359.131 29.2391C359.344 28.7817 359.641 28.4284 360.021 28.1792C360.402 27.9299 360.841 27.8053 361.34 27.8053C361.725 27.8053 362.03 27.8695 362.253 27.998C362.479 28.1239 362.651 28.2678 362.77 28.4297C362.89 28.589 362.984 28.7201 363.051 28.8228L363.128 28.8228L363.128 25.9089L364.038 25.9089L364.038 33.8027L363.159 33.8027L363.159 32.8931L363.051 32.8931C362.984 33.001 362.889 33.1372 362.766 33.3017C362.642 33.4635 362.466 33.6087 362.238 33.7372C362.009 33.8631 361.705 33.9261 361.324 33.9261ZM361.448 33.1089C361.813 33.1089 362.121 33.0139 362.373 32.8237C362.625 32.631 362.816 32.365 362.947 32.0259C363.078 31.6841 363.144 31.2897 363.144 30.8425C363.144 30.4006 363.079 30.0139 362.951 29.6824C362.822 29.3483 362.632 29.0888 362.38 28.9038C362.129 28.7162 361.818 28.6224 361.448 28.6224C361.062 28.6224 360.741 28.7213 360.484 28.9192C360.23 29.1145 360.038 29.3804 359.91 29.7171C359.784 30.0511 359.721 30.4263 359.721 30.8425C359.721 31.264 359.785 31.6468 359.914 31.9912C360.045 32.3329 360.237 32.6053 360.492 32.8083C360.749 33.0087 361.067 33.1089 361.448 33.1089Z" fill="white"/>
<rect x="22.5" y="17.5557" width="94" height="24" rx="12" stroke="#DBDBDB" stroke-opacity="0.4"/>
<path d="M34.2775 25.1618L35.3722 25.1618L37.5615 28.8466L37.654 28.8466L39.8433 25.1618L40.9379 25.1618L38.0857 29.8025L38.0857 33.0557L37.1298 33.0557L37.1298 29.8025L34.2775 25.1618ZM48.4637 29.1087C48.4637 29.9413 48.3134 30.6608 48.0127 31.2672C47.7121 31.8736 47.2996 32.3413 46.7754 32.6702C46.2512 32.9991 45.6525 33.1636 44.9793 33.1636C44.3061 33.1636 43.7073 32.9991 43.1831 32.6702C42.6589 32.3413 42.2465 31.8736 41.9459 31.2672C41.6452 30.6608 41.4949 29.9413 41.4949 29.1087C41.4949 28.2762 41.6452 27.5567 41.9459 26.9503C42.2465 26.3439 42.6589 25.8762 43.1831 25.5473C43.7073 25.2184 44.3061 25.0539 44.9793 25.0539C45.6525 25.0539 46.2512 25.2184 46.7754 25.5473C47.2996 25.8762 47.7121 26.3439 48.0127 26.9503C48.3134 27.5567 48.4637 28.2762 48.4637 29.1087ZM47.5386 29.1087C47.5386 28.4252 47.4243 27.8484 47.1956 27.3781C46.9694 26.9079 46.6624 26.552 46.2744 26.3104C45.8889 26.0689 45.4572 25.9481 44.9793 25.9481C44.5013 25.9481 44.0684 26.0689 43.6804 26.3104C43.2949 26.552 42.9878 26.9079 42.7591 27.3781C42.533 27.8484 42.42 28.4252 42.42 29.1087C42.42 29.7923 42.533 30.3691 42.7591 30.8394C42.9878 31.3096 43.2949 31.6655 43.6804 31.9071C44.0684 32.1486 44.5013 32.2694 44.9793 32.2694C45.4572 32.2694 45.8889 32.1486 46.2744 31.9071C46.6624 31.6655 46.9694 31.3096 47.1956 30.8394C47.4243 30.3691 47.5386 29.7923 47.5386 29.1087ZM55.2513 25.1618L56.2072 25.1618L56.2072 30.3884C56.2072 30.928 56.08 31.4098 55.8256 31.8338C55.5738 32.2552 55.2179 32.588 54.7579 32.8321C54.298 33.0737 53.7583 33.1944 53.1391 33.1944C52.5198 33.1944 51.9802 33.0737 51.5202 32.8321C51.0603 32.588 50.7031 32.2552 50.4487 31.8338C50.1969 31.4098 50.071 30.928 50.071 30.3884L50.071 25.1618L51.0269 25.1618L51.0269 30.3113C51.0269 30.6968 51.1117 31.0398 51.2812 31.3405C51.4508 31.6385 51.6924 31.8736 52.0059 32.0458C52.3219 32.2154 52.6997 32.3002 53.1391 32.3002C53.5785 32.3002 53.9562 32.2154 54.2723 32.0458C54.5883 31.8736 54.8299 31.6385 54.9969 31.3405C55.1665 31.0398 55.2513 30.6968 55.2513 30.3113L55.2513 25.1618ZM58.1161 33.0557L58.1161 25.1618L60.7833 25.1618C61.4 25.1618 61.9063 25.2672 62.302 25.4779C62.6977 25.686 62.9906 25.9725 63.1808 26.3374C63.3709 26.7023 63.466 27.1173 63.466 27.5824C63.466 28.0475 63.3709 28.4599 63.1808 28.8197C62.9906 29.1794 62.699 29.4621 62.3058 29.6676C61.9127 29.8706 61.4103 29.9721 60.7988 29.9721L58.6403 29.9721L58.6403 29.1087L60.7679 29.1087C61.1893 29.1087 61.5285 29.0471 61.7855 28.9237C62.045 28.8004 62.2326 28.6257 62.3482 28.3995C62.4664 28.1708 62.5255 27.8985 62.5255 27.5824C62.5255 27.2663 62.4664 26.9901 62.3482 26.7537C62.23 26.5173 62.0412 26.3349 61.7816 26.2064C61.5221 26.0753 61.1791 26.0098 60.7525 26.0098L59.072 26.0098L59.072 33.0557L58.1161 33.0557ZM61.8317 29.5096L63.7744 33.0557L62.6643 33.0557L60.7525 29.5096L61.8317 29.5096ZM68.1115 33.0557L68.1115 25.1618L70.8713 25.1618C71.4212 25.1618 71.8747 25.2569 72.2319 25.4471C72.5891 25.6346 72.855 25.8877 73.0298 26.2064C73.2045 26.5224 73.2919 26.8732 73.2919 27.2586C73.2919 27.5978 73.2315 27.8779 73.1107 28.0989C72.9925 28.3199 72.8358 28.4946 72.6405 28.6231C72.4477 28.7516 72.2383 28.8466 72.0122 28.9083L72.0122 28.9854C72.2537 29.0008 72.4966 29.0856 72.7407 29.2398C72.9848 29.394 73.1891 29.615 73.3535 29.9028C73.518 30.1906 73.6002 30.5426 73.6002 30.9589C73.6002 31.3546 73.5103 31.7105 73.3304 32.0265C73.1505 32.3426 72.8666 32.5931 72.4786 32.7781C72.0906 32.9632 71.5856 33.0557 70.9638 33.0557L68.1115 33.0557ZM69.0674 32.2077L70.9638 32.2077C71.5882 32.2077 72.0315 32.0869 72.2936 31.8454C72.5582 31.6013 72.6906 31.3058 72.6906 30.9589C72.6906 30.6916 72.6225 30.4449 72.4863 30.2188C72.3501 29.9901 72.1561 29.8077 71.9043 29.6715C71.6525 29.5327 71.3544 29.4634 71.0101 29.4634L69.0674 29.4634L69.0674 32.2077ZM69.0674 28.6308L70.8405 28.6308C71.1283 28.6308 71.3878 28.5743 71.619 28.4612C71.8529 28.3481 72.0379 28.1888 72.1741 27.9833C72.3128 27.7777 72.3822 27.5361 72.3822 27.2586C72.3822 26.9117 72.2614 26.6175 72.0199 26.376C71.7784 26.1319 71.3955 26.0098 70.8713 26.0098L69.0674 26.0098L69.0674 28.6308ZM75.1709 33.0557L75.1709 25.1618L77.8381 25.1618C78.4548 25.1618 78.9611 25.2672 79.3568 25.4779C79.7525 25.686 80.0454 25.9725 80.2356 26.3374C80.4257 26.7023 80.5208 27.1173 80.5208 27.5824C80.5208 28.0475 80.4257 28.4599 80.2356 28.8197C80.0454 29.1794 79.7538 29.4621 79.3606 29.6676C78.9675 29.8706 78.4651 29.9721 77.8536 29.9721L75.6951 29.9721L75.6951 29.1087L77.8227 29.1087C78.2441 29.1087 78.5833 29.0471 78.8403 28.9237C79.0998 28.8004 79.2874 28.6257 79.403 28.3995C79.5212 28.1708 79.5803 27.8985 79.5803 27.5824C79.5803 27.2663 79.5212 26.9901 79.403 26.7537C79.2848 26.5173 79.096 26.3349 78.8364 26.2064C78.5769 26.0753 78.2339 26.0098 77.8073 26.0098L76.1268 26.0098L76.1268 33.0557L75.1709 33.0557ZM78.8865 29.5096L80.8292 33.0557L79.7191 33.0557L77.8073 29.5096L78.8865 29.5096ZM82.4374 33.0557L81.4353 33.0557L84.3338 25.1618L85.3205 25.1618L88.219 33.0557L87.2169 33.0557L84.858 26.4107L84.7963 26.4107L82.4374 33.0557ZM82.8074 29.9721L86.8469 29.9721L86.8469 30.8201L82.8074 30.8201L82.8074 29.9721ZM95.7081 25.1618L95.7081 33.0557L94.7831 33.0557L90.4816 26.8578L90.4045 26.8578L90.4045 33.0557L89.4486 33.0557L89.4486 25.1618L90.3736 25.1618L94.6906 31.3751L94.7677 31.3751L94.7677 25.1618L95.7081 25.1618ZM100.057 33.0557L97.6209 33.0557L97.6209 25.1618L100.165 25.1618C100.931 25.1618 101.586 25.3199 102.131 25.6359C102.675 25.9494 103.093 26.4004 103.383 26.9888C103.674 27.5747 103.819 28.2762 103.819 29.0933C103.819 29.9156 103.672 30.6235 103.379 31.2171C103.086 31.8081 102.66 32.2629 102.1 32.5816C101.54 32.8976 100.859 33.0557 100.057 33.0557ZM98.5768 32.2077L99.9952 32.2077C100.648 32.2077 101.189 32.0818 101.618 31.83C102.047 31.5781 102.367 31.2197 102.578 30.7546C102.788 30.2895 102.894 29.7357 102.894 29.0933C102.894 28.4561 102.79 27.9075 102.582 27.4475C102.373 26.985 102.062 26.6304 101.649 26.3837C101.235 26.1344 100.72 26.0098 100.103 26.0098L98.5768 26.0098L98.5768 32.2077Z" fill="white"/>
<path d="M358.436 197.903C357.234 198.27 355.564 198.088 354.498 196.491L353.802 195.446L353.2 194.543L354.498 192.597C355.562 191 357.225 190.815 358.436 191.184C359.642 191.548 360.93 192.623 360.93 194.544C360.93 196.464 359.642 197.538 358.436 197.903ZM347.011 196.491C345.946 198.087 344.28 198.271 343.07 197.903C341.866 197.538 340.578 196.464 340.578 194.544C340.578 192.623 341.866 191.548 343.072 191.184C343.403 191.083 343.769 191.023 344.148 191.023C345.148 191.023 346.237 191.437 347.011 192.597L348.309 194.543L347.011 196.491ZM359.615 187.288C356.345 186.3 353.007 187.496 351.112 190.339L350.754 190.874L350.398 190.339C348.5 187.496 345.168 186.292 341.891 187.289C338.622 188.278 336.508 191.127 336.508 194.544C336.508 197.961 338.622 200.808 341.891 201.798C345.161 202.792 348.499 201.593 350.398 198.748L350.754 198.213L351.112 198.748C351.191 198.868 351.273 198.984 351.358 199.097C352.818 201.058 355.003 202.141 357.338 202.141C358.088 202.141 358.853 202.03 359.617 201.8C362.886 200.808 365 197.961 365 194.544C365 191.126 362.886 188.278 359.615 187.288Z" fill="white"/>
<path d="M353.802 195.446L351.357 199.097C351.273 198.984 351.191 198.867 351.112 198.748L350.754 198.212L353.2 194.543L353.802 195.446Z" fill="#BBBCBD"/>
<path d="M350.753 190.874L348.309 194.524C348.224 194.411 348.142 194.295 348.063 194.176L347.705 193.64L350.151 189.97L350.753 190.874Z" fill="#BBBCBD"/>
<defs>
<linearGradient id="paint0_linear_720_901" x1="690.865" y1="192" x2="384" y2="192" gradientUnits="userSpaceOnUse">
<stop stop-color="#666969"/>
<stop offset="1" stop-color="#F2365E"/>
</linearGradient>
<linearGradient id="paint1_linear_720_901" x1="68.6147" y1="114.287" x2="28.1328" y2="147.99" gradientUnits="userSpaceOnUse">
<stop stop-color="#CDCDCD"/>
<stop offset="0.447917" stop-color="#E8E8E8"/>
<stop offset="1" stop-color="#B4B4B4"/>
</linearGradient>
<linearGradient id="paint2_linear_720_901" x1="68.6147" y1="114.287" x2="28.1328" y2="147.99" gradientUnits="userSpaceOnUse">
<stop stop-color="#CDCDCD"/>
<stop offset="0.447917" stop-color="#E8E8E8"/>
<stop offset="1" stop-color="#B4B4B4"/>
</linearGradient>
</defs>
</svg>
