<svg width="24" height="25" viewBox="0 0 24 25" fill="none" xmlns="http://www.w3.org/2000/svg">
<path d="M12 2.05664C11.2626 2.05664 10.5252 2.33715 9.96404 2.89828L6.38109 6.48125H6.48928C7.40292 6.48125 8.25856 6.8342 8.90602 7.48166L11.4169 9.99255C11.7406 10.3091 12.2594 10.3091 12.5831 9.99255L15.094 7.48166C15.7414 6.8342 16.5971 6.48125 17.5107 6.48125H17.6189L14.036 2.89828C13.4748 2.33715 12.7374 2.05664 12 2.05664ZM5.30199 7.56035L2.8417 10.0206C1.71943 11.1429 1.71943 12.9703 2.8417 14.0926L5.30199 16.5529H6.48928C7.11516 16.5529 7.70563 16.3088 8.14446 15.87L10.6553 13.3591C11.3963 12.6181 12.6037 12.6181 13.3447 13.3591L15.8555 15.87C16.2944 16.3088 16.8848 16.5529 17.5107 16.5529H18.698L21.1583 14.0926C22.2806 12.9703 22.2806 11.1429 21.1583 10.0206L18.698 7.56035H17.5107C16.8848 7.56035 16.2944 7.80438 15.8555 8.24322L13.3447 10.7541C12.9778 11.121 12.4892 11.3091 12 11.3091C11.5108 11.3091 11.0222 11.121 10.6553 10.7541L8.14446 8.24322C7.70563 7.80438 7.11516 7.56035 6.48928 7.56035H5.30199ZM12 13.8832C11.7896 13.8832 11.5788 13.9624 11.4169 14.1207L8.90602 16.6316C8.25856 17.279 7.40292 17.632 6.48928 17.632H6.38109L9.96404 21.2149C11.0863 22.3372 12.9137 22.3372 14.036 21.2149L17.6189 17.632H17.5107C16.5971 17.632 15.7414 17.279 15.094 16.6316L12.5831 14.1207C12.4212 13.9624 12.2104 13.8832 12 13.8832Z" fill="#F2F2F2"/>
</svg>
