<svg width="168" height="41" viewBox="0 0 168 41" fill="none" xmlns="http://www.w3.org/2000/svg">
<rect x="0.5" y="0.556763" width="39" height="39" rx="19.5" fill="#CFC8B8"/>
<rect x="0.5" y="0.556763" width="39" height="39" rx="19.5" stroke="#4E4E4E"/>
<path d="M21.025 10.05C23.4084 10.2834 25.4375 11.2375 27.1125 12.9125C28.7875 14.5875 29.7417 16.6167 29.975 19H22.825C22.675 18.5667 22.4459 18.1875 22.1375 17.8625C21.8292 17.5375 21.4584 17.3 21.025 17.15V10.05ZM23.025 12.6V16C23.2084 16.15 23.3834 16.3084 23.55 16.475C23.7167 16.6417 23.875 16.8167 24.025 17H27.425C27.025 16 26.4417 15.1167 25.675 14.35C24.9084 13.5834 24.025 13 23.025 12.6ZM19.025 10.05V17.15C18.425 17.3667 17.9417 17.7375 17.575 18.2625C17.2084 18.7875 17.025 19.3667 17.025 20C17.025 20.6334 17.2084 21.2042 17.575 21.7125C17.9417 22.2209 18.425 22.5834 19.025 22.8V29.95C16.4584 29.7 14.3167 28.625 12.6 26.725C10.8834 24.825 10.025 22.5834 10.025 20C10.025 17.4167 10.8834 15.175 12.6 13.275C14.3167 11.375 16.4584 10.3 19.025 10.05ZM17.025 12.6C15.5084 13.1834 14.2959 14.15 13.3875 15.5C12.4792 16.85 12.025 18.35 12.025 20C12.025 21.65 12.4792 23.15 13.3875 24.5C14.2959 25.85 15.5084 26.8334 17.025 27.45V24C16.3917 23.5167 15.9 22.9292 15.55 22.2375C15.2 21.5459 15.025 20.8 15.025 20C15.025 19.2 15.2 18.4542 15.55 17.7625C15.9 17.0709 16.3917 16.4834 17.025 16V12.6ZM22.825 21H29.975C29.7417 23.3834 28.7875 25.4125 27.1125 27.0875C25.4375 28.7625 23.4084 29.7167 21.025 29.95V22.8C21.4584 22.65 21.8292 22.4209 22.1375 22.1125C22.4459 21.8042 22.675 21.4334 22.825 21ZM24.025 23C23.8917 23.1834 23.7375 23.3584 23.5625 23.525C23.3875 23.6917 23.2084 23.85 23.025 24V27.4C24.025 27 24.9084 26.4167 25.675 25.65C26.4417 24.8834 27.025 24 27.425 23H24.025Z" fill="#020202"/>
<rect x="32" y="0.0567627" width="40" height="40" rx="20" fill="#080808"/>
<rect x="32" y="0.0567627" width="40" height="40" rx="20" fill="url(#paint0_linear_355_3631)" fill-opacity="0.5"/>
<rect x="32.5" y="0.556763" width="39" height="39" rx="19.5" stroke="#4E4E4E" stroke-opacity="0.5"/>
<path d="M45 25V18H47V25H45ZM51 25V18H53V25H51ZM42 29V27H62V29H42ZM57 25V18H59V25H57ZM42 16V14L52 9L62 14V16H42ZM46.45 14H57.55L52 11.25L46.45 14Z" fill="#E8EAED"/>
<rect x="64" y="0.0567627" width="40" height="40" rx="20" fill="#080808"/>
<rect x="64" y="0.0567627" width="40" height="40" rx="20" fill="url(#paint1_linear_355_3631)" fill-opacity="0.5"/>
<rect x="64.5" y="0.556763" width="39" height="39" rx="19.5" stroke="#4E4E4E" stroke-opacity="0.5"/>
<path d="M94 14V26C94 26.55 93.8042 27.0208 93.4125 27.4125C93.0208 27.8042 92.55 28 92 28H76C75.45 28 74.9792 27.8042 74.5875 27.4125C74.1958 27.0208 74 26.55 74 26V14C74 13.45 74.1958 12.9792 74.5875 12.5875C74.9792 12.1958 75.45 12 76 12H92C92.55 12 93.0208 12.1958 93.4125 12.5875C93.8042 12.9792 94 13.45 94 14ZM76 16H92V14H76V16ZM76 20V26H92V20H76Z" fill="#E8EAED"/>
<rect x="96" y="0.0567627" width="40" height="40" rx="20" fill="#080808"/>
<rect x="96" y="0.0567627" width="40" height="40" rx="20" fill="url(#paint2_linear_355_3631)" fill-opacity="0.5"/>
<rect x="96.5" y="0.556763" width="39" height="39" rx="19.5" stroke="#4E4E4E" stroke-opacity="0.5"/>
<path d="M108 29C107.45 29 106.979 28.8042 106.588 28.4125C106.196 28.0208 106 27.55 106 27V16C106 15.45 106.196 14.9792 106.588 14.5875C106.979 14.1958 107.45 14 108 14H112V12C112 11.45 112.196 10.9792 112.588 10.5875C112.979 10.1958 113.45 10 114 10H118C118.55 10 119.021 10.1958 119.413 10.5875C119.804 10.9792 120 11.45 120 12V14H124C124.55 14 125.021 14.1958 125.413 14.5875C125.804 14.9792 126 15.45 126 16V27C126 27.55 125.804 28.0208 125.413 28.4125C125.021 28.8042 124.55 29 124 29H108ZM108 27H124V16H108V27ZM114 14H118V12H114V14Z" fill="#E8EAED"/>
<rect x="128" y="0.0567627" width="40" height="40" rx="20" fill="#080808"/>
<rect x="128" y="0.0567627" width="40" height="40" rx="20" fill="url(#paint3_linear_355_3631)" fill-opacity="0.5"/>
<rect x="128.5" y="0.556763" width="39" height="39" rx="19.5" stroke="#4E4E4E" stroke-opacity="0.5"/>
<path d="M148 30C145.683 29.4167 143.771 28.0875 142.263 26.0125C140.754 23.9375 140 21.6333 140 19.1V13L148 10L156 13V19.1C156 21.6333 155.246 23.9375 153.738 26.0125C152.229 28.0875 150.317 29.4167 148 30ZM148 27.9C149.733 27.35 151.167 26.25 152.3 24.6C153.433 22.95 154 21.1167 154 19.1V14.375L148 12.125L142 14.375V19.1C142 21.1167 142.567 22.95 143.7 24.6C144.833 26.25 146.267 27.35 148 27.9ZM146 24H150C150.283 24 150.521 23.9042 150.713 23.7125C150.904 23.5208 151 23.2833 151 23V20C151 19.7167 150.904 19.4792 150.713 19.2875C150.521 19.0958 150.283 19 150 19V18C150 17.45 149.804 16.9792 149.413 16.5875C149.021 16.1958 148.55 16 148 16C147.45 16 146.979 16.1958 146.588 16.5875C146.196 16.9792 146 17.45 146 18V19C145.717 19 145.479 19.0958 145.287 19.2875C145.096 19.4792 145 19.7167 145 20V23C145 23.2833 145.096 23.5208 145.287 23.7125C145.479 23.9042 145.717 24 146 24ZM147 19V18C147 17.7167 147.096 17.4792 147.287 17.2875C147.479 17.0958 147.717 17 148 17C148.283 17 148.521 17.0958 148.713 17.2875C148.904 17.4792 149 17.7167 149 18V19H147Z" fill="#E8EAED"/>
<defs>
<linearGradient id="paint0_linear_355_3631" x1="32" y1="20.0568" x2="72" y2="20.0568" gradientUnits="userSpaceOnUse">
<stop stop-color="#020202" stop-opacity="0.75"/>
<stop offset="1" stop-color="#686868" stop-opacity="0.25"/>
</linearGradient>
<linearGradient id="paint1_linear_355_3631" x1="64" y1="20.0568" x2="104" y2="20.0568" gradientUnits="userSpaceOnUse">
<stop stop-color="#020202" stop-opacity="0.75"/>
<stop offset="1" stop-color="#686868" stop-opacity="0.25"/>
</linearGradient>
<linearGradient id="paint2_linear_355_3631" x1="96" y1="20.0568" x2="136" y2="20.0568" gradientUnits="userSpaceOnUse">
<stop stop-color="#020202" stop-opacity="0.75"/>
<stop offset="1" stop-color="#686868" stop-opacity="0.25"/>
</linearGradient>
<linearGradient id="paint3_linear_355_3631" x1="128" y1="20.0568" x2="168" y2="20.0568" gradientUnits="userSpaceOnUse">
<stop stop-color="#020202" stop-opacity="0.75"/>
<stop offset="1" stop-color="#686868" stop-opacity="0.25"/>
</linearGradient>
</defs>
</svg>
