<svg width="434" height="314" viewBox="0 0 434 314" fill="none" xmlns="http://www.w3.org/2000/svg">
<g filter="url(#filter0_dddd_540_564)">
<rect x="25.0059" y="309.338" width="224" height="384" rx="11.5644" transform="rotate(-90 25.0059 309.338)" fill="url(#paint0_linear_540_564)"/>
</g>
<mask id="mask0_540_564" style="mask-type:alpha" maskUnits="userSpaceOnUse" x="46" y="193" width="52" height="36">
<rect x="46.668" y="193.646" width="50.558" height="34.9781" rx="3.15392" fill="url(#paint1_linear_540_564)"/>
</mask>
<g mask="url(#mask0_540_564)">
<rect x="46.668" y="193.646" width="50.558" height="34.9781" rx="3.15392" fill="url(#paint2_linear_540_564)"/>
<path fill-rule="evenodd" clip-rule="evenodd" d="M58.3413 204.458L46.668 204.458L46.668 204.108L58.468 204.108L63.0993 207.697L63.0993 217.473L59.3823 221.073L46.668 221.073L46.668 220.723L59.2327 220.723L62.7382 217.328L62.7382 207.865L58.3413 204.458Z" fill="#868686"/>
<path fill-rule="evenodd" clip-rule="evenodd" d="M84.6696 200.086L98.1289 200.086L98.1289 199.736L84.5035 199.736L78.9891 205.968L78.9891 217.465L84.5035 223.696L98.1289 223.696L98.1289 223.347L84.6696 223.347L79.3502 217.336L79.3502 206.097L84.6696 200.086Z" fill="#868686"/>
<path fill-rule="evenodd" clip-rule="evenodd" d="M70.4791 198.976L61.1133 192.216L61.33 191.897L70.8569 198.774L70.8569 205.499L79.1697 205.499L79.1697 205.888L70.4791 205.888L70.4791 198.976Z" fill="#868686"/>
<path fill-rule="evenodd" clip-rule="evenodd" d="M62.918 217.225L71.2239 217.225L71.2239 223.608L63.9291 228.907L63.7125 228.627L70.8628 223.433L70.8628 217.574L62.918 217.574L62.918 217.225Z" fill="#868686"/>
<path fill-rule="evenodd" clip-rule="evenodd" d="M79.1699 217.225L70.864 217.225L70.864 223.608L78.1588 228.907L78.3754 228.627L71.2251 223.433L71.2251 217.574L79.1699 217.574L79.1699 217.225Z" fill="#868686"/>
</g>
<rect x="46.9308" y="193.908" width="50.0323" height="34.4524" rx="2.89109" stroke="white" stroke-width="0.525653"/>
<path d="M49.4685 285.535C49.6394 285.634 49.8302 285.722 50.0409 285.797C50.2515 285.873 50.4682 285.937 50.6908 285.988C50.9173 286.036 51.1439 286.074 51.3705 286.102C51.601 286.125 51.8196 286.137 52.0263 286.137C52.4874 286.137 52.9028 286.078 53.2724 285.958C53.6461 285.839 53.968 285.67 54.2383 285.452C54.5086 285.233 54.7233 284.973 54.8823 284.671C55.0452 284.365 55.1466 284.027 55.1863 283.657C54.9796 283.82 54.7511 283.961 54.5007 284.08C54.2502 284.2 53.9839 284.299 53.7017 284.378C53.4235 284.454 53.1353 284.512 52.8372 284.551C52.543 284.587 52.2469 284.605 51.9488 284.605C51.3685 284.605 50.8398 284.535 50.3628 284.396C49.8898 284.257 49.4844 284.056 49.1465 283.794C48.8087 283.532 48.5463 283.214 48.3595 282.84C48.1767 282.463 48.0852 282.035 48.0852 281.558C48.0852 281.089 48.1767 280.654 48.3595 280.253C48.5463 279.851 48.8206 279.503 49.1823 279.209C49.544 278.911 49.9932 278.678 50.5298 278.512C51.0664 278.341 51.6885 278.255 52.396 278.255C53.0836 278.255 53.7117 278.343 54.2801 278.517C54.8485 278.692 55.3354 278.965 55.7408 279.334C56.1463 279.704 56.4603 280.175 56.6829 280.747C56.9094 281.316 57.0227 281.995 57.0227 282.786C57.0227 283.633 56.8955 284.372 56.6411 285.004C56.3907 285.632 56.0449 286.155 55.6037 286.573C55.1665 286.99 54.6497 287.302 54.0535 287.509C53.4573 287.715 52.8133 287.819 52.1217 287.819C51.8315 287.819 51.5295 287.801 51.2154 287.765C50.9054 287.729 50.5974 287.676 50.2913 287.604C49.9852 287.532 49.6891 287.443 49.4029 287.336C49.1207 287.228 48.8623 287.105 48.6278 286.966L49.4685 285.535ZM49.9753 281.528C49.9753 281.723 50.017 281.906 50.1005 282.077C50.184 282.248 50.3131 282.397 50.488 282.524C50.6669 282.647 50.8955 282.747 51.1737 282.822C51.4519 282.894 51.7878 282.93 52.1813 282.93C52.5112 282.93 52.8233 282.904 53.1174 282.852C53.4116 282.8 53.6838 282.729 53.9342 282.637C54.1847 282.546 54.4112 282.439 54.6139 282.315C54.8206 282.192 54.9975 282.057 55.1446 281.91C55.0492 281.258 54.763 280.767 54.286 280.437C53.809 280.103 53.183 279.937 52.4079 279.937C52.0184 279.937 51.6726 279.976 51.3705 280.056C51.0684 280.135 50.814 280.247 50.6073 280.39C50.4006 280.529 50.2436 280.696 50.1363 280.89C50.0289 281.085 49.9753 281.298 49.9753 281.528ZM58.9366 283.007C58.9366 282.256 59.0499 281.582 59.2765 280.986C59.503 280.39 59.825 279.885 60.2424 279.471C60.6597 279.054 61.1665 278.736 61.7627 278.517C62.359 278.299 63.0267 278.19 63.7661 278.19C64.5054 278.19 65.1732 278.299 65.7694 278.517C66.3656 278.736 66.8724 279.054 67.2898 279.471C67.7071 279.885 68.0291 280.39 68.2557 280.986C68.4822 281.582 68.5955 282.256 68.5955 283.007C68.5955 283.758 68.4822 284.432 68.2557 285.028C68.0291 285.625 67.7071 286.129 67.2898 286.543C66.8724 286.956 66.3656 287.272 65.7694 287.491C65.1732 287.709 64.5054 287.819 63.7661 287.819C63.0267 287.819 62.359 287.709 61.7627 287.491C61.1665 287.272 60.6597 286.956 60.2424 286.543C59.825 286.129 59.503 285.625 59.2765 285.028C59.0499 284.432 58.9366 283.758 58.9366 283.007ZM60.8267 283.001C60.8267 283.51 60.8942 283.959 61.0294 284.349C61.1685 284.738 61.3652 285.066 61.6196 285.332C61.874 285.595 62.1821 285.795 62.5438 285.935C62.9055 286.07 63.3129 286.137 63.7661 286.137C64.2192 286.137 64.6266 286.07 64.9883 285.935C65.35 285.795 65.6581 285.595 65.9125 285.332C66.1669 285.066 66.3616 284.738 66.4968 284.349C66.6359 283.959 66.7055 283.51 66.7055 283.001C66.7055 282.496 66.6359 282.051 66.4968 281.666C66.3617 281.276 66.1669 280.948 65.9125 280.682C65.6581 280.415 65.35 280.215 64.9883 280.08C64.6266 279.94 64.2192 279.871 63.7661 279.871C63.3129 279.871 62.9055 279.94 62.5438 280.08C62.1821 280.215 61.874 280.415 61.6196 280.682C61.3653 280.948 61.1685 281.276 61.0294 281.666C60.8942 282.051 60.8267 282.496 60.8267 283.001ZM70.5333 283.287C70.5333 282.441 70.6585 281.703 70.9089 281.075C71.1633 280.443 71.5091 279.919 71.9463 279.501C72.3875 279.084 72.9063 278.772 73.5025 278.565C74.0987 278.359 74.7426 278.255 75.4343 278.255C75.7244 278.255 76.0186 278.271 76.3167 278.303C76.6188 278.331 76.9149 278.376 77.2051 278.44C77.4952 278.504 77.7755 278.587 78.0458 278.69C78.32 278.79 78.5744 278.909 78.8089 279.048L77.9682 280.479C77.7934 280.38 77.6065 280.296 77.4078 280.229C77.213 280.157 77.0103 280.101 76.7996 280.062C76.589 280.018 76.3763 279.986 76.1617 279.966C75.947 279.946 75.7364 279.937 75.5297 279.937C75.0686 279.937 74.6512 279.996 74.2776 280.115C73.9079 280.235 73.5879 280.404 73.3177 280.622C73.0474 280.841 72.8307 281.103 72.6678 281.409C72.5088 281.711 72.4094 282.047 72.3697 282.417C72.5763 282.254 72.8049 282.113 73.0553 281.994C73.3057 281.874 73.5701 281.777 73.8483 281.701C74.1305 281.622 74.4187 281.564 74.7128 281.528C75.0109 281.489 75.3091 281.469 75.6072 281.469C76.1875 281.469 76.7142 281.538 77.1872 281.678C77.6642 281.817 78.0716 282.017 78.4095 282.28C78.7473 282.542 79.0077 282.862 79.1905 283.24C79.3773 283.613 79.4707 284.039 79.4707 284.516C79.4707 284.985 79.3773 285.42 79.1905 285.821C79.0077 286.223 78.7354 286.573 78.3737 286.871C78.012 287.165 77.5628 287.397 77.0262 287.568C76.4896 287.735 75.8675 287.819 75.16 287.819C74.4724 287.819 73.8443 287.731 73.2759 287.556C72.7075 287.381 72.2206 287.109 71.8152 286.739C71.4097 286.37 71.0937 285.901 70.8672 285.332C70.6446 284.76 70.5333 284.078 70.5333 283.287ZM72.4114 284.164C72.5068 284.816 72.793 285.309 73.27 285.642C73.7469 285.972 74.373 286.137 75.1481 286.137C75.5376 286.137 75.8834 286.098 76.1855 286.018C76.4876 285.939 76.742 285.829 76.9487 285.69C77.1554 285.547 77.3124 285.378 77.4197 285.183C77.527 284.989 77.5807 284.776 77.5807 284.545C77.5807 284.351 77.539 284.168 77.4555 283.997C77.372 283.826 77.2408 283.679 77.062 283.556C76.8871 283.428 76.6605 283.329 76.3823 283.258C76.104 283.182 75.7682 283.144 75.3746 283.144C75.0447 283.144 74.7327 283.17 74.4386 283.222C74.1444 283.273 73.8722 283.345 73.6217 283.436C73.3713 283.528 73.1428 283.635 72.9361 283.758C72.7334 283.882 72.5585 284.017 72.4114 284.164ZM86.6136 280.038L81.1938 280.038L81.1938 278.368L89.4755 278.368L84.6162 287.688L82.4698 287.688L86.6136 280.038ZM91.2999 285.47C91.5265 285.585 91.7709 285.684 92.0333 285.768C92.2996 285.847 92.5719 285.915 92.8501 285.97C93.1323 286.026 93.4146 286.068 93.6968 286.096C93.983 286.119 94.2612 286.131 94.5315 286.131C95.0085 286.131 95.4199 286.098 95.7657 286.03C96.1155 285.958 96.4017 285.859 96.6243 285.732C96.8508 285.605 97.0178 285.454 97.1251 285.279C97.2364 285.1 97.292 284.903 97.292 284.688C97.292 284.47 97.2344 284.269 97.1191 284.086C97.0078 283.903 96.8389 283.746 96.6123 283.615C96.3897 283.484 96.1075 283.383 95.7657 283.311C95.4278 283.236 95.0323 283.198 94.5792 283.198C94.3765 283.198 94.1479 283.208 93.8935 283.228C93.6391 283.244 93.3688 283.271 93.0827 283.311C92.7965 283.351 92.4983 283.407 92.1883 283.478C91.8783 283.546 91.5643 283.629 91.2463 283.729L91.2463 278.368L98.3951 278.368L98.3951 280.044L92.9932 280.044L92.9932 281.85C93.2913 281.783 93.6034 281.727 93.9293 281.683C94.2552 281.636 94.6189 281.612 95.0204 281.612C95.6762 281.612 96.2625 281.683 96.7793 281.827C97.296 281.97 97.7313 282.174 98.085 282.441C98.4428 282.707 98.715 283.029 98.9018 283.407C99.0887 283.78 99.1821 284.2 99.1821 284.665C99.1821 285.146 99.0807 285.581 98.878 285.97C98.6793 286.356 98.3831 286.686 97.9896 286.96C97.6001 287.234 97.1191 287.445 96.5467 287.592C95.9783 287.739 95.3245 287.813 94.5852 287.813C94.2036 287.813 93.824 287.791 93.4464 287.747C93.0727 287.707 92.709 287.65 92.3553 287.574C92.0015 287.495 91.6616 287.399 91.3357 287.288C91.0137 287.173 90.7116 287.044 90.4294 286.9L91.2999 285.47ZM102.39 285.535C102.561 285.634 102.752 285.722 102.962 285.797C103.173 285.873 103.389 285.937 103.612 285.988C103.839 286.036 104.065 286.074 104.292 286.102C104.522 286.125 104.741 286.137 104.948 286.137C105.409 286.137 105.824 286.078 106.194 285.958C106.567 285.839 106.889 285.67 107.16 285.452C107.43 285.233 107.645 284.973 107.804 284.671C107.967 284.365 108.068 284.027 108.108 283.657C107.901 283.82 107.672 283.961 107.422 284.08C107.172 284.2 106.905 284.299 106.623 284.378C106.345 284.454 106.057 284.512 105.758 284.551C105.464 284.587 105.168 284.605 104.87 284.605C104.29 284.605 103.761 284.535 103.284 284.396C102.811 284.257 102.406 284.056 102.068 283.794C101.73 283.532 101.468 283.214 101.281 282.84C101.098 282.463 101.007 282.035 101.007 281.558C101.007 281.089 101.098 280.654 101.281 280.253C101.468 279.851 101.742 279.503 102.104 279.209C102.465 278.911 102.914 278.678 103.451 278.512C103.988 278.341 104.61 278.255 105.317 278.255C106.005 278.255 106.633 278.343 107.201 278.517C107.77 278.692 108.257 278.965 108.662 279.334C109.068 279.704 109.382 280.175 109.604 280.747C109.831 281.316 109.944 281.996 109.944 282.786C109.944 283.633 109.817 284.372 109.562 285.004C109.312 285.632 108.966 286.155 108.525 286.573C108.088 286.99 107.571 287.302 106.975 287.509C106.379 287.715 105.735 287.819 105.043 287.819C104.753 287.819 104.451 287.801 104.137 287.765C103.827 287.729 103.519 287.676 103.213 287.604C102.907 287.532 102.61 287.443 102.324 287.336C102.042 287.228 101.784 287.105 101.549 286.966L102.39 285.535ZM102.897 281.528C102.897 281.723 102.938 281.906 103.022 282.077C103.105 282.248 103.234 282.397 103.409 282.524C103.588 282.647 103.817 282.747 104.095 282.822C104.373 282.894 104.709 282.93 105.103 282.93C105.433 282.93 105.745 282.904 106.039 282.852C106.333 282.8 106.605 282.729 106.856 282.637C107.106 282.546 107.333 282.439 107.535 282.315C107.742 282.192 107.919 282.057 108.066 281.91C107.97 281.258 107.684 280.767 107.207 280.437C106.73 280.103 106.104 279.937 105.329 279.937C104.94 279.937 104.594 279.976 104.292 280.056C103.99 280.135 103.735 280.247 103.529 280.39C103.322 280.529 103.165 280.696 103.058 280.89C102.95 281.085 102.897 281.298 102.897 281.528ZM111.858 283.007C111.858 282.256 111.971 281.582 112.198 280.986C112.424 280.39 112.746 279.885 113.164 279.471C113.581 279.054 114.088 278.736 114.684 278.517C115.28 278.299 115.948 278.19 116.687 278.19C117.427 278.19 118.094 278.299 118.691 278.517C119.287 278.736 119.794 279.054 120.211 279.471C120.628 279.885 120.95 280.39 121.177 280.986C121.404 281.582 121.517 282.256 121.517 283.007C121.517 283.758 121.404 284.432 121.177 285.028C120.95 285.625 120.628 286.129 120.211 286.543C119.794 286.956 119.287 287.272 118.691 287.491C118.094 287.709 117.427 287.819 116.687 287.819C115.948 287.819 115.28 287.709 114.684 287.491C114.088 287.272 113.581 286.956 113.164 286.543C112.746 286.129 112.424 285.625 112.198 285.028C111.971 284.432 111.858 283.758 111.858 283.007ZM113.748 283.001C113.748 283.51 113.816 283.959 113.951 284.349C114.09 284.738 114.287 285.066 114.541 285.332C114.795 285.595 115.103 285.795 115.465 285.935C115.827 286.07 116.234 286.137 116.687 286.137C117.141 286.137 117.548 286.07 117.91 285.935C118.271 285.795 118.579 285.595 118.834 285.332C119.088 285.066 119.283 284.738 119.418 284.349C119.557 283.959 119.627 283.51 119.627 283.001C119.627 282.496 119.557 282.051 119.418 281.666C119.283 281.276 119.088 280.948 118.834 280.682C118.579 280.415 118.271 280.215 117.91 280.08C117.548 279.94 117.141 279.871 116.687 279.871C116.234 279.871 115.827 279.94 115.465 280.08C115.103 280.215 114.795 280.415 114.541 280.682C114.287 280.948 114.09 281.276 113.951 281.666C113.816 282.051 113.748 282.496 113.748 283.001ZM123.61 286.066L126.895 283.812C127.388 283.474 127.791 283.18 128.105 282.93C128.419 282.679 128.666 282.457 128.844 282.262C129.023 282.063 129.147 281.884 129.214 281.725C129.282 281.566 129.315 281.407 129.315 281.248C129.315 281.065 129.278 280.894 129.202 280.735C129.127 280.576 129.007 280.437 128.844 280.318C128.685 280.199 128.479 280.105 128.224 280.038C127.974 279.97 127.674 279.937 127.324 279.937C126.815 279.937 126.309 280.008 125.804 280.151C125.299 280.294 124.784 280.523 124.259 280.837L123.389 279.406C123.973 279.044 124.605 278.762 125.285 278.559C125.969 278.357 126.686 278.255 127.437 278.255C128.093 278.255 128.662 278.335 129.143 278.494C129.628 278.649 130.027 278.861 130.341 279.132C130.659 279.402 130.896 279.716 131.051 280.074C131.206 280.431 131.283 280.811 131.283 281.212C131.283 281.522 131.231 281.819 131.128 282.101C131.025 282.383 130.844 282.675 130.585 282.977C130.327 283.279 129.977 283.605 129.536 283.955C129.099 284.301 128.546 284.694 127.879 285.136L126.519 286.03L131.623 286.03L131.623 287.688L123.61 287.688L123.61 286.066Z" fill="#D9D9D9"/>
<path opacity="0.5" d="M295.956 118.802L295.956 110.908L298.623 110.908C299.242 110.908 299.749 111.02 300.142 111.244C300.538 111.465 300.83 111.764 301.021 112.142C301.211 112.52 301.306 112.941 301.306 113.406C301.306 113.871 301.211 114.294 301.021 114.674C300.833 115.054 300.543 115.358 300.149 115.584C299.756 115.807 299.253 115.919 298.639 115.919L296.727 115.919L296.727 115.071L298.608 115.071C299.032 115.071 299.372 114.998 299.629 114.851C299.886 114.705 300.072 114.507 300.188 114.258C300.306 114.006 300.365 113.722 300.365 113.406C300.365 113.09 300.306 112.807 300.188 112.558C300.072 112.309 299.885 112.114 299.625 111.972C299.366 111.828 299.021 111.756 298.592 111.756L296.912 111.756L296.912 118.802L295.956 118.802ZM302.722 118.802L302.722 112.882L303.601 112.882L303.601 113.776L303.663 113.776C303.771 113.483 303.966 113.245 304.249 113.063C304.531 112.881 304.85 112.789 305.205 112.789C305.271 112.789 305.355 112.791 305.455 112.793C305.555 112.796 305.631 112.8 305.682 112.805L305.682 113.73C305.652 113.722 305.581 113.711 305.471 113.695C305.363 113.677 305.248 113.668 305.127 113.668C304.84 113.668 304.583 113.729 304.357 113.849C304.133 113.968 303.956 114.132 303.825 114.343C303.696 114.551 303.632 114.789 303.632 115.056L303.632 118.802L302.722 118.802ZM306.761 118.802L306.761 112.882L307.67 112.882L307.67 118.802L306.761 118.802ZM307.223 111.895C307.046 111.895 306.893 111.835 306.765 111.714C306.639 111.593 306.576 111.448 306.576 111.278C306.576 111.109 306.639 110.964 306.765 110.843C306.893 110.722 307.046 110.662 307.223 110.662C307.401 110.662 307.552 110.722 307.678 110.843C307.807 110.964 307.871 111.109 307.871 111.278C307.871 111.448 307.807 111.593 307.678 111.714C307.552 111.835 307.401 111.895 307.223 111.895ZM314.178 112.882L311.988 118.802L311.063 118.802L308.874 112.882L309.861 112.882L311.495 117.6L311.557 117.6L313.191 112.882L314.178 112.882ZM316.94 118.941C316.565 118.941 316.225 118.87 315.919 118.729C315.613 118.585 315.37 118.378 315.19 118.108C315.01 117.836 314.921 117.507 314.921 117.122C314.921 116.783 314.987 116.508 315.121 116.297C315.255 116.084 315.433 115.917 315.657 115.796C315.88 115.675 316.127 115.585 316.397 115.526C316.669 115.464 316.943 115.416 317.218 115.38C317.578 115.333 317.869 115.299 318.093 115.275C318.319 115.25 318.483 115.207 318.586 115.148C318.691 115.089 318.744 114.986 318.744 114.84L318.744 114.809C318.744 114.429 318.64 114.133 318.432 113.923C318.226 113.712 317.914 113.607 317.495 113.607C317.061 113.607 316.721 113.702 316.474 113.892C316.227 114.082 316.054 114.285 315.954 114.501L315.09 114.192C315.244 113.833 315.45 113.553 315.707 113.352C315.966 113.149 316.249 113.008 316.555 112.928C316.863 112.846 317.166 112.805 317.464 112.805C317.655 112.805 317.873 112.828 318.12 112.874C318.369 112.918 318.609 113.009 318.84 113.148C319.074 113.287 319.268 113.496 319.423 113.776C319.577 114.056 319.654 114.431 319.654 114.902L319.654 118.802L318.744 118.802L318.744 118.001L318.698 118.001C318.636 118.129 318.533 118.266 318.39 118.413C318.246 118.559 318.054 118.684 317.815 118.787C317.576 118.89 317.285 118.941 316.94 118.941ZM317.079 118.124C317.439 118.124 317.742 118.053 317.989 117.912C318.238 117.771 318.426 117.588 318.551 117.365C318.68 117.141 318.744 116.906 318.744 116.659L318.744 115.827C318.706 115.873 318.621 115.915 318.49 115.954C318.361 115.99 318.212 116.022 318.043 116.05C317.876 116.076 317.712 116.099 317.553 116.12C317.396 116.138 317.269 116.153 317.172 116.166C316.935 116.197 316.714 116.247 316.509 116.316C316.306 116.383 316.141 116.484 316.015 116.621C315.892 116.754 315.83 116.937 315.83 117.168C315.83 117.484 315.947 117.723 316.181 117.885C316.417 118.044 316.717 118.124 317.079 118.124ZM323.889 112.882L323.889 113.653L320.821 113.653L320.821 112.882L323.889 112.882ZM321.715 111.463L322.625 111.463L322.625 117.106C322.625 117.363 322.662 117.556 322.736 117.684C322.813 117.81 322.911 117.895 323.029 117.939C323.15 117.98 323.277 118.001 323.411 118.001C323.511 118.001 323.593 117.995 323.658 117.985C323.722 117.972 323.773 117.962 323.812 117.954L323.997 118.771C323.935 118.795 323.849 118.818 323.738 118.841C323.628 118.866 323.488 118.879 323.318 118.879C323.061 118.879 322.81 118.824 322.563 118.714C322.319 118.603 322.116 118.435 321.954 118.209C321.795 117.983 321.715 117.697 321.715 117.353L321.715 111.463ZM327.676 118.926C327.105 118.926 326.613 118.8 326.2 118.548C325.788 118.293 325.471 117.939 325.247 117.484C325.027 117.027 324.916 116.495 324.916 115.888C324.916 115.282 325.027 114.747 325.247 114.285C325.471 113.82 325.782 113.457 326.18 113.198C326.581 112.936 327.049 112.805 327.583 112.805C327.892 112.805 328.196 112.856 328.497 112.959C328.797 113.062 329.071 113.229 329.318 113.46C329.564 113.689 329.761 113.992 329.907 114.37C330.054 114.747 330.127 115.213 330.127 115.765L330.127 116.15L325.564 116.15L325.564 115.364L329.202 115.364C329.202 115.03 329.135 114.732 329.002 114.47C328.871 114.208 328.683 114.001 328.439 113.849C328.197 113.698 327.912 113.622 327.583 113.622C327.221 113.622 326.907 113.712 326.643 113.892C326.381 114.069 326.179 114.3 326.038 114.586C325.896 114.871 325.826 115.177 325.826 115.503L325.826 116.027C325.826 116.474 325.903 116.853 326.057 117.164C326.214 117.472 326.431 117.708 326.708 117.869C326.986 118.029 327.308 118.108 327.676 118.108C327.915 118.108 328.131 118.075 328.323 118.008C328.519 117.939 328.687 117.836 328.828 117.7C328.97 117.561 329.079 117.389 329.156 117.183L330.035 117.43C329.942 117.728 329.787 117.99 329.568 118.216C329.35 118.44 329.08 118.615 328.759 118.741C328.438 118.864 328.077 118.926 327.676 118.926ZM334.687 118.802L334.687 110.908L335.643 110.908L335.643 117.954L339.312 117.954L339.312 118.802L334.687 118.802ZM342.411 118.941C342.036 118.941 341.696 118.87 341.39 118.729C341.084 118.585 340.841 118.378 340.661 118.108C340.481 117.836 340.391 117.507 340.391 117.122C340.391 116.783 340.458 116.508 340.592 116.297C340.726 116.084 340.904 115.917 341.128 115.796C341.351 115.675 341.598 115.585 341.868 115.526C342.14 115.464 342.414 115.416 342.689 115.38C343.048 115.333 343.34 115.299 343.564 115.275C343.79 115.25 343.954 115.207 344.057 115.148C344.162 115.089 344.215 114.986 344.215 114.84L344.215 114.809C344.215 114.429 344.111 114.133 343.903 113.923C343.697 113.712 343.385 113.607 342.966 113.607C342.532 113.607 342.191 113.702 341.945 113.892C341.698 114.082 341.525 114.285 341.424 114.501L340.561 114.192C340.715 113.833 340.921 113.553 341.178 113.352C341.437 113.149 341.72 113.008 342.026 112.928C342.334 112.846 342.637 112.805 342.935 112.805C343.126 112.805 343.344 112.828 343.591 112.874C343.84 112.918 344.08 113.009 344.311 113.148C344.545 113.287 344.739 113.496 344.893 113.776C345.048 114.056 345.125 114.431 345.125 114.902L345.125 118.802L344.215 118.802L344.215 118.001L344.169 118.001C344.107 118.129 344.004 118.266 343.86 118.413C343.717 118.559 343.525 118.684 343.286 118.787C343.047 118.89 342.756 118.941 342.411 118.941ZM342.55 118.124C342.91 118.124 343.213 118.053 343.46 117.912C343.709 117.771 343.896 117.588 344.022 117.365C344.151 117.141 344.215 116.906 344.215 116.659L344.215 115.827C344.176 115.873 344.092 115.915 343.961 115.954C343.832 115.99 343.683 116.022 343.514 116.05C343.347 116.076 343.183 116.099 343.024 116.12C342.867 116.138 342.74 116.153 342.642 116.166C342.406 116.197 342.185 116.247 341.979 116.316C341.776 116.383 341.612 116.484 341.486 116.621C341.363 116.754 341.301 116.937 341.301 117.168C341.301 117.484 341.418 117.723 341.652 117.885C341.888 118.044 342.188 118.124 342.55 118.124ZM346.908 118.802L346.908 110.908L347.818 110.908L347.818 113.822L347.895 113.822C347.962 113.72 348.054 113.589 348.173 113.429C348.293 113.267 348.465 113.123 348.689 112.998C348.915 112.869 349.221 112.805 349.606 112.805C350.105 112.805 350.544 112.929 350.925 113.179C351.305 113.428 351.602 113.781 351.815 114.239C352.028 114.696 352.135 115.236 352.135 115.857C352.135 116.484 352.028 117.028 351.815 117.488C351.602 117.945 351.306 118.3 350.928 118.552C350.551 118.801 350.115 118.926 349.622 118.926C349.242 118.926 348.937 118.863 348.708 118.737C348.48 118.608 348.304 118.463 348.18 118.301C348.057 118.137 347.962 118.001 347.895 117.893L347.787 117.893L347.787 118.802L346.908 118.802ZM347.803 115.842C347.803 116.289 347.868 116.684 347.999 117.025C348.13 117.365 348.322 117.631 348.573 117.823C348.825 118.013 349.134 118.108 349.498 118.108C349.879 118.108 350.196 118.008 350.451 117.808C350.707 117.605 350.9 117.332 351.029 116.991C351.16 116.646 351.225 116.263 351.225 115.842C351.225 115.426 351.161 115.051 351.033 114.717C350.907 114.38 350.715 114.114 350.458 113.919C350.204 113.721 349.884 113.622 349.498 113.622C349.128 113.622 348.818 113.716 348.566 113.903C348.314 114.088 348.124 114.348 347.995 114.682C347.867 115.013 347.803 115.4 347.803 115.842ZM356.009 118.926C355.438 118.926 354.946 118.8 354.532 118.548C354.121 118.293 353.804 117.939 353.58 117.484C353.359 117.027 353.249 116.495 353.249 115.888C353.249 115.282 353.359 114.747 353.58 114.285C353.804 113.82 354.115 113.457 354.513 113.198C354.914 112.936 355.382 112.805 355.916 112.805C356.224 112.805 356.529 112.856 356.83 112.959C357.13 113.062 357.404 113.229 357.651 113.46C357.897 113.689 358.094 113.992 358.24 114.37C358.387 114.747 358.46 115.213 358.46 115.765L358.46 116.15L353.896 116.15L353.896 115.364L357.535 115.364C357.535 115.03 357.468 114.732 357.334 114.47C357.203 114.208 357.016 114.001 356.772 113.849C356.53 113.698 356.245 113.622 355.916 113.622C355.554 113.622 355.24 113.712 354.976 113.892C354.713 114.069 354.512 114.3 354.37 114.586C354.229 114.871 354.158 115.177 354.158 115.503L354.158 116.027C354.158 116.474 354.236 116.853 354.39 117.164C354.546 117.472 354.764 117.708 355.041 117.869C355.319 118.029 355.641 118.108 356.009 118.108C356.248 118.108 356.463 118.075 356.656 118.008C356.851 117.939 357.02 117.836 357.161 117.7C357.302 117.561 357.412 117.389 357.489 117.183L358.367 117.43C358.275 117.728 358.12 117.99 357.901 118.216C357.683 118.44 357.413 118.615 357.092 118.741C356.77 118.864 356.409 118.926 356.009 118.926ZM360.753 110.908L360.753 118.802L359.844 118.802L359.844 110.908L360.753 110.908ZM371.948 113.375L370.992 113.375C370.935 113.1 370.836 112.859 370.695 112.651C370.556 112.442 370.386 112.268 370.186 112.126C369.988 111.983 369.769 111.875 369.527 111.803C369.285 111.731 369.034 111.695 368.771 111.695C368.294 111.695 367.861 111.815 367.473 112.057C367.087 112.299 366.78 112.654 366.551 113.125C366.325 113.595 366.212 114.172 366.212 114.855C366.212 115.539 366.325 116.116 366.551 116.586C366.78 117.056 367.087 117.412 367.473 117.654C367.861 117.895 368.294 118.016 368.771 118.016C369.034 118.016 369.285 117.98 369.527 117.908C369.768 117.836 369.988 117.729 370.186 117.588C370.386 117.444 370.556 117.268 370.695 117.06C370.836 116.849 370.935 116.608 370.992 116.335L371.948 116.335C371.876 116.739 371.745 117.1 371.554 117.419C371.364 117.737 371.128 118.008 370.845 118.232C370.563 118.453 370.245 118.621 369.893 118.737C369.544 118.852 369.17 118.91 368.771 118.91C368.098 118.91 367.5 118.746 366.975 118.417C366.451 118.088 366.039 117.62 365.738 117.014C365.437 116.407 365.287 115.688 365.287 114.855C365.287 114.023 365.437 113.303 365.738 112.697C366.039 112.09 366.451 111.623 366.975 111.294C367.5 110.965 368.098 110.8 368.771 110.8C369.17 110.8 369.544 110.858 369.893 110.974C370.245 111.09 370.563 111.259 370.845 111.483C371.128 111.704 371.364 111.974 371.554 112.292C371.745 112.608 371.876 112.969 371.948 113.375ZM375.111 118.941C374.736 118.941 374.395 118.87 374.09 118.729C373.784 118.585 373.541 118.378 373.361 118.108C373.181 117.836 373.091 117.507 373.091 117.122C373.091 116.783 373.158 116.508 373.292 116.297C373.425 116.084 373.604 115.917 373.828 115.796C374.051 115.675 374.298 115.585 374.568 115.526C374.84 115.464 375.114 115.416 375.389 115.38C375.748 115.333 376.04 115.299 376.264 115.275C376.49 115.25 376.654 115.207 376.757 115.148C376.862 115.089 376.915 114.986 376.915 114.84L376.915 114.809C376.915 114.429 376.811 114.133 376.603 113.923C376.397 113.712 376.085 113.607 375.666 113.607C375.232 113.607 374.891 113.702 374.645 113.892C374.398 114.082 374.225 114.285 374.124 114.501L373.261 114.192C373.415 113.833 373.621 113.553 373.878 113.352C374.137 113.149 374.42 113.008 374.726 112.928C375.034 112.846 375.337 112.805 375.635 112.805C375.825 112.805 376.044 112.828 376.29 112.874C376.54 112.918 376.78 113.009 377.011 113.148C377.245 113.287 377.439 113.496 377.593 113.776C377.747 114.056 377.825 114.431 377.825 114.902L377.825 118.802L376.915 118.802L376.915 118.001L376.869 118.001C376.807 118.129 376.704 118.266 376.56 118.413C376.416 118.559 376.225 118.684 375.986 118.787C375.747 118.89 375.455 118.941 375.111 118.941ZM375.25 118.124C375.61 118.124 375.913 118.053 376.159 117.912C376.409 117.771 376.596 117.588 376.722 117.365C376.851 117.141 376.915 116.906 376.915 116.659L376.915 115.827C376.876 115.873 376.792 115.915 376.661 115.954C376.532 115.99 376.383 116.022 376.213 116.05C376.046 116.076 375.883 116.099 375.724 116.12C375.567 116.138 375.44 116.153 375.342 116.166C375.106 116.197 374.885 116.247 374.679 116.316C374.476 116.383 374.312 116.484 374.186 116.621C374.063 116.754 374.001 116.937 374.001 117.168C374.001 117.484 374.118 117.723 374.352 117.885C374.588 118.044 374.887 118.124 375.25 118.124ZM379.485 118.802L379.485 112.882L380.364 112.882L380.364 113.776L380.425 113.776C380.533 113.483 380.729 113.245 381.011 113.063C381.294 112.881 381.612 112.789 381.967 112.789C382.034 112.789 382.117 112.791 382.218 112.793C382.318 112.796 382.394 112.8 382.445 112.805L382.445 113.73C382.414 113.722 382.344 113.711 382.233 113.695C382.125 113.677 382.011 113.668 381.89 113.668C381.602 113.668 381.345 113.729 381.119 113.849C380.896 113.968 380.718 114.132 380.587 114.343C380.459 114.551 380.394 114.789 380.394 115.056L380.394 118.802L379.485 118.802ZM385.579 118.926C385.085 118.926 384.65 118.801 384.272 118.552C383.894 118.3 383.599 117.945 383.385 117.488C383.172 117.028 383.066 116.484 383.066 115.857C383.066 115.236 383.172 114.696 383.385 114.239C383.599 113.781 383.896 113.428 384.276 113.179C384.656 112.929 385.096 112.805 385.594 112.805C385.98 112.805 386.284 112.869 386.508 112.998C386.734 113.123 386.906 113.267 387.024 113.429C387.145 113.589 387.239 113.72 387.305 113.822L387.383 113.822L387.383 110.908L388.292 110.908L388.292 118.802L387.413 118.802L387.413 117.893L387.305 117.893C387.239 118.001 387.144 118.137 387.02 118.301C386.897 118.463 386.721 118.608 386.492 118.737C386.263 118.863 385.959 118.926 385.579 118.926ZM385.702 118.108C386.067 118.108 386.375 118.013 386.627 117.823C386.879 117.631 387.07 117.365 387.201 117.025C387.332 116.684 387.398 116.289 387.398 115.842C387.398 115.4 387.334 115.013 387.205 114.682C387.077 114.348 386.887 114.088 386.635 113.903C386.383 113.716 386.072 113.622 385.702 113.622C385.317 113.622 384.995 113.721 384.738 113.919C384.484 114.114 384.293 114.38 384.164 114.717C384.038 115.051 383.975 115.426 383.975 115.842C383.975 116.263 384.039 116.646 384.168 116.991C384.299 117.332 384.492 117.605 384.746 117.808C385.003 118.008 385.322 118.108 385.702 118.108Z" fill="white"/>
<rect x="47.4941" y="102.556" width="94" height="24" rx="12" stroke="#BDA6A6"/>
<path d="M59.2717 110.162L60.3663 110.162L62.5556 113.847L62.6481 113.847L64.8374 110.162L65.9321 110.162L63.0798 114.803L63.0798 118.056L62.1239 118.056L62.1239 114.803L59.2717 110.162ZM73.4578 114.109C73.4578 114.942 73.3075 115.661 73.0068 116.268C72.7062 116.874 72.2938 117.342 71.7696 117.671C71.2454 118 70.6467 118.164 69.9734 118.164C69.3002 118.164 68.7015 118 68.1773 117.671C67.6531 117.342 67.2407 116.874 66.94 116.268C66.6394 115.661 66.489 114.942 66.489 114.109C66.489 113.277 66.6394 112.557 66.94 111.951C67.2407 111.344 67.6531 110.877 68.1773 110.548C68.7015 110.219 69.3002 110.054 69.9734 110.054C70.6467 110.054 71.2454 110.219 71.7696 110.548C72.2938 110.877 72.7062 111.344 73.0068 111.951C73.3075 112.557 73.4578 113.277 73.4578 114.109ZM72.5328 114.109C72.5328 113.426 72.4184 112.849 72.1897 112.379C71.9636 111.908 71.6565 111.552 71.2685 111.311C70.8831 111.069 70.4514 110.949 69.9734 110.949C69.4955 110.949 69.0625 111.069 68.6745 111.311C68.2891 111.552 67.982 111.908 67.7533 112.379C67.5272 112.849 67.4141 113.426 67.4141 114.109C67.4141 114.793 67.5272 115.37 67.7533 115.84C67.982 116.31 68.2891 116.666 68.6745 116.908C69.0625 117.149 69.4955 117.27 69.9734 117.27C70.4514 117.27 70.8831 117.149 71.2685 116.908C71.6565 116.666 71.9636 116.31 72.1897 115.84C72.4184 115.37 72.5328 114.793 72.5328 114.109ZM80.2454 110.162L81.2013 110.162L81.2013 115.389C81.2013 115.929 81.0741 116.41 80.8197 116.834C80.5679 117.256 80.212 117.588 79.7521 117.833C79.2921 118.074 78.7525 118.195 78.1332 118.195C77.5139 118.195 76.9743 118.074 76.5144 117.833C76.0544 117.588 75.6972 117.256 75.4428 116.834C75.191 116.41 75.0651 115.929 75.0651 115.389L75.0651 110.162L76.021 110.162L76.021 115.312C76.021 115.697 76.1058 116.04 76.2754 116.341C76.445 116.639 76.6865 116.874 77 117.046C77.3161 117.216 77.6938 117.301 78.1332 117.301C78.5726 117.301 78.9504 117.216 79.2664 117.046C79.5825 116.874 79.824 116.639 79.991 116.341C80.1606 116.04 80.2454 115.697 80.2454 115.312L80.2454 110.162ZM83.1102 118.056L83.1102 110.162L85.7775 110.162C86.3942 110.162 86.9004 110.268 87.2961 110.478C87.6918 110.687 87.9848 110.973 88.1749 111.338C88.3651 111.703 88.4601 112.118 88.4601 112.583C88.4601 113.048 88.3651 113.46 88.1749 113.82C87.9848 114.18 87.6931 114.463 87.3 114.668C86.9068 114.871 86.4045 114.973 85.7929 114.973L83.6344 114.973L83.6344 114.109L85.7621 114.109C86.1835 114.109 86.5227 114.048 86.7796 113.924C87.0392 113.801 87.2267 113.626 87.3424 113.4C87.4606 113.171 87.5197 112.899 87.5197 112.583C87.5197 112.267 87.4606 111.991 87.3424 111.754C87.2242 111.518 87.0353 111.335 86.7758 111.207C86.5162 111.076 86.1732 111.01 85.7466 111.01L84.0661 111.01L84.0661 118.056L83.1102 118.056ZM86.8259 114.51L88.7685 118.056L87.6584 118.056L85.7466 114.51L86.8259 114.51ZM93.1057 118.056L93.1057 110.162L95.8654 110.162C96.4153 110.162 96.8689 110.257 97.226 110.448C97.5832 110.635 97.8492 110.888 98.0239 111.207C98.1986 111.523 98.286 111.874 98.286 112.259C98.286 112.598 98.2256 112.878 98.1048 113.099C97.9866 113.32 97.8299 113.495 97.6346 113.624C97.4419 113.752 97.2325 113.847 97.0063 113.909L97.0063 113.986C97.2479 114.001 97.4907 114.086 97.7348 114.24C97.9789 114.394 98.1832 114.615 98.3477 114.903C98.5121 115.191 98.5944 115.543 98.5944 115.959C98.5944 116.355 98.5044 116.711 98.3245 117.027C98.1447 117.343 97.8607 117.594 97.4727 117.779C97.0847 117.964 96.5798 118.056 95.9579 118.056L93.1057 118.056ZM94.0616 117.208L95.9579 117.208C96.5824 117.208 97.0256 117.087 97.2877 116.846C97.5524 116.602 97.6847 116.306 97.6847 115.959C97.6847 115.692 97.6166 115.445 97.4804 115.219C97.3442 114.991 97.1502 114.808 96.8984 114.672C96.6466 114.533 96.3485 114.464 96.0042 114.464L94.0616 114.464L94.0616 117.208ZM94.0616 113.631L95.8346 113.631C96.1224 113.631 96.3819 113.575 96.6132 113.462C96.847 113.349 97.032 113.189 97.1682 112.984C97.307 112.778 97.3764 112.537 97.3764 112.259C97.3764 111.912 97.2556 111.618 97.014 111.376C96.7725 111.132 96.3896 111.01 95.8654 111.01L94.0616 111.01L94.0616 113.631ZM100.165 118.056L100.165 110.162L102.832 110.162C103.449 110.162 103.955 110.268 104.351 110.478C104.747 110.687 105.04 110.973 105.23 111.338C105.42 111.703 105.515 112.118 105.515 112.583C105.515 113.048 105.42 113.46 105.23 113.82C105.04 114.18 104.748 114.463 104.355 114.668C103.962 114.871 103.459 114.973 102.848 114.973L100.689 114.973L100.689 114.109L102.817 114.109C103.238 114.109 103.577 114.048 103.834 113.924C104.094 113.801 104.282 113.626 104.397 113.4C104.515 113.171 104.574 112.899 104.574 112.583C104.574 112.267 104.515 111.991 104.397 111.754C104.279 111.518 104.09 111.335 103.831 111.207C103.571 111.076 103.228 111.01 102.801 111.01L101.121 111.01L101.121 118.056L100.165 118.056ZM103.881 114.51L105.823 118.056L104.713 118.056L102.801 114.51L103.881 114.51ZM107.432 118.056L106.429 118.056L109.328 110.162L110.315 110.162L113.213 118.056L112.211 118.056L109.852 111.411L109.79 111.411L107.432 118.056ZM107.802 114.973L111.841 114.973L111.841 115.821L107.802 115.821L107.802 114.973ZM120.702 110.162L120.702 118.056L119.777 118.056L115.476 111.858L115.399 111.858L115.399 118.056L114.443 118.056L114.443 110.162L115.368 110.162L119.685 116.376L119.762 116.376L119.762 110.162L120.702 110.162ZM125.051 118.056L122.615 118.056L122.615 110.162L125.159 110.162C125.925 110.162 126.58 110.32 127.125 110.636C127.669 110.95 128.087 111.401 128.377 111.989C128.668 112.575 128.813 113.277 128.813 114.094C128.813 114.916 128.666 115.624 128.374 116.218C128.081 116.809 127.654 117.263 127.094 117.582C126.534 117.898 125.853 118.056 125.051 118.056ZM123.571 117.208L124.989 117.208C125.642 117.208 126.183 117.082 126.612 116.83C127.041 116.579 127.361 116.22 127.572 115.755C127.783 115.29 127.888 114.736 127.888 114.094C127.888 113.457 127.784 112.908 127.576 112.448C127.368 111.985 127.057 111.631 126.643 111.384C126.229 111.135 125.714 111.01 125.097 111.01L123.571 111.01L123.571 117.208Z" fill="white"/>
<path d="M383.436 283.015C382.234 283.383 380.564 283.201 379.498 281.603L378.802 280.559L378.2 279.656L379.498 277.709C380.562 276.112 382.225 275.928 383.436 276.297C384.642 276.661 385.93 277.736 385.93 279.657C385.93 281.577 384.642 282.651 383.436 283.015ZM372.011 281.603C370.946 283.2 369.28 283.384 368.07 283.015C366.866 282.651 365.578 281.577 365.578 279.657C365.578 277.736 366.866 276.661 368.072 276.297C368.403 276.196 368.769 276.136 369.148 276.136C370.148 276.136 371.237 276.55 372.011 277.709L373.309 279.656L372.011 281.603ZM384.615 272.4C381.345 271.413 378.007 272.608 376.112 275.452L375.754 275.987L375.398 275.452C373.5 272.608 370.168 271.405 366.891 272.402C363.622 273.391 361.508 276.24 361.508 279.657C361.508 283.074 363.622 285.921 366.891 286.911C370.161 287.905 373.499 286.706 375.398 283.861L375.754 283.325L376.112 283.861C376.191 283.98 376.273 284.097 376.358 284.21C377.818 286.171 380.003 287.254 382.338 287.254C383.088 287.254 383.853 287.143 384.617 286.912C387.886 285.921 390 283.074 390 279.657C390 276.238 387.886 273.391 384.615 272.4Z" fill="white"/>
<path d="M378.802 280.559L376.357 284.209C376.273 284.097 376.191 283.98 376.112 283.861L375.754 283.325L378.2 279.656L378.802 280.559Z" fill="#BBBCBD"/>
<path d="M375.753 275.986L373.309 279.637C373.224 279.524 373.142 279.407 373.063 279.288L372.705 278.753L375.151 275.083L375.753 275.986Z" fill="#BBBCBD"/>
<defs>
<filter id="filter0_dddd_540_564" x="0.584314" y="0.540857" width="432.843" height="312.867" filterUnits="userSpaceOnUse" color-interpolation-filters="sRGB">
<feFlood flood-opacity="0" result="BackgroundImageFix"/>
<feColorMatrix in="SourceAlpha" type="matrix" values="0 0 0 0 0 0 0 0 0 0 0 0 0 0 0 0 0 0 127 0" result="hardAlpha"/>
<feOffset dy="-4.07026"/>
<feGaussianBlur stdDeviation="4.07026"/>
<feColorMatrix type="matrix" values="0 0 0 0 0 0 0 0 0 0 0 0 0 0 0 0 0 0 0.1 0"/>
<feBlend mode="normal" in2="BackgroundImageFix" result="effect1_dropShadow_540_564"/>
<feColorMatrix in="SourceAlpha" type="matrix" values="0 0 0 0 0 0 0 0 0 0 0 0 0 0 0 0 0 0 127 0" result="hardAlpha"/>
<feOffset dy="-14.9243"/>
<feGaussianBlur stdDeviation="7.46214"/>
<feColorMatrix type="matrix" values="0 0 0 0 0 0 0 0 0 0 0 0 0 0 0 0 0 0 0.09 0"/>
<feBlend mode="normal" in2="effect1_dropShadow_540_564" result="effect2_dropShadow_540_564"/>
<feColorMatrix in="SourceAlpha" type="matrix" values="0 0 0 0 0 0 0 0 0 0 0 0 0 0 0 0 0 0 127 0" result="hardAlpha"/>
<feOffset dy="-33.9188"/>
<feGaussianBlur stdDeviation="10.1756"/>
<feColorMatrix type="matrix" values="0 0 0 0 0 0 0 0 0 0 0 0 0 0 0 0 0 0 0.05 0"/>
<feBlend mode="normal" in2="effect2_dropShadow_540_564" result="effect3_dropShadow_540_564"/>
<feColorMatrix in="SourceAlpha" type="matrix" values="0 0 0 0 0 0 0 0 0 0 0 0 0 0 0 0 0 0 127 0" result="hardAlpha"/>
<feOffset dy="-60.3755"/>
<feGaussianBlur stdDeviation="12.2108"/>
<feColorMatrix type="matrix" values="0 0 0 0 0 0 0 0 0 0 0 0 0 0 0 0 0 0 0.01 0"/>
<feBlend mode="normal" in2="effect3_dropShadow_540_564" result="effect4_dropShadow_540_564"/>
<feBlend mode="normal" in="SourceGraphic" in2="effect4_dropShadow_540_564" result="shape"/>
</filter>
<linearGradient id="paint0_linear_540_564" x1="331.871" y1="501.338" x2="25.0059" y2="501.338" gradientUnits="userSpaceOnUse">
<stop stop-color="#666969"/>
<stop offset="1" stop-color="#7727BB"/>
</linearGradient>
<linearGradient id="paint1_linear_540_564" x1="93.6147" y1="196.27" x2="49.4674" y2="229.087" gradientUnits="userSpaceOnUse">
<stop stop-color="#CDCDCD"/>
<stop offset="0.447917" stop-color="#E8E8E8"/>
<stop offset="1" stop-color="#B4B4B4"/>
</linearGradient>
<linearGradient id="paint2_linear_540_564" x1="93.6147" y1="196.269" x2="49.4674" y2="229.087" gradientUnits="userSpaceOnUse">
<stop stop-color="#CDCDCD"/>
<stop offset="0.447917" stop-color="#E8E8E8"/>
<stop offset="1" stop-color="#B4B4B4"/>
</linearGradient>
</defs>
</svg>
