<svg width="384" height="224" viewBox="0 0 384 224" fill="none" xmlns="http://www.w3.org/2000/svg">
<rect x="384" width="224" height="384" rx="12" transform="rotate(90 384 0)" fill="url(#paint0_linear_720_765)"/>
<mask id="mask0_720_765" style="mask-type:alpha" maskUnits="userSpaceOnUse" x="21" y="111" width="52" height="33">
<rect x="21.668" y="111.944" width="50.558" height="31.2304" rx="3.15392" fill="url(#paint1_linear_720_765)"/>
</mask>
<g mask="url(#mask0_720_765)">
<rect x="21.668" y="111.944" width="50.558" height="31.2304" rx="3.15392" fill="url(#paint2_linear_720_765)"/>
<path fill-rule="evenodd" clip-rule="evenodd" d="M33.3413 121.598L21.668 121.598L21.668 121.286L33.468 121.286L38.0993 124.49L38.0993 133.218L34.3823 136.432L21.668 136.432L21.668 136.12L34.2327 136.12L37.7382 133.089L37.7382 124.64L33.3413 121.598Z" fill="#868686"/>
<path fill-rule="evenodd" clip-rule="evenodd" d="M59.6696 117.694L73.1289 117.694L73.1289 117.382L59.5035 117.382L53.9891 122.946L53.9891 133.211L59.5035 138.775L73.1289 138.775L73.1289 138.462L59.6696 138.462L54.3502 133.095L54.3502 123.061L59.6696 117.694Z" fill="#868686"/>
<path fill-rule="evenodd" clip-rule="evenodd" d="M45.4791 116.703L36.1133 110.667L36.33 110.382L45.8569 116.522L45.8569 122.527L54.1697 122.527L54.1697 122.875L45.4791 122.875L45.4791 116.703Z" fill="#868686"/>
<path fill-rule="evenodd" clip-rule="evenodd" d="M37.918 132.997L46.2239 132.997L46.2239 138.696L38.9291 143.428L38.7125 143.178L45.8628 138.54L45.8628 133.309L37.918 133.309L37.918 132.997Z" fill="#868686"/>
<path fill-rule="evenodd" clip-rule="evenodd" d="M54.1699 132.997L45.864 132.997L45.864 138.696L53.1588 143.428L53.3754 143.178L46.2251 138.54L46.2251 133.309L54.1699 133.309L54.1699 132.997Z" fill="#868686"/>
</g>
<rect x="21.9308" y="112.206" width="50.0323" height="30.7048" rx="2.89109" stroke="white" stroke-width="0.525653"/>
<path d="M24.4744 200.422C24.6453 200.522 24.8361 200.609 25.0467 200.685C25.2574 200.76 25.474 200.824 25.6966 200.875C25.9232 200.923 26.1498 200.961 26.3763 200.989C26.6069 201.013 26.8255 201.025 27.0322 201.025C27.4933 201.025 27.9086 200.965 28.2783 200.846C28.6519 200.726 28.9739 200.557 29.2442 200.339C29.5145 200.12 29.7291 199.86 29.8881 199.558C30.0511 199.252 30.1524 198.914 30.1922 198.544C29.9855 198.707 29.7569 198.848 29.5065 198.968C29.2561 199.087 28.9898 199.186 28.7076 199.266C28.4293 199.341 28.1412 199.399 27.843 199.439C27.5489 199.474 27.2528 199.492 26.9547 199.492C26.3743 199.492 25.8457 199.423 25.3687 199.284C24.8957 199.144 24.4902 198.944 24.1524 198.681C23.8145 198.419 23.5522 198.101 23.3654 197.727C23.1825 197.35 23.0911 196.922 23.0911 196.445C23.0911 195.976 23.1825 195.541 23.3654 195.14C23.5522 194.738 23.8264 194.39 24.1882 194.096C24.5499 193.798 24.999 193.566 25.5356 193.399C26.0722 193.228 26.6943 193.142 27.4018 193.142C28.0895 193.142 28.7175 193.23 29.2859 193.405C29.8543 193.58 30.3412 193.852 30.7467 194.222C31.1521 194.591 31.4661 195.062 31.6887 195.635C31.9153 196.203 32.0286 196.883 32.0286 197.674C32.0286 198.52 31.9014 199.26 31.647 199.892C31.3966 200.52 31.0508 201.042 30.6095 201.46C30.1723 201.877 29.6556 202.189 29.0594 202.396C28.4631 202.603 27.8192 202.706 27.1276 202.706C26.8374 202.706 26.5353 202.688 26.2213 202.652C25.9113 202.616 25.6032 202.563 25.2971 202.491C24.9911 202.42 24.695 202.33 24.4088 202.223C24.1266 202.116 23.8682 201.992 23.6337 201.853L24.4744 200.422ZM24.9811 196.416C24.9811 196.61 25.0229 196.793 25.1064 196.964C25.1898 197.135 25.319 197.284 25.4939 197.411C25.6728 197.535 25.9013 197.634 26.1796 197.709C26.4578 197.781 26.7937 197.817 27.1872 197.817C27.5171 197.817 27.8291 197.791 28.1233 197.739C28.4174 197.688 28.6897 197.616 28.9401 197.525C29.1905 197.433 29.4171 197.326 29.6198 197.203C29.8265 197.079 30.0034 196.944 30.1505 196.797C30.0551 196.145 29.7689 195.654 29.2919 195.325C28.8149 194.991 28.1889 194.824 27.4138 194.824C27.0242 194.824 26.6784 194.863 26.3763 194.943C26.0742 195.022 25.8198 195.134 25.6131 195.277C25.4065 195.416 25.2494 195.583 25.1421 195.778C25.0348 195.972 24.9811 196.185 24.9811 196.416ZM33.9425 197.894C33.9425 197.143 34.0558 196.469 34.2823 195.873C34.5089 195.277 34.8309 194.772 35.2482 194.359C35.6656 193.941 36.1724 193.623 36.7686 193.405C37.3648 193.186 38.0326 193.077 38.7719 193.077C39.5112 193.077 40.179 193.186 40.7753 193.405C41.3715 193.623 41.8783 193.941 42.2956 194.359C42.713 194.772 43.035 195.277 43.2615 195.873C43.4881 196.469 43.6014 197.143 43.6014 197.894C43.6014 198.646 43.4881 199.319 43.2615 199.916C43.035 200.512 42.713 201.017 42.2956 201.43C41.8783 201.843 41.3715 202.159 40.7753 202.378C40.179 202.597 39.5112 202.706 38.7719 202.706C38.0326 202.706 37.3648 202.597 36.7686 202.378C36.1724 202.159 35.6656 201.843 35.2482 201.43C34.8309 201.017 34.5089 200.512 34.2823 199.916C34.0558 199.319 33.9425 198.646 33.9425 197.894ZM35.8325 197.888C35.8325 198.397 35.9001 198.846 36.0352 199.236C36.1744 199.625 36.3711 199.953 36.6255 200.22C36.8799 200.482 37.1879 200.683 37.5497 200.822C37.9114 200.957 38.3188 201.025 38.7719 201.025C39.2251 201.025 39.6325 200.957 39.9942 200.822C40.3559 200.683 40.664 200.482 40.9184 200.22C41.1727 199.953 41.3675 199.625 41.5027 199.236C41.6418 198.846 41.7113 198.397 41.7113 197.888C41.7113 197.384 41.6418 196.938 41.5027 196.553C41.3675 196.163 41.1727 195.835 40.9184 195.569C40.664 195.303 40.3559 195.102 39.9942 194.967C39.6325 194.828 39.2251 194.758 38.7719 194.758C38.3188 194.758 37.9114 194.828 37.5497 194.967C37.1879 195.102 36.8799 195.303 36.6255 195.569C36.3711 195.835 36.1744 196.163 36.0352 196.553C35.9001 196.938 35.8325 197.384 35.8325 197.888ZM45.5391 198.175C45.5391 197.328 45.6643 196.591 45.9148 195.963C46.1691 195.331 46.515 194.806 46.9522 194.388C47.3934 193.971 47.9121 193.659 48.5083 193.452C49.1046 193.246 49.7485 193.142 50.4401 193.142C50.7303 193.142 51.0244 193.158 51.3225 193.19C51.6246 193.218 51.9208 193.264 52.2109 193.327C52.5011 193.391 52.7813 193.474 53.0516 193.578C53.3259 193.677 53.5803 193.796 53.8148 193.935L52.9741 195.366C52.7992 195.267 52.6124 195.183 52.4136 195.116C52.2189 195.044 52.0162 194.989 51.8055 194.949C51.5948 194.905 51.3822 194.873 51.1675 194.854C50.9529 194.834 50.7422 194.824 50.5355 194.824C50.0744 194.824 49.6571 194.883 49.2834 195.003C48.9138 195.122 48.5938 195.291 48.3235 195.509C48.0532 195.728 47.8366 195.99 47.6736 196.296C47.5146 196.599 47.4153 196.934 47.3755 197.304C47.5822 197.141 47.8108 197 48.0612 196.881C48.3116 196.761 48.5759 196.664 48.8542 196.589C49.1364 196.509 49.4246 196.451 49.7187 196.416C50.0168 196.376 50.3149 196.356 50.613 196.356C51.1934 196.356 51.72 196.426 52.193 196.565C52.67 196.704 53.0775 196.905 53.4153 197.167C53.7532 197.429 54.0135 197.749 54.1964 198.127C54.3832 198.5 54.4766 198.926 54.4766 199.403C54.4766 199.872 54.3832 200.307 54.1964 200.709C54.0135 201.11 53.7413 201.46 53.3795 201.758C53.0178 202.052 52.5687 202.285 52.0321 202.455C51.4955 202.622 50.8734 202.706 50.1659 202.706C49.4782 202.706 48.8502 202.618 48.2818 202.444C47.7134 202.269 47.2265 201.996 46.821 201.627C46.4156 201.257 46.0996 200.788 45.873 200.22C45.6504 199.647 45.5391 198.966 45.5391 198.175ZM47.4172 199.051C47.5126 199.703 47.7988 200.196 48.2758 200.53C48.7528 200.86 49.3788 201.025 50.1539 201.025C50.5435 201.025 50.8893 200.985 51.1914 200.905C51.4935 200.826 51.7479 200.716 51.9546 200.577C52.1612 200.434 52.3183 200.265 52.4256 200.071C52.5329 199.876 52.5866 199.663 52.5866 199.433C52.5866 199.238 52.5448 199.055 52.4613 198.884C52.3779 198.713 52.2467 198.566 52.0678 198.443C51.8929 198.316 51.6664 198.216 51.3881 198.145C51.1099 198.069 50.774 198.031 50.3805 198.031C50.0506 198.031 49.7386 198.057 49.4444 198.109C49.1503 198.161 48.878 198.232 48.6276 198.324C48.3772 198.415 48.1486 198.522 47.9419 198.646C47.7392 198.769 47.5643 198.904 47.4172 199.051ZM61.6194 194.925L56.1997 194.925L56.1997 193.256L64.4813 193.256L59.6221 202.575L57.4756 202.575L61.6194 194.925ZM66.3058 200.357C66.5324 200.472 66.7768 200.571 67.0391 200.655C67.3055 200.734 67.5777 200.802 67.856 200.858C68.1382 200.913 68.4204 200.955 68.7026 200.983C68.9888 201.007 69.2671 201.019 69.5373 201.019C70.0143 201.019 70.4257 200.985 70.7715 200.917C71.1213 200.846 71.4075 200.746 71.6301 200.619C71.8567 200.492 72.0236 200.341 72.1309 200.166C72.2422 199.987 72.2979 199.79 72.2979 199.576C72.2979 199.357 72.2403 199.156 72.125 198.973C72.0137 198.791 71.8448 198.634 71.6182 198.502C71.3956 198.371 71.1134 198.27 70.7715 198.198C70.4337 198.123 70.0382 198.085 69.585 198.085C69.3823 198.085 69.1538 198.095 68.8994 198.115C68.645 198.131 68.3747 198.159 68.0885 198.198C67.8023 198.238 67.5042 198.294 67.1942 198.365C66.8841 198.433 66.5701 198.516 66.2521 198.616L66.2521 193.256L73.4009 193.256L73.4009 194.931L67.9991 194.931L67.9991 196.738C68.2972 196.67 68.6092 196.614 68.9352 196.571C69.2611 196.523 69.6248 196.499 70.0263 196.499C70.6821 196.499 71.2684 196.571 71.7851 196.714C72.3019 196.857 72.7371 197.062 73.0909 197.328C73.4486 197.594 73.7209 197.916 73.9077 198.294C74.0945 198.667 74.1879 199.087 74.1879 199.552C74.1879 200.033 74.0866 200.468 73.8839 200.858C73.6851 201.243 73.389 201.573 72.9955 201.847C72.6059 202.122 72.125 202.332 71.5526 202.479C70.9842 202.626 70.3303 202.7 69.591 202.7C69.2094 202.7 68.8298 202.678 68.4522 202.634C68.0786 202.595 67.7149 202.537 67.3611 202.461C67.0074 202.382 66.6675 202.287 66.3416 202.175C66.0196 202.06 65.7175 201.931 65.4353 201.788L66.3058 200.357ZM77.3956 200.422C77.5666 200.522 77.7574 200.609 77.968 200.685C78.1787 200.76 78.3953 200.824 78.6179 200.875C78.8445 200.923 79.0711 200.961 79.2976 200.989C79.5282 201.013 79.7468 201.025 79.9535 201.025C80.4146 201.025 80.8299 200.965 81.1996 200.846C81.5732 200.726 81.8952 200.557 82.1655 200.339C82.4358 200.12 82.6504 199.86 82.8094 199.558C82.9724 199.252 83.0737 198.914 83.1135 198.544C82.9068 198.707 82.6782 198.848 82.4278 198.968C82.1774 199.087 81.9111 199.186 81.6289 199.266C81.3506 199.341 81.0625 199.399 80.7643 199.439C80.4702 199.474 80.1741 199.492 79.876 199.492C79.2956 199.492 78.767 199.423 78.29 199.284C77.817 199.144 77.4115 198.944 77.0737 198.681C76.7358 198.419 76.4735 198.101 76.2867 197.727C76.1038 197.35 76.0124 196.922 76.0124 196.445C76.0124 195.976 76.1038 195.541 76.2867 195.14C76.4735 194.738 76.7477 194.39 77.1095 194.096C77.4712 193.798 77.9203 193.566 78.4569 193.399C78.9935 193.228 79.6156 193.142 80.3231 193.142C81.0108 193.142 81.6388 193.23 82.2072 193.405C82.7756 193.58 83.2625 193.852 83.668 194.222C84.0734 194.591 84.3874 195.062 84.61 195.635C84.8366 196.203 84.9499 196.883 84.9499 197.674C84.9499 198.52 84.8227 199.26 84.5683 199.892C84.3179 200.52 83.9721 201.042 83.5308 201.46C83.0936 201.877 82.5769 202.189 81.9807 202.396C81.3844 202.603 80.7405 202.706 80.0489 202.706C79.7587 202.706 79.4566 202.688 79.1426 202.652C78.8326 202.616 78.5245 202.563 78.2184 202.491C77.9124 202.42 77.6163 202.33 77.3301 202.223C77.0478 202.116 76.7895 201.992 76.555 201.853L77.3956 200.422ZM77.9024 196.416C77.9024 196.61 77.9442 196.793 78.0277 196.964C78.1111 197.135 78.2403 197.284 78.4152 197.411C78.5941 197.535 78.8226 197.634 79.1009 197.709C79.3791 197.781 79.715 197.817 80.1085 197.817C80.4384 197.817 80.7504 197.791 81.0446 197.739C81.3387 197.688 81.611 197.616 81.8614 197.525C82.1118 197.433 82.3384 197.326 82.5411 197.203C82.7478 197.079 82.9247 196.944 83.0718 196.797C82.9764 196.145 82.6902 195.654 82.2132 195.325C81.7362 194.991 81.1102 194.824 80.3351 194.824C79.9455 194.824 79.5997 194.863 79.2976 194.943C78.9955 195.022 78.7411 195.134 78.5344 195.277C78.3278 195.416 78.1707 195.583 78.0634 195.778C77.9561 195.972 77.9024 196.185 77.9024 196.416ZM86.8638 197.894C86.8638 197.143 86.9771 196.469 87.2036 195.873C87.4302 195.277 87.7522 194.772 88.1695 194.359C88.5869 193.941 89.0937 193.623 89.6899 193.405C90.2861 193.186 90.9539 193.077 91.6932 193.077C92.4326 193.077 93.1003 193.186 93.6966 193.405C94.2928 193.623 94.7996 193.941 95.2169 194.359C95.6343 194.772 95.9563 195.277 96.1828 195.873C96.4094 196.469 96.5227 197.143 96.5227 197.894C96.5227 198.646 96.4094 199.319 96.1828 199.916C95.9563 200.512 95.6343 201.017 95.2169 201.43C94.7996 201.843 94.2928 202.159 93.6966 202.378C93.1003 202.597 92.4326 202.706 91.6932 202.706C90.9539 202.706 90.2861 202.597 89.6899 202.378C89.0937 202.159 88.5869 201.843 88.1695 201.43C87.7522 201.017 87.4302 200.512 87.2036 199.916C86.9771 199.319 86.8638 198.646 86.8638 197.894ZM88.7538 197.888C88.7538 198.397 88.8214 198.846 88.9565 199.236C89.0957 199.625 89.2924 199.953 89.5468 200.22C89.8012 200.482 90.1092 200.683 90.471 200.822C90.8327 200.957 91.2401 201.025 91.6932 201.025C92.1464 201.025 92.5538 200.957 92.9155 200.822C93.2772 200.683 93.5853 200.482 93.8397 200.22C94.094 199.953 94.2888 199.625 94.424 199.236C94.5631 198.846 94.6326 198.397 94.6326 197.888C94.6326 197.384 94.5631 196.938 94.424 196.553C94.2888 196.163 94.094 195.835 93.8397 195.569C93.5853 195.303 93.2772 195.102 92.9155 194.967C92.5538 194.828 92.1464 194.758 91.6932 194.758C91.2401 194.758 90.8327 194.828 90.471 194.967C90.1092 195.102 89.8012 195.303 89.5468 195.569C89.2924 195.835 89.0957 196.163 88.9565 196.553C88.8214 196.938 88.7538 197.384 88.7538 197.888ZM98.6154 200.953L101.901 198.699C102.394 198.361 102.797 198.067 103.111 197.817C103.425 197.566 103.671 197.344 103.85 197.149C104.029 196.95 104.152 196.771 104.22 196.612C104.288 196.453 104.321 196.294 104.321 196.135C104.321 195.953 104.284 195.782 104.208 195.623C104.133 195.464 104.013 195.325 103.85 195.205C103.691 195.086 103.485 194.993 103.23 194.925C102.98 194.858 102.68 194.824 102.33 194.824C101.821 194.824 101.314 194.895 100.81 195.038C100.305 195.181 99.79 195.41 99.2653 195.724L98.3948 194.293C98.9791 193.931 99.6111 193.649 100.291 193.446C100.975 193.244 101.692 193.142 102.443 193.142C103.099 193.142 103.667 193.222 104.148 193.381C104.633 193.536 105.033 193.749 105.347 194.019C105.665 194.289 105.901 194.603 106.056 194.961C106.211 195.319 106.289 195.698 106.289 196.1C106.289 196.41 106.237 196.706 106.134 196.988C106.031 197.27 105.85 197.562 105.591 197.865C105.333 198.167 104.983 198.493 104.542 198.842C104.105 199.188 103.552 199.582 102.884 200.023L101.525 200.917L106.629 200.917L106.629 202.575L98.6154 202.575L98.6154 200.953Z" fill="#D9D9D9"/>
<path opacity="0.5" d="M313.308 28.3752L312.352 28.3752C312.296 28.1003 312.197 27.8587 312.055 27.6506C311.917 27.4425 311.747 27.2677 311.546 27.1264C311.349 26.9825 311.129 26.8746 310.887 26.8026C310.646 26.7307 310.394 26.6947 310.132 26.6947C309.654 26.6947 309.221 26.8155 308.833 27.057C308.448 27.2986 308.14 27.6545 307.912 28.1247C307.686 28.5949 307.573 29.1718 307.573 29.8553C307.573 30.5388 307.686 31.1157 307.912 31.586C308.14 32.0562 308.448 32.4121 308.833 32.6536C309.221 32.8952 309.654 33.0159 310.132 33.0159C310.394 33.0159 310.646 32.98 310.887 32.908C311.129 32.8361 311.349 32.7294 311.546 32.5881C311.747 32.4442 311.917 32.2682 312.055 32.0601C312.197 31.8493 312.296 31.6078 312.352 31.3354L313.308 31.3354C313.236 31.7389 313.105 32.0999 312.915 32.4185C312.725 32.7371 312.488 33.0082 312.206 33.2318C311.923 33.4528 311.606 33.6211 311.254 33.7367C310.904 33.8524 310.53 33.9102 310.132 33.9102C309.459 33.9102 308.86 33.7457 308.336 33.4168C307.812 33.0879 307.399 32.6202 307.099 32.0138C306.798 31.4074 306.648 30.6879 306.648 29.8553C306.648 29.0228 306.798 28.3033 307.099 27.6969C307.399 27.0904 307.812 26.6228 308.336 26.2939C308.86 25.9649 309.459 25.8005 310.132 25.8005C310.53 25.8005 310.904 25.8583 311.254 25.9739C311.606 26.0896 311.923 26.2592 312.206 26.4827C312.488 26.7037 312.725 26.9735 312.915 27.2921C313.105 27.6082 313.236 27.9692 313.308 28.3752ZM314.729 33.8022L314.729 27.8819L315.608 27.8819L315.608 28.7761L315.67 28.7761C315.778 28.4832 315.973 28.2455 316.256 28.063C316.538 27.8806 316.857 27.7894 317.212 27.7894C317.278 27.7894 317.362 27.7907 317.462 27.7932C317.562 27.7958 317.638 27.7996 317.689 27.8048L317.689 28.7298C317.659 28.7221 317.588 28.7106 317.477 28.6952C317.37 28.6772 317.255 28.6682 317.134 28.6682C316.847 28.6682 316.59 28.7286 316.364 28.8493C316.14 28.9675 315.963 29.132 315.832 29.3427C315.703 29.5508 315.639 29.7885 315.639 30.0558L315.639 33.8022L314.729 33.8022ZM321.07 33.9256C320.499 33.9256 320.007 33.7997 319.594 33.5479C319.182 33.2935 318.865 32.9389 318.642 32.484C318.421 32.0266 318.31 31.4947 318.31 30.8883C318.31 30.2819 318.421 29.7474 318.642 29.2849C318.865 28.8198 319.176 28.4575 319.574 28.1979C319.975 27.9358 320.443 27.8048 320.977 27.8048C321.286 27.8048 321.59 27.8562 321.891 27.959C322.191 28.0617 322.465 28.2288 322.712 28.46C322.958 28.6887 323.155 28.9919 323.301 29.3697C323.448 29.7474 323.521 30.2125 323.521 30.765L323.521 31.1504L318.958 31.1504L318.958 30.3641L322.596 30.3641C322.596 30.0301 322.529 29.732 322.396 29.4699C322.265 29.2078 322.077 29.0009 321.833 28.8493C321.591 28.6977 321.306 28.6219 320.977 28.6219C320.615 28.6219 320.301 28.7119 320.037 28.8917C319.775 29.069 319.573 29.3003 319.432 29.5855C319.29 29.8707 319.22 30.1765 319.22 30.5029L319.22 31.0271C319.22 31.4742 319.297 31.8532 319.451 32.1641C319.608 32.4725 319.825 32.7076 320.102 32.8695C320.38 33.0288 320.702 33.1085 321.07 33.1085C321.309 33.1085 321.525 33.075 321.717 33.0082C321.913 32.9389 322.081 32.8361 322.222 32.6999C322.364 32.5611 322.473 32.389 322.55 32.1834L323.429 32.4301C323.336 32.7282 323.181 32.9903 322.962 33.2164C322.744 33.4399 322.474 33.6147 322.153 33.7406C321.832 33.8639 321.471 33.9256 321.07 33.9256ZM327.14 33.9256C326.647 33.9256 326.212 33.801 325.834 33.5517C325.456 33.2999 325.161 32.9453 324.947 32.4879C324.734 32.0279 324.627 31.4845 324.627 30.8575C324.627 30.2356 324.734 29.696 324.947 29.2386C325.161 28.7812 325.457 28.4279 325.838 28.1787C326.218 27.9294 326.657 27.8048 327.156 27.8048C327.541 27.8048 327.846 27.869 328.069 27.9975C328.296 28.1234 328.468 28.2673 328.586 28.4292C328.707 28.5885 328.8 28.7196 328.867 28.8223L328.944 28.8223L328.944 25.9084L329.854 25.9084L329.854 33.8022L328.975 33.8022L328.975 32.8926L328.867 32.8926C328.8 33.0005 328.705 33.1367 328.582 33.3012C328.459 33.4631 328.283 33.6082 328.054 33.7367C327.825 33.8626 327.521 33.9256 327.14 33.9256ZM327.264 33.1085C327.629 33.1085 327.937 33.0134 328.189 32.8232C328.441 32.6305 328.632 32.3646 328.763 32.0254C328.894 31.6836 328.96 31.2892 328.96 30.8421C328.96 30.4001 328.896 30.0134 328.767 29.6819C328.639 29.3478 328.448 29.0883 328.197 28.9033C327.945 28.7157 327.634 28.6219 327.264 28.6219C326.878 28.6219 326.557 28.7208 326.3 28.9187C326.046 29.114 325.854 29.38 325.726 29.7166C325.6 30.0506 325.537 30.4258 325.537 30.8421C325.537 31.2635 325.601 31.6463 325.73 31.9907C325.861 32.3324 326.054 32.6048 326.308 32.8078C326.565 33.0082 326.884 33.1085 327.264 33.1085ZM331.646 33.8022L331.646 27.8819L332.556 27.8819L332.556 33.8022L331.646 33.8022ZM332.109 26.8951C331.932 26.8951 331.779 26.8348 331.65 26.714C331.524 26.5932 331.461 26.448 331.461 26.2784C331.461 26.1088 331.524 25.9637 331.65 25.8429C331.779 25.7221 331.932 25.6617 332.109 25.6617C332.286 25.6617 332.438 25.7221 332.564 25.8429C332.692 25.9637 332.756 26.1088 332.756 26.2784C332.756 26.448 332.692 26.5932 332.564 26.714C332.438 26.8348 332.286 26.8951 332.109 26.8951ZM336.797 27.8819L336.797 28.6528L333.729 28.6528L333.729 27.8819L336.797 27.8819ZM334.623 26.4634L335.532 26.4634L335.532 32.1063C335.532 32.3633 335.57 32.556 335.644 32.6845C335.721 32.8104 335.819 32.8952 335.937 32.9389C336.058 32.98 336.185 33.0005 336.319 33.0005C336.419 33.0005 336.501 32.9954 336.565 32.9851C336.63 32.9723 336.681 32.962 336.72 32.9543L336.905 33.7714C336.843 33.7945 336.757 33.8177 336.646 33.8408C336.536 33.8665 336.396 33.8793 336.226 33.8793C335.969 33.8793 335.718 33.8241 335.471 33.7136C335.227 33.6031 335.024 33.4348 334.862 33.2087C334.703 32.9825 334.623 32.6973 334.623 32.353L334.623 26.4634ZM347.693 28.3752L346.737 28.3752C346.681 28.1003 346.582 27.8587 346.44 27.6506C346.302 27.4425 346.132 27.2677 345.932 27.1264C345.734 26.9825 345.514 26.8746 345.273 26.8026C345.031 26.7307 344.779 26.6947 344.517 26.6947C344.039 26.6947 343.606 26.8155 343.218 27.057C342.833 27.2986 342.526 27.6545 342.297 28.1247C342.071 28.5949 341.958 29.1718 341.958 29.8553C341.958 30.5388 342.071 31.1157 342.297 31.586C342.526 32.0562 342.833 32.4121 343.218 32.6536C343.606 32.8952 344.039 33.0159 344.517 33.0159C344.779 33.0159 345.031 32.98 345.273 32.908C345.514 32.8361 345.734 32.7294 345.932 32.5881C346.132 32.4442 346.302 32.2682 346.44 32.0601C346.582 31.8493 346.681 31.6078 346.737 31.3354L347.693 31.3354C347.621 31.7389 347.49 32.0999 347.3 32.4185C347.11 32.7371 346.873 33.0082 346.591 33.2318C346.308 33.4528 345.991 33.6211 345.639 33.7367C345.289 33.8524 344.915 33.9102 344.517 33.9102C343.844 33.9102 343.245 33.7457 342.721 33.4168C342.197 33.0879 341.784 32.6202 341.484 32.0138C341.183 31.4074 341.033 30.6879 341.033 29.8553C341.033 29.0228 341.183 28.3033 341.484 27.6969C341.784 27.0904 342.197 26.6228 342.721 26.2939C343.245 25.9649 343.844 25.8005 344.517 25.8005C344.915 25.8005 345.289 25.8583 345.639 25.9739C345.991 26.0896 346.308 26.2592 346.591 26.4827C346.873 26.7037 347.11 26.9735 347.3 27.2921C347.49 27.6082 347.621 27.9692 347.693 28.3752ZM350.857 33.941C350.482 33.941 350.141 33.8703 349.835 33.729C349.529 33.5851 349.287 33.3783 349.107 33.1085C348.927 32.8361 348.837 32.5072 348.837 32.1217C348.837 31.7825 348.904 31.5076 349.037 31.2969C349.171 31.0836 349.35 30.9166 349.573 30.7958C349.797 30.675 350.043 30.5851 350.313 30.526C350.586 30.4643 350.859 30.4155 351.134 30.3795C351.494 30.3333 351.786 30.2986 352.009 30.2755C352.235 30.2498 352.4 30.2074 352.503 30.1483C352.608 30.0892 352.661 29.9864 352.661 29.8399L352.661 29.8091C352.661 29.4288 352.556 29.1333 352.348 28.9226C352.143 28.7119 351.831 28.6065 351.412 28.6065C350.977 28.6065 350.637 28.7016 350.39 28.8917C350.144 29.0819 349.97 29.2849 349.87 29.5007L349.007 29.1924C349.161 28.8326 349.366 28.5525 349.623 28.3521C349.883 28.1491 350.165 28.0078 350.471 27.9281C350.78 27.8459 351.083 27.8048 351.381 27.8048C351.571 27.8048 351.789 27.8279 352.036 27.8742C352.285 27.9178 352.526 28.0091 352.757 28.1478C352.991 28.2866 353.185 28.496 353.339 28.7761C353.493 29.0562 353.57 29.4313 353.57 29.9016L353.57 33.8022L352.661 33.8022L352.661 33.0005L352.614 33.0005C352.553 33.129 352.45 33.2665 352.306 33.413C352.162 33.5594 351.971 33.684 351.732 33.7868C351.493 33.8896 351.201 33.941 350.857 33.941ZM350.995 33.1239C351.355 33.1239 351.658 33.0532 351.905 32.9119C352.154 32.7706 352.342 32.5881 352.468 32.3646C352.596 32.141 352.661 31.9059 352.661 31.6592L352.661 30.8266C352.622 30.8729 352.537 30.9153 352.406 30.9538C352.278 30.9898 352.129 31.0219 351.959 31.0502C351.792 31.0759 351.629 31.099 351.47 31.1196C351.313 31.1376 351.186 31.153 351.088 31.1658C350.852 31.1967 350.631 31.2468 350.425 31.3162C350.222 31.383 350.058 31.4845 349.932 31.6207C349.808 31.7543 349.747 31.9367 349.747 32.168C349.747 32.484 349.864 32.723 350.097 32.8849C350.334 33.0442 350.633 33.1239 350.995 33.1239ZM355.23 33.8022L355.23 27.8819L356.109 27.8819L356.109 28.7761L356.171 28.7761C356.279 28.4832 356.474 28.2455 356.757 28.063C357.039 27.8806 357.358 27.7894 357.713 27.7894C357.78 27.7894 357.863 27.7907 357.963 27.7932C358.063 27.7958 358.139 27.7996 358.191 27.8048L358.191 28.7298C358.16 28.7221 358.089 28.7106 357.979 28.6952C357.871 28.6772 357.756 28.6682 357.636 28.6682C357.348 28.6682 357.091 28.7286 356.865 28.8493C356.641 28.9675 356.464 29.132 356.333 29.3427C356.204 29.5508 356.14 29.7885 356.14 30.0558L356.14 33.8022L355.23 33.8022ZM361.324 33.9256C360.831 33.9256 360.395 33.801 360.018 33.5517C359.64 33.2999 359.344 32.9453 359.131 32.4879C358.918 32.0279 358.811 31.4845 358.811 30.8575C358.811 30.2356 358.918 29.696 359.131 29.2386C359.344 28.7812 359.641 28.4279 360.021 28.1787C360.402 27.9294 360.841 27.8048 361.34 27.8048C361.725 27.8048 362.03 27.869 362.253 27.9975C362.479 28.1234 362.651 28.2673 362.77 28.4292C362.89 28.5885 362.984 28.7196 363.051 28.8223L363.128 28.8223L363.128 25.9084L364.038 25.9084L364.038 33.8022L363.159 33.8022L363.159 32.8926L363.051 32.8926C362.984 33.0005 362.889 33.1367 362.766 33.3012C362.642 33.4631 362.466 33.6082 362.238 33.7367C362.009 33.8626 361.705 33.9256 361.324 33.9256ZM361.448 33.1085C361.813 33.1085 362.121 33.0134 362.373 32.8232C362.625 32.6305 362.816 32.3646 362.947 32.0254C363.078 31.6836 363.144 31.2892 363.144 30.8421C363.144 30.4001 363.079 30.0134 362.951 29.6819C362.822 29.3478 362.632 29.0883 362.38 28.9033C362.129 28.7157 361.818 28.6219 361.448 28.6219C361.062 28.6219 360.741 28.7209 360.484 28.9187C360.23 29.114 360.038 29.38 359.91 29.7166C359.784 30.0506 359.721 30.4258 359.721 30.8421C359.721 31.2635 359.785 31.6463 359.914 31.9907C360.045 32.3324 360.237 32.6048 360.492 32.8078C360.749 33.0082 361.067 33.1085 361.448 33.1085Z" fill="white"/>
<rect x="22.5" y="17.5562" width="94" height="24" rx="12" stroke="#DBDBDB" stroke-opacity="0.4"/>
<path d="M34.2775 25.1623L35.3722 25.1623L37.5615 28.8471L37.654 28.8471L39.8433 25.1623L40.9379 25.1623L38.0857 29.803L38.0857 33.0562L37.1298 33.0562L37.1298 29.803L34.2775 25.1623ZM48.4637 29.1092C48.4637 29.9418 48.3134 30.6613 48.0127 31.2677C47.7121 31.8741 47.2996 32.3418 46.7754 32.6707C46.2512 32.9996 45.6525 33.1641 44.9793 33.1641C44.3061 33.1641 43.7073 32.9996 43.1831 32.6707C42.6589 32.3418 42.2465 31.8741 41.9459 31.2677C41.6452 30.6613 41.4949 29.9418 41.4949 29.1092C41.4949 28.2767 41.6452 27.5572 41.9459 26.9508C42.2465 26.3443 42.6589 25.8767 43.1831 25.5478C43.7073 25.2189 44.3061 25.0544 44.9793 25.0544C45.6525 25.0544 46.2512 25.2189 46.7754 25.5478C47.2996 25.8767 47.7121 26.3443 48.0127 26.9508C48.3134 27.5572 48.4637 28.2767 48.4637 29.1092ZM47.5386 29.1092C47.5386 28.4257 47.4243 27.8488 47.1956 27.3786C46.9694 26.9084 46.6624 26.5525 46.2744 26.3109C45.8889 26.0694 45.4572 25.9486 44.9793 25.9486C44.5013 25.9486 44.0684 26.0694 43.6804 26.3109C43.2949 26.5525 42.9878 26.9084 42.7591 27.3786C42.533 27.8488 42.42 28.4257 42.42 29.1092C42.42 29.7928 42.533 30.3696 42.7591 30.8399C42.9878 31.3101 43.2949 31.666 43.6804 31.9075C44.0684 32.1491 44.5013 32.2699 44.9793 32.2699C45.4572 32.2699 45.8889 32.1491 46.2744 31.9075C46.6624 31.666 46.9694 31.3101 47.1956 30.8399C47.4243 30.3696 47.5386 29.7928 47.5386 29.1092ZM55.2513 25.1623L56.2072 25.1623L56.2072 30.3889C56.2072 30.9285 56.08 31.4103 55.8256 31.8343C55.5738 32.2557 55.2179 32.5885 54.7579 32.8326C54.298 33.0741 53.7583 33.1949 53.1391 33.1949C52.5198 33.1949 51.9802 33.0741 51.5202 32.8326C51.0603 32.5885 50.7031 32.2557 50.4487 31.8343C50.1969 31.4103 50.071 30.9285 50.071 30.3889L50.071 25.1623L51.0269 25.1623L51.0269 30.3118C51.0269 30.6973 51.1117 31.0403 51.2812 31.3409C51.4508 31.639 51.6924 31.8741 52.0059 32.0463C52.3219 32.2159 52.6997 32.3007 53.1391 32.3007C53.5785 32.3007 53.9562 32.2159 54.2723 32.0463C54.5883 31.8741 54.8299 31.639 54.9969 31.3409C55.1665 31.0403 55.2513 30.6973 55.2513 30.3118L55.2513 25.1623ZM58.1161 33.0562L58.1161 25.1623L60.7833 25.1623C61.4 25.1623 61.9063 25.2677 62.302 25.4784C62.6977 25.6865 62.9906 25.973 63.1808 26.3379C63.3709 26.7028 63.466 27.1178 63.466 27.5829C63.466 28.048 63.3709 28.4604 63.1808 28.8202C62.9906 29.1799 62.699 29.4626 62.3058 29.6681C61.9127 29.8711 61.4103 29.9726 60.7988 29.9726L58.6403 29.9726L58.6403 29.1092L60.7679 29.1092C61.1893 29.1092 61.5285 29.0476 61.7855 28.9242C62.045 28.8009 62.2326 28.6262 62.3482 28.4C62.4664 28.1713 62.5255 27.899 62.5255 27.5829C62.5255 27.2668 62.4664 26.9906 62.3482 26.7542C62.23 26.5178 62.0412 26.3353 61.7816 26.2069C61.5221 26.0758 61.1791 26.0103 60.7525 26.0103L59.072 26.0103L59.072 33.0562L58.1161 33.0562ZM61.8317 29.5101L63.7744 33.0562L62.6643 33.0562L60.7525 29.5101L61.8317 29.5101ZM68.1115 33.0562L68.1115 25.1623L70.8713 25.1623C71.4212 25.1623 71.8747 25.2574 72.2319 25.4475C72.5891 25.6351 72.855 25.8882 73.0298 26.2069C73.2045 26.5229 73.2919 26.8737 73.2919 27.2591C73.2919 27.5983 73.2315 27.8784 73.1107 28.0994C72.9925 28.3204 72.8358 28.4951 72.6405 28.6236C72.4477 28.7521 72.2383 28.8471 72.0122 28.9088L72.0122 28.9859C72.2537 29.0013 72.4966 29.0861 72.7407 29.2403C72.9848 29.3945 73.1891 29.6155 73.3535 29.9032C73.518 30.191 73.6002 30.5431 73.6002 30.9594C73.6002 31.3551 73.5103 31.711 73.3304 32.027C73.1505 32.3431 72.8666 32.5936 72.4786 32.7786C72.0906 32.9636 71.5856 33.0562 70.9638 33.0562L68.1115 33.0562ZM69.0674 32.2082L70.9638 32.2082C71.5882 32.2082 72.0315 32.0874 72.2936 31.8459C72.5582 31.6018 72.6906 31.3063 72.6906 30.9594C72.6906 30.6921 72.6225 30.4454 72.4863 30.2193C72.3501 29.9906 72.1561 29.8082 71.9043 29.672C71.6525 29.5332 71.3544 29.4638 71.0101 29.4638L69.0674 29.4638L69.0674 32.2082ZM69.0674 28.6313L70.8405 28.6313C71.1283 28.6313 71.3878 28.5748 71.619 28.4617C71.8529 28.3486 72.0379 28.1893 72.1741 27.9837C72.3128 27.7782 72.3822 27.5366 72.3822 27.2591C72.3822 26.9122 72.2614 26.618 72.0199 26.3765C71.7784 26.1323 71.3955 26.0103 70.8713 26.0103L69.0674 26.0103L69.0674 28.6313ZM75.1709 33.0562L75.1709 25.1623L77.8381 25.1623C78.4548 25.1623 78.9611 25.2677 79.3568 25.4784C79.7525 25.6865 80.0454 25.973 80.2356 26.3379C80.4257 26.7028 80.5208 27.1178 80.5208 27.5829C80.5208 28.048 80.4257 28.4604 80.2356 28.8202C80.0454 29.1799 79.7538 29.4626 79.3606 29.6681C78.9675 29.8711 78.4651 29.9726 77.8536 29.9726L75.6951 29.9726L75.6951 29.1092L77.8227 29.1092C78.2441 29.1092 78.5833 29.0476 78.8403 28.9242C79.0998 28.8009 79.2874 28.6262 79.403 28.4C79.5212 28.1713 79.5803 27.899 79.5803 27.5829C79.5803 27.2668 79.5212 26.9906 79.403 26.7542C79.2848 26.5178 79.096 26.3353 78.8364 26.2069C78.5769 26.0758 78.2339 26.0103 77.8073 26.0103L76.1268 26.0103L76.1268 33.0562L75.1709 33.0562ZM78.8865 29.5101L80.8292 33.0562L79.7191 33.0562L77.8073 29.5101L78.8865 29.5101ZM82.4374 33.0562L81.4353 33.0562L84.3338 25.1623L85.3205 25.1623L88.219 33.0562L87.2169 33.0562L84.858 26.4112L84.7963 26.4112L82.4374 33.0562ZM82.8074 29.9726L86.8469 29.9726L86.8469 30.8206L82.8074 30.8206L82.8074 29.9726ZM95.7081 25.1623L95.7081 33.0562L94.7831 33.0562L90.4816 26.8583L90.4045 26.8583L90.4045 33.0562L89.4486 33.0562L89.4486 25.1623L90.3736 25.1623L94.6906 31.3756L94.7677 31.3756L94.7677 25.1623L95.7081 25.1623ZM100.057 33.0562L97.6209 33.0562L97.6209 25.1623L100.165 25.1623C100.931 25.1623 101.586 25.3204 102.131 25.6364C102.675 25.9499 103.093 26.4009 103.383 26.9893C103.674 27.5752 103.819 28.2767 103.819 29.0938C103.819 29.9161 103.672 30.624 103.379 31.2176C103.086 31.8086 102.66 32.2634 102.1 32.5821C101.54 32.8981 100.859 33.0562 100.057 33.0562ZM98.5768 32.2082L99.9952 32.2082C100.648 32.2082 101.189 32.0823 101.618 31.8305C102.047 31.5786 102.367 31.2202 102.578 30.7551C102.788 30.29 102.894 29.7362 102.894 29.0938C102.894 28.4566 102.79 27.9079 102.582 27.448C102.373 26.9855 102.062 26.6309 101.649 26.3842C101.235 26.1349 100.72 26.0103 100.103 26.0103L98.5768 26.0103L98.5768 32.2082Z" fill="white"/>
<path d="M358.436 197.903C357.234 198.27 355.564 198.088 354.498 196.491L353.802 195.446L353.2 194.543L354.498 192.597C355.562 191 357.225 190.815 358.436 191.184C359.642 191.548 360.93 192.623 360.93 194.544C360.93 196.464 359.642 197.538 358.436 197.903ZM347.011 196.491C345.946 198.087 344.28 198.271 343.07 197.903C341.866 197.538 340.578 196.464 340.578 194.544C340.578 192.623 341.866 191.548 343.072 191.184C343.403 191.083 343.769 191.023 344.148 191.023C345.148 191.023 346.237 191.437 347.011 192.597L348.309 194.543L347.011 196.491ZM359.615 187.288C356.345 186.3 353.007 187.496 351.112 190.339L350.754 190.874L350.398 190.339C348.5 187.496 345.168 186.292 341.891 187.289C338.622 188.278 336.508 191.127 336.508 194.544C336.508 197.961 338.622 200.808 341.891 201.798C345.161 202.792 348.499 201.593 350.398 198.748L350.754 198.213L351.112 198.748C351.191 198.868 351.273 198.984 351.358 199.097C352.818 201.058 355.003 202.141 357.338 202.141C358.088 202.141 358.853 202.03 359.617 201.8C362.886 200.808 365 197.961 365 194.544C365 191.126 362.886 188.278 359.615 187.288Z" fill="white"/>
<path d="M353.802 195.446L351.357 199.097C351.273 198.984 351.191 198.867 351.112 198.748L350.754 198.212L353.2 194.543L353.802 195.446Z" fill="#BBBCBD"/>
<path d="M350.753 190.873L348.309 194.524C348.224 194.411 348.142 194.295 348.063 194.175L347.705 193.64L350.151 189.97L350.753 190.873Z" fill="#BBBCBD"/>
<defs>
<linearGradient id="paint0_linear_720_765" x1="690.865" y1="192" x2="384" y2="192" gradientUnits="userSpaceOnUse">
<stop stop-color="#666969"/>
<stop offset="1" stop-color="#7727BB"/>
</linearGradient>
<linearGradient id="paint1_linear_720_765" x1="68.6147" y1="114.287" x2="28.1328" y2="147.99" gradientUnits="userSpaceOnUse">
<stop stop-color="#CDCDCD"/>
<stop offset="0.447917" stop-color="#E8E8E8"/>
<stop offset="1" stop-color="#B4B4B4"/>
</linearGradient>
<linearGradient id="paint2_linear_720_765" x1="68.6147" y1="114.286" x2="28.1328" y2="147.99" gradientUnits="userSpaceOnUse">
<stop stop-color="#CDCDCD"/>
<stop offset="0.447917" stop-color="#E8E8E8"/>
<stop offset="1" stop-color="#B4B4B4"/>
</linearGradient>
</defs>
</svg>
