<svg width="141" height="35" viewBox="0 0 141 35" fill="none" xmlns="http://www.w3.org/2000/svg">
<path d="M42.6539 26.5146V5.87785H50.378C52.0486 5.87785 53.4244 6.16283 54.5053 6.7328C55.5863 7.30277 56.3921 8.06928 56.9228 9.03233C57.4534 9.97573 57.7188 11.0272 57.7188 12.1868C57.7188 13.2874 57.4534 14.3193 56.9228 15.2823C56.4118 16.2257 55.6158 16.9922 54.5348 17.5819C53.4538 18.1518 52.0584 18.4368 50.3485 18.4368H46.6339V26.5146H42.6539ZM53.3556 26.5146L49.1103 17.4345H53.444L57.9251 26.5146H53.3556ZM46.6339 15.5477H50.1421C51.341 15.5477 52.2255 15.2529 52.7954 14.6632C53.3654 14.0736 53.6504 13.2973 53.6504 12.3342C53.6504 11.3712 53.3654 10.6145 52.7954 10.0642C52.2451 9.4942 51.3508 9.20922 50.1126 9.20922H46.6339V15.5477ZM66.9754 26.8684C65.4817 26.8684 64.155 26.554 62.9954 25.925C61.8555 25.2961 60.9612 24.4117 60.3127 23.2717C59.6641 22.1318 59.3398 20.8248 59.3398 19.3507C59.3398 17.8177 59.6542 16.4714 60.2832 15.3118C60.9318 14.1326 61.826 13.2088 62.966 12.5406C64.1255 11.8723 65.462 11.5382 66.9754 11.5382C68.4494 11.5382 69.7368 11.8527 70.8374 12.4816C71.938 13.1106 72.8028 13.9753 73.4318 15.076C74.0607 16.1569 74.3752 17.3853 74.3752 18.7611C74.3752 18.9576 74.3653 19.1837 74.3457 19.4392C74.3457 19.675 74.3358 19.9207 74.3162 20.1762H62.17V17.7293H70.3362C70.2773 16.8252 69.9333 16.098 69.3044 15.5477C68.6951 14.9973 67.9286 14.7222 67.0049 14.7222C66.317 14.7222 65.688 14.8794 65.1181 15.1939C64.5481 15.4887 64.0961 15.9506 63.7619 16.5795C63.4278 17.1888 63.2608 17.9553 63.2608 18.879V19.734C63.2608 20.5398 63.418 21.2375 63.7325 21.8271C64.0469 22.3971 64.4793 22.8393 65.0296 23.1538C65.5996 23.4683 66.2384 23.6255 66.9459 23.6255C67.6731 23.6255 68.2824 23.4683 68.7737 23.1538C69.2651 22.8197 69.6385 22.3971 69.894 21.8861H73.9329C73.6578 22.8099 73.1959 23.655 72.5473 24.4215C71.8987 25.1683 71.1027 25.7678 70.1594 26.2198C69.216 26.6522 68.1546 26.8684 66.9754 26.8684ZM82.0089 26.8684C80.7904 26.8684 79.788 26.6719 79.0019 26.2788C78.2157 25.8857 77.6261 25.3551 77.233 24.6868C76.8596 24.0186 76.6728 23.2815 76.6728 22.4757C76.6728 21.5716 76.8989 20.7855 77.3509 20.1172C77.8226 19.4293 78.5302 18.8889 79.4735 18.4958C80.4169 18.1027 81.606 17.9062 83.0408 17.9062H86.7259C86.7259 17.1986 86.6178 16.609 86.4016 16.1373C86.2051 15.6656 85.8906 15.3216 85.4582 15.1054C85.0455 14.8696 84.5148 14.7517 83.8662 14.7517C83.0997 14.7517 82.4413 14.9187 81.891 15.2529C81.3603 15.587 81.036 16.1078 80.9181 16.8154H77.0266C77.1445 15.7344 77.4983 14.8008 78.0879 14.0146C78.6972 13.2285 79.503 12.6192 80.5054 12.1868C81.5077 11.7544 82.628 11.5382 83.8662 11.5382C85.2813 11.5382 86.4999 11.7741 87.5219 12.2458C88.5439 12.6978 89.3301 13.3759 89.8804 14.28C90.4307 15.1644 90.7059 16.2454 90.7059 17.5229V26.5146H87.3745L86.9323 24.2446H86.9028C86.6669 24.6573 86.382 25.0209 86.0478 25.3354C85.7334 25.6499 85.3698 25.925 84.957 26.1609C84.564 26.3967 84.1217 26.5736 83.6304 26.6915C83.139 26.8095 82.5985 26.8684 82.0089 26.8684ZM83.0997 23.8024C83.6304 23.8024 84.0923 23.7139 84.4853 23.5371C84.8981 23.3405 85.242 23.085 85.5172 22.7705C85.812 22.4561 86.0478 22.0925 86.2247 21.6797C86.4016 21.2474 86.5097 20.8051 86.549 20.3531H83.483C82.8934 20.3531 82.402 20.4317 82.0089 20.5889C81.6158 20.7265 81.3309 20.9329 81.154 21.208C80.9771 21.4635 80.8886 21.7682 80.8886 22.122C80.8886 22.4757 80.9771 22.7804 81.154 23.0359C81.3309 23.2914 81.5864 23.4879 81.9205 23.6255C82.2546 23.7434 82.6477 23.8024 83.0997 23.8024ZM93.8709 26.5146V5.49459H97.8509V26.5146H93.8709ZM107.844 26.5146C106.822 26.5146 105.918 26.3574 105.132 26.043C104.346 25.7088 103.737 25.1683 103.304 24.4215C102.891 23.655 102.685 22.6133 102.685 21.2965V15.1644H100.179V11.892H102.685L103.098 7.91205H106.636V11.892H110.527V15.1644H106.665V21.3554C106.665 22.0237 106.803 22.4954 107.078 22.7705C107.373 23.026 107.884 23.1538 108.611 23.1538H110.468V26.5146H107.844ZM119.802 26.8684C118.406 26.8684 117.139 26.5441 115.999 25.8955C114.859 25.247 113.955 24.3429 113.287 23.1833C112.638 22.0237 112.314 20.697 112.314 19.2033C112.314 17.69 112.648 16.3633 113.316 15.2234C113.984 14.0638 114.879 13.1597 115.999 12.5111C117.139 11.8625 118.416 11.5382 119.831 11.5382C121.246 11.5382 122.524 11.8625 123.664 12.5111C124.804 13.1597 125.698 14.0638 126.347 15.2234C127.015 16.3633 127.349 17.69 127.349 19.2033C127.349 20.7167 127.015 22.0532 126.347 23.2128C125.678 24.3527 124.774 25.247 123.634 25.8955C122.495 26.5441 121.217 26.8684 119.802 26.8684ZM119.802 23.4486C120.45 23.4486 121.03 23.2914 121.541 22.9769C122.072 22.6624 122.495 22.1907 122.809 21.5618C123.123 20.9329 123.281 20.1467 123.281 19.2033C123.281 18.2599 123.123 17.4738 122.809 16.8448C122.495 16.2159 122.072 15.7442 121.541 15.4297C121.03 15.1153 120.46 14.958 119.831 14.958C119.222 14.958 118.652 15.1153 118.121 15.4297C117.591 15.7442 117.158 16.2159 116.824 16.8448C116.51 17.4738 116.353 18.2599 116.353 19.2033C116.353 20.1467 116.51 20.9329 116.824 21.5618C117.158 22.1907 117.581 22.6624 118.092 22.9769C118.623 23.2914 119.193 23.4486 119.802 23.4486ZM130.203 26.5146V11.892H133.711L134.065 14.7812H134.094C134.487 14.0146 134.939 13.3955 135.45 12.9238C135.961 12.4521 136.551 12.1082 137.219 11.892C137.907 11.6562 138.664 11.5382 139.489 11.5382V15.754H138.399C137.75 15.754 137.16 15.8228 136.63 15.9604C136.119 16.098 135.676 16.3338 135.303 16.6679C134.949 16.9824 134.674 17.405 134.478 17.9356C134.281 18.4663 134.183 19.1345 134.183 19.9404V26.5146H130.203Z" fill="#170F49"/>
<path d="M-0.000114441 2.1427C-0.000114441 1.28575 0.694578 0.591064 1.55152 0.591064H6.48993C7.34687 0.591064 8.04157 1.28576 8.04157 2.1427V13.1662H-0.000114441V2.1427Z" fill="#9328FF"/>
<path d="M0.876092 31.8863H27.625C28.1089 31.8863 28.5012 31.494 28.5012 31.0101V15.1558C28.5012 14.8965 28.3864 14.6506 28.1877 14.4841L14.8133 3.27802C14.4877 3.00523 14.0134 3.00523 13.6878 3.27801L0.313365 14.4841C0.114672 14.6506 -0.000106812 14.8965 -0.000106812 15.1558V31.0101C-0.000106812 31.494 0.392181 31.8863 0.876092 31.8863Z" fill="#4A3AFF" stroke="#4A3AFF" stroke-width="4.26701" stroke-linecap="round"/>
</svg>
