<svg width="384" height="224" viewBox="0 0 384 224" fill="none" xmlns="http://www.w3.org/2000/svg">
<rect x="384" width="224" height="384" rx="12" transform="rotate(90 384 0)" fill="url(#paint0_linear_720_799)"/>
<mask id="mask0_720_799" style="mask-type:alpha" maskUnits="userSpaceOnUse" x="21" y="111" width="52" height="33">
<rect x="21.668" y="111.944" width="50.558" height="31.2304" rx="3.15392" fill="url(#paint1_linear_720_799)"/>
</mask>
<g mask="url(#mask0_720_799)">
<rect x="21.668" y="111.944" width="50.558" height="31.2304" rx="3.15392" fill="url(#paint2_linear_720_799)"/>
<path fill-rule="evenodd" clip-rule="evenodd" d="M33.3413 121.598L21.668 121.598L21.668 121.286L33.468 121.286L38.0993 124.49L38.0993 133.218L34.3823 136.432L21.668 136.432L21.668 136.12L34.2327 136.12L37.7382 133.089L37.7382 124.64L33.3413 121.598Z" fill="#868686"/>
<path fill-rule="evenodd" clip-rule="evenodd" d="M59.6696 117.694L73.1289 117.694L73.1289 117.382L59.5035 117.382L53.9891 122.946L53.9891 133.211L59.5035 138.775L73.1289 138.775L73.1289 138.462L59.6696 138.462L54.3502 133.095L54.3502 123.061L59.6696 117.694Z" fill="#868686"/>
<path fill-rule="evenodd" clip-rule="evenodd" d="M45.4791 116.703L36.1133 110.667L36.33 110.382L45.8569 116.522L45.8569 122.527L54.1697 122.527L54.1697 122.875L45.4791 122.875L45.4791 116.703Z" fill="#868686"/>
<path fill-rule="evenodd" clip-rule="evenodd" d="M37.918 132.997L46.2239 132.997L46.2239 138.696L38.9291 143.428L38.7125 143.178L45.8628 138.54L45.8628 133.309L37.918 133.309L37.918 132.997Z" fill="#868686"/>
<path fill-rule="evenodd" clip-rule="evenodd" d="M54.1699 132.997L45.864 132.997L45.864 138.696L53.1588 143.428L53.3754 143.178L46.2251 138.54L46.2251 133.309L54.1699 133.309L54.1699 132.997Z" fill="#868686"/>
</g>
<rect x="21.9308" y="112.206" width="50.0323" height="30.7048" rx="2.89109" stroke="white" stroke-width="0.525653"/>
<path d="M23.58 200.357C23.8066 200.472 24.051 200.571 24.3134 200.655C24.5797 200.734 24.852 200.802 25.1302 200.858C25.4124 200.913 25.6946 200.955 25.9768 200.983C26.263 201.007 26.5413 201.019 26.8116 201.019C27.2886 201.019 27.6999 200.985 28.0458 200.917C28.3956 200.846 28.6817 200.746 28.9043 200.619C29.1309 200.492 29.2978 200.341 29.4052 200.166C29.5165 199.987 29.5721 199.79 29.5721 199.576C29.5721 199.357 29.5145 199.156 29.3992 198.973C29.2879 198.791 29.119 198.634 28.8924 198.502C28.6698 198.371 28.3876 198.27 28.0458 198.198C27.7079 198.123 27.3124 198.085 26.8593 198.085C26.6565 198.085 26.428 198.095 26.1736 198.115C25.9192 198.131 25.6489 198.159 25.3627 198.198C25.0765 198.238 24.7784 198.294 24.4684 198.365C24.1583 198.433 23.8443 198.516 23.5263 198.616L23.5263 193.256L30.6751 193.256L30.6751 194.931L25.2733 194.931L25.2733 196.738C25.5714 196.67 25.8834 196.614 26.2094 196.571C26.5353 196.523 26.899 196.499 27.3005 196.499C27.9563 196.499 28.5426 196.571 29.0594 196.714C29.5761 196.857 30.0113 197.062 30.3651 197.328C30.7228 197.594 30.9951 197.916 31.1819 198.294C31.3687 198.667 31.4622 199.087 31.4622 199.552C31.4622 200.033 31.3608 200.468 31.1581 200.858C30.9593 201.243 30.6632 201.573 30.2697 201.847C29.8802 202.122 29.3992 202.332 28.8268 202.479C28.2584 202.626 27.6046 202.7 26.8652 202.7C26.4836 202.7 26.104 202.678 25.7264 202.634C25.3528 202.595 24.9891 202.537 24.6353 202.461C24.2816 202.382 23.9417 202.287 23.6158 202.175C23.2938 202.06 22.9917 201.931 22.7095 201.788L23.58 200.357ZM38.2592 194.925L32.8394 194.925L32.8394 193.256L41.1211 193.256L36.2618 202.575L34.1154 202.575L38.2592 194.925ZM42.5222 198.175C42.5222 197.328 42.6474 196.591 42.8978 195.963C43.1522 195.331 43.498 194.806 43.9353 194.388C44.3765 193.971 44.8952 193.659 45.4914 193.452C46.0877 193.246 46.7316 193.142 47.4232 193.142C47.7134 193.142 48.0075 193.158 48.3056 193.19C48.6077 193.218 48.9038 193.264 49.194 193.327C49.4842 193.391 49.7644 193.474 50.0347 193.578C50.309 193.677 50.5634 193.796 50.7979 193.935L49.9572 195.366C49.7823 195.267 49.5955 195.183 49.3967 195.116C49.202 195.044 48.9992 194.989 48.7886 194.949C48.5779 194.905 48.3653 194.873 48.1506 194.854C47.936 194.834 47.7253 194.824 47.5186 194.824C47.0575 194.824 46.6402 194.883 46.2665 195.003C45.8969 195.122 45.5769 195.291 45.3066 195.509C45.0363 195.728 44.8197 195.99 44.6567 196.296C44.4977 196.599 44.3983 196.934 44.3586 197.304C44.5653 197.141 44.7938 197 45.0443 196.881C45.2947 196.761 45.559 196.664 45.8372 196.589C46.1195 196.509 46.4076 196.451 46.7018 196.416C46.9999 196.376 47.298 196.356 47.5961 196.356C48.1764 196.356 48.7031 196.426 49.1761 196.565C49.6531 196.704 50.0605 196.905 50.3984 197.167C50.7363 197.429 50.9966 197.749 51.1795 198.127C51.3663 198.5 51.4597 198.926 51.4597 199.403C51.4597 199.872 51.3663 200.307 51.1795 200.709C50.9966 201.11 50.7243 201.46 50.3626 201.758C50.0009 202.052 49.5517 202.285 49.0151 202.455C48.4785 202.622 47.8565 202.706 47.1489 202.706C46.4613 202.706 45.8333 202.618 45.2649 202.444C44.6965 202.269 44.2095 201.996 43.8041 201.627C43.3987 201.257 43.0827 200.788 42.8561 200.22C42.6335 199.647 42.5222 198.966 42.5222 198.175ZM44.4003 199.051C44.4957 199.703 44.7819 200.196 45.2589 200.53C45.7359 200.86 46.3619 201.025 47.137 201.025C47.5266 201.025 47.8724 200.985 48.1745 200.905C48.4765 200.826 48.7309 200.716 48.9376 200.577C49.1443 200.434 49.3013 200.265 49.4087 200.071C49.516 199.876 49.5696 199.663 49.5696 199.433C49.5696 199.238 49.5279 199.055 49.4444 198.884C49.361 198.713 49.2298 198.566 49.0509 198.443C48.876 198.316 48.6495 198.216 48.3712 198.145C48.093 198.069 47.7571 198.031 47.3636 198.031C47.0337 198.031 46.7216 198.057 46.4275 198.109C46.1334 198.161 45.8611 198.232 45.6107 198.324C45.3603 198.415 45.1317 198.522 44.925 198.646C44.7223 198.769 44.5474 198.904 44.4003 199.051ZM53.6955 198.175C53.6955 197.328 53.8207 196.591 54.0712 195.963C54.3256 195.331 54.6714 194.806 55.1086 194.388C55.5498 193.971 56.0685 193.659 56.6648 193.452C57.261 193.246 57.9049 193.142 58.5965 193.142C58.8867 193.142 59.1808 193.158 59.479 193.19C59.7811 193.218 60.0772 193.264 60.3673 193.327C60.6575 193.391 60.9377 193.474 61.208 193.578C61.4823 193.677 61.7367 193.796 61.9712 193.935L61.1305 195.366C60.9556 195.267 60.7688 195.183 60.5701 195.116C60.3753 195.044 60.1726 194.989 59.9619 194.949C59.7512 194.905 59.5386 194.873 59.3239 194.854C59.1093 194.834 58.8986 194.824 58.6919 194.824C58.2309 194.824 57.8135 194.883 57.4399 195.003C57.0702 195.122 56.7502 195.291 56.4799 195.509C56.2096 195.728 55.993 195.99 55.83 196.296C55.671 196.599 55.5717 196.934 55.5319 197.304C55.7386 197.141 55.9672 197 56.2176 196.881C56.468 196.761 56.7323 196.664 57.0106 196.589C57.2928 196.509 57.581 196.451 57.8751 196.416C58.1732 196.376 58.4713 196.356 58.7695 196.356C59.3498 196.356 59.8764 196.426 60.3495 196.565C60.8264 196.704 61.2339 196.905 61.5717 197.167C61.9096 197.429 62.1699 197.749 62.3528 198.127C62.5396 198.5 62.633 198.926 62.633 199.403C62.633 199.872 62.5396 200.307 62.3528 200.709C62.1699 201.11 61.8977 201.46 61.536 201.758C61.1742 202.052 60.7251 202.285 60.1885 202.455C59.6519 202.622 59.0298 202.706 58.3223 202.706C57.6346 202.706 57.0066 202.618 56.4382 202.444C55.8698 202.269 55.3829 201.996 54.9774 201.627C54.572 201.257 54.256 200.788 54.0294 200.22C53.8068 199.647 53.6955 198.966 53.6955 198.175ZM55.5737 199.051C55.6691 199.703 55.9552 200.196 56.4322 200.53C56.9092 200.86 57.5353 201.025 58.3104 201.025C58.6999 201.025 59.0457 200.985 59.3478 200.905C59.6499 200.826 59.9043 200.716 60.111 200.577C60.3177 200.434 60.4747 200.265 60.582 200.071C60.6893 199.876 60.743 199.663 60.743 199.433C60.743 199.238 60.7012 199.055 60.6178 198.884C60.5343 198.713 60.4031 198.566 60.2242 198.443C60.0494 198.316 59.8228 198.216 59.5445 198.145C59.2663 198.069 58.9304 198.031 58.5369 198.031C58.207 198.031 57.895 198.057 57.6008 198.109C57.3067 198.161 57.0344 198.232 56.784 198.324C56.5336 198.415 56.305 198.522 56.0983 198.646C55.8956 198.769 55.7207 198.904 55.5737 199.051ZM64.6483 199.737C64.6483 199.458 64.686 199.2 64.7616 198.962C64.8371 198.723 64.9404 198.506 65.0716 198.312C65.2028 198.113 65.3538 197.938 65.5247 197.787C65.6996 197.632 65.8864 197.497 66.0852 197.382C65.8109 197.111 65.6122 196.843 65.489 196.577C65.3657 196.306 65.3041 196.048 65.3041 195.802C65.3041 195.408 65.3955 195.048 65.5784 194.722C65.7652 194.396 66.0315 194.116 66.3773 193.882C66.7231 193.643 67.1425 193.46 67.6354 193.333C68.1283 193.202 68.6828 193.136 69.2989 193.136C69.915 193.136 70.4695 193.202 70.9623 193.333C71.4552 193.46 71.8746 193.643 72.2204 193.882C72.5662 194.116 72.8305 194.396 73.0134 194.722C73.2002 195.048 73.2936 195.408 73.2936 195.802C73.2936 196.048 73.232 196.306 73.1088 196.577C72.9855 196.843 72.7868 197.111 72.5125 197.382C72.7073 197.497 72.8921 197.632 73.067 197.787C73.2419 197.938 73.3949 198.113 73.5261 198.312C73.6573 198.506 73.7606 198.723 73.8362 198.962C73.9117 199.2 73.9494 199.458 73.9494 199.737C73.9494 200.202 73.8401 200.619 73.6215 200.989C73.4069 201.354 73.0968 201.664 72.6914 201.919C72.2899 202.169 71.801 202.362 71.2247 202.497C70.6523 202.632 70.0104 202.7 69.2989 202.7C68.5874 202.7 67.9434 202.632 67.3671 202.497C66.7947 202.362 66.3058 202.169 65.9003 201.919C65.4989 201.664 65.1888 201.354 64.9702 200.989C64.7556 200.619 64.6483 200.202 64.6483 199.737ZM67.1942 195.885C67.1942 196.032 67.2299 196.171 67.3015 196.302C67.377 196.43 67.4963 196.543 67.6592 196.642C67.8262 196.738 68.0428 196.813 68.3091 196.869C68.5794 196.924 68.9093 196.952 69.2989 196.952C69.6884 196.952 70.0163 196.924 70.2826 196.869C70.5529 196.813 70.7696 196.738 70.9325 196.642C71.0995 196.543 71.2187 196.43 71.2903 196.302C71.3658 196.171 71.4035 196.032 71.4035 195.885C71.4035 195.738 71.3658 195.601 71.2903 195.474C71.2187 195.342 71.0995 195.229 70.9325 195.134C70.7696 195.034 70.5529 194.957 70.2826 194.901C70.0163 194.846 69.6884 194.818 69.2989 194.818C68.9093 194.818 68.5794 194.846 68.3091 194.901C68.0428 194.957 67.8262 195.034 67.6592 195.134C67.4963 195.229 67.377 195.342 67.3015 195.474C67.2299 195.601 67.1942 195.738 67.1942 195.885ZM66.5383 199.647C66.5383 199.85 66.5959 200.037 66.7112 200.208C66.8305 200.375 67.0054 200.518 67.2359 200.637C67.4664 200.756 67.7546 200.85 68.1004 200.917C68.4462 200.985 68.8457 201.019 69.2989 201.019C69.752 201.019 70.1515 200.985 70.4973 200.917C70.8431 200.85 71.1313 200.756 71.3618 200.637C71.5923 200.518 71.7653 200.375 71.8805 200.208C71.9998 200.037 72.0594 199.85 72.0594 199.647C72.0594 199.445 72.0018 199.26 71.8865 199.093C71.7752 198.922 71.6043 198.777 71.3737 198.657C71.1472 198.538 70.861 198.445 70.5152 198.377C70.1693 198.31 69.7639 198.276 69.2989 198.276C68.8338 198.276 68.4284 198.31 68.0825 198.377C67.7367 198.445 67.4486 198.538 67.218 198.657C66.9914 198.777 66.8205 198.922 66.7053 199.093C66.594 199.26 66.5383 199.445 66.5383 199.647ZM77.3599 200.422C77.5308 200.522 77.7216 200.609 77.9323 200.685C78.1429 200.76 78.3596 200.824 78.5821 200.875C78.8087 200.923 79.0353 200.961 79.2618 200.989C79.4924 201.013 79.711 201.025 79.9177 201.025C80.3788 201.025 80.7942 200.965 81.1638 200.846C81.5375 200.726 81.8594 200.557 82.1297 200.339C82.4 200.12 82.6146 199.86 82.7736 199.558C82.9366 199.252 83.038 198.914 83.0777 198.544C82.871 198.707 82.6425 198.848 82.392 198.968C82.1416 199.087 81.8753 199.186 81.5931 199.266C81.3149 199.341 81.0267 199.399 80.7286 199.439C80.4344 199.474 80.1383 199.492 79.8402 199.492C79.2599 199.492 78.7312 199.423 78.2542 199.284C77.7812 199.144 77.3758 198.944 77.0379 198.681C76.7 198.419 76.4377 198.101 76.2509 197.727C76.068 197.35 75.9766 196.922 75.9766 196.445C75.9766 195.976 76.068 195.541 76.2509 195.14C76.4377 194.738 76.712 194.39 77.0737 194.096C77.4354 193.798 77.8846 193.566 78.4212 193.399C78.9578 193.228 79.5798 193.142 80.2874 193.142C80.975 193.142 81.603 193.23 82.1714 193.405C82.7398 193.58 83.2268 193.852 83.6322 194.222C84.0376 194.591 84.3517 195.062 84.5742 195.635C84.8008 196.203 84.9141 196.883 84.9141 197.674C84.9141 198.52 84.7869 199.26 84.5325 199.892C84.2821 200.52 83.9363 201.042 83.4951 201.46C83.0578 201.877 82.5411 202.189 81.9449 202.396C81.3486 202.603 80.7047 202.706 80.0131 202.706C79.7229 202.706 79.4208 202.688 79.1068 202.652C78.7968 202.616 78.4887 202.563 78.1827 202.491C77.8766 202.42 77.5805 202.33 77.2943 202.223C77.0121 202.116 76.7537 201.992 76.5192 201.853L77.3599 200.422ZM77.8667 196.416C77.8667 196.61 77.9084 196.793 77.9919 196.964C78.0754 197.135 78.2045 197.284 78.3794 197.411C78.5583 197.535 78.7869 197.634 79.0651 197.709C79.3433 197.781 79.6792 197.817 80.0727 197.817C80.4026 197.817 80.7147 197.791 81.0088 197.739C81.3029 197.688 81.5752 197.616 81.8256 197.525C82.076 197.433 82.3026 197.326 82.5053 197.203C82.712 197.079 82.8889 196.944 83.036 196.797C82.9406 196.145 82.6544 195.654 82.1774 195.325C81.7004 194.991 81.0744 194.824 80.2993 194.824C79.9097 194.824 79.5639 194.863 79.2618 194.943C78.9598 195.022 78.7054 195.134 78.4987 195.277C78.292 195.416 78.135 195.583 78.0277 195.778C77.9203 195.972 77.8667 196.185 77.8667 196.416ZM86.828 197.894C86.828 197.143 86.9413 196.469 87.1678 195.873C87.3944 195.277 87.7164 194.772 88.1337 194.359C88.5511 193.941 89.0579 193.623 89.6541 193.405C90.2504 193.186 90.9181 193.077 91.6575 193.077C92.3968 193.077 93.0646 193.186 93.6608 193.405C94.257 193.623 94.7638 193.941 95.1812 194.359C95.5985 194.772 95.9205 195.277 96.1471 195.873C96.3736 196.469 96.4869 197.143 96.4869 197.894C96.4869 198.646 96.3736 199.319 96.1471 199.916C95.9205 200.512 95.5985 201.017 95.1812 201.43C94.7638 201.843 94.257 202.159 93.6608 202.378C93.0646 202.597 92.3968 202.706 91.6575 202.706C90.9181 202.706 90.2504 202.597 89.6541 202.378C89.0579 202.159 88.5511 201.843 88.1337 201.43C87.7164 201.017 87.3944 200.512 87.1678 199.916C86.9413 199.319 86.828 198.646 86.828 197.894ZM88.718 197.888C88.718 198.397 88.7856 198.846 88.9208 199.236C89.0599 199.625 89.2566 199.953 89.511 200.22C89.7654 200.482 90.0735 200.683 90.4352 200.822C90.7969 200.957 91.2043 201.025 91.6575 201.025C92.1106 201.025 92.518 200.957 92.8797 200.822C93.2414 200.683 93.5495 200.482 93.8039 200.22C94.0583 199.953 94.253 199.625 94.3882 199.236C94.5273 198.846 94.5969 198.397 94.5969 197.888C94.5969 197.384 94.5273 196.938 94.3882 196.553C94.253 196.163 94.0583 195.835 93.8039 195.569C93.5495 195.303 93.2414 195.102 92.8797 194.967C92.518 194.828 92.1106 194.758 91.6575 194.758C91.2043 194.758 90.7969 194.828 90.4352 194.967C90.0735 195.102 89.7654 195.303 89.511 195.569C89.2566 195.835 89.0599 196.163 88.9208 196.553C88.7856 196.938 88.718 197.384 88.718 197.888ZM98.5797 200.953L101.865 198.699C102.358 198.361 102.761 198.067 103.075 197.817C103.389 197.566 103.636 197.344 103.815 197.149C103.993 196.95 104.117 196.771 104.184 196.612C104.252 196.453 104.286 196.294 104.286 196.135C104.286 195.953 104.248 195.782 104.172 195.623C104.097 195.464 103.978 195.325 103.815 195.205C103.656 195.086 103.449 194.993 103.194 194.925C102.944 194.858 102.644 194.824 102.294 194.824C101.785 194.824 101.279 194.895 100.774 195.038C100.269 195.181 99.7542 195.41 99.2296 195.724L98.3591 194.293C98.9434 193.931 99.5754 193.649 100.255 193.446C100.939 193.244 101.656 193.142 102.407 193.142C103.063 193.142 103.632 193.222 104.113 193.381C104.598 193.536 104.997 193.749 105.311 194.019C105.629 194.289 105.866 194.603 106.021 194.961C106.176 195.319 106.253 195.698 106.253 196.1C106.253 196.41 106.201 196.706 106.098 196.988C105.995 197.27 105.814 197.562 105.556 197.865C105.297 198.167 104.947 198.493 104.506 198.842C104.069 199.188 103.516 199.582 102.849 200.023L101.489 200.917L106.593 200.917L106.593 202.575L98.5797 202.575L98.5797 200.953Z" fill="#D9D9D9"/>
<path opacity="0.5" d="M313.308 28.3752L312.352 28.3752C312.296 28.1003 312.197 27.8587 312.055 27.6506C311.917 27.4425 311.747 27.2677 311.546 27.1264C311.349 26.9825 311.129 26.8746 310.887 26.8026C310.646 26.7307 310.394 26.6947 310.132 26.6947C309.654 26.6947 309.221 26.8155 308.833 27.057C308.448 27.2986 308.14 27.6545 307.912 28.1247C307.686 28.5949 307.573 29.1718 307.573 29.8553C307.573 30.5388 307.686 31.1157 307.912 31.586C308.14 32.0562 308.448 32.4121 308.833 32.6536C309.221 32.8952 309.654 33.0159 310.132 33.0159C310.394 33.0159 310.646 32.98 310.887 32.908C311.129 32.8361 311.349 32.7294 311.546 32.5881C311.747 32.4442 311.917 32.2682 312.055 32.0601C312.197 31.8493 312.296 31.6078 312.352 31.3354L313.308 31.3354C313.236 31.7389 313.105 32.0999 312.915 32.4185C312.725 32.7371 312.488 33.0082 312.206 33.2318C311.923 33.4528 311.606 33.6211 311.254 33.7367C310.904 33.8524 310.53 33.9102 310.132 33.9102C309.459 33.9102 308.86 33.7457 308.336 33.4168C307.812 33.0879 307.399 32.6202 307.099 32.0138C306.798 31.4074 306.648 30.6879 306.648 29.8553C306.648 29.0228 306.798 28.3033 307.099 27.6969C307.399 27.0904 307.812 26.6228 308.336 26.2939C308.86 25.9649 309.459 25.8005 310.132 25.8005C310.53 25.8005 310.904 25.8583 311.254 25.9739C311.606 26.0896 311.923 26.2592 312.206 26.4827C312.488 26.7037 312.725 26.9735 312.915 27.2921C313.105 27.6082 313.236 27.9692 313.308 28.3752ZM314.729 33.8022L314.729 27.8819L315.608 27.8819L315.608 28.7761L315.67 28.7761C315.778 28.4832 315.973 28.2455 316.256 28.063C316.538 27.8806 316.857 27.7894 317.212 27.7894C317.278 27.7894 317.362 27.7907 317.462 27.7932C317.562 27.7958 317.638 27.7996 317.689 27.8048L317.689 28.7298C317.659 28.7221 317.588 28.7106 317.477 28.6952C317.37 28.6772 317.255 28.6682 317.134 28.6682C316.847 28.6682 316.59 28.7286 316.364 28.8493C316.14 28.9675 315.963 29.132 315.832 29.3427C315.703 29.5508 315.639 29.7885 315.639 30.0558L315.639 33.8022L314.729 33.8022ZM321.07 33.9256C320.499 33.9256 320.007 33.7997 319.594 33.5479C319.182 33.2935 318.865 32.9389 318.642 32.484C318.421 32.0266 318.31 31.4947 318.31 30.8883C318.31 30.2819 318.421 29.7474 318.642 29.2849C318.865 28.8198 319.176 28.4575 319.574 28.1979C319.975 27.9358 320.443 27.8048 320.977 27.8048C321.286 27.8048 321.59 27.8562 321.891 27.959C322.191 28.0617 322.465 28.2288 322.712 28.46C322.958 28.6887 323.155 28.9919 323.301 29.3697C323.448 29.7474 323.521 30.2125 323.521 30.765L323.521 31.1504L318.958 31.1504L318.958 30.3641L322.596 30.3641C322.596 30.0301 322.529 29.732 322.396 29.4699C322.265 29.2078 322.077 29.0009 321.833 28.8493C321.591 28.6977 321.306 28.6219 320.977 28.6219C320.615 28.6219 320.301 28.7119 320.037 28.8917C319.775 29.069 319.573 29.3003 319.432 29.5855C319.29 29.8707 319.22 30.1765 319.22 30.5029L319.22 31.0271C319.22 31.4742 319.297 31.8532 319.451 32.1641C319.608 32.4725 319.825 32.7076 320.102 32.8695C320.38 33.0288 320.702 33.1085 321.07 33.1085C321.309 33.1085 321.525 33.075 321.717 33.0082C321.913 32.9389 322.081 32.8361 322.222 32.6999C322.364 32.5611 322.473 32.389 322.55 32.1834L323.429 32.4301C323.336 32.7282 323.181 32.9903 322.962 33.2164C322.744 33.4399 322.474 33.6147 322.153 33.7406C321.832 33.8639 321.471 33.9256 321.07 33.9256ZM327.14 33.9256C326.647 33.9256 326.212 33.801 325.834 33.5517C325.456 33.2999 325.161 32.9453 324.947 32.4879C324.734 32.0279 324.627 31.4845 324.627 30.8575C324.627 30.2356 324.734 29.696 324.947 29.2386C325.161 28.7812 325.457 28.4279 325.838 28.1787C326.218 27.9294 326.657 27.8048 327.156 27.8048C327.541 27.8048 327.846 27.869 328.069 27.9975C328.296 28.1234 328.468 28.2673 328.586 28.4292C328.707 28.5885 328.8 28.7196 328.867 28.8223L328.944 28.8223L328.944 25.9084L329.854 25.9084L329.854 33.8022L328.975 33.8022L328.975 32.8926L328.867 32.8926C328.8 33.0005 328.705 33.1367 328.582 33.3012C328.459 33.4631 328.283 33.6082 328.054 33.7367C327.825 33.8626 327.521 33.9256 327.14 33.9256ZM327.264 33.1085C327.629 33.1085 327.937 33.0134 328.189 32.8232C328.441 32.6305 328.632 32.3646 328.763 32.0254C328.894 31.6836 328.96 31.2892 328.96 30.8421C328.96 30.4001 328.896 30.0134 328.767 29.6819C328.639 29.3478 328.448 29.0883 328.197 28.9033C327.945 28.7157 327.634 28.6219 327.264 28.6219C326.878 28.6219 326.557 28.7208 326.3 28.9187C326.046 29.114 325.854 29.38 325.726 29.7166C325.6 30.0506 325.537 30.4258 325.537 30.8421C325.537 31.2635 325.601 31.6463 325.73 31.9907C325.861 32.3324 326.054 32.6048 326.308 32.8078C326.565 33.0082 326.884 33.1085 327.264 33.1085ZM331.646 33.8022L331.646 27.8819L332.556 27.8819L332.556 33.8022L331.646 33.8022ZM332.109 26.8951C331.932 26.8951 331.779 26.8348 331.65 26.714C331.524 26.5932 331.461 26.448 331.461 26.2784C331.461 26.1088 331.524 25.9637 331.65 25.8429C331.779 25.7221 331.932 25.6617 332.109 25.6617C332.286 25.6617 332.438 25.7221 332.564 25.8429C332.692 25.9637 332.756 26.1088 332.756 26.2784C332.756 26.448 332.692 26.5932 332.564 26.714C332.438 26.8348 332.286 26.8951 332.109 26.8951ZM336.797 27.8819L336.797 28.6528L333.729 28.6528L333.729 27.8819L336.797 27.8819ZM334.623 26.4634L335.532 26.4634L335.532 32.1063C335.532 32.3633 335.57 32.556 335.644 32.6845C335.721 32.8104 335.819 32.8952 335.937 32.9389C336.058 32.98 336.185 33.0005 336.319 33.0005C336.419 33.0005 336.501 32.9954 336.565 32.9851C336.63 32.9723 336.681 32.962 336.72 32.9543L336.905 33.7714C336.843 33.7945 336.757 33.8177 336.646 33.8408C336.536 33.8665 336.396 33.8793 336.226 33.8793C335.969 33.8793 335.718 33.8241 335.471 33.7136C335.227 33.6031 335.024 33.4348 334.862 33.2087C334.703 32.9825 334.623 32.6973 334.623 32.353L334.623 26.4634ZM347.693 28.3752L346.737 28.3752C346.681 28.1003 346.582 27.8587 346.44 27.6506C346.302 27.4425 346.132 27.2677 345.932 27.1264C345.734 26.9825 345.514 26.8746 345.273 26.8026C345.031 26.7307 344.779 26.6947 344.517 26.6947C344.039 26.6947 343.606 26.8155 343.218 27.057C342.833 27.2986 342.526 27.6545 342.297 28.1247C342.071 28.5949 341.958 29.1718 341.958 29.8553C341.958 30.5388 342.071 31.1157 342.297 31.586C342.526 32.0562 342.833 32.4121 343.218 32.6536C343.606 32.8952 344.039 33.0159 344.517 33.0159C344.779 33.0159 345.031 32.98 345.273 32.908C345.514 32.8361 345.734 32.7294 345.932 32.5881C346.132 32.4442 346.302 32.2682 346.44 32.0601C346.582 31.8493 346.681 31.6078 346.737 31.3354L347.693 31.3354C347.621 31.7389 347.49 32.0999 347.3 32.4185C347.11 32.7371 346.873 33.0082 346.591 33.2318C346.308 33.4528 345.991 33.6211 345.639 33.7367C345.289 33.8524 344.915 33.9102 344.517 33.9102C343.844 33.9102 343.245 33.7457 342.721 33.4168C342.197 33.0879 341.784 32.6202 341.484 32.0138C341.183 31.4074 341.033 30.6879 341.033 29.8553C341.033 29.0228 341.183 28.3033 341.484 27.6969C341.784 27.0904 342.197 26.6228 342.721 26.2939C343.245 25.9649 343.844 25.8005 344.517 25.8005C344.915 25.8005 345.289 25.8583 345.639 25.9739C345.991 26.0896 346.308 26.2592 346.591 26.4827C346.873 26.7037 347.11 26.9735 347.3 27.2921C347.49 27.6082 347.621 27.9692 347.693 28.3752ZM350.857 33.941C350.482 33.941 350.141 33.8703 349.835 33.729C349.529 33.5851 349.287 33.3783 349.107 33.1085C348.927 32.8361 348.837 32.5072 348.837 32.1217C348.837 31.7825 348.904 31.5076 349.037 31.2969C349.171 31.0836 349.35 30.9166 349.573 30.7958C349.797 30.675 350.043 30.5851 350.313 30.526C350.586 30.4643 350.859 30.4155 351.134 30.3795C351.494 30.3333 351.786 30.2986 352.009 30.2755C352.235 30.2498 352.4 30.2074 352.503 30.1483C352.608 30.0892 352.661 29.9864 352.661 29.8399L352.661 29.8091C352.661 29.4288 352.556 29.1333 352.348 28.9226C352.143 28.7119 351.831 28.6065 351.412 28.6065C350.977 28.6065 350.637 28.7016 350.39 28.8917C350.144 29.0819 349.97 29.2849 349.87 29.5007L349.007 29.1924C349.161 28.8326 349.366 28.5525 349.623 28.3521C349.883 28.1491 350.165 28.0078 350.471 27.9281C350.78 27.8459 351.083 27.8048 351.381 27.8048C351.571 27.8048 351.789 27.8279 352.036 27.8742C352.285 27.9178 352.526 28.0091 352.757 28.1478C352.991 28.2866 353.185 28.496 353.339 28.7761C353.493 29.0562 353.57 29.4313 353.57 29.9016L353.57 33.8022L352.661 33.8022L352.661 33.0005L352.614 33.0005C352.553 33.129 352.45 33.2665 352.306 33.413C352.162 33.5594 351.971 33.684 351.732 33.7868C351.493 33.8896 351.201 33.941 350.857 33.941ZM350.995 33.1239C351.355 33.1239 351.658 33.0532 351.905 32.9119C352.154 32.7706 352.342 32.5881 352.468 32.3646C352.596 32.141 352.661 31.9059 352.661 31.6592L352.661 30.8266C352.622 30.8729 352.537 30.9153 352.406 30.9538C352.278 30.9898 352.129 31.0219 351.959 31.0502C351.792 31.0759 351.629 31.099 351.47 31.1196C351.313 31.1376 351.186 31.153 351.088 31.1658C350.852 31.1967 350.631 31.2468 350.425 31.3162C350.222 31.383 350.058 31.4845 349.932 31.6207C349.808 31.7543 349.747 31.9367 349.747 32.168C349.747 32.484 349.864 32.723 350.097 32.8849C350.334 33.0442 350.633 33.1239 350.995 33.1239ZM355.23 33.8022L355.23 27.8819L356.109 27.8819L356.109 28.7761L356.171 28.7761C356.279 28.4832 356.474 28.2455 356.757 28.063C357.039 27.8806 357.358 27.7894 357.713 27.7894C357.78 27.7894 357.863 27.7907 357.963 27.7932C358.063 27.7958 358.139 27.7996 358.191 27.8048L358.191 28.7298C358.16 28.7221 358.089 28.7106 357.979 28.6952C357.871 28.6772 357.756 28.6682 357.636 28.6682C357.348 28.6682 357.091 28.7286 356.865 28.8493C356.641 28.9675 356.464 29.132 356.333 29.3427C356.204 29.5508 356.14 29.7885 356.14 30.0558L356.14 33.8022L355.23 33.8022ZM361.324 33.9256C360.831 33.9256 360.395 33.801 360.018 33.5517C359.64 33.2999 359.344 32.9453 359.131 32.4879C358.918 32.0279 358.811 31.4845 358.811 30.8575C358.811 30.2356 358.918 29.696 359.131 29.2386C359.344 28.7812 359.641 28.4279 360.021 28.1787C360.402 27.9294 360.841 27.8048 361.34 27.8048C361.725 27.8048 362.03 27.869 362.253 27.9975C362.479 28.1234 362.651 28.2673 362.77 28.4292C362.89 28.5885 362.984 28.7196 363.051 28.8223L363.128 28.8223L363.128 25.9084L364.038 25.9084L364.038 33.8022L363.159 33.8022L363.159 32.8926L363.051 32.8926C362.984 33.0005 362.889 33.1367 362.766 33.3012C362.642 33.4631 362.466 33.6082 362.238 33.7367C362.009 33.8626 361.705 33.9256 361.324 33.9256ZM361.448 33.1085C361.813 33.1085 362.121 33.0134 362.373 32.8232C362.625 32.6305 362.816 32.3646 362.947 32.0254C363.078 31.6836 363.144 31.2892 363.144 30.8421C363.144 30.4001 363.079 30.0134 362.951 29.6819C362.822 29.3478 362.632 29.0883 362.38 28.9033C362.129 28.7157 361.818 28.6219 361.448 28.6219C361.062 28.6219 360.741 28.7209 360.484 28.9187C360.23 29.114 360.038 29.38 359.91 29.7166C359.784 30.0506 359.721 30.4258 359.721 30.8421C359.721 31.2635 359.785 31.6463 359.914 31.9907C360.045 32.3324 360.237 32.6048 360.492 32.8078C360.749 33.0082 361.067 33.1085 361.448 33.1085Z" fill="white"/>
<rect x="22.5" y="17.5562" width="94" height="24" rx="12" stroke="#DBDBDB" stroke-opacity="0.4"/>
<path d="M34.2775 25.1623L35.3722 25.1623L37.5615 28.8471L37.654 28.8471L39.8433 25.1623L40.9379 25.1623L38.0857 29.803L38.0857 33.0562L37.1298 33.0562L37.1298 29.803L34.2775 25.1623ZM48.4637 29.1092C48.4637 29.9418 48.3134 30.6613 48.0127 31.2677C47.7121 31.8741 47.2996 32.3418 46.7754 32.6707C46.2512 32.9996 45.6525 33.1641 44.9793 33.1641C44.3061 33.1641 43.7073 32.9996 43.1831 32.6707C42.6589 32.3418 42.2465 31.8741 41.9459 31.2677C41.6452 30.6613 41.4949 29.9418 41.4949 29.1092C41.4949 28.2767 41.6452 27.5572 41.9459 26.9508C42.2465 26.3443 42.6589 25.8767 43.1831 25.5478C43.7073 25.2189 44.3061 25.0544 44.9793 25.0544C45.6525 25.0544 46.2512 25.2189 46.7754 25.5478C47.2996 25.8767 47.7121 26.3443 48.0127 26.9508C48.3134 27.5572 48.4637 28.2767 48.4637 29.1092ZM47.5386 29.1092C47.5386 28.4257 47.4243 27.8488 47.1956 27.3786C46.9694 26.9084 46.6624 26.5525 46.2744 26.3109C45.8889 26.0694 45.4572 25.9486 44.9793 25.9486C44.5013 25.9486 44.0684 26.0694 43.6804 26.3109C43.2949 26.5525 42.9878 26.9084 42.7591 27.3786C42.533 27.8488 42.42 28.4257 42.42 29.1092C42.42 29.7928 42.533 30.3696 42.7591 30.8399C42.9878 31.3101 43.2949 31.666 43.6804 31.9075C44.0684 32.1491 44.5013 32.2699 44.9793 32.2699C45.4572 32.2699 45.8889 32.1491 46.2744 31.9075C46.6624 31.666 46.9694 31.3101 47.1956 30.8399C47.4243 30.3696 47.5386 29.7928 47.5386 29.1092ZM55.2513 25.1623L56.2072 25.1623L56.2072 30.3889C56.2072 30.9285 56.08 31.4103 55.8256 31.8343C55.5738 32.2557 55.2179 32.5885 54.7579 32.8326C54.298 33.0741 53.7583 33.1949 53.1391 33.1949C52.5198 33.1949 51.9802 33.0741 51.5202 32.8326C51.0603 32.5885 50.7031 32.2557 50.4487 31.8343C50.1969 31.4103 50.071 30.9285 50.071 30.3889L50.071 25.1623L51.0269 25.1623L51.0269 30.3118C51.0269 30.6973 51.1117 31.0403 51.2812 31.3409C51.4508 31.639 51.6924 31.8741 52.0059 32.0463C52.3219 32.2159 52.6997 32.3007 53.1391 32.3007C53.5785 32.3007 53.9562 32.2159 54.2723 32.0463C54.5883 31.8741 54.8299 31.639 54.9969 31.3409C55.1665 31.0403 55.2513 30.6973 55.2513 30.3118L55.2513 25.1623ZM58.1161 33.0562L58.1161 25.1623L60.7833 25.1623C61.4 25.1623 61.9063 25.2677 62.302 25.4784C62.6977 25.6865 62.9906 25.973 63.1808 26.3379C63.3709 26.7028 63.466 27.1178 63.466 27.5829C63.466 28.048 63.3709 28.4604 63.1808 28.8202C62.9906 29.1799 62.699 29.4626 62.3058 29.6681C61.9127 29.8711 61.4103 29.9726 60.7988 29.9726L58.6403 29.9726L58.6403 29.1092L60.7679 29.1092C61.1893 29.1092 61.5285 29.0476 61.7855 28.9242C62.045 28.8009 62.2326 28.6262 62.3482 28.4C62.4664 28.1713 62.5255 27.899 62.5255 27.5829C62.5255 27.2668 62.4664 26.9906 62.3482 26.7542C62.23 26.5178 62.0412 26.3353 61.7816 26.2069C61.5221 26.0758 61.1791 26.0103 60.7525 26.0103L59.072 26.0103L59.072 33.0562L58.1161 33.0562ZM61.8317 29.5101L63.7744 33.0562L62.6643 33.0562L60.7525 29.5101L61.8317 29.5101ZM68.1115 33.0562L68.1115 25.1623L70.8713 25.1623C71.4212 25.1623 71.8747 25.2574 72.2319 25.4475C72.5891 25.6351 72.855 25.8882 73.0298 26.2069C73.2045 26.5229 73.2919 26.8737 73.2919 27.2591C73.2919 27.5983 73.2315 27.8784 73.1107 28.0994C72.9925 28.3204 72.8358 28.4951 72.6405 28.6236C72.4477 28.7521 72.2383 28.8471 72.0122 28.9088L72.0122 28.9859C72.2537 29.0013 72.4966 29.0861 72.7407 29.2403C72.9848 29.3945 73.1891 29.6155 73.3535 29.9032C73.518 30.191 73.6002 30.5431 73.6002 30.9594C73.6002 31.3551 73.5103 31.711 73.3304 32.027C73.1505 32.3431 72.8666 32.5936 72.4786 32.7786C72.0906 32.9636 71.5856 33.0562 70.9638 33.0562L68.1115 33.0562ZM69.0674 32.2082L70.9638 32.2082C71.5882 32.2082 72.0315 32.0874 72.2936 31.8459C72.5582 31.6018 72.6906 31.3063 72.6906 30.9594C72.6906 30.6921 72.6225 30.4454 72.4863 30.2193C72.3501 29.9906 72.1561 29.8082 71.9043 29.672C71.6525 29.5332 71.3544 29.4638 71.0101 29.4638L69.0674 29.4638L69.0674 32.2082ZM69.0674 28.6313L70.8405 28.6313C71.1283 28.6313 71.3878 28.5748 71.619 28.4617C71.8529 28.3486 72.0379 28.1893 72.1741 27.9837C72.3128 27.7782 72.3822 27.5366 72.3822 27.2591C72.3822 26.9122 72.2614 26.618 72.0199 26.3765C71.7784 26.1323 71.3955 26.0103 70.8713 26.0103L69.0674 26.0103L69.0674 28.6313ZM75.1709 33.0562L75.1709 25.1623L77.8381 25.1623C78.4548 25.1623 78.9611 25.2677 79.3568 25.4784C79.7525 25.6865 80.0454 25.973 80.2356 26.3379C80.4257 26.7028 80.5208 27.1178 80.5208 27.5829C80.5208 28.048 80.4257 28.4604 80.2356 28.8202C80.0454 29.1799 79.7538 29.4626 79.3606 29.6681C78.9675 29.8711 78.4651 29.9726 77.8536 29.9726L75.6951 29.9726L75.6951 29.1092L77.8227 29.1092C78.2441 29.1092 78.5833 29.0476 78.8403 28.9242C79.0998 28.8009 79.2874 28.6262 79.403 28.4C79.5212 28.1713 79.5803 27.899 79.5803 27.5829C79.5803 27.2668 79.5212 26.9906 79.403 26.7542C79.2848 26.5178 79.096 26.3353 78.8364 26.2069C78.5769 26.0758 78.2339 26.0103 77.8073 26.0103L76.1268 26.0103L76.1268 33.0562L75.1709 33.0562ZM78.8865 29.5101L80.8292 33.0562L79.7191 33.0562L77.8073 29.5101L78.8865 29.5101ZM82.4374 33.0562L81.4353 33.0562L84.3338 25.1623L85.3205 25.1623L88.219 33.0562L87.2169 33.0562L84.858 26.4112L84.7963 26.4112L82.4374 33.0562ZM82.8074 29.9726L86.8469 29.9726L86.8469 30.8206L82.8074 30.8206L82.8074 29.9726ZM95.7081 25.1623L95.7081 33.0562L94.7831 33.0562L90.4816 26.8583L90.4045 26.8583L90.4045 33.0562L89.4486 33.0562L89.4486 25.1623L90.3736 25.1623L94.6906 31.3756L94.7677 31.3756L94.7677 25.1623L95.7081 25.1623ZM100.057 33.0562L97.6209 33.0562L97.6209 25.1623L100.165 25.1623C100.931 25.1623 101.586 25.3204 102.131 25.6364C102.675 25.9499 103.093 26.4009 103.383 26.9893C103.674 27.5752 103.819 28.2767 103.819 29.0938C103.819 29.9161 103.672 30.624 103.379 31.2176C103.086 31.8086 102.66 32.2634 102.1 32.5821C101.54 32.8981 100.859 33.0562 100.057 33.0562ZM98.5768 32.2082L99.9952 32.2082C100.648 32.2082 101.189 32.0823 101.618 31.8305C102.047 31.5786 102.367 31.2202 102.578 30.7551C102.788 30.29 102.894 29.7362 102.894 29.0938C102.894 28.4566 102.79 27.9079 102.582 27.448C102.373 26.9855 102.062 26.6309 101.649 26.3842C101.235 26.1349 100.72 26.0103 100.103 26.0103L98.5768 26.0103L98.5768 32.2082Z" fill="white"/>
<path d="M358.436 197.903C357.234 198.27 355.564 198.088 354.498 196.491L353.802 195.446L353.2 194.543L354.498 192.597C355.562 191 357.225 190.815 358.436 191.184C359.642 191.548 360.93 192.623 360.93 194.544C360.93 196.464 359.642 197.538 358.436 197.903ZM347.011 196.491C345.946 198.087 344.28 198.271 343.07 197.903C341.866 197.538 340.578 196.464 340.578 194.544C340.578 192.623 341.866 191.548 343.072 191.184C343.403 191.083 343.769 191.023 344.148 191.023C345.148 191.023 346.237 191.437 347.011 192.597L348.309 194.543L347.011 196.491ZM359.615 187.288C356.345 186.3 353.007 187.496 351.112 190.339L350.754 190.874L350.398 190.339C348.5 187.496 345.168 186.292 341.891 187.289C338.622 188.278 336.508 191.127 336.508 194.544C336.508 197.961 338.622 200.808 341.891 201.798C345.161 202.792 348.499 201.593 350.398 198.748L350.754 198.213L351.112 198.748C351.191 198.868 351.273 198.984 351.358 199.097C352.818 201.058 355.003 202.141 357.338 202.141C358.088 202.141 358.853 202.03 359.617 201.8C362.886 200.808 365 197.961 365 194.544C365 191.126 362.886 188.278 359.615 187.288Z" fill="white"/>
<path d="M353.802 195.446L351.357 199.097C351.273 198.984 351.191 198.867 351.112 198.748L350.754 198.212L353.2 194.543L353.802 195.446Z" fill="#BBBCBD"/>
<path d="M350.753 190.873L348.309 194.524C348.224 194.411 348.142 194.295 348.063 194.175L347.705 193.64L350.151 189.97L350.753 190.873Z" fill="#BBBCBD"/>
<defs>
<linearGradient id="paint0_linear_720_799" x1="690.865" y1="192" x2="384" y2="192" gradientUnits="userSpaceOnUse">
<stop stop-color="#666969"/>
<stop offset="1" stop-color="#D12424"/>
</linearGradient>
<linearGradient id="paint1_linear_720_799" x1="68.6147" y1="114.287" x2="28.1328" y2="147.99" gradientUnits="userSpaceOnUse">
<stop stop-color="#CDCDCD"/>
<stop offset="0.447917" stop-color="#E8E8E8"/>
<stop offset="1" stop-color="#B4B4B4"/>
</linearGradient>
<linearGradient id="paint2_linear_720_799" x1="68.6147" y1="114.286" x2="28.1328" y2="147.99" gradientUnits="userSpaceOnUse">
<stop stop-color="#CDCDCD"/>
<stop offset="0.447917" stop-color="#E8E8E8"/>
<stop offset="1" stop-color="#B4B4B4"/>
</linearGradient>
</defs>
</svg>
