<svg width="434" height="314" viewBox="0 0 434 314" fill="none" xmlns="http://www.w3.org/2000/svg">
<g filter="url(#filter0_dddd_516_3439)">
<rect x="25" y="309" width="224" height="384" rx="11.5644" transform="rotate(-90 25 309)" fill="url(#paint0_linear_516_3439)"/>
</g>
<mask id="mask0_516_3439" style="mask-type:alpha" maskUnits="userSpaceOnUse" x="46" y="197" width="52" height="32">
<rect x="46.668" y="197.001" width="50.558" height="31.2304" rx="3.15392" fill="url(#paint1_linear_516_3439)"/>
</mask>
<g mask="url(#mask0_516_3439)">
<rect x="46.668" y="197" width="50.558" height="31.2304" rx="3.15392" fill="url(#paint2_linear_516_3439)"/>
<path fill-rule="evenodd" clip-rule="evenodd" d="M58.3413 206.655L46.668 206.655L46.668 206.342L58.468 206.342L63.0993 209.546L63.0993 218.275L59.3823 221.489L46.668 221.489L46.668 221.177L59.2327 221.177L62.7382 218.145L62.7382 209.697L58.3413 206.655Z" fill="#868686"/>
<path fill-rule="evenodd" clip-rule="evenodd" d="M84.6696 202.751L98.1289 202.751L98.1289 202.438L84.5035 202.438L78.9891 208.002L78.9891 218.268L84.5035 223.831L98.1289 223.831L98.1289 223.519L84.6696 223.519L79.3502 218.152L79.3502 208.118L84.6696 202.751Z" fill="#868686"/>
<path fill-rule="evenodd" clip-rule="evenodd" d="M70.4791 201.76L61.1133 195.724L61.33 195.439L70.8569 201.579L70.8569 207.583L79.1697 207.583L79.1697 207.931L70.4791 207.931L70.4791 201.76Z" fill="#868686"/>
<path fill-rule="evenodd" clip-rule="evenodd" d="M62.918 218.053L71.2239 218.053L71.2239 223.753L63.9291 228.484L63.7125 228.234L70.8628 223.597L70.8628 218.366L62.918 218.366L62.918 218.053Z" fill="#868686"/>
<path fill-rule="evenodd" clip-rule="evenodd" d="M79.1699 218.053L70.864 218.053L70.864 223.753L78.1588 228.484L78.3754 228.234L71.2251 223.597L71.2251 218.366L79.1699 218.366L79.1699 218.053Z" fill="#868686"/>
</g>
<rect x="46.9308" y="197.263" width="50.0323" height="30.7048" rx="2.89109" stroke="white" stroke-width="0.525653"/>
<path d="M48.58 285.413C48.8066 285.529 49.051 285.628 49.3134 285.711C49.5797 285.791 49.852 285.859 50.1302 285.914C50.4124 285.97 50.6946 286.012 50.9768 286.039C51.263 286.063 51.5413 286.075 51.8116 286.075C52.2886 286.075 52.6999 286.041 53.0458 285.974C53.3956 285.902 53.6817 285.803 53.9043 285.676C54.1309 285.549 54.2978 285.397 54.4052 285.223C54.5165 285.044 54.5721 284.847 54.5721 284.632C54.5721 284.414 54.5145 284.213 54.3992 284.03C54.2879 283.847 54.119 283.69 53.8924 283.559C53.6698 283.428 53.3876 283.327 53.0458 283.255C52.7079 283.18 52.3124 283.142 51.8593 283.142C51.6565 283.142 51.428 283.152 51.1736 283.172C50.9192 283.187 50.6489 283.215 50.3627 283.255C50.0765 283.295 49.7784 283.35 49.4684 283.422C49.1583 283.49 48.8443 283.573 48.5263 283.672L48.5263 278.312L55.6751 278.312L55.6751 279.988L50.2733 279.988L50.2733 281.794C50.5714 281.727 50.8834 281.671 51.2094 281.627C51.5353 281.58 51.899 281.556 52.3005 281.556C52.9563 281.556 53.5426 281.627 54.0594 281.77C54.5761 281.914 55.0113 282.118 55.3651 282.385C55.7228 282.651 55.9951 282.973 56.1819 283.35C56.3687 283.724 56.4622 284.143 56.4622 284.608C56.4622 285.089 56.3608 285.525 56.1581 285.914C55.9593 286.3 55.6632 286.63 55.2697 286.904C54.8802 287.178 54.3992 287.389 53.8268 287.536C53.2584 287.683 52.6046 287.757 51.8652 287.757C51.4836 287.757 51.104 287.735 50.7264 287.691C50.3528 287.651 49.9891 287.594 49.6353 287.518C49.2816 287.439 48.9417 287.343 48.6158 287.232C48.2938 287.117 47.9917 286.987 47.7095 286.844L48.58 285.413ZM63.2592 279.982L57.8394 279.982L57.8394 278.312L66.1211 278.312L61.2618 287.631L59.1154 287.631L63.2592 279.982ZM67.5222 283.231C67.5222 282.385 67.6474 281.647 67.8978 281.019C68.1522 280.387 68.498 279.862 68.9353 279.445C69.3765 279.028 69.8952 278.716 70.4914 278.509C71.0877 278.302 71.7316 278.199 72.4232 278.199C72.7134 278.199 73.0075 278.215 73.3056 278.247C73.6077 278.275 73.9038 278.32 74.194 278.384C74.4842 278.447 74.7644 278.531 75.0347 278.634C75.309 278.734 75.5634 278.853 75.7979 278.992L74.9572 280.423C74.7823 280.324 74.5955 280.24 74.3967 280.173C74.202 280.101 73.9992 280.045 73.7886 280.006C73.5779 279.962 73.3653 279.93 73.1506 279.91C72.936 279.89 72.7253 279.88 72.5186 279.88C72.0575 279.88 71.6402 279.94 71.2665 280.059C70.8969 280.178 70.5769 280.347 70.3066 280.566C70.0363 280.785 69.8197 281.047 69.6567 281.353C69.4977 281.655 69.3983 281.991 69.3586 282.361C69.5653 282.198 69.7938 282.057 70.0443 281.937C70.2947 281.818 70.559 281.721 70.8372 281.645C71.1195 281.566 71.4076 281.508 71.7018 281.472C71.9999 281.433 72.298 281.413 72.5961 281.413C73.1764 281.413 73.7031 281.482 74.1761 281.621C74.6531 281.76 75.0605 281.961 75.3984 282.224C75.7363 282.486 75.9966 282.806 76.1795 283.183C76.3663 283.557 76.4597 283.982 76.4597 284.459C76.4597 284.928 76.3663 285.364 76.1795 285.765C75.9966 286.167 75.7243 286.516 75.3626 286.815C75.0009 287.109 74.5517 287.341 74.0151 287.512C73.4785 287.679 72.8565 287.763 72.1489 287.763C71.4613 287.763 70.8333 287.675 70.2649 287.5C69.6965 287.325 69.2095 287.053 68.8041 286.683C68.3987 286.314 68.0827 285.845 67.8561 285.276C67.6335 284.704 67.5222 284.022 67.5222 283.231ZM69.4003 284.108C69.4957 284.76 69.7819 285.252 70.2589 285.586C70.7359 285.916 71.3619 286.081 72.137 286.081C72.5266 286.081 72.8724 286.041 73.1745 285.962C73.4765 285.882 73.7309 285.773 73.9376 285.634C74.1443 285.491 74.3013 285.322 74.4087 285.127C74.516 284.932 74.5696 284.72 74.5696 284.489C74.5696 284.294 74.5279 284.112 74.4444 283.941C74.361 283.77 74.2298 283.623 74.0509 283.499C73.876 283.372 73.6495 283.273 73.3712 283.201C73.093 283.126 72.7571 283.088 72.3636 283.088C72.0337 283.088 71.7216 283.114 71.4275 283.166C71.1334 283.217 70.8611 283.289 70.6107 283.38C70.3603 283.472 70.1317 283.579 69.925 283.702C69.7223 283.825 69.5474 283.961 69.4003 284.108ZM78.6955 283.231C78.6955 282.385 78.8207 281.647 79.0712 281.019C79.3256 280.387 79.6714 279.862 80.1086 279.445C80.5498 279.028 81.0685 278.716 81.6648 278.509C82.261 278.302 82.9049 278.199 83.5965 278.199C83.8867 278.199 84.1808 278.215 84.479 278.247C84.7811 278.275 85.0772 278.32 85.3673 278.384C85.6575 278.447 85.9377 278.531 86.208 278.634C86.4823 278.734 86.7367 278.853 86.9712 278.992L86.1305 280.423C85.9556 280.324 85.7688 280.24 85.5701 280.173C85.3753 280.101 85.1726 280.045 84.9619 280.006C84.7512 279.962 84.5386 279.93 84.3239 279.91C84.1093 279.89 83.8986 279.88 83.6919 279.88C83.2309 279.88 82.8135 279.94 82.4399 280.059C82.0702 280.178 81.7502 280.347 81.4799 280.566C81.2096 280.785 80.993 281.047 80.83 281.353C80.671 281.655 80.5717 281.991 80.5319 282.361C80.7386 282.198 80.9672 282.057 81.2176 281.937C81.468 281.818 81.7323 281.721 82.0106 281.645C82.2928 281.566 82.581 281.508 82.8751 281.472C83.1732 281.433 83.4713 281.413 83.7695 281.413C84.3498 281.413 84.8764 281.482 85.3495 281.621C85.8264 281.76 86.2339 281.961 86.5717 282.224C86.9096 282.486 87.1699 282.806 87.3528 283.183C87.5396 283.557 87.633 283.982 87.633 284.459C87.633 284.928 87.5396 285.364 87.3528 285.765C87.1699 286.167 86.8977 286.516 86.536 286.815C86.1742 287.109 85.7251 287.341 85.1885 287.512C84.6519 287.679 84.0298 287.763 83.3223 287.763C82.6346 287.763 82.0066 287.675 81.4382 287.5C80.8698 287.325 80.3829 287.053 79.9774 286.683C79.572 286.314 79.256 285.845 79.0294 285.276C78.8068 284.704 78.6955 284.022 78.6955 283.231ZM80.5737 284.108C80.6691 284.76 80.9552 285.252 81.4322 285.586C81.9092 285.916 82.5353 286.081 83.3104 286.081C83.6999 286.081 84.0457 286.041 84.3478 285.962C84.6499 285.882 84.9043 285.773 85.111 285.634C85.3177 285.491 85.4747 285.322 85.582 285.127C85.6893 284.932 85.743 284.72 85.743 284.489C85.743 284.294 85.7012 284.112 85.6178 283.941C85.5343 283.77 85.4031 283.623 85.2242 283.499C85.0494 283.372 84.8228 283.273 84.5445 283.201C84.2663 283.126 83.9304 283.088 83.5369 283.088C83.207 283.088 82.895 283.114 82.6008 283.166C82.3067 283.217 82.0344 283.289 81.784 283.38C81.5336 283.472 81.305 283.579 81.0983 283.702C80.8956 283.825 80.7207 283.961 80.5737 284.108ZM89.6483 284.793C89.6483 284.515 89.686 284.257 89.7616 284.018C89.8371 283.78 89.9404 283.563 90.0716 283.368C90.2028 283.17 90.3538 282.995 90.5247 282.844C90.6996 282.689 90.8864 282.553 91.0852 282.438C90.8109 282.168 90.6122 281.9 90.489 281.633C90.3657 281.363 90.3041 281.105 90.3041 280.858C90.3041 280.465 90.3955 280.105 90.5784 279.779C90.7652 279.453 91.0315 279.173 91.3773 278.938C91.7231 278.7 92.1425 278.517 92.6354 278.39C93.1283 278.259 93.6828 278.193 94.2989 278.193C94.915 278.193 95.4695 278.259 95.9623 278.39C96.4552 278.517 96.8746 278.7 97.2204 278.938C97.5662 279.173 97.8305 279.453 98.0134 279.779C98.2002 280.105 98.2936 280.465 98.2936 280.858C98.2936 281.105 98.232 281.363 98.1088 281.633C97.9855 281.9 97.7868 282.168 97.5125 282.438C97.7073 282.553 97.8921 282.689 98.067 282.844C98.2419 282.995 98.3949 283.17 98.5261 283.368C98.6573 283.563 98.7606 283.78 98.8362 284.018C98.9117 284.257 98.9494 284.515 98.9494 284.793C98.9494 285.258 98.8401 285.676 98.6215 286.045C98.4069 286.411 98.0968 286.721 97.6914 286.975C97.2899 287.226 96.801 287.419 96.2247 287.554C95.6523 287.689 95.0104 287.757 94.2989 287.757C93.5874 287.757 92.9434 287.689 92.3671 287.554C91.7947 287.419 91.3058 287.226 90.9003 286.975C90.4989 286.721 90.1888 286.411 89.9702 286.045C89.7556 285.676 89.6483 285.258 89.6483 284.793ZM92.1942 280.942C92.1942 281.089 92.2299 281.228 92.3015 281.359C92.377 281.486 92.4963 281.599 92.6592 281.699C92.8262 281.794 93.0428 281.87 93.3091 281.925C93.5794 281.981 93.9093 282.009 94.2989 282.009C94.6884 282.009 95.0163 281.981 95.2826 281.925C95.5529 281.87 95.7696 281.794 95.9325 281.699C96.0995 281.599 96.2187 281.486 96.2903 281.359C96.3658 281.228 96.4035 281.089 96.4035 280.942C96.4035 280.795 96.3658 280.657 96.2903 280.53C96.2187 280.399 96.0995 280.286 95.9325 280.19C95.7696 280.091 95.5529 280.014 95.2826 279.958C95.0163 279.902 94.6884 279.874 94.2989 279.874C93.9093 279.874 93.5794 279.902 93.3091 279.958C93.0428 280.014 92.8262 280.091 92.6592 280.19C92.4963 280.286 92.377 280.399 92.3015 280.53C92.2299 280.657 92.1942 280.795 92.1942 280.942ZM91.5383 284.704C91.5383 284.907 91.5959 285.093 91.7112 285.264C91.8305 285.431 92.0054 285.574 92.2359 285.694C92.4664 285.813 92.7546 285.906 93.1004 285.974C93.4462 286.041 93.8457 286.075 94.2989 286.075C94.752 286.075 95.1515 286.041 95.4973 285.974C95.8431 285.906 96.1313 285.813 96.3618 285.694C96.5923 285.574 96.7653 285.431 96.8805 285.264C96.9998 285.093 97.0594 284.907 97.0594 284.704C97.0594 284.501 97.0018 284.316 96.8865 284.149C96.7752 283.978 96.6043 283.833 96.3737 283.714C96.1472 283.595 95.861 283.501 95.5152 283.434C95.1693 283.366 94.7639 283.333 94.2989 283.333C93.8338 283.333 93.4284 283.366 93.0825 283.434C92.7367 283.501 92.4486 283.595 92.218 283.714C91.9914 283.833 91.8205 283.978 91.7053 284.149C91.594 284.316 91.5383 284.501 91.5383 284.704ZM102.36 285.479C102.531 285.578 102.722 285.666 102.932 285.741C103.143 285.817 103.36 285.88 103.582 285.932C103.809 285.98 104.035 286.018 104.262 286.045C104.492 286.069 104.711 286.081 104.918 286.081C105.379 286.081 105.794 286.022 106.164 285.902C106.537 285.783 106.859 285.614 107.13 285.395C107.4 285.177 107.615 284.917 107.774 284.614C107.937 284.308 108.038 283.971 108.078 283.601C107.871 283.764 107.642 283.905 107.392 284.024C107.142 284.143 106.875 284.243 106.593 284.322C106.315 284.398 106.027 284.455 105.729 284.495C105.434 284.531 105.138 284.549 104.84 284.549C104.26 284.549 103.731 284.479 103.254 284.34C102.781 284.201 102.376 284 102.038 283.738C101.7 283.476 101.438 283.158 101.251 282.784C101.068 282.406 100.977 281.979 100.977 281.502C100.977 281.033 101.068 280.598 101.251 280.196C101.438 279.795 101.712 279.447 102.074 279.153C102.435 278.855 102.885 278.622 103.421 278.455C103.958 278.284 104.58 278.199 105.287 278.199C105.975 278.199 106.603 278.286 107.171 278.461C107.74 278.636 108.227 278.909 108.632 279.278C109.038 279.648 109.352 280.119 109.574 280.691C109.801 281.26 109.914 281.939 109.914 282.73C109.914 283.577 109.787 284.316 109.533 284.948C109.282 285.576 108.936 286.099 108.495 286.516C108.058 286.934 107.541 287.246 106.945 287.452C106.349 287.659 105.705 287.763 105.013 287.763C104.723 287.763 104.421 287.745 104.107 287.709C103.797 287.673 103.489 287.619 103.183 287.548C102.877 287.476 102.58 287.387 102.294 287.28C102.012 287.172 101.754 287.049 101.519 286.91L102.36 285.479ZM102.867 281.472C102.867 281.667 102.908 281.85 102.992 282.021C103.075 282.192 103.205 282.341 103.379 282.468C103.558 282.591 103.787 282.691 104.065 282.766C104.343 282.838 104.679 282.873 105.073 282.873C105.403 282.873 105.715 282.848 106.009 282.796C106.303 282.744 106.575 282.673 106.826 282.581C107.076 282.49 107.303 282.383 107.505 282.259C107.712 282.136 107.889 282.001 108.036 281.854C107.941 281.202 107.654 280.711 107.177 280.381C106.7 280.047 106.074 279.88 105.299 279.88C104.91 279.88 104.564 279.92 104.262 280C103.96 280.079 103.705 280.19 103.499 280.334C103.292 280.473 103.135 280.64 103.028 280.834C102.92 281.029 102.867 281.242 102.867 281.472ZM111.828 282.951C111.828 282.2 111.941 281.526 112.168 280.93C112.394 280.334 112.716 279.829 113.134 279.415C113.551 278.998 114.058 278.68 114.654 278.461C115.25 278.243 115.918 278.133 116.657 278.133C117.397 278.133 118.065 278.243 118.661 278.461C119.257 278.68 119.764 278.998 120.181 279.415C120.599 279.829 120.92 280.334 121.147 280.93C121.374 281.526 121.487 282.2 121.487 282.951C121.487 283.702 121.374 284.376 121.147 284.972C120.92 285.568 120.599 286.073 120.181 286.487C119.764 286.9 119.257 287.216 118.661 287.435C118.065 287.653 117.397 287.763 116.657 287.763C115.918 287.763 115.25 287.653 114.654 287.435C114.058 287.216 113.551 286.9 113.134 286.487C112.716 286.073 112.394 285.568 112.168 284.972C111.941 284.376 111.828 283.702 111.828 282.951ZM113.718 282.945C113.718 283.454 113.786 283.903 113.921 284.292C114.06 284.682 114.257 285.01 114.511 285.276C114.765 285.539 115.073 285.739 115.435 285.878C115.797 286.014 116.204 286.081 116.657 286.081C117.111 286.081 117.518 286.014 117.88 285.878C118.241 285.739 118.549 285.539 118.804 285.276C119.058 285.01 119.253 284.682 119.388 284.292C119.527 283.903 119.597 283.454 119.597 282.945C119.597 282.44 119.527 281.995 119.388 281.609C119.253 281.22 119.058 280.892 118.804 280.626C118.549 280.359 118.241 280.159 117.88 280.023C117.518 279.884 117.111 279.815 116.657 279.815C116.204 279.815 115.797 279.884 115.435 280.023C115.073 280.159 114.765 280.359 114.511 280.626C114.257 280.892 114.06 281.22 113.921 281.609C113.786 281.995 113.718 282.44 113.718 282.945ZM123.58 286.01L126.865 283.756C127.358 283.418 127.761 283.124 128.075 282.873C128.389 282.623 128.636 282.4 128.815 282.206C128.993 282.007 129.117 281.828 129.184 281.669C129.252 281.51 129.286 281.351 129.286 281.192C129.286 281.009 129.248 280.838 129.172 280.679C129.097 280.52 128.978 280.381 128.815 280.262C128.656 280.143 128.449 280.049 128.194 279.982C127.944 279.914 127.644 279.88 127.294 279.88C126.785 279.88 126.279 279.952 125.774 280.095C125.269 280.238 124.754 280.467 124.23 280.781L123.359 279.35C123.943 278.988 124.575 278.706 125.255 278.503C125.939 278.3 126.656 278.199 127.407 278.199C128.063 278.199 128.632 278.279 129.113 278.437C129.598 278.593 129.997 278.805 130.311 279.075C130.629 279.346 130.866 279.66 131.021 280.018C131.176 280.375 131.253 280.755 131.253 281.156C131.253 281.466 131.201 281.762 131.098 282.045C130.995 282.327 130.814 282.619 130.556 282.921C130.297 283.223 129.947 283.549 129.506 283.899C129.069 284.245 128.516 284.638 127.849 285.079L126.489 285.974L131.593 285.974L131.593 287.631L123.58 287.631L123.58 286.01Z" fill="#D9D9D9"/>
<path opacity="0.5" d="M295.956 110.965L297.097 110.965L299.779 117.518L299.872 117.518L302.555 110.965L303.696 110.965L303.696 118.859L302.801 118.859L302.801 112.861L302.724 112.861L300.257 118.859L299.394 118.859L296.927 112.861L296.85 112.861L296.85 118.859L295.956 118.859L295.956 110.965ZM309.22 116.438L309.22 112.939L310.13 112.939L310.13 118.859L309.22 118.859L309.22 117.857L309.158 117.857C309.019 118.157 308.804 118.413 308.511 118.624C308.218 118.832 307.848 118.936 307.401 118.936C307.031 118.936 306.702 118.855 306.414 118.693C306.126 118.529 305.9 118.282 305.735 117.953C305.571 117.622 305.489 117.204 305.489 116.7L305.489 112.939L306.398 112.939L306.398 116.639C306.398 117.07 306.519 117.415 306.761 117.672C307.005 117.929 307.316 118.057 307.694 118.057C307.92 118.057 308.15 117.999 308.383 117.884C308.62 117.768 308.818 117.591 308.977 117.352C309.139 117.113 309.22 116.808 309.22 116.438ZM312.705 110.965L312.705 118.859L311.796 118.859L311.796 110.965L312.705 110.965ZM316.946 112.939L316.946 113.709L313.878 113.709L313.878 112.939L316.946 112.939ZM314.772 111.52L315.682 111.52L315.682 117.163C315.682 117.42 315.719 117.613 315.794 117.741C315.871 117.867 315.968 117.952 316.087 117.995C316.207 118.037 316.334 118.057 316.468 118.057C316.568 118.057 316.651 118.052 316.715 118.042C316.779 118.029 316.83 118.019 316.869 118.011L317.054 118.828C316.992 118.851 316.906 118.874 316.796 118.897C316.685 118.923 316.545 118.936 316.376 118.936C316.119 118.936 315.867 118.881 315.62 118.77C315.376 118.66 315.173 118.491 315.011 118.265C314.852 118.039 314.772 117.754 314.772 117.41L314.772 111.52ZM318.314 118.859L318.314 112.939L319.224 112.939L319.224 118.859L318.314 118.859ZM318.777 111.952C318.6 111.952 318.447 111.891 318.318 111.771C318.192 111.65 318.129 111.505 318.129 111.335C318.129 111.165 318.192 111.02 318.318 110.9C318.447 110.779 318.6 110.718 318.777 110.718C318.954 110.718 319.106 110.779 319.232 110.9C319.36 111.02 319.424 111.165 319.424 111.335C319.424 111.505 319.36 111.65 319.232 111.771C319.106 111.891 318.954 111.952 318.777 111.952ZM321.013 118.859L321.013 110.965L321.923 110.965L321.923 113.879L322 113.879C322.067 113.776 322.159 113.645 322.278 113.486C322.398 113.324 322.571 113.18 322.794 113.054C323.02 112.926 323.326 112.861 323.712 112.861C324.21 112.861 324.649 112.986 325.03 113.235C325.41 113.485 325.707 113.838 325.92 114.295C326.133 114.753 326.24 115.292 326.24 115.914C326.24 116.541 326.133 117.085 325.92 117.545C325.707 118.002 325.411 118.357 325.034 118.608C324.656 118.858 324.22 118.982 323.727 118.982C323.347 118.982 323.042 118.919 322.813 118.793C322.585 118.665 322.409 118.52 322.285 118.358C322.162 118.193 322.067 118.057 322 117.949L321.892 117.949L321.892 118.859L321.013 118.859ZM321.908 115.899C321.908 116.346 321.973 116.74 322.104 117.082C322.235 117.421 322.427 117.687 322.679 117.88C322.93 118.07 323.239 118.165 323.604 118.165C323.984 118.165 324.301 118.065 324.556 117.864C324.813 117.661 325.005 117.389 325.134 117.047C325.265 116.703 325.33 116.32 325.33 115.899C325.33 115.482 325.266 115.107 325.138 114.773C325.012 114.437 324.82 114.171 324.563 113.975C324.309 113.777 323.989 113.679 323.604 113.679C323.234 113.679 322.923 113.772 322.671 113.96C322.419 114.145 322.229 114.404 322.1 114.739C321.972 115.07 321.908 115.457 321.908 115.899ZM330.114 118.982C329.543 118.982 329.051 118.856 328.637 118.604C328.226 118.35 327.909 117.996 327.685 117.541C327.464 117.083 327.354 116.551 327.354 115.945C327.354 115.339 327.464 114.804 327.685 114.342C327.909 113.876 328.22 113.514 328.618 113.255C329.019 112.992 329.487 112.861 330.021 112.861C330.33 112.861 330.634 112.913 330.935 113.016C331.235 113.118 331.509 113.285 331.756 113.517C332.002 113.745 332.199 114.049 332.345 114.426C332.492 114.804 332.565 115.269 332.565 115.822L332.565 116.207L328.001 116.207L328.001 115.421L331.64 115.421C331.64 115.087 331.573 114.789 331.44 114.527C331.309 114.264 331.121 114.058 330.877 113.906C330.635 113.754 330.35 113.679 330.021 113.679C329.659 113.679 329.345 113.768 329.081 113.948C328.819 114.126 328.617 114.357 328.476 114.642C328.334 114.927 328.264 115.233 328.264 115.56L328.264 116.084C328.264 116.531 328.341 116.91 328.495 117.221C328.652 117.529 328.869 117.764 329.146 117.926C329.424 118.085 329.746 118.165 330.114 118.165C330.353 118.165 330.569 118.132 330.761 118.065C330.957 117.996 331.125 117.893 331.266 117.757C331.407 117.618 331.517 117.446 331.594 117.24L332.473 117.487C332.38 117.785 332.225 118.047 332.006 118.273C331.788 118.497 331.518 118.671 331.197 118.797C330.876 118.921 330.515 118.982 330.114 118.982ZM334.858 115.297L334.858 118.859L333.949 118.859L333.949 112.939L334.828 112.939L334.828 113.864L334.905 113.864C335.043 113.563 335.254 113.321 335.537 113.139C335.819 112.954 336.184 112.861 336.631 112.861C337.032 112.861 337.383 112.944 337.684 113.108C337.984 113.27 338.218 113.517 338.385 113.848C338.552 114.177 338.636 114.593 338.636 115.097L338.636 118.859L337.726 118.859L337.726 115.159C337.726 114.694 337.605 114.331 337.364 114.072C337.122 113.81 336.791 113.679 336.369 113.679C336.079 113.679 335.819 113.742 335.591 113.867C335.365 113.993 335.186 114.177 335.055 114.419C334.924 114.66 334.858 114.953 334.858 115.297ZM342.78 118.982C342.21 118.982 341.718 118.856 341.304 118.604C340.893 118.35 340.576 117.996 340.352 117.541C340.131 117.083 340.02 116.551 340.02 115.945C340.02 115.339 340.131 114.804 340.352 114.342C340.576 113.876 340.886 113.514 341.285 113.255C341.686 112.992 342.153 112.861 342.688 112.861C342.996 112.861 343.301 112.913 343.601 113.016C343.902 113.118 344.176 113.285 344.422 113.517C344.669 113.745 344.865 114.049 345.012 114.426C345.158 114.804 345.232 115.269 345.232 115.822L345.232 116.207L340.668 116.207L340.668 115.421L344.307 115.421C344.307 115.087 344.24 114.789 344.106 114.527C343.975 114.264 343.788 114.058 343.543 113.906C343.302 113.754 343.017 113.679 342.688 113.679C342.325 113.679 342.012 113.768 341.747 113.948C341.485 114.126 341.283 114.357 341.142 114.642C341.001 114.927 340.93 115.233 340.93 115.56L340.93 116.084C340.93 116.531 341.007 116.91 341.161 117.221C341.318 117.529 341.535 117.764 341.813 117.926C342.09 118.085 342.413 118.165 342.78 118.165C343.019 118.165 343.235 118.132 343.428 118.065C343.623 117.996 343.791 117.893 343.933 117.757C344.074 117.618 344.183 117.446 344.26 117.24L345.139 117.487C345.047 117.785 344.891 118.047 344.673 118.273C344.454 118.497 344.185 118.671 343.863 118.797C343.542 118.921 343.181 118.982 342.78 118.982ZM349.252 112.939L349.252 113.709L346.06 113.709L346.06 112.939L349.252 112.939ZM347.016 118.859L347.016 112.121C347.016 111.782 347.096 111.5 347.255 111.273C347.415 111.047 347.621 110.878 347.876 110.765C348.13 110.652 348.399 110.595 348.681 110.595C348.905 110.595 349.087 110.613 349.229 110.649C349.37 110.685 349.475 110.718 349.545 110.749L349.283 111.536C349.236 111.52 349.172 111.501 349.09 111.478C349.01 111.455 348.905 111.443 348.774 111.443C348.473 111.443 348.256 111.519 348.122 111.67C347.991 111.822 347.926 112.044 347.926 112.337L347.926 118.859L347.016 118.859ZM350.527 118.859L350.527 112.939L351.436 112.939L351.436 118.859L350.527 118.859ZM350.989 111.952C350.812 111.952 350.659 111.891 350.53 111.771C350.405 111.65 350.342 111.505 350.342 111.335C350.342 111.165 350.405 111.02 350.53 110.9C350.659 110.779 350.812 110.718 350.989 110.718C351.166 110.718 351.318 110.779 351.444 110.9C351.572 111.02 351.637 111.165 351.637 111.335C351.637 111.505 351.572 111.65 351.444 111.771C351.318 111.891 351.166 111.952 350.989 111.952ZM355.677 112.939L355.677 113.709L352.609 113.709L352.609 112.939L355.677 112.939ZM353.503 111.52L354.413 111.52L354.413 117.163C354.413 117.42 354.45 117.613 354.525 117.741C354.602 117.867 354.699 117.952 354.818 117.996C354.938 118.037 355.066 118.057 355.199 118.057C355.299 118.057 355.382 118.052 355.446 118.042C355.51 118.029 355.561 118.019 355.6 118.011L355.785 118.828C355.723 118.851 355.637 118.874 355.527 118.897C355.416 118.923 355.276 118.936 355.107 118.936C354.85 118.936 354.598 118.881 354.351 118.77C354.107 118.66 353.904 118.491 353.742 118.265C353.583 118.039 353.503 117.754 353.503 117.41L353.503 111.52ZM361.133 114.264L360.316 114.496C360.264 114.36 360.189 114.227 360.088 114.099C359.991 113.968 359.857 113.86 359.688 113.775C359.518 113.69 359.301 113.648 359.036 113.648C358.674 113.648 358.372 113.731 358.13 113.898C357.891 114.063 357.772 114.272 357.772 114.527C357.772 114.753 357.854 114.931 358.019 115.062C358.183 115.193 358.44 115.303 358.79 115.39L359.668 115.606C360.198 115.734 360.592 115.931 360.852 116.195C361.111 116.458 361.241 116.795 361.241 117.209C361.241 117.548 361.143 117.852 360.948 118.119C360.755 118.386 360.485 118.597 360.139 118.751C359.792 118.905 359.388 118.982 358.928 118.982C358.324 118.982 357.825 118.851 357.429 118.589C357.033 118.327 356.783 117.944 356.677 117.44L357.541 117.225C357.623 117.543 357.778 117.782 358.007 117.942C358.238 118.101 358.54 118.181 358.913 118.181C359.337 118.181 359.673 118.091 359.923 117.911C360.175 117.728 360.3 117.51 360.3 117.255C360.3 117.05 360.229 116.878 360.085 116.739C359.941 116.598 359.72 116.492 359.422 116.423L358.435 116.192C357.893 116.063 357.494 115.864 357.24 115.594C356.988 115.322 356.862 114.981 356.862 114.573C356.862 114.239 356.956 113.943 357.144 113.686C357.334 113.429 357.592 113.228 357.918 113.081C358.247 112.935 358.62 112.861 359.036 112.861C359.622 112.861 360.082 112.99 360.416 113.247C360.753 113.504 360.992 113.843 361.133 114.264ZM372.138 113.432L371.182 113.432C371.126 113.157 371.027 112.915 370.886 112.707C370.747 112.499 370.577 112.324 370.377 112.183C370.179 112.039 369.959 111.931 369.718 111.859C369.476 111.787 369.224 111.751 368.962 111.751C368.484 111.751 368.051 111.872 367.663 112.114C367.278 112.355 366.971 112.711 366.742 113.181C366.516 113.652 366.403 114.228 366.403 114.912C366.403 115.595 366.516 116.172 366.742 116.643C366.971 117.113 367.278 117.469 367.663 117.71C368.051 117.952 368.484 118.073 368.962 118.073C369.224 118.073 369.476 118.037 369.718 117.965C369.959 117.893 370.179 117.786 370.377 117.645C370.577 117.501 370.747 117.325 370.886 117.117C371.027 116.906 371.126 116.664 371.182 116.392L372.138 116.392C372.066 116.795 371.935 117.157 371.745 117.475C371.555 117.794 371.319 118.065 371.036 118.288C370.753 118.509 370.436 118.678 370.084 118.793C369.734 118.909 369.361 118.967 368.962 118.967C368.289 118.967 367.69 118.802 367.166 118.473C366.642 118.145 366.23 117.677 365.929 117.07C365.628 116.464 365.478 115.745 365.478 114.912C365.478 114.079 365.628 113.36 365.929 112.754C366.23 112.147 366.642 111.679 367.166 111.35C367.69 111.022 368.289 110.857 368.962 110.857C369.361 110.857 369.734 110.915 370.084 111.031C370.436 111.146 370.753 111.316 371.036 111.539C371.319 111.76 371.555 112.03 371.745 112.349C371.935 112.665 372.066 113.026 372.138 113.432ZM375.302 118.998C374.927 118.998 374.586 118.927 374.28 118.786C373.975 118.642 373.732 118.435 373.552 118.165C373.372 117.893 373.282 117.564 373.282 117.178C373.282 116.839 373.349 116.564 373.483 116.354C373.616 116.14 373.795 115.973 374.018 115.852C374.242 115.732 374.489 115.642 374.758 115.583C375.031 115.521 375.304 115.472 375.579 115.436C375.939 115.39 376.231 115.355 376.454 115.332C376.68 115.306 376.845 115.264 376.948 115.205C377.053 115.146 377.106 115.043 377.106 114.897L377.106 114.866C377.106 114.485 377.002 114.19 376.793 113.979C376.588 113.768 376.276 113.663 375.857 113.663C375.423 113.663 375.082 113.758 374.835 113.948C374.589 114.139 374.415 114.342 374.315 114.557L373.452 114.249C373.606 113.889 373.811 113.609 374.068 113.409C374.328 113.206 374.611 113.064 374.916 112.985C375.225 112.903 375.528 112.861 375.826 112.861C376.016 112.861 376.235 112.885 376.481 112.931C376.731 112.974 376.971 113.066 377.202 113.204C377.436 113.343 377.63 113.553 377.784 113.833C377.938 114.113 378.015 114.488 378.015 114.958L378.015 118.859L377.106 118.859L377.106 118.057L377.059 118.057C376.998 118.186 376.895 118.323 376.751 118.47C376.607 118.616 376.416 118.741 376.177 118.843C375.938 118.946 375.646 118.998 375.302 118.998ZM375.441 118.181C375.8 118.181 376.104 118.11 376.35 117.969C376.599 117.827 376.787 117.645 376.913 117.421C377.041 117.198 377.106 116.963 377.106 116.716L377.106 115.883C377.067 115.93 376.982 115.972 376.851 116.01C376.723 116.046 376.574 116.079 376.404 116.107C376.237 116.133 376.074 116.156 375.915 116.176C375.758 116.194 375.631 116.21 375.533 116.222C375.297 116.253 375.076 116.303 374.87 116.373C374.667 116.44 374.503 116.541 374.377 116.677C374.253 116.811 374.192 116.993 374.192 117.225C374.192 117.541 374.309 117.78 374.543 117.942C374.779 118.101 375.078 118.181 375.441 118.181ZM379.676 118.859L379.676 112.939L380.554 112.939L380.554 113.833L380.616 113.833C380.724 113.54 380.919 113.302 381.202 113.12C381.485 112.937 381.803 112.846 382.158 112.846C382.225 112.846 382.308 112.847 382.408 112.85C382.509 112.852 382.584 112.856 382.636 112.861L382.636 113.786C382.605 113.779 382.534 113.767 382.424 113.752C382.316 113.734 382.202 113.725 382.081 113.725C381.793 113.725 381.536 113.785 381.31 113.906C381.086 114.024 380.909 114.189 380.778 114.399C380.649 114.607 380.585 114.845 380.585 115.112L380.585 118.859L379.676 118.859ZM385.769 118.982C385.276 118.982 384.841 118.858 384.463 118.608C384.085 118.357 383.79 118.002 383.576 117.545C383.363 117.085 383.256 116.541 383.256 115.914C383.256 115.292 383.363 114.753 383.576 114.295C383.79 113.838 384.086 113.485 384.467 113.235C384.847 112.986 385.286 112.861 385.785 112.861C386.17 112.861 386.475 112.926 386.698 113.054C386.924 113.18 387.097 113.324 387.215 113.486C387.336 113.645 387.429 113.776 387.496 113.879L387.573 113.879L387.573 110.965L388.483 110.965L388.483 118.859L387.604 118.859L387.604 117.949L387.496 117.949C387.429 118.057 387.334 118.193 387.211 118.358C387.088 118.52 386.912 118.665 386.683 118.793C386.454 118.919 386.15 118.982 385.769 118.982ZM385.893 118.165C386.258 118.165 386.566 118.07 386.818 117.88C387.07 117.687 387.261 117.421 387.392 117.082C387.523 116.74 387.589 116.346 387.589 115.899C387.589 115.457 387.524 115.07 387.396 114.739C387.268 114.404 387.077 114.145 386.826 113.96C386.574 113.772 386.263 113.679 385.893 113.679C385.507 113.679 385.186 113.777 384.929 113.975C384.675 114.171 384.483 114.437 384.355 114.773C384.229 115.107 384.166 115.482 384.166 115.899C384.166 116.32 384.23 116.703 384.359 117.047C384.49 117.389 384.682 117.661 384.937 117.864C385.194 118.065 385.512 118.165 385.893 118.165Z" fill="white"/>
<rect x="47.5" y="102.613" width="94" height="24" rx="12" stroke="#DBDBDB" stroke-opacity="0.4"/>
<path d="M59.2775 110.219L60.3722 110.219L62.5615 113.904L62.654 113.904L64.8433 110.219L65.9379 110.219L63.0857 114.86L63.0857 118.113L62.1298 118.113L62.1298 114.86L59.2775 110.219ZM73.4637 114.166C73.4637 114.998 73.3134 115.718 73.0127 116.324C72.7121 116.931 72.2996 117.398 71.7754 117.727C71.2512 118.056 70.6525 118.221 69.9793 118.221C69.3061 118.221 68.7073 118.056 68.1831 117.727C67.6589 117.398 67.2465 116.931 66.9459 116.324C66.6452 115.718 66.4949 114.998 66.4949 114.166C66.4949 113.333 66.6452 112.614 66.9459 112.007C67.2465 111.401 67.6589 110.933 68.1831 110.604C68.7073 110.275 69.3061 110.111 69.9793 110.111C70.6525 110.111 71.2512 110.275 71.7754 110.604C72.2996 110.933 72.7121 111.401 73.0127 112.007C73.3134 112.614 73.4637 113.333 73.4637 114.166ZM72.5386 114.166C72.5386 113.482 72.4243 112.905 72.1956 112.435C71.9694 111.965 71.6624 111.609 71.2744 111.368C70.8889 111.126 70.4572 111.005 69.9793 111.005C69.5013 111.005 69.0684 111.126 68.6804 111.368C68.2949 111.609 67.9878 111.965 67.7591 112.435C67.533 112.905 67.42 113.482 67.42 114.166C67.42 114.849 67.533 115.426 67.7591 115.897C67.9878 116.367 68.2949 116.723 68.6804 116.964C69.0684 117.206 69.5013 117.326 69.9793 117.326C70.4572 117.326 70.8889 117.206 71.2744 116.964C71.6624 116.723 71.9694 116.367 72.1956 115.897C72.4243 115.426 72.5386 114.849 72.5386 114.166ZM80.2513 110.219L81.2072 110.219L81.2072 115.446C81.2072 115.985 81.08 116.467 80.8256 116.891C80.5738 117.312 80.2179 117.645 79.7579 117.889C79.298 118.131 78.7583 118.252 78.1391 118.252C77.5198 118.252 76.9802 118.131 76.5202 117.889C76.0603 117.645 75.7031 117.312 75.4487 116.891C75.1969 116.467 75.071 115.985 75.071 115.446L75.071 110.219L76.0269 110.219L76.0269 115.368C76.0269 115.754 76.1117 116.097 76.2812 116.398C76.4508 116.696 76.6924 116.931 77.0059 117.103C77.3219 117.273 77.6997 117.357 78.1391 117.357C78.5785 117.357 78.9562 117.273 79.2723 117.103C79.5883 116.931 79.8299 116.696 79.9969 116.398C80.1665 116.097 80.2513 115.754 80.2513 115.368L80.2513 110.219ZM83.1161 118.113L83.1161 110.219L85.7833 110.219C86.4 110.219 86.9063 110.324 87.302 110.535C87.6977 110.743 87.9906 111.03 88.1808 111.395C88.3709 111.759 88.466 112.174 88.466 112.64C88.466 113.105 88.3709 113.517 88.1808 113.877C87.9906 114.237 87.699 114.519 87.3058 114.725C86.9127 114.928 86.4103 115.029 85.7988 115.029L83.6403 115.029L83.6403 114.166L85.7679 114.166C86.1893 114.166 86.5285 114.104 86.7855 113.981C87.045 113.858 87.2326 113.683 87.3482 113.457C87.4664 113.228 87.5255 112.956 87.5255 112.64C87.5255 112.323 87.4664 112.047 87.3482 111.811C87.23 111.574 87.0412 111.392 86.7816 111.264C86.5221 111.132 86.1791 111.067 85.7525 111.067L84.072 111.067L84.072 118.113L83.1161 118.113ZM86.8317 114.567L88.7744 118.113L87.6643 118.113L85.7525 114.567L86.8317 114.567ZM93.1115 118.113L93.1115 110.219L95.8713 110.219C96.4212 110.219 96.8747 110.314 97.2319 110.504C97.5891 110.692 97.855 110.945 98.0298 111.264C98.2045 111.58 98.2919 111.93 98.2919 112.316C98.2919 112.655 98.2315 112.935 98.1107 113.156C97.9925 113.377 97.8358 113.552 97.6405 113.68C97.4477 113.809 97.2383 113.904 97.0122 113.965L97.0122 114.043C97.2537 114.058 97.4966 114.143 97.7407 114.297C97.9848 114.451 98.1891 114.672 98.3535 114.96C98.518 115.248 98.6002 115.6 98.6002 116.016C98.6002 116.412 98.5103 116.768 98.3304 117.084C98.1505 117.4 97.8666 117.65 97.4786 117.835C97.0906 118.02 96.5856 118.113 95.9638 118.113L93.1115 118.113ZM94.0674 117.265L95.9638 117.265C96.5882 117.265 97.0315 117.144 97.2936 116.903C97.5582 116.658 97.6906 116.363 97.6906 116.016C97.6906 115.749 97.6225 115.502 97.4863 115.276C97.3501 115.047 97.1561 114.865 96.9043 114.729C96.6525 114.59 96.3544 114.52 96.0101 114.52L94.0674 114.52L94.0674 117.265ZM94.0674 113.688L95.8405 113.688C96.1283 113.688 96.3878 113.631 96.619 113.518C96.8529 113.405 97.0379 113.246 97.1741 113.04C97.3128 112.835 97.3822 112.593 97.3822 112.316C97.3822 111.969 97.2614 111.675 97.0199 111.433C96.7784 111.189 96.3955 111.067 95.8713 111.067L94.0674 111.067L94.0674 113.688ZM100.171 118.113L100.171 110.219L102.838 110.219C103.455 110.219 103.961 110.324 104.357 110.535C104.752 110.743 105.045 111.03 105.236 111.395C105.426 111.759 105.521 112.174 105.521 112.64C105.521 113.105 105.426 113.517 105.236 113.877C105.045 114.237 104.754 114.519 104.361 114.725C103.967 114.928 103.465 115.029 102.854 115.029L100.695 115.029L100.695 114.166L102.823 114.166C103.244 114.166 103.583 114.104 103.84 113.981C104.1 113.858 104.287 113.683 104.403 113.457C104.521 113.228 104.58 112.956 104.58 112.64C104.58 112.323 104.521 112.047 104.403 111.811C104.285 111.574 104.096 111.392 103.836 111.264C103.577 111.132 103.234 111.067 102.807 111.067L101.127 111.067L101.127 118.113L100.171 118.113ZM103.887 114.567L105.829 118.113L104.719 118.113L102.807 114.567L103.887 114.567ZM107.437 118.113L106.435 118.113L109.334 110.219L110.321 110.219L113.219 118.113L112.217 118.113L109.858 111.468L109.796 111.468L107.437 118.113ZM107.807 115.029L111.847 115.029L111.847 115.877L107.807 115.877L107.807 115.029ZM120.708 110.219L120.708 118.113L119.783 118.113L115.482 111.915L115.404 111.915L115.404 118.113L114.449 118.113L114.449 110.219L115.374 110.219L119.691 116.432L119.768 116.432L119.768 110.219L120.708 110.219ZM125.057 118.113L122.621 118.113L122.621 110.219L125.165 110.219C125.931 110.219 126.586 110.377 127.131 110.693C127.675 111.007 128.093 111.458 128.383 112.046C128.674 112.632 128.819 113.333 128.819 114.15C128.819 114.973 128.672 115.681 128.379 116.274C128.086 116.865 127.66 117.32 127.1 117.639C126.54 117.955 125.859 118.113 125.057 118.113ZM123.577 117.265L124.995 117.265C125.648 117.265 126.189 117.139 126.618 116.887C127.047 116.635 127.367 116.277 127.578 115.812C127.788 115.347 127.894 114.793 127.894 114.15C127.894 113.513 127.79 112.965 127.582 112.505C127.373 112.042 127.062 111.687 126.649 111.441C126.235 111.192 125.72 111.067 125.103 111.067L123.577 111.067L123.577 117.265Z" fill="white"/>
<path d="M383.436 282.959C382.234 283.326 380.564 283.145 379.498 281.547L378.802 280.503L378.2 279.6L379.498 277.653C380.562 276.056 382.225 275.872 383.436 276.241C384.642 276.605 385.93 277.68 385.93 279.601C385.93 281.521 384.642 282.595 383.436 282.959ZM372.011 281.547C370.946 283.143 369.28 283.328 368.07 282.959C366.866 282.595 365.578 281.521 365.578 279.601C365.578 277.68 366.866 276.605 368.072 276.241C368.403 276.14 368.769 276.08 369.148 276.08C370.148 276.08 371.237 276.494 372.011 277.653L373.309 279.6L372.011 281.547ZM384.615 272.344C381.345 271.357 378.007 272.552 376.112 275.396L375.754 275.93L375.398 275.396C373.5 272.552 370.168 271.349 366.891 272.345C363.622 273.335 361.508 276.183 361.508 279.601C361.508 283.018 363.622 285.865 366.891 286.855C370.161 287.848 373.499 286.65 375.398 283.805L375.754 283.269L376.112 283.805C376.191 283.924 376.273 284.041 376.358 284.154C377.818 286.115 380.003 287.198 382.338 287.198C383.088 287.198 383.853 287.087 384.617 286.856C387.886 285.865 390 283.018 390 279.601C390 276.182 387.886 273.335 384.615 272.344Z" fill="white"/>
<path d="M378.802 280.503L376.357 284.153C376.273 284.04 376.191 283.924 376.112 283.805L375.754 283.269L378.2 279.599L378.802 280.503Z" fill="#BBBCBD"/>
<path d="M375.753 275.93L373.309 279.581C373.224 279.468 373.142 279.351 373.063 279.232L372.705 278.696L375.151 275.027L375.753 275.93Z" fill="#BBBCBD"/>
<defs>
<filter id="filter0_dddd_516_3439" x="0.578455" y="0.202967" width="432.843" height="312.867" filterUnits="userSpaceOnUse" color-interpolation-filters="sRGB">
<feFlood flood-opacity="0" result="BackgroundImageFix"/>
<feColorMatrix in="SourceAlpha" type="matrix" values="0 0 0 0 0 0 0 0 0 0 0 0 0 0 0 0 0 0 127 0" result="hardAlpha"/>
<feOffset dy="-4.07026"/>
<feGaussianBlur stdDeviation="4.07026"/>
<feColorMatrix type="matrix" values="0 0 0 0 0 0 0 0 0 0 0 0 0 0 0 0 0 0 0.1 0"/>
<feBlend mode="normal" in2="BackgroundImageFix" result="effect1_dropShadow_516_3439"/>
<feColorMatrix in="SourceAlpha" type="matrix" values="0 0 0 0 0 0 0 0 0 0 0 0 0 0 0 0 0 0 127 0" result="hardAlpha"/>
<feOffset dy="-14.9243"/>
<feGaussianBlur stdDeviation="7.46214"/>
<feColorMatrix type="matrix" values="0 0 0 0 0 0 0 0 0 0 0 0 0 0 0 0 0 0 0.09 0"/>
<feBlend mode="normal" in2="effect1_dropShadow_516_3439" result="effect2_dropShadow_516_3439"/>
<feColorMatrix in="SourceAlpha" type="matrix" values="0 0 0 0 0 0 0 0 0 0 0 0 0 0 0 0 0 0 127 0" result="hardAlpha"/>
<feOffset dy="-33.9188"/>
<feGaussianBlur stdDeviation="10.1756"/>
<feColorMatrix type="matrix" values="0 0 0 0 0 0 0 0 0 0 0 0 0 0 0 0 0 0 0.05 0"/>
<feBlend mode="normal" in2="effect2_dropShadow_516_3439" result="effect3_dropShadow_516_3439"/>
<feColorMatrix in="SourceAlpha" type="matrix" values="0 0 0 0 0 0 0 0 0 0 0 0 0 0 0 0 0 0 127 0" result="hardAlpha"/>
<feOffset dy="-60.3755"/>
<feGaussianBlur stdDeviation="12.2108"/>
<feColorMatrix type="matrix" values="0 0 0 0 0 0 0 0 0 0 0 0 0 0 0 0 0 0 0.01 0"/>
<feBlend mode="normal" in2="effect3_dropShadow_516_3439" result="effect4_dropShadow_516_3439"/>
<feBlend mode="normal" in="SourceGraphic" in2="effect4_dropShadow_516_3439" result="shape"/>
</filter>
<linearGradient id="paint0_linear_516_3439" x1="331.865" y1="501" x2="25" y2="501" gradientUnits="userSpaceOnUse">
<stop stop-color="#666969"/>
<stop offset="1" stop-color="#D12424"/>
</linearGradient>
<linearGradient id="paint1_linear_516_3439" x1="93.6147" y1="199.343" x2="53.1328" y2="233.047" gradientUnits="userSpaceOnUse">
<stop stop-color="#CDCDCD"/>
<stop offset="0.447917" stop-color="#E8E8E8"/>
<stop offset="1" stop-color="#B4B4B4"/>
</linearGradient>
<linearGradient id="paint2_linear_516_3439" x1="93.6147" y1="199.343" x2="53.1328" y2="233.046" gradientUnits="userSpaceOnUse">
<stop stop-color="#CDCDCD"/>
<stop offset="0.447917" stop-color="#E8E8E8"/>
<stop offset="1" stop-color="#B4B4B4"/>
</linearGradient>
</defs>
</svg>
