<svg width="209" height="44" viewBox="0 0 209 44" fill="none" xmlns="http://www.w3.org/2000/svg">
<path d="M-1.52793e-05 41.4958L10.8914 30.6041" stroke="#4A3AFF" stroke-width="3.8791" stroke-miterlimit="10" stroke-linecap="round" stroke-linejoin="round"/>
<path d="M39.3097 15.6624L29.5018 28.3155C28.4842 29.6265 26.9176 30.395 25.2502 30.395H11.1V16.7876C11.1 15.2254 11.7851 13.7386 12.974 12.7189L25.2049 2.26587L39.3097 15.6624Z" fill="#4A3AFF" stroke="#4A3AFF" stroke-width="3.8791" stroke-miterlimit="10" stroke-linecap="round" stroke-linejoin="round"/>
<path d="M23.1911 23.6992L29.9061 17.0034" stroke="#4CBFFF" stroke-width="3.8791" stroke-miterlimit="10" stroke-linecap="round" stroke-linejoin="round"/>
<path d="M17.8157 18.3404L24.5306 11.6447" stroke="#4CBFFF" stroke-width="3.8791" stroke-miterlimit="10" stroke-linecap="round" stroke-linejoin="round"/>
<path d="M56.5656 31.9768V11.34H64.2897C65.9603 11.34 67.3361 11.625 68.417 12.195C69.498 12.7649 70.3038 13.5314 70.8345 14.4945C71.3652 15.4379 71.6305 16.4894 71.6305 17.649C71.6305 18.7496 71.3652 19.7814 70.8345 20.7445C70.3235 21.6879 69.5275 22.4544 68.4465 23.044C67.3655 23.614 65.9701 23.899 64.2602 23.899H60.5456V31.9768H56.5656ZM67.2673 31.9768L63.022 22.8966H67.3557L71.8369 31.9768H67.2673ZM60.5456 21.0098H64.0538C65.2527 21.0098 66.1372 20.715 66.7071 20.1254C67.2771 19.5358 67.5621 18.7594 67.5621 17.7964C67.5621 16.8333 67.2771 16.0766 66.7071 15.5263C66.1568 14.9564 65.2626 14.6714 64.0243 14.6714H60.5456V21.0098ZM80.8871 32.3306C79.3934 32.3306 78.0667 32.0161 76.9071 31.3872C75.7672 30.7583 74.8729 29.8738 74.2244 28.7339C73.5758 27.5939 73.2515 26.2869 73.2515 24.8129C73.2515 23.2799 73.566 21.9336 74.1949 20.774C74.8435 19.5947 75.7377 18.671 76.8777 18.0027C78.0373 17.3345 79.3737 17.0004 80.8871 17.0004C82.3612 17.0004 83.6485 17.3149 84.7491 17.9438C85.8498 18.5727 86.7145 19.4375 87.3435 20.5381C87.9724 21.6191 88.2869 22.8475 88.2869 24.2233C88.2869 24.4198 88.277 24.6458 88.2574 24.9013C88.2574 25.1372 88.2476 25.3829 88.2279 25.6384H76.0817V23.1914H84.248C84.189 22.2873 83.845 21.5601 83.2161 21.0098C82.6068 20.4595 81.8403 20.1844 80.9166 20.1844C80.2287 20.1844 79.5998 20.3416 79.0298 20.656C78.4598 20.9509 78.0078 21.4127 77.6737 22.0417C77.3395 22.6509 77.1725 23.4174 77.1725 24.3412V25.1961C77.1725 26.002 77.3297 26.6997 77.6442 27.2893C77.9586 27.8593 78.391 28.3015 78.9413 28.616C79.5113 28.9304 80.1501 29.0877 80.8576 29.0877C81.5848 29.0877 82.1941 28.9304 82.6855 28.616C83.1768 28.2818 83.5502 27.8593 83.8057 27.3483H87.8447C87.5695 28.272 87.1076 29.1171 86.459 29.8836C85.8105 30.6305 85.0145 31.23 84.0711 31.682C83.1277 32.1144 82.0663 32.3306 80.8871 32.3306ZM97.0704 32.3306C95.7732 32.3306 94.6235 32.1144 93.6211 31.682C92.6384 31.2496 91.8424 30.66 91.2331 29.9131C90.6435 29.1466 90.2996 28.2818 90.2013 27.3188H94.1813C94.2795 27.6726 94.4466 28.0067 94.6824 28.3211C94.9183 28.616 95.2327 28.8616 95.6258 29.0582C96.0386 29.2351 96.5103 29.3235 97.0409 29.3235C97.5716 29.3235 98.004 29.2449 98.3381 29.0877C98.6722 28.9304 98.9179 28.7339 99.0751 28.498C99.2324 28.2622 99.311 28.0165 99.311 27.761C99.311 27.3679 99.193 27.0731 98.9572 26.8766C98.7213 26.6604 98.3676 26.4835 97.8959 26.3459C97.4438 26.1887 96.9033 26.0314 96.2744 25.8742C95.6455 25.717 94.9969 25.5401 94.3287 25.3435C93.6604 25.147 93.0511 24.9013 92.5008 24.6065C91.9702 24.2921 91.5378 23.899 91.2037 23.4273C90.8695 22.9359 90.7025 22.3365 90.7025 21.6289C90.7025 20.7641 90.9383 19.9878 91.41 19.2999C91.8817 18.5924 92.5598 18.0322 93.4442 17.6195C94.3483 17.2068 95.4195 17.0004 96.6577 17.0004C98.4265 17.0004 99.8318 17.4033 100.873 18.2091C101.935 19.0149 102.554 20.1254 102.731 21.5405H98.9867C98.8884 21.0688 98.6329 20.7052 98.2202 20.4497C97.8271 20.1745 97.3063 20.0369 96.6577 20.0369C95.9698 20.0369 95.4391 20.1647 95.0657 20.4202C94.7119 20.6757 94.535 20.9902 94.535 21.3636C94.535 21.6388 94.6628 21.8746 94.9183 22.0711C95.1738 22.2677 95.5276 22.4446 95.9796 22.6018C96.4316 22.7394 96.9721 22.8868 97.6011 23.044C98.6624 23.2995 99.6156 23.5747 100.461 23.8695C101.326 24.1643 102.013 24.5869 102.524 25.1372C103.035 25.6875 103.291 26.4737 103.291 27.4957C103.311 28.4194 103.065 29.2449 102.554 29.9721C102.043 30.6993 101.326 31.2791 100.402 31.7115C99.478 32.1242 98.3676 32.3306 97.0704 32.3306ZM112.226 31.9768C111.204 31.9768 110.3 31.8196 109.514 31.5051C108.728 31.171 108.119 30.6305 107.686 29.8836C107.274 29.1171 107.067 28.0755 107.067 26.7586V20.6266H104.561V17.3542H107.067L107.48 13.3742H111.018V17.3542H114.909V20.6266H111.047V26.8176C111.047 27.4858 111.185 27.9575 111.46 28.2327C111.755 28.4882 112.266 28.616 112.993 28.616H114.85V31.9768H112.226ZM122.465 32.3306C121.247 32.3306 120.244 32.134 119.458 31.741C118.672 31.3479 118.082 30.8172 117.689 30.149C117.316 29.4807 117.129 28.7437 117.129 27.9379C117.129 27.0338 117.355 26.2476 117.807 25.5794C118.279 24.8915 118.986 24.351 119.93 23.9579C120.873 23.5649 122.062 23.3683 123.497 23.3683H127.182C127.182 22.6608 127.074 22.0711 126.858 21.5994C126.661 21.1277 126.347 20.7838 125.914 20.5676C125.502 20.3318 124.971 20.2138 124.322 20.2138C123.556 20.2138 122.898 20.3809 122.347 20.715C121.817 21.0491 121.492 21.57 121.374 22.2775H117.483C117.601 21.1965 117.955 20.263 118.544 19.4768C119.153 18.6906 119.959 18.0814 120.962 17.649C121.964 17.2166 123.084 17.0004 124.322 17.0004C125.738 17.0004 126.956 17.2362 127.978 17.7079C129 18.16 129.786 18.838 130.337 19.7421C130.887 20.6266 131.162 21.7075 131.162 22.9851V31.9768H127.831L127.389 29.7068H127.359C127.123 30.1195 126.838 30.4831 126.504 30.7976C126.19 31.112 125.826 31.3872 125.413 31.623C125.02 31.8589 124.578 32.0358 124.087 32.1537C123.595 32.2716 123.055 32.3306 122.465 32.3306ZM123.556 29.2645C124.087 29.2645 124.549 29.1761 124.942 28.9992C125.354 28.8027 125.698 28.5472 125.973 28.2327C126.268 27.9182 126.504 27.5546 126.681 27.1419C126.858 26.7095 126.966 26.2673 127.005 25.8152H123.939C123.35 25.8152 122.858 25.8939 122.465 26.0511C122.072 26.1887 121.787 26.395 121.61 26.6702C121.433 26.9257 121.345 27.2303 121.345 27.5841C121.345 27.9379 121.433 28.2425 121.61 28.498C121.787 28.7535 122.043 28.9501 122.377 29.0877C122.711 29.2056 123.104 29.2645 123.556 29.2645ZM139.781 32.3306C138.563 32.3306 137.531 32.0751 136.686 31.5641C135.841 31.0531 135.192 30.2964 134.74 29.294C134.288 28.272 134.062 27.024 134.062 25.5499V17.3542H138.042V25.1961C138.042 26.4147 138.287 27.3483 138.779 27.9969C139.27 28.6454 140.047 28.9697 141.108 28.9697C141.796 28.9697 142.395 28.8125 142.906 28.498C143.437 28.1639 143.85 27.702 144.144 27.1124C144.439 26.5031 144.587 25.7661 144.587 24.9013V17.3542H148.567V31.9768H145.117L144.793 29.5594H144.764C144.292 30.4045 143.633 31.0825 142.788 31.5936C141.963 32.0849 140.96 32.3306 139.781 32.3306ZM151.888 31.9768V17.3542H155.396L155.75 20.2433H155.779C156.172 19.4768 156.624 18.8577 157.135 18.386C157.646 17.9143 158.236 17.5704 158.904 17.3542C159.592 17.1183 160.349 17.0004 161.174 17.0004V21.2162H160.084C159.435 21.2162 158.845 21.285 158.315 21.4226C157.804 21.5601 157.361 21.796 156.988 22.1301C156.634 22.4446 156.359 22.8671 156.163 23.3978C155.966 23.9285 155.868 24.5967 155.868 25.4025V31.9768H151.888ZM168.242 32.3306C167.023 32.3306 166.021 32.134 165.234 31.741C164.448 31.3479 163.859 30.8172 163.466 30.149C163.092 29.4807 162.905 28.7437 162.905 27.9379C162.905 27.0338 163.131 26.2476 163.584 25.5794C164.055 24.8915 164.763 24.351 165.706 23.9579C166.65 23.5649 167.839 23.3683 169.273 23.3683H172.959C172.959 22.6608 172.85 22.0711 172.634 21.5994C172.438 21.1277 172.123 20.7838 171.691 20.5676C171.278 20.3318 170.747 20.2138 170.099 20.2138C169.332 20.2138 168.674 20.3809 168.124 20.715C167.593 21.0491 167.269 21.57 167.151 22.2775H163.259C163.377 21.1965 163.731 20.263 164.321 19.4768C164.93 18.6906 165.736 18.0814 166.738 17.649C167.74 17.2166 168.861 17.0004 170.099 17.0004C171.514 17.0004 172.733 17.2362 173.755 17.7079C174.777 18.16 175.563 18.838 176.113 19.7421C176.663 20.6266 176.939 21.7075 176.939 22.9851V31.9768H173.607L173.165 29.7068H173.135C172.9 30.1195 172.615 30.4831 172.28 30.7976C171.966 31.112 171.602 31.3872 171.19 31.623C170.797 31.8589 170.354 32.0358 169.863 32.1537C169.372 32.2716 168.831 32.3306 168.242 32.3306ZM169.332 29.2645C169.863 29.2645 170.325 29.1761 170.718 28.9992C171.131 28.8027 171.475 28.5472 171.75 28.2327C172.045 27.9182 172.28 27.5546 172.457 27.1419C172.634 26.7095 172.742 26.2673 172.782 25.8152H169.716C169.126 25.8152 168.635 25.8939 168.242 26.0511C167.848 26.1887 167.563 26.395 167.387 26.6702C167.21 26.9257 167.121 27.2303 167.121 27.5841C167.121 27.9379 167.21 28.2425 167.387 28.498C167.563 28.7535 167.819 28.9501 168.153 29.0877C168.487 29.2056 168.88 29.2645 169.332 29.2645ZM180.045 31.9768V17.3542H183.523L183.848 19.7716H183.877C184.349 18.9265 184.997 18.2582 185.823 17.7669C186.648 17.2559 187.661 17.0004 188.859 17.0004C190.078 17.0004 191.11 17.2657 191.955 17.7964C192.8 18.3074 193.439 19.0641 193.871 20.0664C194.323 21.0688 194.549 22.307 194.549 23.781V31.9768H190.599V24.1348C190.599 22.9163 190.353 21.9827 189.862 21.3341C189.37 20.6855 188.584 20.3612 187.503 20.3612C186.835 20.3612 186.236 20.5283 185.705 20.8624C185.194 21.1769 184.781 21.6388 184.467 22.248C184.172 22.8377 184.025 23.5649 184.025 24.4296V31.9768H180.045ZM204.297 31.9768C203.275 31.9768 202.371 31.8196 201.585 31.5051C200.799 31.171 200.19 30.6305 199.757 29.8836C199.345 29.1171 199.138 28.0755 199.138 26.7586V20.6266H196.632V17.3542H199.138L199.551 13.3742H203.089V17.3542H206.98V20.6266H203.118V26.8176C203.118 27.4858 203.256 27.9575 203.531 28.2327C203.826 28.4882 204.337 28.616 205.064 28.616H206.921V31.9768H204.297Z" fill="#170F49"/>
</svg>
