<svg width="154" height="40" viewBox="0 0 154 40" fill="none" xmlns="http://www.w3.org/2000/svg">
<path d="M56.0787 30.9452C54.585 30.9452 53.2485 30.6897 52.0693 30.1787C50.9097 29.6677 49.986 28.9208 49.2981 27.9381C48.6298 26.9554 48.2859 25.7664 48.2662 24.3709H52.482C52.5017 24.9802 52.6589 25.5305 52.9537 26.0219C53.2485 26.5132 53.6514 26.9063 54.1624 27.2011C54.6931 27.4763 55.3319 27.6138 56.0787 27.6138C56.688 27.6138 57.2187 27.5156 57.6707 27.319C58.1424 27.1225 58.506 26.8375 58.7615 26.4641C59.0367 26.0906 59.1742 25.6386 59.1742 25.1079C59.1742 24.5183 59.0268 24.027 58.732 23.6339C58.4372 23.2211 58.0343 22.8772 57.5233 22.602C57.0123 22.3269 56.4227 22.0812 55.7544 21.865C55.1058 21.6292 54.4278 21.3933 53.7202 21.1575C52.1086 20.6072 50.8704 19.8898 50.0056 19.0053C49.1605 18.1209 48.7379 16.9515 48.7379 15.4971C48.7379 14.2589 49.0327 13.2074 49.6223 12.3426C50.212 11.4582 51.0374 10.7801 52.0988 10.3084C53.1601 9.83671 54.3688 9.60086 55.7249 9.60086C57.1204 9.60086 58.3389 9.84653 59.3806 10.3379C60.4419 10.8096 61.2772 11.4975 61.8865 12.4016C62.5154 13.3057 62.8496 14.367 62.8889 15.5855H58.6141C58.5944 15.1138 58.4569 14.6814 58.2014 14.2884C57.9655 13.8756 57.6314 13.5513 57.199 13.3155C56.7666 13.06 56.2556 12.9322 55.666 12.9322C55.155 12.9126 54.6833 12.9912 54.2509 13.1681C53.8382 13.345 53.504 13.6005 53.2485 13.9346C53.0127 14.2687 52.8948 14.6913 52.8948 15.2023C52.8948 15.6936 53.0127 16.1162 53.2485 16.47C53.4844 16.8041 53.8185 17.0891 54.2509 17.3249C54.6833 17.5608 55.1845 17.7868 55.7544 18.003C56.344 18.2192 56.9926 18.4452 57.7002 18.681C58.7418 19.0348 59.6852 19.4574 60.5304 19.9487C61.3952 20.4204 62.083 21.0395 62.5941 21.8061C63.1247 22.5726 63.39 23.5749 63.39 24.8131C63.39 25.9138 63.1051 26.9259 62.5351 27.8497C61.9848 28.7734 61.1691 29.5203 60.0882 30.0903C59.0072 30.6602 57.6707 30.9452 56.0787 30.9452ZM72.7625 30.5914C71.7405 30.5914 70.8364 30.4342 70.0502 30.1197C69.2641 29.7856 68.6548 29.2451 68.2224 28.4983C67.8097 27.7318 67.6033 26.6901 67.6033 25.3733V19.2412H65.0974V15.9688H67.6033L68.016 11.9888H71.5538V15.9688H75.4453V19.2412H71.5833V25.4322C71.5833 26.1005 71.7208 26.5722 71.996 26.8473C72.2908 27.1028 72.8018 27.2306 73.529 27.2306H75.3863V30.5914H72.7625ZM83.0012 30.9452C81.7827 30.9452 80.7803 30.7487 79.9941 30.3556C79.208 29.9625 78.6184 29.4318 78.2253 28.7636C77.8518 28.0954 77.6651 27.3583 77.6651 26.5525C77.6651 25.6484 77.8912 24.8623 78.3432 24.194C78.8149 23.5061 79.5224 22.9656 80.4658 22.5726C81.4092 22.1795 82.5983 21.9829 84.0331 21.9829H87.7182C87.7182 21.2754 87.6101 20.6858 87.3939 20.2141C87.1974 19.7424 86.8829 19.3984 86.4505 19.1822C86.0378 18.9464 85.5071 18.8285 84.8585 18.8285C84.092 18.8285 83.4336 18.9955 82.8833 19.3296C82.3526 19.6638 82.0283 20.1846 81.9104 20.8921H78.0189C78.1368 19.8112 78.4906 18.8776 79.0802 18.0914C79.6895 17.3053 80.4953 16.696 81.4977 16.2636C82.5 15.8312 83.6203 15.615 84.8585 15.615C86.2736 15.615 87.4922 15.8509 88.5142 16.3226C89.5362 16.7746 90.3224 17.4527 90.8727 18.3568C91.423 19.2412 91.6982 20.3222 91.6982 21.5997V30.5914H88.3668L87.9246 28.3214H87.8951C87.6592 28.7341 87.3743 29.0977 87.0401 29.4122C86.7257 29.7267 86.3621 30.0018 85.9493 30.2377C85.5563 30.4735 85.114 30.6504 84.6227 30.7683C84.1313 30.8862 83.5908 30.9452 83.0012 30.9452ZM84.092 27.8792C84.6227 27.8792 85.0846 27.7907 85.4776 27.6138C85.8904 27.4173 86.2343 27.1618 86.5095 26.8473C86.8043 26.5329 87.0401 26.1693 87.217 25.7565C87.3939 25.3241 87.502 24.8819 87.5413 24.4299H84.4753C83.8857 24.4299 83.3943 24.5085 83.0012 24.6657C82.6081 24.8033 82.3232 25.0097 82.1463 25.2848C81.9694 25.5403 81.8809 25.845 81.8809 26.1987C81.8809 26.5525 81.9694 26.8572 82.1463 27.1127C82.3232 27.3682 82.5787 27.5647 82.9128 27.7023C83.2469 27.8202 83.64 27.8792 84.092 27.8792ZM94.8043 30.5914V15.9688H98.3125L98.6663 18.8579H98.6958C99.0889 18.0914 99.5409 17.4723 100.052 17.0006C100.563 16.5289 101.153 16.185 101.821 15.9688C102.509 15.7329 103.265 15.615 104.091 15.615V19.8308H103C102.351 19.8308 101.762 19.8996 101.231 20.0372C100.72 20.1748 100.278 20.4106 99.9045 20.7447C99.5507 21.0592 99.2756 21.4818 99.079 22.0124C98.8825 22.5431 98.7842 23.2113 98.7842 24.0171V30.5914H94.8043ZM112.838 30.5914C111.816 30.5914 110.912 30.4342 110.126 30.1197C109.34 29.7856 108.731 29.2451 108.298 28.4983C107.886 27.7318 107.679 26.6901 107.679 25.3733V19.2412H105.173V15.9688H107.679L108.092 11.9888H111.63V15.9688H115.521V19.2412H111.659V25.4322C111.659 26.1005 111.797 26.5722 112.072 26.8473C112.367 27.1028 112.878 27.2306 113.605 27.2306H115.462V30.5914H112.838ZM123.637 30.9452C122.419 30.9452 121.387 30.6897 120.542 30.1787C119.697 29.6677 119.048 28.911 118.596 27.9086C118.144 26.8866 117.918 25.6386 117.918 24.1645V15.9688H121.898V23.8108C121.898 25.0293 122.144 25.9629 122.635 26.6115C123.126 27.2601 123.903 27.5844 124.964 27.5844C125.652 27.5844 126.251 27.4271 126.762 27.1127C127.293 26.7785 127.706 26.3167 128.001 25.727C128.295 25.1178 128.443 24.3807 128.443 23.516V15.9688H132.423V30.5914H128.973L128.649 28.174H128.62C128.148 29.0191 127.489 29.6972 126.644 30.2082C125.819 30.6995 124.817 30.9452 123.637 30.9452ZM135.803 36.8709V15.9688H139.282L139.635 18.1799H139.694C140.028 17.6885 140.422 17.2561 140.874 16.8827C141.345 16.4896 141.896 16.185 142.525 15.9688C143.153 15.7329 143.871 15.615 144.677 15.615C146.072 15.615 147.291 15.9491 148.332 16.6174C149.394 17.2856 150.229 18.1995 150.838 19.3591C151.448 20.4991 151.752 21.8159 151.752 23.3096C151.752 24.764 151.448 26.071 150.838 27.2306C150.229 28.3902 149.394 29.3041 148.332 29.9723C147.271 30.6209 146.043 30.9452 144.647 30.9452C143.547 30.9452 142.584 30.7388 141.758 30.3261C140.952 29.9134 140.294 29.363 139.783 28.6752V36.8709H135.803ZM143.704 27.5549C144.49 27.5549 145.188 27.378 145.797 27.0242C146.406 26.6508 146.878 26.1496 147.212 25.5207C147.546 24.8721 147.713 24.1351 147.713 23.3096C147.713 22.4645 147.546 21.7274 147.212 21.0985C146.878 20.4499 146.406 19.9389 145.797 19.5655C145.188 19.1921 144.49 19.0053 143.704 19.0053C142.918 19.0053 142.22 19.1921 141.611 19.5655C141.001 19.9389 140.53 20.4499 140.196 21.0985C139.861 21.7274 139.694 22.4546 139.694 23.2801C139.694 24.1252 139.861 24.8721 140.196 25.5207C140.53 26.1496 141.001 26.6508 141.611 27.0242C142.22 27.378 142.918 27.5549 143.704 27.5549Z" fill="#170F49"/>
<path d="M0.508057 16.9692C0.508057 8.10879 7.69081 0.926025 16.5512 0.926025V23.0876C16.5512 31.948 9.36844 39.1308 0.508057 39.1308V16.9692Z" fill="#4A3AFF"/>
<path d="M18.8785 9.64373C18.8785 4.82908 22.7815 0.926025 27.5962 0.926025C32.4108 0.926025 36.3139 4.82908 36.3139 9.64374V10.1471C36.3139 14.9617 32.4108 18.8648 27.5962 18.8648C22.7815 18.8648 18.8785 14.9617 18.8785 10.1471V9.64373Z" fill="#4CBFFF"/>
<path d="M18.8785 29.9097C18.8785 25.0951 22.7815 21.192 27.5962 21.192C32.4108 21.192 36.3139 25.0951 36.3139 29.9097V30.413C36.3139 35.2277 32.4108 39.1308 27.5962 39.1308C22.7815 39.1308 18.8785 35.2277 18.8785 30.413V29.9097Z" fill="#9328FF"/>
</svg>
