<svg width="186" height="277" viewBox="0 0 186 277" fill="none" xmlns="http://www.w3.org/2000/svg">
<path d="M131.902 265.957L11.119 145.996C-3.70633 131.271 -3.70633 107.344 11.119 92.6196L185.643 265.957C170.709 280.681 146.727 280.681 131.902 265.957Z" fill="#C12128"/>
<path d="M152.808 95.941C157.313 100.457 172.248 112.34 185.643 112.34V41.3968C185.643 18.5809 167.151 0.0430156 144.392 0.0430156V30.2265L131.353 17.1549C121.396 7.17298 108.238 0.637179 94.2508 0.0430156C78.9595 -0.551148 64.3794 5.03399 53.711 15.8478C32.6113 37 32.6113 71.3426 53.711 92.4948L152.927 191.958C169.048 175.797 169.048 149.535 152.927 133.373L82.8712 63.1432C77.537 57.7957 77.8926 49.0021 83.8195 44.1299C89.0352 39.852 96.7401 40.8026 101.363 45.5559" fill="#C12128"/>
</svg>
