<svg width="592" height="567" viewBox="0 0 592 567" fill="none" xmlns="http://www.w3.org/2000/svg">
<rect width="592" height="566" transform="translate(0 0.0566406)" fill="url(#paint0_linear_657_1856)"/>
<rect width="592" height="566" transform="translate(0 0.0566406)" fill="black" fill-opacity="0.2"/>
<g clip-path="url(#clip0_657_1856)">
<rect y="0.0566406" width="592" height="566" rx="2" fill="url(#paint1_linear_657_1856)" fill-opacity="0.5"/>
<g opacity="0.8" clip-path="url(#clip1_657_1856)">
<path d="M95.2412 312.514L92.9267 312.469L93.5275 310.455L93.2939 309.532L93.0157 308.987L91.6248 308.208L91.469 307.707L91.7694 306.427L90.9126 304.257L89.6997 303.545L83.4684 302.154L75.3008 301.943L75.6013 301.32L78.372 298.805L79.3623 297.436L79.685 296.101L79.4402 294.732L78.6836 293.72L77.76 293.23L75.8906 289.948L75.0338 289.458L74.0323 289.246L72.7749 287.989L71.7512 285.341L69.5257 283.638L68.4352 279.61L67.4671 277.785L65.3752 276.583L65.2862 275.282L66.1875 275.393L66.6548 274.814L66.7327 274.069L66.5102 273.601L64.1512 272.566L63.7506 271.832L61.3359 269.729L61.3804 269.317L62.0703 269.262L62.6267 267.793L62.6156 266.335L65.9649 265.901L66.5213 265.467L66.2765 263.965L64.9746 262.218L84.9483 270.541L111.276 276.839L124.784 280.333L154.205 296.101L185.93 309.599L189.234 311.001L188.901 311.535L187.154 312.269L184.828 314.038L181.646 317.143L179.809 318.1L179.075 317.9L177.373 318.1L177.317 318.723L175.18 320.17L172.866 321.271L171.264 323.307L170.774 324.621L170.095 324.932L168.793 324.098L167.948 323.953L165.31 324.009L164.554 324.298L163.853 324.799L163.452 325.756L160.737 329.628L156.542 331.019L155.607 331.787L153.449 332.354L152.303 332.387L152.392 330.04L150.878 330.262L146.928 329.405L141.097 328.882L135.433 329.305L134.699 328.66L132.173 328.471L128.212 330.507L125.174 331.197L123.304 330.451L121.747 328.849L119.922 330.14L119.966 310.611L120.022 309.387L120.545 308.597L120.623 305.982L120.333 305.003L121.413 303.69L121.947 302.421L120.656 302.644L117.351 305.526L115.571 306.65L113.279 309.298L111.109 310.044L110.386 311.245L108.372 312.347L95.2412 312.514Z" fill="url(#paint2_radial_657_1856)" stroke="#8D8D8D" stroke-width="0.55637"/>
<path d="M245.849 100.559L246.651 101.427L247.485 101.805L248.164 101.816L249.421 101.349L250.122 101.471L250.189 102.54L251.536 103.841L252.615 104.253L253.594 104.019L255.107 104.142L257.277 105.199L257.823 105.933L256.81 109.628L256.02 111.297L259.058 115.458L260.905 120.755L261.116 123.27L262.084 124.516L262.14 125.017L260.337 126.641L260.738 128.411L261.472 130.169L260.615 133.552L259.981 134.62L260.304 140.161L261.283 142.576L262.641 143.511L263.286 144.512L264.543 149.33L264.477 149.976L263.208 151.444L261.161 151.077L261.005 152.346L266.58 157.264L267.158 157.309L269.339 158.766L270.986 160.602L272.143 162.872L272.733 162.95L274.224 162.483L276.85 163.64L276.361 161.292L277.195 158.744L277.474 156.819L277.062 154.816L277.974 151.511L279.109 150.109L280.534 149.341L282.859 148.551L283.471 147.561L285.252 147.494L288.401 148.529L290.481 150.799L291.505 153.592L293.53 153.848L294.921 153.336L296.49 151.767L298.749 151.155L299.216 150.721L299.239 150.131L297.97 148.562L297.714 147.75L297.837 147.016L299.116 144.078L299.194 142.821L301.041 139.449L303.634 135.822L303.601 135.065L324.175 135.143L324.62 140.551L324.142 142.164L324.342 144.69L324.609 145.447L326.501 146.393L326.701 146.849L326.312 147.617L326.256 149.965L328.292 152.179L328.693 152.39L329.472 152.19L331.519 153.559L332.131 155.595L332.176 156.63L332.51 157.131L337.673 161.326L342.769 164.152L343.47 165.153L344.972 166.366L347.064 167.112L349.702 168.57L352.216 169.293L353.73 169.46L355.198 170.372L355.288 171.051L356.701 172.542L359.705 174.144L360.929 176.559L363.01 177.438L363.956 176.759L365.491 176.37L365.703 176.904L365.558 177.772L367.572 179.63L334.301 251.113L333.433 252.57L331.82 253.828L331.174 254.907L331.141 256.165L332.053 258.757L332.476 259.391L333.667 260.037L335.425 261.773L336.137 263.175L336.304 265.356L336.938 265.99L335.625 267.325L335.403 268.004L335.336 268.85L335.714 269.784L335.414 270.908L334.079 272.934L333.122 273.646L332.654 274.592L332.766 275.537L333.5 277.062L334.012 279.221L332.476 283.916L331.163 289.725L329.817 290.537L276.572 290.893L276.617 290.114L276.216 289.691L274.669 289.38L272.533 290.582L271.932 292.518L271.175 292.729L267.57 291.082L266.813 287.878L266.124 287.655L265.033 287.8L264.521 287.566L263.13 283.927L260.304 282.837L258.824 281.424L257.934 279.298L257.433 278.753L255.041 277.496L243.034 277.563L241.499 280.411L239.585 280.968L239.685 282.269L239.396 282.514L236.636 283.104L235.312 284.873L235.256 285.619L236.258 286.398L236.447 286.898L236.046 288.033L235.145 289.313L232.853 290.66L232.73 292.674L232.997 294.298L228.691 293.786L226.321 294.209L224.986 295.4L222.994 295.289L222.059 294.677L221.547 294.654L219.6 296.056L219.01 296.991L219.299 298.938L216.473 302.455L215.716 302.544L214.96 301.954L214.248 299.439L213.825 299.339L211.777 300.474L210.331 301.82L208.806 302.254L207.949 302.11L206.748 302.666L206.292 303.256L206.147 304.057L204.789 304.936L204.378 304.958L201.807 302.366L201.006 301.954L197.812 302.321L193.406 302.032L193.584 303.467L193.417 304.09L191.692 306.104L189.556 306.75L185.928 309.598L154.204 296.101L124.783 280.333L111.275 276.839L84.9471 270.541L64.9734 262.218L64.8955 261.495L65.6744 258.245L67.032 256.688L72.5067 252.826L75.0215 252.559L75.5444 252.225L76.6349 250.49L76.7239 249.343L74.7878 244.347L75.2106 243.023L76.5237 240.586L77.948 239.117L78.9717 237.726L79.439 236.636L79.7729 234.7L79.4502 233.231L80.1957 230.961L80.5406 228.391L81.3529 227.556L85.4256 225.742L87.8625 224.374L89.1421 223.216L89.6317 221.658L90.4997 221.247L92.0686 221.124L93.9047 220.089L97.8438 217.052L100.537 216.573L102.217 216.896L106.879 215.538L108.548 214.682L110.574 214.281L114.279 214.704L115.726 212.935L116.427 211.321L117.639 210.642L120.021 210.865L120.733 211.466L122.202 211.199L123.426 210.375L125.328 210.509L125.673 211.099L125.651 212.412L127.443 213.847L130.592 213.936L131.237 213.491L131.749 212.623L131.627 212.189L132.928 206.714L140.384 165.354L141.675 162.105L140.573 156.585L140.707 156.296L139.26 155.128L137.613 152.068L137.569 151.522L138.292 149.976L137.713 147.995L137.302 147.55L135.41 146.893L132.038 144.278L129.88 141.741L130.102 128.934L134.431 128.644L136.378 127.343L140.273 126.319L143.255 128.277L144.612 128.4L146.025 127.921L145.48 126.041L145.814 124.127L144.29 121.79L143.655 121.189L142.376 120.521L140.695 121.111L137.591 120.432L133.618 120.533L133.552 109.516L134.62 109.561L136.089 108.916L138.626 108.248L141.786 109.216L162.961 109.283L162.45 108.548L161.57 108.393L161.148 107.057L162.205 104.91L163.796 105.355L164.475 107.046L165.443 108.515L166.177 108.904L167.101 108.916L168.892 108.237L171.051 105.911L171.407 104.976L172.809 103.597L175.647 102.05L177.082 102.562L178.384 105.433L180.187 107.647L181.01 109.094L181.744 111.074L182 112.799L181.455 116.838L181.678 118.797L185.238 117.962L194.485 125.818L195.364 126.13L198.146 126.363L200.706 125.251L202.597 123.359L204.945 122.068L207.382 121.946L208.005 122.268L208.862 123.47L208.84 124.55L207.605 126.441L208.016 127.532L208.662 127.832L210.142 127.031L210.765 126.018L211.021 124.583L212.133 123.292L212.656 123.036L213.769 123.236L214.381 123.036L214.837 122.302L215.349 119.731L215.917 119.32L217.597 118.919L220.857 116.95L221.937 117.562L222.971 117.239L224.752 116.082L225.887 114.29L228.235 112.944L230.494 113.556L233.12 111.72L233.732 110.807L234.221 107.847L234.188 106.412L235.045 105.388L236.191 104.921L238.127 104.899L239.618 104.465L241.91 102.684L242.979 102.272L245.516 101.939L245.849 100.559Z" fill="url(#paint3_radial_657_1856)" stroke="#8D8D8D" stroke-width="0.55637"/>
<path d="M445.21 158.878L444.164 158.811L443.308 159.19L441.861 159.323L438.756 158.566L437.143 157.42L436.664 155.751L434.584 154.204L434.461 152.758L434.695 151.99L434.35 150.232L433.983 149.709L432.926 149.498L432.469 148.452L432.558 145.748L429.298 142.098L428.43 142.498L427.518 142.287L425.849 138.415L425.993 136.657L425.337 134.642L424.647 134.019L423.901 132.339L423.69 129.991L424.168 126.497L423.979 126.13L421.119 125.318L418.872 122.803L418.026 119.654L418.237 118.853L418.994 118.597L418.449 117.284L417.692 117.317L414.532 114.357L413.486 114.513L413.063 114.98L411.583 115.136L410.649 114.836L409.758 113.745L408.49 112.81L407.166 112.677L406.62 111.253L405.875 110.362L403.727 109.194L402.292 108.649L398.52 108.237L397.318 108.56L396.016 108.538L395.671 107.937L395.404 106.334L395.682 101.283L396.372 99.8359L395.96 97.2766L395.271 96.6424L395.66 96.4087L396.762 96.7425L396.75 97.6438L396.428 97.8441L396.806 98.9235L398.442 98.8567L399.354 99.1127L399.744 100.114L400.678 100.904L403.182 101.772L406.843 102.607L409.914 100.626L410.304 99.7803L412.229 98.4784L413.152 98.1557L413.92 99.2017L416.936 100.248L418.137 100.114L420.051 98.9903L420.185 98.5229L420.541 98.5563L422.165 100.003L421.943 100.971L424.58 100.782L425.148 101.338L426.205 101.527L426.895 101.516L427.907 100.982L429.765 99.3129L431.746 98.0889L433.693 95.5296L434.105 94.4169L433.883 93.816L437.365 86.5832L437.488 84.558L438.723 83.1114L439.535 82.9L443.541 76.4572L443.797 75.1776L444.732 73.8423L446.724 72.1176L447.425 70.2704L449.773 69.0019L450.296 67.9782L451.453 67.3328L452.076 68.9574L453.055 70.4707L451.197 65.1295L451.119 63.6941L451.319 63.3269L455.069 66.0197L456.338 67.3662L457.35 68.7237L457.929 70.0479L457.962 71.806L458.452 72.1509L458.808 71.6168L459.231 71.5056L459.465 71.9506L459.698 80.7302L460.433 85.0365L463.448 91.7686L466.408 101.716L470.102 107.28L471.226 107.67L474.865 107.581L477.958 108.627L479.394 109.572L480.251 112.521L480.072 116.227L478.637 117.295L476.712 117.773L476.289 118.141L478.281 117.974L479.438 117.506L479.75 117.762L479.883 118.419L479.694 119.231L474.097 123.749L472.795 126.085L470.403 127.654L468.244 131.794L465.006 135.688L464.227 136.2L463.181 136.1L461.568 136.679L459.253 139.995L457.762 140.073L456.927 141.074L455.292 142.944L454.212 145.414L452.966 147.495L452.031 148.218L448.682 152.057L448.281 154.727L448.471 156.73L446.301 158.744L445.21 158.878ZM471.204 106.59L470.703 106.223L469.479 104.153L469.557 103.174L469.813 102.718L471.66 102.217L472.139 102.651L473.062 105.177L471.961 106.401L471.204 106.59ZM473.975 126.186L473.53 125.907L473.441 125.117L474.676 123.893L475.655 123.726L477.046 123.994L477.558 123.871L478.047 123.159L478.103 123.816L477.024 125.418L475.922 125.974L473.975 126.186ZM477.802 122.992L476.935 122.736V122.113L477.736 120.956L479.127 120.844L479.327 121.234L479.216 121.801L477.802 122.992ZM469.802 102.495L468.956 101.939L469.245 101.015L470.225 100.826L471.182 101.182L471.193 101.995L469.802 102.495Z" fill="url(#paint4_radial_657_1856)" stroke="#8D8D8D" stroke-width="0.55637"/>
<path d="M648.306 454.455L647.905 453.531L648.662 452.029L648.651 451.439L648.061 450.282L643.465 446.888L643.299 446.321L643.543 444.641L642.909 443.272L642.186 443.539L641.963 444.04L641.585 444.24L641.34 443.962L641.93 439.066L642.842 435.394L643.755 434.415L646.503 434.682L647.638 433.892V433.424L647.015 432.289L647.193 429.34L652.712 424.645L654.348 421.217L653.881 419.916L653.013 418.78L652.022 418.714L651.21 418.291L648.061 415.542L645.702 415.565L643.265 414.897L640.739 413.695L637.701 413.072L635.498 412.916L634.029 414.018L632.394 414.574L629.489 414.074L628.855 414.307L628.366 409.901L621.11 403.002L620.688 402.802L615.803 404.17L614.1 402.79L613.533 403.024L612.498 402.779L609.672 401.422L607.257 399.619L606.166 399.819L601.326 395.78L600.102 395.179L597.064 394.345L595.095 394.623L593.003 395.624L592.101 396.871L591.389 397.071L585.458 395.435L584.78 394.89L584.49 393.221L584.646 392.231L586.081 389.182L585.124 388.67L582.587 388.091L580.162 388.047L578.826 387.49L576.835 387.401L572.573 389.159L567.832 392.531L567.12 393.766L563.37 395.847L561.123 396.292L560.066 397.605L558.051 399.33L556.46 399.908L555.347 399.742L553.289 402.612L552.132 403.469L549.762 403.046L548.96 403.191L548.193 404.304L546.702 405.327L546.256 405.06L547.848 401.244L547.28 398.562L548.927 396.37L549.205 395.513L548.949 394.1L548.204 392.186L548.315 391.44L549.105 389.86L549.049 389.349L545.477 386.433L543.597 382.583L542.907 378.666L542.963 376.941L544.298 372.68L546.067 371.534L546.323 371.111L546.39 370.065L544.576 369.13L544.454 368.763L544.988 365.959L546.579 364.779L546.557 364.367L543.53 361.63L543.486 360.595L544.999 357.947L544.955 356.756L544.765 356.289L543.141 355.744L542.095 355.02L541.705 353.618L541.772 350.369L541.984 349.423L544.153 347.565L545.422 347.098L546.49 346.297L546.167 345.596L545.522 345.017L544.498 344.694L543.352 344.894L542.963 344.527L542.863 343.971L543.33 342.903L545.6 341.99L546.223 341.49L546.179 340.644L544.087 339.553L540.103 338.808L538.033 336.627L537.777 335.603L538.334 334.312L539.458 333.5L541.149 329.628L542.15 328.949L543.274 328.648L543.664 328.226L542.228 326.223L542.44 325.811L546.012 322.896L550.262 320.648L550.885 320.125L551.13 319.034L551.898 318.311L554.491 318.289L556.093 319.78L556.827 320.937L557.417 323.396L559.376 326.167L564.027 328.237L566.03 327.658L568.378 327.858L568.745 327.625L569.579 326.011L570.848 325.6L571.594 324.631L572.895 323.641L575.355 322.807L576.835 322.996L578.481 323.586L579.984 323.118L583.288 320.425L586.571 314.806L587.372 313.849L587.639 312.825L587.973 309.977L587.84 308.686L585.347 303.756L585.403 302.722L589.008 300.886L591.178 300.863L592.847 301.375L593.303 302.41L593.659 302.61L596.018 302.132L597.565 301.531L599.045 301.954L600.948 303.055L600.803 303.779L601.014 304.101L601.927 304.413L605.265 304.291L606.901 303.578L608.792 303.467L609.705 302.11L611.385 300.619L614.423 300.24L615.28 299.84L616.181 298.749L618.596 298.76L619.286 299.461L619.631 299.517L621.7 297.503L621.589 294.832L623.803 294.409L624.682 294.61L625.851 293.875L627.52 291.305L628.032 290.025L629.022 290.47L630.313 290.17L632.761 290.493L635.899 292.039L636.388 292.607L636.322 295.645L637.123 297.803L639.582 298.816L639.882 301.041L638.859 302.911L640.895 303.601L641.963 303.356L642.876 302.332L646.069 301.353L646.926 297.369L647.482 296.401L648.317 296.223L649.185 296.813L649.886 296.869L652.545 295.734L653.769 294.354L653.959 293.697L653.68 292.184L654.003 291.906L656.496 291.405L657.352 289.124L659.189 288.634L662.004 287.01L662.66 286.898L664.318 287.522L665.242 289.124L666.755 290.025L669.381 290.893L672.708 291.338L674.466 292.618L675.067 294.454L675.501 294.754L675.98 294.587L676.302 292.64L676.781 292.151L677.894 292.139L678.394 292.496L678.417 293.197L677.727 294.176L678.228 295.099L678.784 295.511L681.121 296.468L681.143 297.514L682.5 300.908L683.101 302.466L684.236 302.788L684.737 302.688L686.328 303.567L686.551 304.368L685.805 305.659L686.039 308.041L687.463 310.822L689.678 312.992L690.512 314.272L690.423 317.744L689.689 319.546L689.589 320.525L690.434 323.586L690.1 324.231L689.333 324.843L686.495 325.956L685.238 325.121L683.335 325.11L682.979 325.444L682.322 327.202L682.345 328.059L683.402 329.839L684.626 330.574L685.204 332.232L686.796 333.912L686.963 334.346L686.818 335.926L686.44 336.36L686.573 336.827L687.23 337.406L689.377 338.429L689.911 339.22L690.512 339.598L692.237 340.31L695.453 339.331L696.165 339.309L696.565 339.765L692.025 349.59L687.764 355.365L686.618 357.958L681.021 364.345L678.294 365.747L677.326 365.736L677.66 364.145L678.072 363.978L678.228 362.754L677.727 360.606L675.646 360.328L675.167 358.882L674.411 358.047L673.999 358.715L673.487 361.307L672.931 362.276L672.319 362.698L671.696 362.376L671.15 360.439L671.273 360.083L671.618 359.939L671.584 359.505L670.616 360.94L671.651 362.821L672.163 363.077L672.575 362.91L673.854 363.199L673.343 365.213L671.996 366.493L671.718 368.518L670.327 369.597L669.938 370.343L669.715 371.278L669.915 372.223L668.413 371.789L668.179 372.223L667.779 375.028L668.179 374.226L669.014 374.46L669.281 375.061L669.025 375.517L669.092 376.207L669.426 376.541L669.793 377.654L668.636 380.447L669.27 384.274L668.658 384.82L668.024 384.575L667.868 385.832L668.524 386.344L669.871 384.43L669.348 381.971L670.26 381.292L670.538 381.893L670.472 383.852L669.403 386.756L668.58 392.798L668.013 394.812L668.235 397.561L669.103 400.732L669.314 405.784L670.283 412.916L671.384 416.722L668.925 424.133L667.423 431.533L666.9 432.656L666.722 435.839L665.542 439.978L665.442 442.571L665.876 447.489L666.866 449.392L664.374 452.708L662.36 453.454L661.314 454.166L658.287 458.494L657.653 460.764L648.651 455.045L648.306 454.455ZM673.098 367.661L672.842 366.326L673.665 365.87L674.845 364.712L675.023 364L674.611 363.188L675.457 363.344L676.369 364.512L676.314 365.102L673.098 367.661ZM670.283 375.283L669.581 375.25L669.593 374.505L669.882 374.104L668.992 373.859L668.524 373.414L668.669 372.223L670.75 372.057L670.928 372.279L671.05 373.536L670.283 375.283Z" fill="url(#paint5_radial_657_1856)" stroke="#8D8D8D" stroke-width="0.55637"/>
<path d="M525.026 419.448L508.68 419.426L508.102 415.798L509.125 413.762L509.548 409.611L522.845 409.622L524.882 411.826L524.948 414.285L524.292 415.609L524.058 418.324L525.026 419.448Z" fill="url(#paint6_radial_657_1856)" stroke="#8D8D8D" stroke-width="0.55637"/>
<path d="M525.025 419.448L524.057 418.324L524.291 415.609L524.947 414.284L524.88 411.825L522.844 409.622L509.547 409.611L509.124 413.761L508.1 415.798L508.679 419.425L525.025 419.448L524.435 421.139L524.78 422.886L524.024 424.655L522.866 426.046L522.41 427.682L523.356 429.028L524.302 429.407L525.882 430.553L527.718 435.627V436.294L525.136 439.31L521.531 442.659L521.053 445.041L522.265 446.276L523.267 445.753L525.025 446.387L525.548 447.066L525.748 448.179L525.559 448.969L524.747 449.97L524.179 452.073L525.504 455.923L522.065 458.215L520.774 458.438L519.817 459.439L519.283 460.686L513.842 463.735L513.063 462.878L508.223 460.808L507.611 461.342L506.965 461.442L505.018 461.454L503.371 461.142L499.076 461.32L496.839 460.33L492.244 463.267L489.006 466.517H488.638L487.181 464.936L485.489 464.603L481.94 466.427L477.811 465.738L475.052 466.806L472.57 467.407L471.001 469.743L469.655 472.481L469.722 473.594L468.787 475.04L467.875 475.352L466.94 475.174L466.439 475.329L465.393 476.153L463.568 478.49L462.934 480.604L463.557 481.283L463.546 481.661L463.146 481.917L462.189 481.405L461.922 480.904L458.962 478.412L455.456 477.733L453.654 476.008L451.54 475.53L449.882 475.485L446.154 473.994L445.397 473.048L441.981 471.312L441.236 470.634L439.633 469.844L438.365 469.654L435.36 467.785L432.267 467.963L428.039 467.184L427.894 466.817L428.183 465.882L428.817 464.58L430.275 462.622L430.186 462.155L427.682 461.153L426.414 461.899L425.68 461.687L425.368 461.231L425.112 459.996L425.401 457.125L425.19 455.155L424.133 452.707L423.933 448.891L422.364 446.454L422.186 445.664L422.631 441.869L425.468 437.585L425.891 434.347L426.67 433.49L428.918 432.556L431.054 430.586L432.445 428.338L432.812 426.169L433.369 425.045L434.793 423.887L435.705 422.296L435.794 420.583L437.742 419.503L439.3 416.588L442.248 416.443L445.275 415.486L445.631 415.175L447.834 410.512L448.624 409.444L449.336 404.882L449.759 404.058L451.896 401.9L453.732 400.776L454.922 400.486L456.291 401.243L457.637 400.431L459.184 398.84L460.119 395.579L461.421 392.386L461.41 391.495L460.876 390.227L461.521 387.178L463.301 383.74L463.168 377.976L464.514 377.108L465.66 374.181L467.886 370.654L468.32 369.463L468.142 366.437L468.531 365.435L469.611 364.478L469.911 363.221L469.822 362.52L470.2 362.019L470.423 359.927L471.157 358.558L473.171 356.233L473.794 355.899L473.761 357.802L472.404 359.894L471.825 362.497L474.495 362.943L476.944 364.089L481.317 364.534L484.755 366.437L489.284 368.028L489.985 367.772L491.799 361.162L493.434 358.503L494.747 357.423L496.027 358.881L497.184 360.973L498.419 365.101L499.098 368.551L500.367 368.606L501.201 367.772L501.535 366.659L502.158 366.058L505.229 366.437L510.27 365.847L510.515 366.67L509.892 368.406L513.375 370.042L517.102 370.799L517.87 370.71L518.438 367.037L519.05 367.071L520.73 369.986L521.242 370.253L523.222 369.252L526.027 366.937L531.067 365.825H532.792L535.641 364.601L537.577 363.109L543.541 361.529L546.568 364.267L546.59 364.69L544.999 365.869L544.465 368.673L544.576 369.04L546.39 369.975L546.323 371.021L546.067 371.444L544.298 372.59L542.974 376.852L542.918 378.577L543.608 382.493L545.499 386.344L549.071 389.259L549.127 389.782L548.326 391.362L548.215 392.107L548.96 394.021L549.216 395.446L548.938 396.303L547.291 398.495L546.178 399.618L542.584 399.24L541.583 397.282L538.89 395.635L537.588 397.293L538.233 401.488L537.599 402.089L537.154 402.233L534.061 400.965L532.759 401.221L532.347 401.532L531.546 405.071L532.347 405.182L532.892 406.473L532.258 407.519L531.446 408.298L531.49 410.412L531.957 411.091L532.547 411.302L533.315 416.043L532.725 416.632L528.986 417.634L526.438 419.314L525.025 419.448Z" fill="url(#paint7_radial_657_1856)"/>
<path d="M525.025 419.448L524.057 418.324L524.291 415.609L524.947 414.284L524.88 411.825L522.844 409.622L509.547 409.611L509.124 413.761L508.1 415.798L508.679 419.425L525.025 419.448ZM525.025 419.448L524.435 421.139L524.78 422.886L524.024 424.655L522.866 426.046L522.41 427.682L523.356 429.028L524.302 429.407L525.882 430.553L527.718 435.627V436.294L525.136 439.31L521.531 442.659L521.053 445.041L522.265 446.276L523.267 445.753L525.025 446.387L525.548 447.066L525.748 448.179L525.559 448.969L524.747 449.97L524.179 452.073L525.504 455.923L522.065 458.215L520.774 458.438L519.817 459.439L519.283 460.686L513.842 463.735L513.063 462.878L508.223 460.808L507.611 461.342L506.965 461.442L505.018 461.454L503.371 461.142L499.076 461.32L496.839 460.33L492.244 463.267L489.006 466.517H488.638L487.181 464.936L485.489 464.603L481.94 466.427L477.811 465.738L475.052 466.806L472.57 467.407L471.001 469.743L469.655 472.481L469.722 473.594L468.787 475.04L467.875 475.352L466.94 475.174L466.439 475.329L465.393 476.153L463.568 478.49L462.934 480.604L463.557 481.283L463.546 481.661L463.146 481.917L462.189 481.405L461.922 480.904L458.962 478.412L455.456 477.733L453.654 476.008L451.54 475.53L449.882 475.485L446.154 473.994L445.397 473.048L441.981 471.312L441.236 470.634L439.633 469.844L438.365 469.654L435.36 467.785L432.267 467.963L428.039 467.184L427.894 466.817L428.183 465.882L428.817 464.58L430.275 462.622L430.186 462.155L427.682 461.153L426.414 461.899L425.68 461.687L425.368 461.231L425.112 459.996L425.401 457.125L425.19 455.155L424.133 452.707L423.933 448.891L422.364 446.454L422.186 445.664L422.631 441.869L425.468 437.585L425.891 434.347L426.67 433.49L428.918 432.556L431.054 430.586L432.445 428.338L432.812 426.169L433.369 425.045L434.793 423.887L435.705 422.296L435.794 420.583L437.742 419.503L439.3 416.588L442.248 416.443L445.275 415.486L445.631 415.175L447.834 410.512L448.624 409.444L449.336 404.882L449.759 404.058L451.896 401.9L453.732 400.776L454.922 400.486L456.291 401.243L457.637 400.431L459.184 398.84L460.119 395.579L461.421 392.386L461.41 391.495L460.876 390.227L461.521 387.178L463.301 383.74L463.168 377.976L464.514 377.108L465.66 374.181L467.886 370.654L468.32 369.463L468.142 366.437L468.531 365.435L469.611 364.478L469.911 363.221L469.822 362.52L470.2 362.019L470.423 359.927L471.157 358.558L473.171 356.233L473.794 355.899L473.761 357.802L472.404 359.894L471.825 362.497L474.495 362.943L476.944 364.089L481.317 364.534L484.755 366.437L489.284 368.028L489.985 367.772L491.799 361.162L493.434 358.503L494.747 357.423L496.027 358.881L497.184 360.973L498.419 365.101L499.098 368.551L500.367 368.606L501.201 367.772L501.535 366.659L502.158 366.058L505.229 366.437L510.27 365.847L510.515 366.67L509.892 368.406L513.375 370.042L517.102 370.799L517.87 370.71L518.438 367.037L519.05 367.071L520.73 369.986L521.242 370.253L523.222 369.252L526.027 366.937L531.067 365.825H532.792L535.641 364.601L537.577 363.109L543.541 361.529L546.568 364.267L546.59 364.69L544.999 365.869L544.465 368.673L544.576 369.04L546.39 369.975L546.323 371.021L546.067 371.444L544.298 372.59L542.974 376.852L542.918 378.577L543.608 382.493L545.499 386.344L549.071 389.259L549.127 389.782L548.326 391.362L548.215 392.107L548.96 394.021L549.216 395.446L548.938 396.303L547.291 398.495L546.178 399.618L542.584 399.24L541.583 397.282L538.89 395.635L537.588 397.293L538.233 401.488L537.599 402.089L537.154 402.233L534.061 400.965L532.759 401.221L532.347 401.532L531.546 405.071L532.347 405.182L532.892 406.473L532.258 407.519L531.446 408.298L531.49 410.412L531.957 411.091L532.547 411.302L533.315 416.043L532.725 416.632L528.986 417.634L526.438 419.314L525.025 419.448Z" stroke="#8D8D8D" stroke-width="0.55637"/>
<path d="M571.606 191.392L571.561 191.759L569.291 194.152L568.813 194.341L568.768 195.943L570.96 194.052L571.717 192.705L574.076 190.947L575.066 189.679L576.212 182.635L577.492 181.856L578.727 181.722L580.585 180.699L581.309 180.554L581.821 180.688L581.91 182.501L581.687 183.002L580.107 185.083L576.535 187.03L576.502 187.831L577.314 187.965L577.815 187.064L579.094 186.719L579.339 187.642L578.683 188.21L578.961 188.544L583.645 183.013L584.602 183.38L587.473 182.346L591.969 182.824L591.457 180.142L592.136 179.886L594.828 179.975L596.809 180.398L599.736 181.567L600.893 181.689L603.285 183.225L604.843 183.258L606.245 184.705L608.348 186.173L611.13 186.819L612.421 186.607L613.044 187.453L613.422 187.509L615.192 187.409L617.929 188.143L618.218 187.141L617.473 186.618L619.331 186.196L619.965 186.318L619.865 186.785L619.353 188.377L619.609 189.178L620.31 189.779L619.887 191.481L617.896 194.007L613.3 198.425L609.606 198.937L608.716 198.758L605.466 202.542L605.511 204.545L604.532 206.581L602.428 208.64L601.516 210.843L600.804 211.032L599.947 212.2L600.348 214.337L601.716 215.26L602.139 216.685L601.828 218.309L600.559 221.503L602.317 224.63L602.929 227.946L602.807 230.65L602.573 231.262L598.011 236.18L597.822 238.94L597.955 241.287L598.523 243.847L600.503 246.117L602.295 247.129L602.484 247.686L602.629 248.62L602.195 251.068L601.872 251.558L601.739 252.904L601.182 254.529L599.836 255.987L597.288 256.309L596.564 255.998L595.641 256.042L592.937 256.999L591.245 257.122L588.464 255.097L587.34 254.863L585.715 255.074L584.591 255.742L583.345 256.031L583.089 255.697L582.154 255.965L581.598 256.209L579.484 258.335L579.495 258.846L578.794 259.815L576.557 262.04L573.953 263.053L570.76 265.901L569.28 266.491L568.112 266.536L566.22 268.238L565.018 268.639L562.114 268.995L559.087 269.84L556.717 272.01L555.627 275.315L555.193 278.62L554.492 281.201L552.878 284.25L552.544 284.495L552.166 285.408L552.021 287.099L550.686 289.859L548.794 291.416L547.982 293.642L548.772 295.801L549.295 299.339L551.22 302.744L551.176 303.323L550.33 304.881L550.185 311.958L548.906 314.684L548.616 315.863L548.561 318L547.136 317.265L546.458 316.353L545.545 315.852L544.444 315.53L542.463 315.752L541.673 315.552L540.171 313.326L539.069 310.144L536.699 308.341L536.543 306.505L538.368 304.491L538.279 303.901L533.962 301.732L533.272 300.563L533.205 298.716L532.37 296.947L531.324 296.179L529.01 295.867L528.787 295.4L529.077 294.61L532.003 291.784L531.591 290.326L532.404 287.344L533.172 285.753L533.806 285.141L535.297 284.54L539.069 284.15L538.635 282.648L539.347 279.032L539.258 277.073L537.255 275.727L532.504 276.773L530.111 278.264L527.586 274.903L526.573 273.958L523.235 269.34L522.256 269.418L521.321 267.815L522 266.491L521.877 265.512L521.599 265.133L520.075 264.866L519.607 265.167L517.46 263.687L517.66 262.897L519.618 262.162L521.566 259.892L521.844 258.123L521.532 257.01L521.877 254.384L523.847 247.53L523.858 247.051L523.101 245.783L522.845 244.581L523.079 240.442L522.367 238.773L521.844 234.889L520.909 233.743L517.126 232.141L515.768 232.118L515.457 231.762L515.368 230.616L514.711 229.848L512.775 229.526L511.707 230.104L510.149 230.004L507.055 228.324L506.099 228.257L503.918 228.847L501.002 230.906L500.412 231.618L499.867 231.529L516.236 218.365L518.851 218.621L520.152 217.597L521.877 215.183L522.356 213.903L524.08 212.601L524.77 209.396L526.017 208.884L528.732 206.303L529.255 204.956L529.577 202.842L531.358 197.624L533.539 195.91L535.186 193.951L536.109 192.338L536.621 190.914L536.421 188.888L537.3 187.987L536.143 186.229L540.237 182.791L540.093 180.966L540.649 178.317L542.585 176.57L542.986 175.78L543.987 172.42L544.076 170.628L543.598 170.039L542.496 170.217L542.196 169.671L542.251 168.982L543.52 168.815L544.154 167.991L544.944 163.106L544.766 161.571L545.289 160.425L546.146 159.924H546.847L547.114 159.657L547.047 159.056L547.426 158.221L548.071 157.632L549.562 158.722L550.063 160.77L551.387 160.903L552.244 159.39L552.923 162.65L554.024 162.695L554.347 162.149L554.425 161.103L555.371 161.059L557.251 161.649L557.808 162.416L556.216 164.308L556.962 165.087L556.984 165.699L558.331 163.429L558.876 161.715H559.377L559.822 162.85V163.496L558.854 164.519L558.553 165.621L558.642 168.637L558.931 169.004L559.454 169.137L560.1 168.982L561.168 167.947L560.645 166.834L560.801 166.166L562.27 164.575L563.438 164.297L565.808 164.953L567.477 163.718L567.533 164.742L567.132 164.976L565.875 166.678L566.531 167.324L566.643 166.912L568.034 166.244L568.679 167.123L568.523 168.47L570.337 170.417L571.294 169.927L573.052 170.673L573.909 173.343L573.787 174.401L571.35 177.438L570.927 178.429L571.038 179.163L571.706 178.017L573.653 176.148L574.577 176.114L575.545 177.016L576.123 179.119L575.823 180.487L574.744 180.699L573.597 181.711L572.307 183.369L572.384 184.226L571.094 186.841L570.404 190.758L570.638 191.136L571.606 191.392ZM572.184 191.893L572.117 191.014L572.707 189.311L572.251 188.121L572.396 187.386L573.408 186.006L574.02 185.795L574.076 188.41L573.831 189.901L572.941 190.569L572.184 191.893ZM565.174 163.229L564.684 162.717L564.595 162.049L565.486 160.803L566.42 160.77L567.177 161.237L567.288 161.615L567.077 162.016L565.174 163.229ZM569.069 167.88L568.746 167.546L568.813 166.956L569.992 165.966L570.526 166.044L571.083 166.99L570.927 167.669L570.482 167.479L569.069 167.88ZM553.312 162.528L553.078 162.472L554.136 158.488L554.469 158.589L554.503 158.844L554.047 162.249L553.312 162.528Z" fill="url(#paint8_radial_657_1856)" stroke="#8D8D8D" stroke-width="0.55637"/>
<path d="M648.307 454.455L647.295 453.843L644.468 452.941L642.71 453.03L641.509 453.386L640.574 454.065L638.148 454.388L636.657 454.243L638.515 456.769L638.493 457.671L637.236 457.548L636.067 456.725L635.722 456.747L633.308 458.205L632.006 460.352L632.34 461.131L633.82 461.877L634.398 462.611L634.365 464.748L634.031 466.461L634.265 466.917L635.722 467.307L635.911 469.221L635.555 469.688L634.498 469.955L633.419 469.922L632.529 469.532L630.882 469.633L630.403 470.245L630.949 471.035L631.794 471.346L632.295 471.023L632.874 471.124L634.098 472.537L635.511 475.664L635.834 478.368L635.233 481.672L633.33 483.998L631.95 484.955L631.661 485.445L631.394 487.358L630.415 489.907L629.179 491.32L628.1 494.925L627.488 495.281L621.757 495.248L619.844 497.54L619.665 498.007L620.322 501.479L619.688 502.926L619.198 505.53L619.521 505.685L616.706 508.3L615.326 508.601L614.703 509.157L615.526 509.936L612.9 516.668L610.786 520.796L610.686 521.631L612.288 521.776L612.611 522.454L612.377 523.033L609.562 524.123L598.98 529.164L597.455 529.387L597.477 528.875L596.932 528.686L594.117 528.385L593.483 528.452L591.68 529.498L590.289 529.676L586.728 529.765L586.328 529.409L585.76 529.498L581.198 531.479L580.03 532.335L578.127 533.192L577.57 532.881L574.688 533.07L571.45 534.561L568.758 535.384L568.001 535.93L566.61 536.742L564.162 536.987L562.014 538.122L560.646 539.502L558.654 540.247L556.006 540.525L553.402 540.436L553.391 539.891L553.78 539.346L553.68 538.956L552.356 539.323L552.155 541.883L552.423 542.139L552.367 543.073L551.532 544.164L550.086 544.52L549.452 544.042L545.434 545.154L545.223 544.564L542.986 544.832L541.74 544.553L539.481 540.87L540.839 540.08L540.26 538.177L538.257 537.254L536.266 535.885L535.475 534.094L536.065 532.358L536.277 528.519L535.987 525.247L538.057 522.221L538.836 519.795L538.892 518.382L538.636 517.97L534.519 516.501L533.406 516.557L533.094 516.957L532.226 517.302L530.435 517.358L530.468 516.412L529.545 514.198L528.098 512.206L527.686 509.747L527.341 509.057L526.462 508.234L526.674 506.075L528.365 503.816L528.432 503.193L527.987 501.468L525.895 500.122L525.249 499.443L525.572 496.806L526.206 495.682L525.984 494.525L522.345 490.797L520.899 491.12L519.953 491.832L518.117 490.964L515.468 491.086L515.123 491.765L515.346 492.277L514.856 493.378L511.763 494.135L510.528 493.657L508.848 492.043L507.724 493.434L498.622 494.191L498.11 494.725L497.576 496.049L497.876 498.875L497.42 499.365L496.096 498.786L496.084 495.693L495.806 494.625L495.406 494.191L494.783 494.135L494.493 494.346L494.037 495.604L493.291 496.65L492.691 497.006L492.001 496.984L490.654 494.647L490.287 493.067L490.443 492.054L488.573 491.175L486.148 489.595L483.933 490.252L482.131 490.007L480.272 490.396L475.499 489.328L472.661 489.239L470.736 487.514L469.902 487.358L468.233 488.037L466.641 489.918L464.505 490.33L462.112 491.565L460.755 492.822L461.1 489.907L460.443 486.335L461.545 481.683L462.19 481.405L463.147 481.917L463.548 481.661L463.559 481.283L462.936 480.604L463.57 478.49L465.395 476.153L466.441 475.33L466.942 475.174L467.876 475.352L468.789 475.04L469.724 473.594L469.657 472.481L471.003 469.744L472.572 467.407L475.054 466.806L477.813 465.738L481.941 466.428L485.491 464.603L487.183 464.937L488.64 466.517H489.007L492.245 463.268L496.841 460.33L499.078 461.32L503.373 461.142L505.02 461.454L506.967 461.443L507.612 461.343L508.224 460.808L513.065 462.878L513.844 463.735L519.285 460.686L519.819 459.44L520.776 458.438L522.067 458.216L525.505 455.924L524.181 452.073L524.749 449.97L525.561 448.969L525.75 448.179L525.55 447.066L525.027 446.387L523.269 445.753L522.267 446.276L521.054 445.041L521.533 442.66L525.138 439.31L527.72 436.295V435.627L525.884 430.553L524.304 429.407L523.358 429.029L522.412 427.682L522.868 426.046L524.025 424.656L524.782 422.886L524.437 421.139L525.027 419.448L526.44 419.314L528.988 417.634L532.727 416.633L533.317 416.043L532.549 411.303L531.959 411.091L531.492 410.412L531.447 408.298L532.26 407.519L532.894 406.473L532.349 405.183L531.548 405.071L532.349 401.533L532.76 401.221L534.062 400.965L537.156 402.234L537.601 402.089L538.235 401.488L537.59 397.293L538.892 395.635L541.584 397.282L542.586 399.241L546.18 399.619L547.293 398.495L547.86 401.177L546.269 405.005L546.714 405.26L548.205 404.248L548.984 403.135L549.785 402.99L552.155 403.413L553.313 402.556L555.371 399.697L556.473 399.864L558.064 399.274L560.078 397.549L561.135 396.247L563.383 395.791L567.133 393.721L567.845 392.486L572.597 389.115L576.847 387.356L578.85 387.457L580.185 388.013L582.611 388.046L585.148 388.636L586.094 389.148L584.659 392.197L584.492 393.187L584.781 394.845L585.46 395.402L591.391 397.026L592.103 396.837L593.004 395.591L595.096 394.6L597.066 394.311L600.103 395.146L601.327 395.747L606.168 399.797L607.258 399.597L609.673 401.399L612.488 402.757L613.523 403.002L614.091 402.768L615.793 404.148L620.678 402.779L621.101 402.979L628.356 409.878L628.846 414.285L629.48 414.051L632.384 414.552L634.02 413.995L635.489 412.894L637.703 413.061L640.741 413.684L643.256 414.886L645.693 415.564L648.052 415.531L651.201 418.28L652.013 418.702L653.003 418.78L653.871 419.915L654.338 421.217L652.703 424.644L647.184 429.34L647.017 432.289L647.64 433.424V433.891L646.505 434.681L643.745 434.414L642.833 435.393L641.92 439.066L641.331 443.962L641.575 444.24L641.965 444.028L642.187 443.528L642.9 443.261L643.545 444.629L643.3 446.309L643.467 446.877L648.074 450.282L648.664 451.439L648.675 452.029L647.918 453.531L648.307 454.455Z" fill="url(#paint9_radial_657_1856)" stroke="#8D8D8D" stroke-width="0.55637"/>
<path d="M460.754 492.822L460.309 495.56L459.997 496.005L458.328 496.873L456.859 496.917L456.336 497.162L454.979 498.308L452.764 501.29L451.952 502.014L450.828 502.347L450.138 504.217L449.96 507.477L447.078 511.527L446.01 512.106L445.754 512.529L446.099 514.677L446.01 515.734L444.664 518.337L442.438 520.852L442.827 521.798L442.516 523.144L440.914 524.291L440.468 525.637L438.543 527.518L437.141 530.233L434.972 532.313L426.559 537.354L425.157 538.623L424.334 540.336L423.399 541.538L417.379 544.064L416.144 544.976L415.109 547.569L415.131 548.849L413.518 552.81L412.772 553.567L410.925 554.691L409.69 555.047L409.323 555.436L407.576 564.249L407.175 565.162L404.527 566.897L401.689 564.305L397.895 562.202L393.455 564.394L392.699 565.228L390.851 565.774L387.98 566.252L385.354 565.74L384.231 565.017L383.708 560.266L383.352 559.487L382.35 558.429L382.094 555.681L382.662 554.19L381.949 553.311L381.849 552.821V549.628L380.859 547.436L380.191 544.387L380.136 543.585L380.792 542.072L380.814 540.281L379.067 539.068L378.645 538.178L378.467 535.774L376.631 533.749L374.216 533.46L372.536 533.805L370.499 533.482L367.762 531.301L367.139 529.643L365.425 530.01L363.011 533.059L361.898 532.391L359.984 533.293L358.782 533.471L356.846 532.703L353.997 532.158L350.147 532.414L346.075 531.624L345.541 530.611L343.326 530.466L342.336 531.045L339.554 530.066L340.567 521.976L340.088 519.328L340.756 517.748L341.846 516.123L342.514 509.413L341.779 506.821L341.724 504.896L340.878 503.827L340.4 503.727L339.854 504.45L339.142 500.823L338.263 498.742L336.917 496.494L336.527 494.458L341.012 491.899L341.857 490.919L337.184 486.624L343.17 473.917L344.417 473.85L344.105 471.48L343.282 471.335L346.876 459.841L347.61 458.55L344.172 452.04L344.205 449.915L344.984 450.138L346.119 451.362L348.512 453.053L354.765 450.861L357.046 448.635L359.294 445.353L359.394 444.051L360.952 442.437L363.834 442.471L365.57 442.226L366.427 442.604L368.274 442.037L369.776 440.646L372.024 440.101L373.437 440.323L374.283 441.603L377.387 442.994L380.303 443.517L381.026 443.906L381.326 444.863L382.194 445.998L385.566 447.289L386.968 448.524L388.348 449.158L393.377 448.457L394.779 447.567L395.325 446.621L396.916 445.942L399.631 446.02L401.4 447.178L401.734 448.702L402.001 448.98L403.103 449.025L405.473 448.046L406.597 448.112L412.85 441.425L414.341 441.28L412.973 448.635L410.97 449.414L409.123 452.563L408.911 453.075L409.078 453.665L410.525 453.787L412.461 455.2L417.602 455.501L418.236 454.867L421.196 454.778L422.164 454.867L423.466 455.501L425.191 455.156L425.402 457.126L425.113 459.996L425.369 461.232L425.68 461.688L426.415 461.899L427.683 461.154L430.187 462.155L430.276 462.622L428.818 464.581L428.184 465.883L427.895 466.818L428.039 467.185L432.268 467.964L435.361 467.786L438.365 469.655L439.634 469.844L441.236 470.634L441.982 471.313L445.398 473.049L446.155 473.995L449.882 475.486L451.54 475.53L453.654 476.009L455.457 477.733L458.962 478.412L461.922 480.905L462.189 481.406L461.544 481.684L460.442 486.335L461.099 489.907L460.754 492.822Z" fill="url(#paint10_radial_657_1856)" stroke="#8D8D8D" stroke-width="0.55637"/>
<path d="M291.629 377.365L293.264 375.773L297.838 372.914L298.416 370.188L300.008 365.981L301.042 364.78L302.867 364.19L303.346 363.734L303.991 362.799L304.57 360.295L306.417 358.059L307.04 355.566L307.118 353.663L306.473 352.005L306.517 349.724L304.815 346.008L303.813 346.041L303.168 345.474L302.689 341.857L302.845 340.388L304.358 339.187L305.916 337.239L306.105 336.405L304.536 332.41L303.346 331.932L302.111 331.809L298.216 331.909L296.858 330.674L297.126 330.051L278.031 329.995L279.032 319.981L277.363 316.921L277.063 314.962L277.096 314.072L278.209 310.155L277.786 308.008L278.832 306.149L277.909 303.623L277.742 302.077L277.452 301.398L276.584 300.875L276.518 300.485L277.953 294.933L278.799 293.353L278.131 291.973L276.573 290.894L329.818 290.538L331.164 289.725L332.477 283.917L334.013 279.221L333.501 277.062L332.767 275.538L332.655 274.592L333.123 273.646L334.08 272.934L335.415 270.909L335.715 269.785L335.337 268.85L335.404 268.005L335.626 267.326L336.939 265.99L338.241 267.192L340.968 271.71L341.413 273.668L342.937 278.075L344.406 280.222L345.263 282.025L345.007 284.74L345.541 287.411L346.353 289.859L348.056 291.094L351.394 294.154L355.155 296.046L355.411 297.092L355.366 298.316L355.622 298.861L356.679 299.306L357.592 299.117L359.406 299.617L360.007 300.419L360.229 301.62L360.619 301.977L362.143 301.476L366.249 303.134L404.127 305.827L474.196 309.699L473.473 310.834L472.85 312.937L471.626 314.328L471.136 317.822L470.658 318.768L470.246 319.068L468.087 324.955L467.486 328.259L467.442 331.542L465.35 338.207L465.417 339.164L466.963 340.655L466.785 341.623L465.873 342.614L465.817 343.17L467.041 345.674L466.518 349.357L466.529 351.104L467.108 351.749L467.597 355.143L466.774 358.214L467.865 361.931L468.933 362.498L469.823 362.521L469.912 363.222L469.612 364.479L468.532 365.436L468.143 366.438L468.321 369.464L467.887 370.655L465.661 374.182L464.515 377.109L463.169 377.977L463.302 383.741L461.522 387.179L460.876 390.228L461.411 391.497L461.422 392.387L460.12 395.58L459.185 398.841L457.638 400.432L456.292 401.244L454.923 400.487L453.733 400.777L451.897 401.901L449.76 404.059L449.337 404.883L448.625 409.445L447.835 410.513L445.632 415.176L445.276 415.487L442.249 416.444L439.3 416.589L437.743 419.504L435.795 420.584L435.706 422.297L434.794 423.888L433.37 425.046L432.813 426.17L432.446 428.339L431.055 430.587L428.919 432.557L426.671 433.491L425.892 434.348L425.469 437.586L422.632 441.87L422.187 445.665L422.365 446.455L423.933 448.892L424.134 452.708L425.191 455.156L423.466 455.501L422.164 454.867L421.196 454.778L418.236 454.867L417.602 455.501L412.461 455.201L410.525 453.788L409.078 453.665L408.911 453.076L409.123 452.564L410.97 449.415L412.973 448.636L414.342 441.281L412.851 441.425L406.597 448.113L405.473 448.046L403.103 449.025L402.001 448.981L401.734 448.703L401.4 447.178L399.631 446.021L396.916 445.943L395.325 446.622L394.78 447.568L393.378 448.458L388.348 449.159L386.968 448.525L385.566 447.289L382.195 445.999L381.327 444.864L381.026 443.907L380.303 443.517L377.388 442.994L374.283 441.603L373.437 440.324L372.024 440.101L369.776 440.646L368.274 442.037L366.427 442.605L365.57 442.226L363.834 442.471L360.952 442.438L359.395 444.051L359.294 445.353L357.047 448.636L354.766 450.861L348.512 453.053L346.12 451.362L344.985 450.138L344.206 449.915L343.471 449.17L343.115 448.28L343.716 447.49L341.001 445.097L339.577 445.798L338.998 445.743L337.696 444.986L337.195 444.207L334.948 442.638L332.845 441.792L332.511 441.436L332.177 440.19L331.921 436.93L331.242 434.96L331.031 430.888L332.01 429.063L333.278 427.85L333.657 425.869L333.601 423.766L332.533 423.833L332.088 424.5L331.665 424.678L301.777 423.477L300.608 409.401L294.633 402.579L300.063 402.513L299.674 394.111L296.736 388.192L296.191 386L296.48 384.82L297.159 384.208L297.882 382.784L296.28 379.523L292.819 378.366L291.629 377.365Z" fill="url(#paint11_radial_657_1856)" stroke="#8D8D8D" stroke-width="0.55637"/>
<path d="M474.195 309.699L404.126 305.826L366.248 303.133L362.142 301.475L360.618 301.976L360.228 301.631L360.006 300.418L359.394 299.617L357.58 299.116L356.668 299.306L355.611 298.872L355.355 298.315L355.399 297.091L355.143 296.045L351.382 294.154L348.044 291.082L346.33 289.847L345.529 287.399L344.995 284.74L345.251 282.025L344.394 280.211L342.914 278.063L341.39 273.668L340.956 271.71L338.23 267.192L336.917 265.99L336.282 265.367L336.115 263.186L335.403 261.784L333.634 260.048L332.443 259.403L332.032 258.768L331.108 256.165L331.141 254.907L331.787 253.828L333.4 252.57L334.268 251.113L367.539 179.63L365.525 177.772L365.67 176.904L365.458 176.37L363.912 176.759L362.966 177.438L360.885 176.57L359.661 174.156L356.668 172.542L355.255 171.051L355.166 170.383L353.697 169.471L352.172 169.304L349.669 168.581L347.02 167.123L344.928 166.378L343.426 165.165L342.725 164.163L337.629 161.337L332.466 157.142L332.132 156.652L332.087 155.617L331.475 153.581L329.428 152.212L328.649 152.424L328.248 152.201L326.212 149.998L326.268 147.65L326.657 146.882L326.457 146.426L324.576 145.48L324.309 144.724L324.109 142.198L324.587 140.584L324.142 135.176L322.373 116.293L323.208 116.649L323.686 117.295L323.664 117.829L324.165 118.274L325.188 118.585L326.713 117.795L327.236 116.894L330.251 117.15L331.153 115.981L330.552 113.967L332.543 113.567L334.112 111.753L337.05 112.877L339.142 112.91L339.743 111.219L343.448 109.416L345.64 109.85L346.931 109.728L347.476 109.45L348.812 107.803L349.257 106.245L350.881 105.021L351.838 104.899L352.562 105.41L354.91 104.153L355.366 104.275L355.778 105.377L356.59 105.878L358.849 106.412L360.64 106.69L361.263 106.022L363.122 105.588L363.99 105.9L364.902 105.889L365.859 105.511L368.352 105.844L373.548 107.38L374.616 107.224L375.729 106.256L375.696 103.719L373.392 100.937L372.012 100.236L372.558 98.3668L374.015 96.7533L374.327 95.5182L374.672 95.329L375.462 95.5404L376.386 96.3861L379 97.6213L391.93 95.0286L393.678 96.9091L394.812 96.9759L395.302 96.6532L395.992 97.2874L396.404 99.8467L395.714 101.293L395.436 106.345L395.703 107.947L396.048 108.548L397.35 108.571L398.551 108.248L402.323 108.66L403.759 109.205L405.907 110.373L406.652 111.263L407.197 112.688L408.521 112.821L409.79 113.756L410.68 114.846L411.615 115.147L413.095 114.991L413.518 114.524L414.564 114.368L417.724 117.328L418.48 117.295L419.026 118.608L418.269 118.863L418.058 119.665L418.903 122.814L421.151 125.329L424.011 126.141L424.2 126.508L423.722 130.002L423.933 132.35L424.678 134.03L425.368 134.653L426.025 136.667L425.88 138.425L427.549 142.298L428.462 142.509L429.33 142.109L432.59 145.758L432.501 148.462L432.957 149.508L434.014 149.72L434.382 150.243L434.727 152.001L434.493 152.769L434.615 154.215L436.696 155.762L437.175 157.431L438.788 158.577L441.893 159.334L443.339 159.2L444.196 158.822L445.242 158.889L444.652 159.712L444.975 161.481L444.786 162.071L443.35 163.306L441.804 163.496L441.247 163.295L440.312 162.416L439.578 162.249L435.817 164.007L435.405 164.608L433.625 165.409L432.924 165.387L431.199 166.044L431.244 166.689L438.432 165.51L439.411 166.244L439.556 166.756V167.49L438.866 168.047L439.2 168.447L439.901 168.225L440.858 167.112L441.993 167.101L442.582 166.8L443.25 166.934L444.441 166.467L445.709 165.832L449.359 163.228L451.028 162.839L453.076 161.938L456.592 159.89L457.193 158.777L457.938 158.199L460.264 157.075L460.998 156.274L460.72 155.528L460.954 155.072L462.211 154.76L463.424 154.827L463.88 155.061L464.303 159.289L463.725 162.16L464.092 163.963L464.993 165.743L466.451 167.245L466.785 169.07L466.651 169.593L464.604 171.641L464.081 171.785L463.113 171.207L461.087 170.628L459.685 170.283L458.65 170.439L456.28 169.282L455.991 168.035L455.012 167.446L452.475 171.696L451.796 174.334L452.553 177.638L453.087 178.351L454.11 179.04L452.987 177.772L452.508 174.779L452.642 174.2L455.501 169.504L458.072 170.817L458.194 171.318L461.009 174.044L460.731 176.292L459.908 176.904L460.353 179.497L460.932 180.754L462.178 181.589L463.001 181.756L463.58 182.301L463.202 181.589L462.345 181.322L461.009 180.164L460.765 179.408L461.143 174.734L462.055 173.41L463.647 174.222L464.57 175.558L464.47 176.437L465.805 177.394L466.084 177.071L464.971 175.669L463.947 173.332V172.843L466.462 170.261L468.265 170.361L470.412 171.073L470.79 171.696L470.112 172.353L470.468 172.664L471.002 172.698L472.148 172.509L473.628 171.507L478.179 170.439L479.036 170.662L480.972 171.841L484.499 171.374L485.69 170.917L486.825 169.794L487.916 169.137L489.852 168.57L490.708 168.648L490.775 169.482L488.505 173.955L488.238 175.624L487.726 176.815L486.803 177.961L486.792 178.94L487.437 180.52L487.081 183.269L488.06 181.945L488.071 180.387L489.785 177.049L491.042 173.499L492.289 171.763L492.589 171.463L493.435 171.407L494.08 171.018L496.105 170.762L497.085 169.26L498.765 167.379L500.278 164.864L500.857 164.352L501.736 164.898L502.426 164.386L504.228 166.99L505.552 167.646L505.497 166.823L505.107 165.988L505.797 164.864L509.703 164.297L508.557 163.941L504.651 164.452L504.306 164.219L504.629 161.515L505.196 161.192L505.942 161.615L507.077 161.737L508.268 158.288L507.511 156.741L507.544 155.985L508.846 153.97L512.006 151.211L512.407 151.122L513.642 152.39L516.902 150.065L517.414 149.987L517.859 150.488L517.971 151.122L517.615 151.867L518.805 151.689L519.707 151.044L520.107 150.176L520.808 149.965L521.12 150.131L521.943 151.678L523.423 153.013L523.646 152.39L523.523 151.968L522.455 151.422L522.299 151.1L522.155 149.764L522.344 149.297L522.833 149.086L525.37 149.375L526.683 150.098L527.373 151.233L529.187 152.023L531.023 151.155L531.613 153.536L531.057 153.881L531.023 154.538L532.047 153.959L533.338 151.344L533.76 151.6L533.505 153.08L533.961 153.57L536.754 153.281L537.254 154.004L537.766 155.873L537.099 156.93L538.045 156.374L538.334 156.786L540.437 156.941L544.365 155.562L544.02 157.32L543.185 159.356L544.821 158.811L545.478 158.121L546.179 159.924L545.322 160.424L544.799 161.57L544.977 163.106L544.187 167.991L543.553 168.814L542.284 168.981L542.228 169.671L542.529 170.216L543.63 170.038L544.109 170.628L544.02 172.42L543.018 175.78L542.618 176.57L540.682 178.317L540.125 180.966L540.27 182.79L536.175 186.229L537.332 187.987L536.453 188.888L536.654 190.913L536.142 192.338L535.218 193.951L533.571 195.91L531.39 197.623L529.61 202.842L529.287 204.956L528.764 206.303L526.049 208.884L524.803 209.396L524.113 212.601L522.388 213.903L521.91 215.182L520.185 217.597L518.883 218.621L516.268 218.365L499.9 231.528L500.445 231.618L502.993 232.519L505.074 232.252L506.509 232.385L507.644 234.232L508.078 234.577L509.046 234.733L510.449 236.035L510.404 236.736L509.992 237.482L509.191 237.893L508.112 237.971L507.789 238.283L507.889 239.852L509.013 241.343L507.989 244.403L507.277 244.937L505.653 245.449L505.374 245.961L505.697 247.296L505.486 248.787L504.039 248.954L502.359 250.445L501.413 251.858L501.58 253.539L501.313 254.095L498.531 255.43L494.737 256.699L491.988 258.679L491.777 259.069L492.255 261.506L492.322 264.477L490.898 266.814L489.329 268.683L489.162 269.317L489.351 270.296L490.007 271.365L491.866 273.301L492.7 273.657L492.867 273.991L492.133 278.486L490.174 284.217L488.973 285.118L487.081 288.723L486.881 289.825L485.835 291.539L485.011 292.484L483.843 292.662L482.318 293.686L481.172 295.823L479.826 297.692L478.513 298.905L477.233 300.663L475.976 305.626L474.195 309.699ZM497.741 164.697L492.711 166.878L488.939 167.457L486.692 167.112L485.968 168.369L483.921 169.693L483.12 169.015L482.441 167.312L482.185 167.624L482.652 168.992L482.274 169.894L481.484 170.35L477.289 168.525L476.399 169.326L471.736 170.728L468.175 170.094L467.274 169.415L467.007 167.357L466.751 166.901L465.516 165.766L464.337 163.985L464.103 162.004L464.682 158.944L465.371 158.522L467.33 158.922L468.365 158.088L468.454 157.464L467.007 157.943L465.65 157.798L464.604 157.008L464.403 155.84L464.782 150.187L465.594 149.341L465.983 150.176L467.942 150.844L468.554 150.777L468.042 150.31L466.629 150.065L465.627 147.661L466.028 145.792L467.018 143.6L468.498 142.12L469.566 141.485L471.057 140.94L472.526 140.796L476.376 141.374L484.399 143.344L488.516 142.832L488.639 142.498L489.907 141.808L492.311 141.396L495.527 141.719L498.642 142.632L505.853 143.577L506.554 144.1L506.498 145.469L505.719 146.293L504.963 147.962L504.562 150.91L503.605 154.582L502.17 155.339L501.78 156.107L502.036 157.431L499.833 160.302L498.286 164.197L497.741 164.697ZM445.209 164.508L444.374 163.941L445.598 161.437L445.498 159.445L445.776 159.211L448.369 158.677L449.37 157.72L449.537 157.164L449.315 154.56L450.271 151.689L451.674 150.031L454.222 148.396L457.415 148.173L458.216 150.799L456.992 153.236L456.047 156.619L454.823 157.364L453.332 159.623L452.464 160.424L446.967 164.108L445.209 164.508ZM476.899 139.026L475.753 138.748L473.027 138.837L472.148 138.659L471.825 138.37L471.402 137.157L471.414 135.777L473.094 135.31L475.197 135.354L477.634 133.919L482.986 133.251L483.843 133.541L484.6 134.297L484.399 135.432L481.551 136.979L479.57 139.738L478.346 140.295L476.899 139.026ZM482.229 139.026L484.299 137.691L486.502 137.724L488.338 138.414L488.928 139.516L488.984 140.206L488.005 141.063L484.833 141.374L483.531 141.73L481.017 140.74L480.794 140.15L482.229 139.026ZM463.335 143.911L462.779 143.622L462.1 143.666L460.386 142.899L460.62 141.608L461.332 140.584L463.469 140.139L466.095 139.138L467.564 139.227L468.454 139.983L468.554 140.128L466.406 141.919L465.216 142.298L463.335 143.911ZM473.817 133.129L472.905 132.795L472.715 130.948L472.882 130.28L474.184 128.823L476.911 127.799L477.189 127.932L477.778 128.689L477.823 129.679L475.653 131.894L473.817 133.129ZM458.428 155.628L458.272 155.172L458.484 154.137L459.641 151.011L462.523 149.13L463.324 148.818L464.092 148.974L463.914 150.966L462.178 151.456L460.375 153.893L458.428 155.628ZM470.568 136.078L469.244 135.733L468.91 135.199L469.889 134.13L470.679 129.735L471.67 128.366L471.992 128.511L472.07 128.867L472.048 131.627L472.715 133.707L472.359 134.687L471.213 135.132L470.568 136.078ZM454.088 147.416L453.788 147.205L453.921 146.526L454.533 146.126L455.857 144.223L456.703 142.509L457.515 141.775L459.129 141.174L458.906 142.832L458.461 143.945L456.547 145.792L454.088 147.416ZM469.522 139.594L468.854 139.427L467.92 138.637L466.851 136.812L466.796 136.389L467.052 136.066L467.953 135.421L470.012 136.356L470.334 136.834L470.601 139.16L469.522 139.594ZM463.535 173.599L462.812 173.477L461.833 172.898L461.065 173.41L460.231 173.098L458.361 171.162V170.484L459.785 170.472L463.19 171.941L463.535 173.599ZM440.001 167.435L440.045 166.288L439.823 165.955L440.49 164.853L443.117 163.874L443.985 164.297L444.953 165.254L444.63 165.643L443.484 166.166L440.657 166.622L440.001 167.435ZM454.133 159.99L453.932 159.957L453.944 159.568L454.544 158.522L456.536 156.719L457.004 155.339L457.059 153.893L457.326 153.559L457.682 154.048V155.729L456.692 158.766L456.002 159.49L454.133 159.99ZM461.143 148.974L462.979 145.681L463.958 145.447L464.748 145.658L465.049 146.626L464.403 147.416L461.143 148.974ZM496.105 170.083L495.171 169.693L494.792 168.514L495.95 166.6L497.14 166.233L497.352 166.344L497.329 167.168L496.506 169.66L496.105 170.083ZM458.851 148.418L458.25 148.195L458.606 145.925L460.086 143.911L460.342 143.956L461.777 144.935L461.766 145.213L460.041 145.925L458.851 148.418ZM461.332 154.015L462.133 154.048L461.688 154.549L460.642 154.894L460.52 156.14L459.641 156.93L457.76 157.865L457.582 157.665L457.883 156.741L458.406 156.04L460.331 154.182L461.332 154.015ZM436.229 165.376L435.617 165.165L435.539 164.775L436.017 164.33L439.979 162.55L440.58 163.329L440.568 163.551L439.011 164.363L436.229 165.376ZM506.921 160.057L505.775 159.846L504.863 158.967L505.831 157.576L507.322 157.565L507.533 158.889L507.422 159.545L506.921 160.057ZM465.472 139.026L462.845 139.805L462.189 139.816L461.989 139.583L463.135 138.425L464.292 137.858L465.449 138.047L465.939 138.425L466.106 138.681L465.939 138.915L465.472 139.026ZM459.607 148.585L459.518 147.739L459.797 147.183L462.556 145.558L461.555 147.784L460.653 148.485L459.607 148.585ZM461.989 153.626L461.488 153.492L461.41 153.236L462.278 151.567L463.602 151.589L463.469 153.091L461.989 153.626ZM493.19 171.24L492.878 170.984L493.88 169.204L494.636 168.759L494.892 169.593L495.46 170.005L495.171 170.584L494.692 170.962L493.991 170.762L493.19 171.24ZM463.524 145.291L462.534 145.213L462.556 145.002L465.182 142.954L465.227 144.023L464.971 144.724L464.693 145.102L463.524 145.291ZM538.59 156.663L538.167 156.074L538.378 155.228L539.513 154.215L539.792 154.382L540.047 156.329L538.59 156.663Z" fill="url(#paint12_radial_657_1856)" stroke="#8D8D8D" stroke-width="0.55637"/>
<path d="M624.05 189.155L625.507 189.288L626.275 189.033L628.768 189.6L629.869 190.546L630.225 191.214L630.103 192.104L628.89 194.162L627.132 196.354L626.932 197.979L627.254 199.414L629.257 204.667L632.762 211.81L633.252 213.735L634.765 215.505L634.743 216.35L633.92 217.864L634.799 222.17L634.265 223.95L635.377 226.187L636.045 229.514L635.388 231.272L634.498 231.918L635.522 232.685L635.644 233.108L636.69 242.188L636.423 242.689L637.269 245.549L638.437 251.335L639.561 254.306L641.019 255.029L643.868 255.552L644.724 256.843L644.713 257.611L643.044 260.114L641.776 263.575L641.865 264.654L642.621 265.411L642.555 266.88L640.563 267.058L639.984 267.425L639.862 267.926L639.928 268.983L640.596 270.24L640.518 272.677L642.321 274.435L642.643 275.036L642.577 277.562L641.753 279.521L637.425 283.827L636.345 284.139L633.797 285.618L633.196 286.587L631.004 288.489L628.089 289.903L627.588 291.193L625.919 293.753L624.751 294.498L623.872 294.298L621.646 294.721L621.769 297.391L619.699 299.394L619.343 299.339L618.653 298.649L616.249 298.638L615.337 299.728L614.48 300.129L611.442 300.507L609.762 301.998L608.85 303.356L606.958 303.467L605.311 304.179L601.973 304.301L601.06 303.99L600.849 303.678L600.994 302.944L599.091 301.853L597.611 301.419L596.064 302.031L593.694 302.51L593.338 302.31L592.882 301.275L591.213 300.763L589.043 300.785L585.438 302.621L585.371 303.656L587.863 308.597L587.997 309.876L587.674 312.736L587.396 313.749L586.595 314.706L583.312 320.325L580.007 323.018L578.505 323.485L576.858 322.895L575.367 322.706L572.919 323.541L571.617 324.531L570.872 325.499L569.603 325.922L568.769 327.535L568.401 327.769L566.054 327.569L564.051 328.147L559.399 326.089L557.43 323.318L556.84 320.859L556.106 319.702L554.503 318.211L551.911 318.233L548.639 317.999L548.695 315.863L548.984 314.683L550.264 311.957L550.408 304.88L551.254 303.322L551.287 302.755L549.362 299.35L548.839 295.8L548.061 293.641L548.873 291.416L550.764 289.858L552.1 287.098L552.244 285.418L552.623 284.495L552.957 284.261L554.559 281.212L555.26 278.63L555.694 275.326L556.784 272.01L559.155 269.84L562.181 268.994L565.085 268.649L566.276 268.237L568.168 266.535L569.336 266.49L570.827 265.912L574.01 263.052L576.613 262.039L578.85 259.814L579.551 258.846V258.334L581.665 256.198L582.222 255.953L583.156 255.686L583.412 256.02L584.659 255.73L585.771 255.063L587.396 254.851L588.52 255.085L591.313 257.11L592.993 256.999L595.708 256.042L596.632 255.997L597.355 256.309L599.892 255.986L601.238 254.528L601.795 252.904L601.928 251.557L602.251 251.068L602.685 248.62L602.54 247.674L602.351 247.118L600.56 246.105L598.579 243.846L598.011 241.287L597.889 238.939L598.078 236.179L602.64 231.25L602.874 230.638L602.985 227.934L602.373 224.618L600.615 221.502L601.884 218.309L602.195 216.673L601.773 215.26L600.404 214.325L600.014 212.189L600.871 211.02L601.583 210.831L602.496 208.628L604.599 206.569L605.578 204.533L605.534 202.541L608.783 198.747L609.684 198.925L613.367 198.413L617.963 193.995L619.955 191.469L620.389 189.767L619.677 189.177L619.432 188.376L619.944 186.774L620.756 186.907L622.392 187.875L622.959 188.443L622.814 188.788L624.05 189.155Z" fill="url(#paint13_radial_657_1856)" stroke="#8D8D8D" stroke-width="0.55637"/>
<path d="M502.815 603.64L496.985 603.607L496.617 604.097L494.681 604.364L493.836 604.286L493.713 603.852L491.966 604.486L490.464 606.077L486.736 608.448L485.134 608.269L483.765 607.58L480.282 604.686L479.136 604.252L478.291 604.241L475.13 605.054L472.538 605.243L471.636 605.209L470.056 604.364L468.821 604.52L467.119 605.243L466.462 606.879L465.65 607.847L463.569 608.937L459.596 608.481L457.371 609.761L456.57 610.617L455.802 612.387L456.748 615.714L455.78 616.671L454.756 616.693L453.921 617.116L453.732 617.661L452.252 615.558L447.523 615.703L443.339 615.224L441.581 613.911L441.403 613.455L440.257 612.754L435.517 612.353L429.63 610.484L427.027 611.118L424.033 611.085L421.786 609.516L421.429 608.948L420.25 608.681L419.66 608.67L418.87 609.082L414.831 609.059L414.586 607.713L411.771 603.062L411.793 600.18L410.692 596.975L406.886 594.338L405.673 595.595L403.314 595.473L402.09 595.951L400.899 596.953L399.275 595.751L398.362 595.818L398.051 593.37L398.785 591.623L399.976 590.21L401.333 587.784L401.4 587.406L400.855 586.571L400.877 585.191L401.879 581.141L403.281 577.78L403.002 575.221L404.427 572.573L404.193 571.438L403.258 570.459L402.913 568.678L403.648 567.499L404.527 566.898L407.175 565.162L407.576 564.249L409.323 555.437L409.69 555.047L410.925 554.691L412.772 553.567L413.518 552.81L415.131 548.849L415.109 547.569L416.144 544.977L417.379 544.064L423.399 541.538L427.027 538.99L431.288 539.714L435.75 539.591L439.389 539.914L440.736 539.224L441.125 538.556L441.937 538.145L443.239 538.467L444.886 539.335L447.69 539.847L450.628 541.06L452.085 541.205L453.276 540.604L456.147 540.593L457.015 541.705L458.962 542.64L462.868 543.53L463.569 544.098L464.359 545.566L466.284 545.644L466.751 545.266L468.587 545.433L469.322 546.034L475.23 546.179L478.535 545.233L479.793 546.957L483.787 550.106L484.778 552.065L484.789 555.114L484.355 555.759L484.177 556.661L484.6 558.708L486.046 560.388L485.957 562.347L485.557 562.97L487.215 566.308L488.561 567.588L489.307 567.899L489.863 568.656L489.807 569.646L490.831 571.838L491.499 572.161L491.777 572.651L491.499 573.819L490.086 576.189L490.442 578.459L491.109 578.882L492.233 579.116L494.881 578.982L498.687 578.392L499.243 578.826L501.002 578.615L502.771 578.76L504.562 580.162L504.407 580.618L503.416 581.341L502.648 585.013L503.038 585.881L504.229 586.471L504.952 585.525L506.176 582.454L507.021 582.265L509.403 582.91L508.958 585.08L509.77 588.752L511.35 589.397L511.528 590.866L510.026 592.001L509.347 593.648L508.735 593.514L509.036 591.356L510.638 590.299L509.069 590.61L508.079 591.155L507.111 591.133L506.732 590.699L506.098 590.51L505.497 590.922L505.185 591.957L505.764 592.847L504.952 593.915L504.618 594.026L501.858 593.437L500.979 592.836L500.479 592.969L500.278 593.971L500.657 594.382L502.448 595.006L504.006 594.727L506.376 595.395L506.677 595.929L505.597 596.686L503.884 599.779L502.504 600.636L499.811 601.27L499.588 601.771L502.871 601.548L503.038 602.873L502.815 603.64Z" fill="url(#paint14_radial_657_1856)" stroke="#8D8D8D" stroke-width="0.55637"/>
<path d="M582.489 548.982L582.411 548.114L582.834 547.814L586.383 548.059L589.265 547.402L586.45 545.678L584.892 545.121L581.765 545.878L580.252 547.658L579.106 548.014L578.327 547.959L576.825 545.566H576.291L575.289 546.034L574.221 547.213L570.716 548.103L570.337 549.116L570.126 551.23L572.563 551.375L573.754 552.499L572.474 553.7L571.428 553.511L569.848 553.7L569.314 553.411L567.5 551.486L567.444 551.03L568.657 547.135L569.87 545.856L572.485 544.732L573.041 544.899L576.124 544.498L577.793 543.708L579.629 541.316L578.794 539.491L576.903 539.48L573.398 540.069L571.428 539.635L570.059 537.866L569.436 536.564L568.023 535.963L568.78 535.418L571.472 534.595L574.711 533.104L577.581 532.914L578.138 533.215L580.052 532.358L581.22 531.501L585.771 529.509L586.35 529.432L586.75 529.776L590.311 529.699L591.702 529.509L593.516 528.463L594.15 528.397L596.965 528.697L597.511 528.886L597.488 529.409L599.024 529.187L609.606 524.146L612.421 523.044L612.655 522.466L612.343 521.787L610.741 521.642L610.841 520.808L612.944 516.68L615.57 509.959L614.758 509.169L615.381 508.623L616.761 508.323L619.576 505.697L621.724 506.542L622.469 511.783L625.251 513.041L630.069 514.165L633.396 513.753L635.199 514.933L635.11 516.346L634.064 518.137L633.819 520.507L635.088 528.052L634.532 528.808L631.104 530.756L624.461 532.914L621.312 534.828L617.418 538.934L617.295 540.781L617.64 542.106L617.429 543.908L616.616 545.555L614.591 546.123L607.303 545.933L600.86 546.712L598.201 546.201L597.655 545.778L597.589 545.021L598.735 543.374L599.48 541.761L599.38 541.071L598.512 540.871L595.408 542.15L595.118 542.918L595.463 543.797L596.999 545.099L597.277 546.178L596.62 546.757L594.807 547.324L593.06 547.291L584.113 548.482L582.489 548.982ZM576.802 551.197L576.057 550.117L578.405 548.393L580.475 549.439L580.953 550.218L578.216 550.774L577.759 550.384H577.236L576.802 551.197Z" fill="url(#paint15_radial_657_1856)" stroke="#8D8D8D" stroke-width="0.55637"/>
<path d="M269.776 371.689L268.34 370.075L267.851 367.983L266.115 367.405L265.158 367.761L263.144 367.85L258.615 365.836L258.604 365.391L257.869 364.712L256.456 365.368L254.253 363.499L252.562 362.42L251.605 360.795L251.293 359.248L250.136 358.814L248.166 360.061L246.809 360.027L245.24 359.137L244.272 357.657L240.789 355.899L238.608 355.71L237.339 356.311L236.338 357.257L234.747 357.067L234.402 356.734L232.02 356.166L228.615 355.855L227.77 355.376L226.457 354.052L226.123 351.86L224.365 351.315L222.262 350.235L221.349 348.321L221.027 348.099L218 347.787L217.577 347.398L216.642 343.269L215.663 342.279L215.129 343.57L214.395 343.214L214.094 342.502L214.784 340.799L213.849 339.108L212.336 338.674L210.934 334.813L210.745 332.965L212.47 329.727L212.236 327.88L210.945 325.688L210.111 323.285L210.044 320.736L210.734 320.18L211.156 318.656L212.314 317.487L212.714 315.852L212.447 314.194L211.98 313.203L211.88 311.501L212.481 309.665L211.179 307.239L210.044 306.816L208.831 307.907L208.764 308.474L207.829 309.542H207.195L204.769 308.407L199.005 308.496L192.763 310.477L190.882 310.466L189.236 311L185.931 309.598L189.558 306.749L191.695 306.104L193.419 304.09L193.586 303.467L193.408 302.031L197.815 302.321L201.008 301.953L201.809 302.365L204.38 304.958L204.792 304.936L206.149 304.056L206.294 303.255L206.75 302.666L207.952 302.109L208.809 302.254L210.333 301.82L211.78 300.473L213.827 299.338L214.25 299.439L214.962 301.953L215.719 302.543L216.475 302.454L219.302 298.938L219.012 296.991L219.602 296.056L221.549 294.654L222.061 294.676L222.996 295.288L224.988 295.399L226.323 294.209L228.693 293.786L233 294.298L232.733 292.673L232.855 290.659L235.147 289.313L236.049 288.033L236.449 286.898L236.26 286.397L235.258 285.618L235.314 284.873L236.638 283.104L239.398 282.514L239.687 282.269L239.587 280.967L241.501 280.411L243.037 277.562L255.043 277.495L257.435 278.753L257.936 279.298L258.826 281.423L260.306 282.837L263.133 283.927L264.524 287.566L265.035 287.799L266.126 287.655L266.816 287.877L267.572 291.082L271.178 292.729L271.934 292.517L272.535 290.581L274.672 289.379L276.218 289.691L276.619 290.114L276.575 290.893L278.132 291.972L278.8 293.352L277.954 294.932L276.519 300.485L276.586 300.874L277.454 301.397L277.743 302.076L277.91 303.623L278.833 306.148L277.787 308.007L278.21 310.154L277.098 314.071L277.064 314.961L277.365 316.92L279.034 319.98L278.032 329.994L297.127 330.05L296.86 330.673L298.217 331.908L302.112 331.808L303.347 331.931L304.538 332.409L306.107 336.404L305.918 337.238L304.36 339.186L302.846 340.387L302.691 341.856L303.169 345.473L303.814 346.04L304.816 346.007L306.518 349.723L306.474 352.005L307.119 353.662L307.041 355.565L306.418 358.058L304.571 360.294L303.992 362.798L303.347 363.733L302.869 364.189L301.044 364.779L300.009 365.981L298.418 370.187L297.839 372.913L293.266 375.773L291.63 377.364L290.807 377.319L287.925 375.595L286.511 374.003L278.633 375.072L277.164 374.593L276.886 374.259L273.125 374.994L272.591 374.816L272.012 373.313L269.776 371.689Z" fill="url(#paint16_radial_657_1856)" stroke="#8D8D8D" stroke-width="0.55637"/>
<path d="M322.394 116.26L324.175 135.143L303.6 135.065L303.634 135.822L301.041 139.449L299.194 142.821L299.116 144.078L297.836 147.016L297.714 147.75L297.97 148.563L299.238 150.132L299.216 150.721L298.749 151.155L296.49 151.767L294.921 153.336L293.53 153.848L291.505 153.592L290.481 150.799L288.4 148.529L285.251 147.494L283.471 147.561L282.859 148.552L280.533 149.342L279.109 150.109L277.974 151.511L277.061 154.816L277.473 156.819L277.195 158.744L276.36 161.292L276.85 163.64L274.224 162.483L272.733 162.95L272.143 162.873L270.986 160.603L269.339 158.767L267.158 157.309L266.579 157.264L261.004 152.346L261.16 151.077L263.208 151.445L264.476 149.976L264.543 149.33L263.286 144.512L262.64 143.511L261.283 142.576L260.303 140.161L259.981 134.62L260.615 133.552L261.472 130.169L260.737 128.411L260.337 126.642L262.139 125.017L262.084 124.516L261.116 123.27L260.904 120.755L259.057 115.459L256.019 111.297L256.809 109.628L257.822 105.934L257.277 105.199L255.107 104.142L253.594 104.02L252.614 104.253L251.535 103.842L250.189 102.54L250.122 101.471L249.421 101.349L248.163 101.816L247.485 101.805L246.65 101.427L245.849 100.559L246.183 100.047L246.439 97.5101L246.105 97.2653L242.355 97.0094L238.182 97.1652L234.499 96.3862L234.276 95.7186L235.167 93.7602L235.3 92.1133L234.488 90.1438L232.329 86.2047L231.517 83.9124L230.994 79.773L231.873 78.1262L231.784 77.0579L229.736 74.8324L227.333 73.6529L224.206 70.5595L223.027 68.5455L222.704 67.4772L221.435 66.754L221.157 66.32L221.191 65.3853L221.513 65.0181L222.515 65.096L223.761 65.8304L224.807 67.7554L225.486 67.8556L229.258 67.2992L230.76 67.4105L232.886 68.067L233.564 69.4023L234.176 71.5499L234.777 71.9393L235.845 71.8503L236.669 71.127L237.726 70.6819L241.264 70.86L241.787 70.9156L243.245 72.262L243.913 72.4289L244.491 72.2731L245.17 70.5373L246.628 70.6931L248.241 71.7279L252.614 76.8131L253.783 77.4474L254.573 77.5698L256.253 76.8131L257.076 75.5557L257.188 74.621L256.264 71.5499L256.665 69.6137L257.177 69.3021L259.324 69.2465L260.448 68.0225L262.173 66.8096L263.007 66.8652L267.347 68.3563L268.004 68.1671L268.894 67.366L270.04 67.0321L271.297 67.4216L272.443 67.1879L273.935 65.7636L275.047 65.4854L276.327 65.7414L277.562 65.6635L278.319 64.7176L278.374 63.2154L281.746 61.2014L284.339 61.4128L287.41 60.9788L288.4 59.7214L288.5 58.9314L289.157 57.6851L289.991 57.5405L292.05 56.539L293.274 55.3817L294.509 53.479L293.174 49.5176L291.872 49.117L292.584 48.9167L294.175 48.9946L295.065 49.3507L299.038 49.2394L300.217 48.1823L301.041 47.9375L302.565 48.4049L303.155 49.8625L304.312 50.7527L304.846 52.2772L304.101 57.7296L303.3 59.2652L301.909 60.0441L301.976 60.9677L303.767 61.4239L305.57 61.1791L308.185 62.0804L310.21 63.3045L309.231 64.8957L309.22 66.1753L311.823 69.9809L312.046 71.7056L310.366 74.9549L308.274 76.5238L307.473 78.1929L307.773 78.6269L307.84 81.0415L306.204 83.7233L305.203 86.8055L304.858 89.6653L304.757 92.6363L305.848 94.7171L306.415 96.6756L306.404 98.2334L308.151 99.3795L309.153 99.6021L309.297 100.359L308.786 106.089L308.919 106.913L310.933 107.235L310.199 108.537L310.711 109.094L313.103 109.917L314.728 112.054L317.688 115.103L322.394 116.26Z" fill="url(#paint17_radial_657_1856)" stroke="#8D8D8D" stroke-width="0.55637"/>
<path d="M511.528 590.866L511.35 589.386L509.77 588.751L508.958 585.079L509.403 582.91L507.021 582.264L506.176 582.453L504.952 585.536L504.217 586.481L503.038 585.892L502.648 585.024L503.416 581.352L504.407 580.617L504.562 580.172L502.771 578.759L501.002 578.614L499.243 578.826L498.687 578.403L494.893 578.993L492.244 579.126L491.12 578.893L490.453 578.459L490.086 576.189L491.51 573.83L491.788 572.661L491.51 572.172L490.842 571.838L489.819 569.646L489.885 568.655L489.329 567.899L488.583 567.576L487.237 566.307L485.579 562.958L485.98 562.346L486.069 560.388L484.622 558.696L484.199 556.649L484.388 555.748L484.822 555.102L484.8 552.053L483.81 550.095L479.815 546.946L478.558 545.221L475.253 546.178L469.344 546.033L468.61 545.432L466.774 545.277L466.306 545.655L464.392 545.577L463.591 544.108L462.89 543.541L458.984 542.651L457.037 541.716L456.169 540.603L453.298 540.614L452.108 541.215L450.639 541.071L447.701 539.858L444.886 539.346L443.239 538.467L441.937 538.144L441.125 538.556L440.747 539.223L439.4 539.913L435.75 539.591L431.288 539.713L427.027 538.99L423.41 541.538L424.345 540.336L425.157 538.622L426.559 537.354L434.972 532.302L437.141 530.221L438.543 527.517L440.468 525.637L440.914 524.29L442.516 523.144L442.827 521.787L442.438 520.852L444.663 518.337L446.01 515.733L446.088 514.687L445.743 512.54L445.999 512.106L447.067 511.527L449.96 507.477L450.138 504.217L450.828 502.347L451.952 502.013L452.764 501.301L454.979 498.319L456.336 497.184L456.859 496.928L458.317 496.884L459.986 496.016L460.298 495.571L460.743 492.833L462.1 491.576L464.493 490.341L466.629 489.929L468.22 488.048L469.889 487.37L470.724 487.525L472.649 489.25L475.486 489.339L480.26 490.407L482.118 490.007L483.921 490.252L486.146 489.595L488.572 491.175L490.431 492.054L490.286 493.078L490.653 494.658L491.999 496.984L492.701 497.017L493.301 496.661L494.047 495.615L494.503 494.358L494.792 494.146L495.404 494.202L495.805 494.636L496.083 495.704L496.094 498.797L497.43 499.387L497.886 498.887L497.585 496.06L498.131 494.736L498.631 494.202L507.734 493.456L508.858 492.065L510.527 493.69L511.773 494.168L514.866 493.401L515.356 492.299L515.133 491.787L515.478 491.108L518.127 490.986L519.974 491.854L520.92 491.142L522.377 490.819L526.005 494.547L526.227 495.704L525.593 496.828L525.27 499.465L525.916 500.144L528.019 501.49L528.464 503.215L528.397 503.838L526.706 506.097L526.506 508.256L527.385 509.079L527.73 509.758L528.141 512.217L529.588 514.22L530.511 516.434L530.478 517.38L532.27 517.325L533.138 516.98L533.449 516.579L534.562 516.523L538.679 517.992L538.935 518.404L538.879 519.817L538.1 522.243L536.031 525.27L536.32 528.541L536.109 532.38L535.519 534.116L536.32 535.896L538.301 537.276L540.315 538.2L540.882 540.114L539.536 540.892L541.784 544.576L543.041 544.854L545.278 544.587L545.478 545.177L549.506 544.064L550.129 544.531L551.587 544.175L552.421 543.085L552.477 542.15L552.21 541.883L552.399 539.324L553.723 538.956L553.823 539.346L553.434 539.891L553.445 540.425L556.049 540.514L558.708 540.236L560.7 539.49L562.069 538.111L564.216 536.976L566.676 536.731L568.055 535.919L569.469 536.519L570.092 537.821L571.46 539.591L573.43 540.025L576.935 539.435L578.827 539.446L579.661 541.271L577.825 543.663L576.156 544.453L573.074 544.854L572.517 544.687L569.902 545.811L568.69 547.09L567.477 550.985L567.532 551.441L569.346 553.366L569.88 553.656L569.813 553.878L567.933 554.346L566.753 553.433L565.107 554.668L564.628 555.391L564.929 555.636L564.083 556.348L560.5 558.073L557.996 558.852L557.685 559.342L557.729 560.41L558.285 562.135L557.929 562.602L556.372 562.891L555.593 562.179L554.102 561.857L550.63 561.3L549.673 561.467L548.204 561.845L546.279 562.758L545.723 563.325L544.376 565.718L542.919 566.352L542.362 566.218L543.008 565.695L542.473 564.338L541.172 563.392L540.248 564.761L540.537 565.595L540.203 566.274L531.724 570.992L530.667 571.905L530.322 573.195L526.684 576.534L523.067 578.703L520.931 579.293L515.923 582.865L513.331 585.046L512.585 585.135L512.096 585.825L513.097 586.303L513.831 586.37L514.866 585.97V586.815L514.176 588.273L512.708 589.219L511.528 590.866ZM560.834 565.261L559.12 564.538L557.829 564.739L557.284 564.316L557.395 563.448L558.452 562.724L559.665 560.666L560.466 560.944L561.201 561.667L561.346 564.905L560.834 565.261Z" fill="url(#paint18_radial_657_1856)" stroke="#8D8D8D" stroke-width="0.55637"/>
<path d="M543.542 361.529L537.578 363.109L535.641 364.6L532.793 365.824H531.068L526.027 366.937L523.223 369.252L521.243 370.253L520.731 369.986L519.05 367.071L518.438 367.037L517.871 370.709L517.103 370.798L513.376 370.042L509.893 368.406L510.516 366.67L510.271 365.847L505.23 366.436L502.159 366.058L501.536 366.659L501.202 367.772L500.368 368.606L499.099 368.551L498.42 365.101L497.185 360.973L496.028 358.881L494.748 357.423L493.435 358.503L491.799 361.162L489.986 367.772L489.285 368.028L484.756 366.436L481.317 364.534L476.944 364.089L474.496 362.942L471.826 362.497L472.404 359.894L473.762 357.802L473.795 355.899L473.172 356.233L471.158 358.558L470.424 359.927L470.201 362.019L469.823 362.52L468.933 362.497L467.864 361.93L466.774 358.213L467.597 355.142L467.108 351.748L466.529 351.103L466.518 349.356L467.041 345.673L465.817 343.169L465.873 342.613L466.785 341.622L466.963 340.654L465.416 339.163L465.35 338.206L467.442 331.541L467.486 328.258L468.087 324.953L470.246 319.067L470.657 318.767L471.136 317.821L471.625 314.327L472.85 312.936L473.473 310.833L474.196 309.698L475.999 305.592L477.256 300.64L478.536 298.882L479.86 297.658L481.206 295.789L482.352 293.652L483.877 292.628L485.045 292.45L485.857 291.504L486.903 289.791L487.104 288.689L488.995 285.084L490.208 284.194L492.167 278.463L492.901 273.968L492.734 273.634L491.911 273.278L490.052 271.342L489.385 270.284L489.207 269.305L489.363 268.671L490.932 266.79L492.367 264.454L492.3 261.483L491.822 259.057L492.033 258.667L494.782 256.687L498.576 255.418L501.358 254.072L501.625 253.515L501.458 251.835L502.415 250.422L504.095 248.931L505.531 248.764L505.742 247.273L505.419 245.938L505.698 245.426L507.322 244.914L508.034 244.38L509.069 241.32L507.934 239.829L507.834 238.271L508.157 237.959L509.236 237.87L510.037 237.459L510.449 236.724L510.482 236.012L509.08 234.71L508.112 234.554L507.678 234.209L506.543 232.362L505.108 232.229L503.027 232.507L500.479 231.606L501.069 230.893L503.984 228.835L506.165 228.245L507.133 228.301L510.226 229.992L511.784 230.081L512.841 229.503L514.778 229.825L515.434 230.593L515.523 231.739L515.835 232.095L517.192 232.129L520.976 233.72L521.91 234.866L522.433 238.761L523.145 240.43L522.912 244.569L523.168 245.771L523.913 247.028L523.902 247.518L521.932 254.361L521.588 256.998L521.899 258.111L521.621 259.88L519.674 262.15L517.715 262.896L517.515 263.686L519.674 265.155L520.141 264.854L521.665 265.121L521.944 265.511L522.066 266.49L521.376 267.814L522.322 269.417L523.301 269.339L526.639 273.968L527.652 274.913L530.189 278.274L532.57 276.783L537.322 275.737L539.325 277.094L539.414 279.042L538.701 282.658L539.135 284.16L535.363 284.55L533.872 285.151L533.238 285.763L532.481 287.354L531.669 290.336L532.081 291.783L529.154 294.62L528.865 295.399L529.087 295.866L531.402 296.189L532.448 296.957L533.271 298.726L533.338 300.573L534.028 301.731L538.345 303.9L538.446 304.49L536.621 306.504L536.765 308.34L539.147 310.143L540.248 313.336L541.739 315.562L542.529 315.762L544.51 315.529L545.623 315.862L546.535 316.352L547.214 317.264L548.638 317.999L551.91 318.232L551.142 318.956L550.897 320.046L550.274 320.569L546.023 322.817L542.451 325.732L542.24 326.144L543.675 328.147L543.275 328.581L542.151 328.881L541.15 329.56L539.458 333.444L538.334 334.245L537.778 335.536L538.034 336.559L540.104 338.729L544.098 339.475L546.179 340.576L546.235 341.422L545.612 341.923L543.342 342.824L542.863 343.892L542.963 344.449L543.353 344.816L544.499 344.616L545.523 344.938L546.168 345.506L546.491 346.218L545.422 347.008L544.143 347.475L541.973 349.334L541.762 350.279L541.706 353.529L542.095 354.92L543.141 355.654L544.31 355.921L544.766 356.199L544.955 356.667L545.011 357.846L543.497 360.494L543.542 361.529Z" fill="url(#paint19_radial_657_1856)" stroke="#8D8D8D" stroke-width="0.55637"/>
</g>
</g>
<defs>
<linearGradient id="paint0_linear_657_1856" x1="0" y1="283" x2="821.4" y2="283" gradientUnits="userSpaceOnUse">
<stop stop-color="#020202" stop-opacity="0.75"/>
<stop offset="1" stop-color="#020202" stop-opacity="0.25"/>
</linearGradient>
<linearGradient id="paint1_linear_657_1856" x1="0" y1="283.057" x2="592" y2="283.057" gradientUnits="userSpaceOnUse">
<stop stop-color="#020202" stop-opacity="0.75"/>
<stop offset="1" stop-color="#020202" stop-opacity="0.25"/>
</linearGradient>
<radialGradient id="paint2_radial_657_1856" cx="0" cy="0" r="1" gradientUnits="userSpaceOnUse" gradientTransform="translate(61.3359 262.218) rotate(28.7507) scale(145.883 282.481)">
<stop stop-color="white" stop-opacity="0.6"/>
<stop offset="1" stop-color="white" stop-opacity="0.2"/>
</radialGradient>
<radialGradient id="paint3_radial_657_1856" cx="0" cy="0" r="1" gradientUnits="userSpaceOnUse" gradientTransform="translate(64.8955 100.559) rotate(34.6304) scale(367.846 789.808)">
<stop stop-color="white" stop-opacity="0.6"/>
<stop offset="1" stop-color="white" stop-opacity="0.2"/>
</radialGradient>
<radialGradient id="paint4_radial_657_1856" cx="0" cy="0" r="1" gradientUnits="userSpaceOnUse" gradientTransform="translate(395.271 63.3269) rotate(48.4833) scale(128.206 292.174)">
<stop stop-color="white" stop-opacity="0.6"/>
<stop offset="1" stop-color="white" stop-opacity="0.2"/>
</radialGradient>
<radialGradient id="paint5_radial_657_1856" cx="0" cy="0" r="1" gradientUnits="userSpaceOnUse" gradientTransform="translate(537.777 286.898) rotate(47.5952) scale(235.463 538.38)">
<stop stop-color="white" stop-opacity="0.6"/>
<stop offset="1" stop-color="white" stop-opacity="0.2"/>
</radialGradient>
<radialGradient id="paint6_radial_657_1856" cx="0" cy="0" r="1" gradientUnits="userSpaceOnUse" gradientTransform="translate(508.102 409.611) rotate(30.165) scale(19.5757 39.051)">
<stop stop-color="white" stop-opacity="0.6"/>
<stop offset="1" stop-color="white" stop-opacity="0.2"/>
</radialGradient>
<radialGradient id="paint7_radial_657_1856" cx="0" cy="0" r="1" gradientUnits="userSpaceOnUse" gradientTransform="translate(422.186 355.899) rotate(44.7707) scale(178.934 410.798)">
<stop stop-color="white" stop-opacity="0.6"/>
<stop offset="1" stop-color="white" stop-opacity="0.2"/>
</radialGradient>
<radialGradient id="paint8_radial_657_1856" cx="0" cy="0" r="1" gradientUnits="userSpaceOnUse" gradientTransform="translate(499.867 157.632) rotate(53.092) scale(200.56 442.216)">
<stop stop-color="white" stop-opacity="0.6"/>
<stop offset="1" stop-color="white" stop-opacity="0.2"/>
</radialGradient>
<radialGradient id="paint9_radial_657_1856" cx="0" cy="0" r="1" gradientUnits="userSpaceOnUse" gradientTransform="translate(460.443 387.356) rotate(39.1398) scale(249.991 561.984)">
<stop stop-color="white" stop-opacity="0.6"/>
<stop offset="1" stop-color="white" stop-opacity="0.2"/>
</radialGradient>
<radialGradient id="paint10_radial_657_1856" cx="0" cy="0" r="1" gradientUnits="userSpaceOnUse" gradientTransform="translate(336.527 440.101) rotate(45.2576) scale(178.517 409.838)">
<stop stop-color="white" stop-opacity="0.6"/>
<stop offset="1" stop-color="white" stop-opacity="0.2"/>
</radialGradient>
<radialGradient id="paint11_radial_657_1856" cx="0" cy="0" r="1" gradientUnits="userSpaceOnUse" gradientTransform="translate(276.518 265.99) rotate(43.7916) scale(273.845 628.158)">
<stop stop-color="white" stop-opacity="0.6"/>
<stop offset="1" stop-color="white" stop-opacity="0.2"/>
</radialGradient>
<radialGradient id="paint12_radial_657_1856" cx="0" cy="0" r="1" gradientUnits="userSpaceOnUse" gradientTransform="translate(322.373 95.0286) rotate(43.8064) scale(310.116 711.374)">
<stop stop-color="white" stop-opacity="0.6"/>
<stop offset="1" stop-color="white" stop-opacity="0.2"/>
</radialGradient>
<radialGradient id="paint13_radial_657_1856" cx="0" cy="0" r="1" gradientUnits="userSpaceOnUse" gradientTransform="translate(548.061 186.774) rotate(55.6378) scale(171.261 366.399)">
<stop stop-color="white" stop-opacity="0.6"/>
<stop offset="1" stop-color="white" stop-opacity="0.2"/>
</radialGradient>
<radialGradient id="paint14_radial_657_1856" cx="0" cy="0" r="1" gradientUnits="userSpaceOnUse" gradientTransform="translate(398.051 538.145) rotate(35.0199) scale(138.564 299.017)">
<stop stop-color="white" stop-opacity="0.6"/>
<stop offset="1" stop-color="white" stop-opacity="0.2"/>
</radialGradient>
<radialGradient id="paint15_radial_657_1856" cx="0" cy="0" r="1" gradientUnits="userSpaceOnUse" gradientTransform="translate(567.444 505.697) rotate(35.3172) scale(83.0365 179.856)">
<stop stop-color="white" stop-opacity="0.6"/>
<stop offset="1" stop-color="white" stop-opacity="0.2"/>
</radialGradient>
<radialGradient id="paint16_radial_657_1856" cx="0" cy="0" r="1" gradientUnits="userSpaceOnUse" gradientTransform="translate(185.931 277.495) rotate(39.4911) scale(157.036 353.892)">
<stop stop-color="white" stop-opacity="0.6"/>
<stop offset="1" stop-color="white" stop-opacity="0.2"/>
</radialGradient>
<radialGradient id="paint17_radial_657_1856" cx="0" cy="0" r="1" gradientUnits="userSpaceOnUse" gradientTransform="translate(221.157 47.9375) rotate(48.3193) scale(154.919 353.29)">
<stop stop-color="white" stop-opacity="0.6"/>
<stop offset="1" stop-color="white" stop-opacity="0.2"/>
</radialGradient>
<radialGradient id="paint18_radial_657_1856" cx="0" cy="0" r="1" gradientUnits="userSpaceOnUse" gradientTransform="translate(423.41 487.37) rotate(33.5193) scale(187.419 396.199)">
<stop stop-color="white" stop-opacity="0.6"/>
<stop offset="1" stop-color="white" stop-opacity="0.2"/>
</radialGradient>
<radialGradient id="paint19_radial_657_1856" cx="0" cy="0" r="1" gradientUnits="userSpaceOnUse" gradientTransform="translate(465.35 228.245) rotate(58.7334) scale(166.776 339.737)">
<stop stop-color="white" stop-opacity="0.6"/>
<stop offset="1" stop-color="white" stop-opacity="0.2"/>
</radialGradient>
<clipPath id="clip0_657_1856">
<rect y="0.0566406" width="592" height="566" rx="2" fill="white"/>
</clipPath>
<clipPath id="clip1_657_1856">
<rect width="685.362" height="670" fill="white" transform="translate(61)"/>
</clipPath>
</defs>
</svg>
